<?xml version="1.0" encoding="UTF-8"?>
<svg enable-background="new -7 -241 584 582" version="1.1" viewBox="-7 -241 584 582" xml:space="preserve" xmlns="http://www.w3.org/2000/svg">
<style type="text/css">
	.st0{fill:#FFFFFF;stroke:#000000;stroke-miterlimit:10;}
	.st1{opacity:0.63;fill:#5C5E60;enable-background:new    ;}
	.st2{opacity:0.98;fill:#9D9FA1;enable-background:new    ;}
	.st3{opacity:0.65;fill:#5F6163;enable-background:new    ;}
	.st4{fill:#BCBEBF;}
	.st5{fill:#DCDDDE;}
	.st6{fill:#89898A;}
	.st7{fill:#060606;}
	.st8{fill:#0F0F0F;}
	.st9{fill:#C5C6C7;}
	.st10{fill:#090909;}
	.st11{fill:#0C0C0C;}
	.st12{fill:#B2B3B4;}
	.st13{fill:#BDBEBF;}
	.st14{fill:#858687;}
	.st15{fill:#AAACAE;}
	.st16{fill:#C5C6C8;}
	.st17{opacity:0.74;fill:#747678;enable-background:new    ;}
	.st18{opacity:0.5;fill:#4F5051;enable-background:new    ;}
	.st19{opacity:0.75;fill:#757779;enable-background:new    ;}
	.st20{fill:#0A0A0A;}
	.st21{opacity:0.77;fill:#7A7C7E;enable-background:new    ;}
	.st22{fill:#C2C3C4;}
	.st23{fill:#BFC0C1;}
	.st24{opacity:0.35;fill:#000D00;enable-background:new    ;}
	.st25{opacity:0.87;fill:#002200;enable-background:new    ;}
	.st26{opacity:0.97;fill:#033903;enable-background:new    ;}
	.st27{opacity:0.95;enable-background:new    ;}
	.st28{fill:#C6C7C9;}
	.st29{fill:#005300;}
	.st30{fill:#D2D3D5;}
	.st31{fill:#006D00;}
	.st32{fill:#008500;}
	.st33{opacity:0.97;fill:#898A8A;enable-background:new    ;}
	.st34{opacity:0.96;fill:#585858;enable-background:new    ;}
	.st35{fill:#009800;}
	.st36{opacity:0.98;fill:#B7B8B9;enable-background:new    ;}
	.st37{opacity:0.93;fill:#303031;enable-background:new    ;}
	.st38{opacity:0.35;enable-background:new    ;}
	.st39{fill:#0B0B0B;}
	.st40{opacity:0.43;enable-background:new    ;}
	.st41{fill:#C8C9CA;}
	.st42{opacity:0.93;fill:#575758;enable-background:new    ;}
	.st43{opacity:0.67;enable-background:new    ;}
	.st44{opacity:0.98;fill:#6E6E6F;enable-background:new    ;}
	.st45{opacity:0.75;enable-background:new    ;}
	.st46{opacity:7.000000e-002;enable-background:new    ;}
	.st47{opacity:0.58;enable-background:new    ;}
	.st48{opacity:0.98;fill:#4A4A4A;enable-background:new    ;}
	.st49{fill:#3A3A3A;}
	.st50{opacity:0.98;fill:#29292A;enable-background:new    ;}
	.st51{fill:#C2C3C5;}
	.st52{fill:#1C1C1C;}
	.st53{opacity:0.98;fill:#101010;enable-background:new    ;}
	.st54{opacity:0.97;fill:#070707;enable-background:new    ;}
	.st55{opacity:0.82;enable-background:new    ;}
	.st56{opacity:0.95;fill:#A1A2A4;enable-background:new    ;}
	.st57{fill:#D8D9DA;}
	.st58{opacity:5.000000e-002;enable-background:new    ;}
	.st59{opacity:0.42;fill:#001000;enable-background:new    ;}
	.st60{opacity:0.98;fill:#093D09;enable-background:new    ;}
	.st61{fill:#005500;}
	.st62{fill:#006F00;}
	.st63{fill:#008600;}
	.st64{fill:#009900;}
	.st65{fill:#C2C4C6;}
	.st66{fill:#C1C2C4;}
	.st67{opacity:4.000000e-002;enable-background:new    ;}
	.st68{opacity:0.62;enable-background:new    ;}
	.st69{opacity:0.47;enable-background:new    ;}
	.st70{opacity:0.66;enable-background:new    ;}
	.st71{fill:#C1C3C4;}
	.st72{fill:#000600;}
	.st73{fill:#A3A8A3;}
	.st74{fill:#CACACA;}
	.st75{opacity:0.55;fill:#001600;enable-background:new    ;}
	.st76{fill:#0C0D0D;}
	.st77{fill:#646864;}
	.st78{fill:#909590;}
	.st79{fill:#FDF8AA;}
	.st80{opacity:0.96;fill:#053905;enable-background:new    ;}
	.st81{fill:#363A36;}
	.st82{fill:#BDC3BD;}
	.st83{fill:#848584;}
	.st84{fill:#636F63;}
	.st85{fill:#939393;}
	.st86{fill:#009700;}
	.st87{fill:#FDF697;}
	.st88{fill:#C4C5C7;}
	.st89{fill:#414141;}
	.st90{fill:#004000;}
	.st91{fill:#FEF8B9;}
	.st92{fill:#B8BABC;}
	.st93{fill:#D47E4A;}
	.st94{fill:#4E854E;}
	.st95{fill:#FAF27C;}
	.st96{fill:#FEFACB;}
	.st97{fill:#BFC7A2;}
	.st98{fill:#FAF166;}
	.st99{opacity:0.61;fill:#979136;enable-background:new    ;}
	.st100{fill:#FBF0B9;}
	.st101{fill:#D47D4B;}
	.st102{fill:#FFC858;}
	.st103{fill:#000B00;}
	.st104{fill:#D1743C;}
	.st105{fill:#FBF276;}
	.st106{fill:#002B00;}
	.st107{fill:#0D0D0D;}
	.st108{fill:#A2A8A2;}
	.st109{fill:#FEF8D7;}
	.st110{fill:#353535;}
	.st111{fill:#C9C9C9;}
	.st112{fill:#FEF7A9;}
	.st113{fill:#FDF38B;}
	.st114{fill:#D17442;}
	.st115{fill:#607859;}
	.st116{fill:#D27840;}
	.st117{fill:#FCF48C;}
	.st118{fill:#FEFCF9;}
	.st119{fill:#005D00;}
	.st120{fill:#FECD66;}
	.st121{fill:#005F00;}
	.st122{fill:#D17545;}
	.st123{fill:#FCF5A0;}
	.st124{fill:#C1C3C5;}
	.st125{fill:#CBCDCE;}
	.st126{fill:#FEFAE5;}
	.st127{fill:#FFF9B8;}
	.st128{fill:#D27842;}
	.st129{fill:#001200;}
	.st130{fill:#269926;}
	.st131{fill:#ECEA75;}
	.st132{fill:#236A23;}
	.st133{fill:#363636;}
	.st134{opacity:0.65;fill:#606264;enable-background:new    ;}
	.st135{fill:#656865;}
	.st136{fill:#616161;}
	.st137{fill:#FEF8B4;}
	.st138{fill:#D37A4C;}
	.st139{fill:#365738;}
	.st140{fill:#9EA1A3;}
	.st141{fill:#FEFACD;}
	.st142{fill:#FECF73;}
	.st143{fill:#F2DB65;}
	.st144{fill:#BCC2BC;}
	.st145{fill:#D47D49;}
	.st146{fill:#FFFAB9;}
	.st147{fill:#003C00;}
	.st148{fill:#124912;}
	.st149{fill:#ECC38B;}
	.st150{fill:#000400;}
	.st151{fill:#697A6C;}
	.st152{fill:#004100;}
	.st153{fill:#1A661A;}
	.st154{fill:#F7D057;}
	.st155{fill:#FFF2CF;}
	.st156{fill:#718553;}
	.st157{fill:#040404;}
	.st158{fill:#CC6633;}
	.st159{fill:#D98C65;}
	.st160{fill:#E7B496;}
	.st161{fill:#F2D8C0;}
	.st162{fill:#969798;}
	.st163{fill:#758279;}
	.st164{opacity:0.25;fill:#242525;enable-background:new    ;}
	.st165{fill:#E5B196;}
	.st166{fill:#D98B64;}
	.st167{fill:#F2D8C3;}
	.st168{fill:#F2D7A2;}
	.st169{fill:#939793;}
	.st170{fill:#1E6D1E;}
	.st171{fill:#FBC54B;}
	.st172{fill:#F2D7A6;}
	.st173{fill:#007400;}
	.st174{fill:#3E993E;}
	.st175{fill:#EECBB5;}
	.st176{fill:#FBF9EA;}
	.st177{fill:#D2784B;}
	.st178{fill:#D37C4A;}
	.st179{fill:#FEBD41;}
	.st180{fill:#196719;}
	.st181{fill:#C0C1C3;}
	.st182{fill:#AAABAC;}
	.st183{fill:#696A6B;}
	.st184{fill:#D37A4E;}
	.st185{fill:#FFE09C;}
	.st186{fill:#C8CACB;}
	.st187{fill:#D27948;}
	.st188{fill:#D2774A;}
	.st189{fill:#D27748;}
	.st190{opacity:0.61;fill:#595B5D;enable-background:new    ;}
	.st191{fill:#7F8982;}
	.st192{fill:#D17648;}
	.st193{opacity:0.76;fill:#C2C2C2;enable-background:new    ;}
	.st194{opacity:0.36;fill:#5C5C5C;enable-background:new    ;}
	.st195{fill:#CECFD0;}
	.st196{fill:#6A6B6C;}
	.st197{fill:#245326;}
	.st198{fill:#C5C7C8;}
	.st199{opacity:0.64;fill:#001A00;enable-background:new    ;}
	.st200{fill:#005800;}
	.st201{fill:#3B3C3C;}
	.st202{fill:#CCCDCF;}
	.st203{fill:#BCBDBF;}
	.st204{opacity:0.25;enable-background:new    ;}
	.st205{opacity:0.97;enable-background:new    ;}
	.st206{fill:#C9CACC;}
	.st207{fill:#CDCED0;}
	.st208{fill:#D3D4D6;}
	.st209{fill:#D5D6D8;}
	.st210{opacity:0.46;enable-background:new    ;}
	.st211{opacity:0.49;enable-background:new    ;}
	.st212{opacity:0.5;enable-background:new    ;}
	.st213{opacity:0.24;enable-background:new    ;}
	.st214{opacity:0.73;enable-background:new    ;}
	.st215{opacity:0.93;enable-background:new    ;}
	.st216{opacity:0.62;fill:#001800;enable-background:new    ;}
	.st217{opacity:0.41;fill:#001000;enable-background:new    ;}
	.st218{opacity:0.96;enable-background:new    ;}
	.st219{opacity:0.52;enable-background:new    ;}
	.st220{opacity:0.51;enable-background:new    ;}
	.st221{opacity:0.44;enable-background:new    ;}
	.st222{opacity:0.5;fill:#4E4F50;enable-background:new    ;}
	.st223{opacity:0.26;fill:#282829;enable-background:new    ;}
	.st224{opacity:0.86;fill:#87898B;enable-background:new    ;}
	.st225{fill:#3F4040;}
	.st226{fill:#424343;}
	.st227{fill:#D7D8D9;}
	.st228{fill:#3D3E3E;}
	.st229{fill:#D5D6D7;}
	.st230{fill:#C3C5C6;}
	.st231{fill:#3C3D3D;}
	.st232{fill:#8B8C8E;}
	.st233{fill:#404141;}
	.st234{fill:#D4D6D7;}
	.st235{fill:#88898B;}
	.st236{fill:#323333;}
	.st237{fill:#C6C8C9;}
	.st238{fill:#C7C8CA;}
	.st239{fill:#999A9B;}
	.st240{fill:#343434;}
	.st241{fill:#494949;}
	.st242{fill:#232323;}
	.st243{fill:#DADBDC;}
	.st244{fill:#D1D2D3;}
	.st245{fill:#DBDCDD;}
	.st246{fill:#020202;}
	.st247{fill:#5A5B5B;}
	.st248{fill:#2A2A2A;}
	.st249{fill:#707071;}
	.st250{fill:#4C4C4D;}
	.st251{fill:#343535;}
	.st252{fill:#ACACAD;}
	.st253{fill:#383939;}
	.st254{fill:#4C4C4C;}
	.st255{fill:#464647;}
	.st256{fill:#313232;}
	.st257{fill:#9FA0A1;}
	.st258{fill:#272727;}
	.st259{opacity:0.64;fill:#5F6062;enable-background:new    ;}
	.st260{opacity:0.62;fill:#5D5E60;enable-background:new    ;}
</style>
	<circle class="st0" cx="281.9" cy="59.2" r="274.2"/>
		<path class="st1" d="m266-241h11.4c-3.8 0.8-7.6 1.1-11.4 1v-1z"/>
		<path class="st2" d="m277.4-241h17.2c3.4 0.7 6.9 1.1 10.4 1 19.3 0 38.3 4.4 57 9 51.4 13.7 98.7 42.1 135.7 80.3 41.5 44.2 70.1 101.1 77.5 161.6 0.6 3.5 0.3 7.3 1.8 10.6v57.1c-5.8 53.1-25.6 104.8-58.2 147.2-49.3 65.6-127.7 108.9-209.8 114.2-2.9 0-5.9-0.5-8.5 1h-29.1c-2.8-0.5-5.6-1-8.4-1-18.3 0.1-36.3-4.8-54-8.9-38.8-10.4-75.3-29.3-106.7-54.4-47.3-38-82.3-91.2-98.3-149.7-4.6-17.6-7.8-35.6-9.3-53.7 0-2.9 0.5-5.8-0.4-8.5-0.1-1.7-0.2-5-0.3-6.7v-16c0-1.9 0.1-3.9 0.2-5.8 0.4-2.8 0.7-5.6 0.6-8.4 5.7-84 50.7-164 119-212.9 44.2-32 97.6-52.2 152.2-54.9 3.8 0 7.6-0.3 11.4-1.1m-6 4.6c-63.4 2.9-125.4 27.8-173.5 69.2-60.9 51.9-98.3 130.3-99.9 210.2-1 48.8 10.2 97.8 33 141 13.3 24.3 29.1 47.6 49.2 66.8 44.1 46.2 104.7 75.5 167.8 84.2 64.1 8.1 131-5.1 186.4-38.6 23.5-14.5 45.6-31.6 63.9-52.2 46.1-49.3 73.2-115.8 75.7-183.2 2.2-65.5-18.2-131.7-58.2-183.8-56-75.1-150.9-119.4-244.4-113.6z"/>
		<path class="st3" d="m294.6-241h10.4v1c-3.5 0.1-7-0.3-10.4-1z"/>
		<path class="st4" d="m271.4-236.4c93.6-5.8 188.4 38.5 244.5 113.6 39.9 52.1 60.3 118.3 58.1 183.8-2.5 67.4-29.7 133.9-75.8 183.2-18.3 20.6-40.4 37.7-63.9 52.2-55.3 33.5-122.2 46.8-186.3 38.6-63.1-8.7-123.7-38-167.7-84.3-20.2-19.1-35.9-42.5-49.3-66.7-22.8-43.2-34-92.2-33-141 1.6-79.9 39-158.3 99.8-210.2 48.1-41.4 110.1-66.3 173.6-69.2m-24.5 7.2c-48.1 6.3-94.3 25.9-132.9 55.2-69 52-112.1 137.4-111 224-0.5 70.6 27 141.1 75.7 192.3 3.3 4.6 7.4 8.7 12 12.1 26.5 25.7 58.5 45.8 93 59.1 14.4 5.3 29.1 10.8 44.4 12.4v-1c5.3 6.3 15.7 7.9 22.8 4.1 0.1 0.5 0.2 1.5 0.2 2 2.5-1.6 11.6 4.5 11.1-1.1 5.4 5 14.6 4.1 21 1.3-1.3 3.6 4.3 1.5 6.8 1.9l0.7-0.4c3.8 0.5 7.5 0.3 11.3 0.3 5 0 9.9-1.3 15-1.1 0-0.5 0.1-1.5 0.1-2 0.9 1.3 2.5 1.1 4 1.1 3.6 0.1 7.3-0.3 10.9-1.2l-0.1-0.8c52.7-9.1 103.1-32.5 142.9-68.3 7-6.6 14.8-12.6 20.6-20.4 30.1-32.5 52-72.6 63.9-115.3 25.2-88.9 2.5-189.4-58.4-258.8-61.4-71.9-160.4-109.8-254-95.4z"/>
		<path class="st5" d="m246.9-229.2c93.6-14.4 192.6 23.5 253.8 95.4 60.9 69.4 83.6 169.9 58.4 258.8-11.9 42.7-33.7 82.7-63.9 115.3-5.8 7.9-13.5 13.8-20.6 20.4-39.8 35.8-90.2 59.2-142.9 68.3-0.5-3-1-5.9-0.7-8.9 4-1.6 9.4-0.9 12.2-4.9 1.4-2.1 1.9-4.8 1.4-7.2 4.9-2.3 10.1-3.9 15.4-5 76.8-22.2 142.6-80.6 171.7-155.3 1-2 1.3-4.5 3.5-5.4 2-0.8 3.5-2.4 4.9-4.1l1-0.1c-0.3 2-0.7 3.9-1 5.9 6.3 1.9 8.3-4.9 9.5-9.3 1.2-2.9-0.9-5.7-2.9-7.6-7.3-2.7-8.8 6-13.6 9-1.3-1.3-1.3-3.2-1.1-4.9 1.5-0.9 3.2-1.4 4.7-2.4 0.3-2 1.3-4.2 0.4-6.2 0.9-6.9 3.8-13.5 3.8-20.5 0.1-2.4 0.6-4.7 1-7 1.3-1.1 2.6-2.1 4.3-1.1-0.3 2.3-0.7 4.5-1 6.8 1.7 2.6 8.5 1.5 5.1-3.7 0.5-2.4 0-6.3 3.6-5.1 0.1 4-0.5 8-0.9 12 1.3 0 2.5 0 3.8-0.1 1.3-5.8 2.5-11.8 3.2-17.7-5.1-0.3-10-1.4-15-2.2-1.1-4.4 0.4-9 0.5-13.4 0.6-3.2-0.2-7.1 2.3-9.6 2.1-2.7 0.9-5.4-1.3-7.4-3.2-6.6 3.8-5.8 7.6-5.6 2.5-0.5 3.1 2.3 4 4-1.4 2.5-5.1 6.5-1.8 8.9 6.1-0.1 7.4-8.5 6-13-1.2-6.9-9.6-7.6-15.3-6.7-1.1-7.7-1.4-15.5-1.9-23.3 4.8-1.5 10.7-0.4 15-3.1 2.4-9.3-7.4-4.4-12-3.9 3-3.7 6.6-6.9 10.2-10-0.1-2-0.8-3.9-1.3-5.8-5 0.2-9.9 1.6-14.8 2.3-3.5-7-2.6-15.6-6.6-22.4-1.4-3.3-5.7-9.1-0.5-11 2.5 2.4 2.6 6.1 4.3 9 1.3-0.2 2.6-0.7 3.8-1.2-0.7-3-2.6-5.7-2.9-8.8-0.1-1.4 1.5-2.3 2.7-1.9 1.3 3.2 2.1 6.6 3.5 9.8 1.6 0.2 3.5 0.4 4.7-1-2.2-5.6-3.6-11.4-6-16.8-5.2 1.7-10.2 3.9-15.6 5.2-2.5-7.5-6.3-14.5-8.4-22.1 4.2-2.3 8.6-4.2 12.9-6.4 0.7-2.1-0.9-4-2-5.6-5.4 0.4-9.8 4.4-14.8 6.4-3.5-6.7-8.7-12.8-11-20 2.9-3.6-1.2-8.9-5.8-6.6-3.5-4.5 1.9-8.4 5.9-9.7 2.8-0.2 5.3 2.4 4.4 5.3-0.5 2.4 3.6 6.5 5.5 3.5 2.5-7.7-4.7-16.8-12.9-14.7-3.3 1.2-6.3 3.1-8.3 6-4.4-6.1-11-10.8-13.9-17.8 2.7-2.7 2.6-6.8 1-10.1 0.3-0.3 0.8-1 1-1.3 1.2 1.5 2.4 3 4 4.2 6.2-6.6-5.1-18.2-12.1-13.3-4.1 4.6 0.8 10.5 2.3 15.1-2.1 2.8-8-1-4.4-4.5 0.2-2.7-3.6-3.3-5.5-4.4-12.9-11.1-25.8-22.7-40.8-30.9-2.8-1.3 1-3.2 1.6-4.8-1.4-1.3-2.8-3.4-4.9-2.5-1.9 0.6-0.6-2.4-0.8-3.4 3.1 0.1 8.6-2.9 6-6.3-2-4.3-10-7.9-12.6-2.6 1.8 7.2-7.6 3-8.7 8.6-14.7-9.2-31.6-14.1-47.8-20 2.4-3.8-1.2-7.2-4.1-9.2 1.1-0.3 2.2-0.5 3.3-0.7 4.9 1.4 2.4-4.6 0.1-6.2-4.4-3.2-13.7-4.4-15.2 2.3-0.8 5.9 6.3 7.4 9.9 10.1 0.5 2.8-2.8 3.2-4.8 2.7-1.2-3.3-3.6-6.6-8-4.9 0 0.4-0.1 1.3-0.1 1.8-0.1 0.8-0.2 2.4-0.3 3.2-8.3-0.2-16.5-2.4-24.8-3.1-2.6-0.2-2-3.3-2.3-5.1 0.1-2.9 0.1-5.8 0.4-8.6 2.1-2.1 5.8-0.2 7.8-2.4 0-1.6 0.7-3.8-1.2-4.6-6.6-0.1-13.1-1.3-19.7-1.3-3 6.4 3.7 5.1 6.9 6.3-0.2 3.5-0.8 7-1.2 10.5-0.4 1.4-0.6 2.8-1 4.1-8.2-0.6-16.4-1.5-24.6-0.5-2-2.8-4.1-5.6-6.1-8.4 2.9-2.7 4.3-7.3 1.7-10.6-3.1-2.1-7.1-1.1-10.6-1.2-3.6-1.6-6-1.3-7 0.9-0.1 4-0.1 7.9 0 11.9-1.1 2.9-0.9 5.3 0.7 7.3l-0.1 1c-6.8 0.9-13.6 1.9-20.4 2.9-4.6-5.7-8.4-12-12.5-18.1-2.5 0.6-6.4 0.3-7.1 3.5-1.2 6.5-1.8 13.1-3 19.6-16.6 5.7-33.1 11.7-48.7 19.8-1.9 1-4 2.3-6.2 1.3-0.9-1.6-1.9-3.3-2.5-5 2.5-2.1 8.9-2.9 5.6-7.2-3.3-0.6-5.3 3.7-8.6 2.8-2.7-3.5 2.7-4.2 4.8-5.9 3.5 0.2 2.2-6.4-0.7-4.6-4.5 2-8.9 4.2-13.1 6.9 2.8 5.7 6.1 11.1 8.9 16.7-0.8 1.2-1.4 2.7-2.8 3.4-5.5 3.5-11 7-16.4 10.6-0.7-0.6-1.3-1.3-1.7-2.2-1.3-5.9-6.7-12-13.3-10.8-5.2 2-11.3 6.5-10 13 0.3 3.8 4.1 6.2 6.3 9-12.7 12.3-26.4 24-36.4 38.7-1.5 2.8-3.4 5.4-5.2 7.9-1.3-0.4-2.5-1.1-3.6-1.8 1.5-3.2 3.9-5.8 5.8-8.8-1-1-2-2.3-3.6-2.2-1.9 2.6-3.8 5.2-5.6 7.8-0.9-0.6-1.7-1.3-2.5-1.9 1.4-3.3 4-5.9 5.8-8.9-0.5-1.5-2.5-2-3.7-2.9-3.2 5-7.1 9.5-10 14.6 4.1 3 8.3 6 12.3 9.1-2.9 6.6-7.3 12.5-11 18.8l-1.6 0.8c-1.9-0.9-3.5-2.6-5.8-2.4-1.4 2.9-3.6 5.6-4.1 8.8 3.5 5.5 9.2-9.7 6.9 3.1-2.5 6.3-14.6 1-11.8-5.7 2.9-2.1 5.8-4.3 5.9-8.3-5.8-1.9-8.7 4.1-10.7 8.3-3.5 6.9 3.1 13.9 9.7 14.8-0.5 8.1-6 15-8 22.8-1.4 3.6-0.3 11-6.1 9-0.2-3.8 2.3-7.1 2.1-11-5.6-1.6-5.3 5.4-6.3 9-1.2-0.2-2.3-0.7-3.4-1.1 0.9-3.6 2-7.1 2.7-10.7-1.3-0.3-2.5-0.7-3.8-0.9-2 5.4-4.1 10.9-5.1 16.6 5.1 2.2 10.8 3.2 15.9 5.4-1.3 7.2-1.6 15.6-5.8 21.8-2.3 2.4 0.1 6.6-2.4 8.9-5.3 0.4-10.5-0.9-15.7-1.8-0.4 2.2-0.7 4.4-1 6.7 4.9 0.8 9.8 1.4 14.7 2.3-0.9 10.6-2 21.2-1.9 31.9-5 0.2-9.9-0.2-14.9 0.1 0 0.8-0.1 2.3-0.1 3v3.9l0.1 1h10.9 4c0.9 7.2 1.6 14.5 1.9 21.7-1 0.3-2.1 0.6-3.1 0.9-7.9 0.3-14 8.3-10.5 15.4 2.1 7.4 10.8 8.4 17.1 5.7 1.3 7.3 5.8 14.8 4.3 22.2-1.5 3.5-1 5.4 1.6 5.9 3.1 0.1 5.1 3 4.2 5.9-3 1.6-7.7 5.1-10.8 1.9-2.9-2.3 1.2-6.2-1.1-8.9-0.5-2.5-3.6-2.5-4.1 0-5.5 8.3 4.9 21.1 14 15.6 1.8 2.6 2.8 5.6 4 8.4 13.8 32.4 34.2 62 59.3 86.7 18.4 16.4 38 31.7 60 43 19.1 10.5 39.7 17.9 60.6 23.5 2.1 0.6 4.2 0.8 6.4 0.9-0.8 5.8-2.5 12.1-0.1 17.7v1c-15.4-1.6-30-7.1-44.4-12.4-34.5-13.3-66.5-33.4-93-59.1-4.6-3.4-8.7-7.4-12-12.1-48.8-50.9-76.4-121.4-75.8-192-1-86.6 42-172 111-224 38.6-29.3 84.8-48.9 132.9-55.2z"/>
		<path class="st6" d="m258.1-225c1-2.2 3.3-2.5 7-0.9-2 1.5-4.3 1.8-7 0.9z"/>
		<path class="st7" d="m265.1-225.9c3.5 0.1 7.5-0.9 10.6 1.2 2.6 3.4 1.2 7.9-1.7 10.6 2 2.8 4.1 5.6 6.1 8.4-2.7 0.3-5.3 0.8-7.9 0.5-2.2-2.7-3.2-7.5-7.2-8.1-0.3 3.1 0.1 6.2 0.6 9.3-2.4 0.3-4.7 0-6.9-0.9l0.1-1c1.4-3 1.1-5.5-0.7-7.3-0.1-4-0.1-7.9 0-11.9 2.7 1 5 0.7 7-0.8m1.2 4.2c-3 0.2-1.5 2.7-1.1 4.6 2 0.4 3.9-0.3 5.7-1.1 0.3-2.2-2.4-4.7-4.6-3.5z"/>
		<path class="st7" d="m121-170.9c6.6-1.2 12 4.9 13.3 10.8 0.3 5.5-4.4 9-8.3 12-2.9 0-5.9 0.1-8.7-0.8-2.2-2.9-6-5.2-6.3-9-1.3-6.6 4.8-11.1 10-13m-1.7 6.1c-4 2.3-1.9 7.3 0.9 9.6 2.5 3.6 9 0.4 7.8-3.7-1.3-3.5-4.3-7.9-8.7-5.9z"/>
		<path class="st8" d="m300-226c6.6 0 13.1 1.2 19.7 1.3 2 0.7 1.3 2.9 1.2 4.6-2 2.2-5.7 0.3-7.8 2.4-0.3 2.9-0.3 5.8-0.4 8.6 0.6 5.1-1.6 6.8-6.6 5.2-0.2-1.7-0.3-3.5-0.4-5.2 0.4-3.5 1-7 1.2-10.5-3.2-1.3-9.9 0-6.9-6.4z"/>
		<path class="st9" d="m266.3-221.7c2.2-1.2 4.9 1.3 4.6 3.5-1.8 0.8-3.7 1.5-5.7 1.1-0.4-1.9-1.9-4.4 1.1-4.6z"/>
		<path class="st10" d="m218.7-216.3c0.7-3.2 4.6-2.9 7.1-3.5 4.1 6 7.9 12.4 12.5 18.1-1.8 1.6-6 3.9-7.4 0.8-1.7-2.2-5.4-0.1-7.7 0.2-1.1 3.2-4.1 6.3-7.6 4.1 1.2-6.7 1.8-13.3 3.1-19.7m4.4 3.2v7.1c1.3 0.1 2.7 0.1 4 0 0.1-2.9-2-5.4-4-7.1z"/>
		<path class="st10" d="m38.3-73.6c2-4.2 4.9-10.3 10.7-8.3-0.1 3.9-3 6.2-5.9 8.3-2.8 6.7 9.3 12 11.8 5.7 2.3-12.8-3.4 2.4-6.9-3.1 0.5-3.2 2.7-6 4.1-8.8 2.2-0.2 3.9 1.5 5.8 2.4 3.4 1.1 3.7 4.1 2.9 7.5-1.5 3.1-2.9 6.2-4.8 9.1-2.4 1.6-5.1 2.3-8 2.3-6.5-1.3-13.2-8.2-9.7-15.1z"/>
		<path class="st10" d="m12.8 96.1c-3.5-7.1 2.6-15.1 10-15.5 3 0.1 6 0.8 8.5 2.6 1.1 1.8 2.2 3.7 3 5.6 0 1.8-0.1 5.5-0.1 7.3v1.5c-1.5 1.4-2.9 2.8-4.2 4.3-6.5 2.6-15.1 1.6-17.2-5.8m10.5-8.7c-1.9 0.6-4.6 0.2-5.4 2.6-3 3.7 2.7 8.9 6.4 6.5 1.4-0.9 4.5-0.6 4.6-2.5 2.9-4.9-2.4-6.7-5.6-6.6z"/>
		<path class="st11" d="m343-213.9c1.5-6.7 10.8-5.6 15.2-2.3 2.3 1.6 4.8 7.6-0.1 6.2-3.1-1-5.7-6.9-9.1-3.8 1.1 2.3 3.8 3.3 5.8 4.6 2.9 2 6.5 5.5 4.1 9.2-1.6 3.3-5.4 4.3-8.8 3.8-4.5-0.9-9.2-2.8-10-7.9 0-0.5 0.1-1.4 0.1-1.8 4.4-1.6 6.8 1.7 8 4.9 2 0.5 5.3 0.1 4.8-2.7-3.7-2.8-10.7-4.4-10-10.2z"/>
		<path class="st11" d="m517-69.6c5-1.9 9.4-5.9 14.8-6.4 1.1 1.6 2.7 3.5 2 5.6-4.3 2.2-8.7 4.1-12.9 6.4-1.9 0.9-3.8 2-5.8 2.8-0.9-1.5-2.1-3-2.1-4.9-0.5-2.3 2.6-2.4 4-3.5z"/>
		<path class="st11" d="m546.9 41.2c5.7-0.9 14.2-0.2 15.3 6.7 1.4 4.5 0.1 12.9-6 13-3.3-2.4 0.4-6.4 1.8-8.9-0.9-1.7-1.5-4.6-4-4-3.9-0.2-10.8-1-7.6 5.6 2.2 2 3.5 4.7 1.3 7.4-3.4 0.2-5.9-2.1-6.8-5.1 0-2.6 0-5.1-0.1-7.7 0.6-3.3 3.9-4.8 6.1-7z"/>
		<path class="st12" d="m349-213.9c3.4-3.1 6 2.8 9.1 3.8-1.1 0.2-2.2 0.5-3.3 0.7-2-1.2-4.7-2.2-5.8-4.5z"/>
		<path class="st13" d="m223.1-213.1c2 1.7 4.2 4.3 4 7.1-1.3 0.1-2.7 0.1-4 0-0.1-1.8-0.1-5.4 0-7.1z"/>
		<path class="st14" d="m258.1-213.1c1.9 1.9 2.1 4.3 0.7 7.3-1.6-2-1.9-4.4-0.7-7.3z"/>
		<path class="st15" d="m265-213.2c4 0.5 5 5.4 7.2 8.1 2.7 0.3 5.2-0.3 7.9-0.5 8.2-1 16.4 0 24.6 0.5 0.3-1.4 0.6-2.8 1-4.1 0.1 1.7 0.2 3.5 0.4 5.2 5 1.6 7.2-0.1 6.6-5.2 0.3 1.8-0.2 4.9 2.3 5.1 8.3 0.7 16.5 2.8 24.8 3.1 0.1-0.8 0.2-2.4 0.3-3.2 0.8 5.1 5.5 7 10 7.9-0.3 0.3-0.9 0.8-1.1 1 19.1 5.4 37.8 12.4 55.3 21.9 1.5 0.9 3.1 1.5 4.8 0.8 4.3 2.3 10.3 2.2 12.9 6.8-0.2 0.4-0.6 1.3-0.8 1.7 15.9 9.7 29.8 22 43.7 34.2 0.3-0.3 0.9-0.8 1.3-1.1 1.9 3 4.1 5.8 6.9 7.9-0.5 0.1-1.6 0.2-2.2 0.2 7.9 8.5 14.9 17.8 22 27 0.4-0.3 1-0.8 1.4-1.1 1.1 1.9 2.3 3.9 3.5 5.8-1.2 1.3-0.1 2.7 0.6 3.9 5.7 8.8 10.6 18.1 15.6 27.3 4.3 7.8 6.4 16.5 10.8 24.2 0.1-0.6 0.3-1.8 0.3-2.4 2.1 5.1 3.6 10.5 5.8 15.6-0.4 0.2-1.2 0.7-1.6 0.9 2.1 7.9 3.5 16.2 6.5 23.7 2.5 4.3 8.7 0.2 12.3 1.2-3.8 3.9-11.4 7-9.6 13.6-1.1 10.3 0.9 20.5 0.5 30.8 0.4 0.1 1.2 0.4 1.6 0.5 0 2.6 0.1 5.1 0.1 7.7-0.4 0.1-1.3 0.4-1.7 0.5 0.9 11-3.2 22.1-1.5 32.9-0.1 3.3-0.1 6.9-2 9.7-3.4 8.6-4.8 18-7.7 26.9 0.5 0 1.3 0.1 1.8 0.2-1.3 2.9-3 5.7-2.9 9-2.5-2-3.7 1.9-4.3 3.7-16.4 45.3-47.3 84.5-85.6 113.4-29.3 21.5-63.1 37-98.7 44.3-2.3 0.3-4.1 1.6-5.4 3.5-4.9 1.6-10.3 1.1-15.1 2.8-0.9 0.3-1.7 0.7-2.5 1.1-1-0.4-2-0.7-2.9-1-0.2-0.4-0.6-1.2-0.7-1.6-21.4 0.5-43 0.4-64.3-2.5-19-3.4-37.7-8.2-55.6-15.4-52.1-20.7-96.8-59.6-124.5-108.3-33.5-57.6-42.2-128.9-24.2-192.9-1.3-0.5-2.7-0.5-4-0.8 2.4-1.7 2.5-4.9 3.7-7.3 0.3 0.2 0.9 0.7 1.2 0.9 4-12.2 9.2-23.9 14-35.8-0.4 0-1.4-0.1-1.8-0.2 1.8-2.9 3.3-6 4.8-9.1 0.1 0.6 0.3 1.8 0.4 2.3 5.6-8.1 10.5-16.7 15.8-25-0.3-0.3-0.8-0.8-1-1.1 2.9-4 4.9-9.1 9.1-11.9 3.5-1.1 5-5.1 7.6-7.4 9.1-11.8 20-22 31.5-31.5 0.1-0.6 4.2-2.9 1.8-3.3 3.9-3.1 8.6-6.5 8.3-12 0.4 0.9 0.9 1.6 1.7 2.2 5.4-3.6 10.9-7.1 16.4-10.6 1.4-0.7 2-2.2 2.8-3.4 1.6 3.7 4.5 0.2 6.6-1.2-0.3-0.8-0.6-1.7-1-2.5 2.2 1 4.3-0.3 6.2-1.3 15.6-8.1 32.1-14 48.7-19.8 3.5 2.3 6.5-0.9 7.6-4.1 2.3-0.3 6-2.4 7.7-0.2 1.4 3 5.6 0.8 7.4-0.8 6.8-1 13.6-2 20.4-2.9 2.2 0.8 4.5 1.1 6.9 0.9-0.6-3.1-1-6.2-0.7-9.4m9.2 17.1c-26.6 1.3-53.1 6.5-77.9 16.4-33 12.4-62.6 32.8-87.6 57.4-11.4 13-23.4 26-31.8 41.2-3 2.2-3.6 6.3-6 8.9-17.8 31.4-28.8 66.5-31.9 102.3-1.9 1-1.3 4.9-0.6 6.8-0.8 10.3-0.3 20.7-0.4 31.1h1c-0.1 1.4 0.1 2.7 0.5 4-0.9 1.8-1.7 6 0.5 6.9 0.5 16 5.9 31.3 9.5 46.8 12.1 34.3 30.2 66.9 55.5 93.3 4.3 5 9 10.5 14.7 13.6 1.6 3.4 5.4 5.2 8 7.8 39.6 32.9 89.6 52.7 140.9 56.3 1.8 0.2 3.7 0.7 5.4-0.1 2.1 0.9 4.8 1.2 6.9 0.1 3.3 0.7 6.8 0.5 10.2 0 2.1 0.8 4.7 0.8 6.8 0 2.4 0 7.2 1.5 8.1-0.6 45.6-4 90.4-20.2 127.2-47.8 4.2-1.1 7.2-4.8 10.9-7.1 29.1-26.4 55-57.5 69.8-94.2 1.5-4.1 4-7.9 4.4-12.3l0.6 0.3c3.9-11.1 7.3-22.4 9.3-34 2 0.7 0.3-2.7 0.4-3.7 3.8-12.3 4.6-25.4 4.4-38.3h1c0.2-6 0-12 0-18h-1c-0.1-1.7 0.2-3.5-0.5-5.1 0.5-1.9 1.3-5.5-0.4-6.7-2.8-38.7-15.7-76.3-36.1-109.2-12.5-21.2-29.6-38.9-47.3-55.6-11.3-9.1-22.7-18.6-35.6-25.3-2.1-2.3-5.6-3.2-8.1-5-27.8-15.2-58.5-25.1-90-28.8l0.1-1.1c-3.1-0.2-6.2 0-9.3 0.2-2.6-0.3-5.3-0.4-7.9-0.3-1-1.9-4.9-1.3-6.8-0.6-3.3-0.6-6.9-0.6-10.2 0-1.9-0.8-5.7-1.4-6.7 0.4z"/>
		<path class="st16" d="m350.2-196.3c3.4 0.5 7.1-0.6 8.8-3.8 16.1 6 33 10.9 47.8 20-0.6 2.7 0.8 5.4 2.4 7.5-1.7 0.7-3.3 0.1-4.8-0.8-17.4-9.6-36.2-16.5-55.3-21.9 0.2-0.2 0.8-0.7 1.1-1z"/>
		<path class="st16" d="m117.3-148.9c2.8 0.9 5.8 0.8 8.7 0.8 2.4 0.4-1.7 2.8-1.8 3.3-11.5 9.5-22.4 19.7-31.5 31.5-2.6 2.3-4.1 6.3-7.6 7.4 2.5-2.9-1.5-5.5-4.2-4.3 10-14.7 23.7-26.4 36.4-38.7z"/>
		<path class="st17" d="m274.2-196.1c1-1.9 4.9-1.3 6.7-0.6v0.6c-1.7 0.1-5.1 0-6.7 0z"/>
		<path class="st18" d="m280.9-196.6c3.3-0.6 6.9-0.6 10.2 0v0.6h-10.3l0.1-0.6z"/>
		<path class="st19" d="m291.1-196.6c1.9-0.7 5.7-1.3 6.8 0.6h-6.7l-0.1-0.6z"/>
		<path class="st20" d="m159.3-195.6c2.9-1.8 4.1 4.8 0.7 4.6-2.1 1.8-7.5 2.4-4.8 5.9 3.3 0.8 5.3-3.4 8.6-2.8 3.4 4.3-3 5.1-5.6 7.2 0.7 1.8 1.6 3.4 2.5 5 0.4 0.8 0.7 1.6 1 2.5-2.2 1.3-5 4.9-6.6 1.2-2.8-5.6-6.1-11-8.9-16.7 4.2-2.7 8.6-4.9 13.1-6.9z"/>
		<path class="st20" d="m415.4-188.7c2.7-5.3 10.6-1.6 12.6 2.6 2.7 3.5-2.9 6.5-6 6.3 0.2 1-1 4 0.8 3.4 2.2-0.9 3.5 1.2 4.9 2.5-0.6 1.7-4.4 3.6-1.6 4.8-0.1 2.2-2.6 2.4-4.2 3.2-2.7-4.5-8.6-4.5-12.9-6.8-1.6-2.1-2.9-4.8-2.4-7.5 1.2-5.4 10.6-1.3 8.8-8.5m4.6 1.7c-0.1 1.3-0.1 2.7 0 4.1 1.6-0.6 4.6-0.6 4-3.1 0.4-2.1-2.8-0.6-4-1m-5.8 7.2c-4.3 2 0 7.4 3.7 5.8-1.2-1.8-0.8-6.5-3.7-5.8z"/>
		<path class="st20" d="m503-111.9c8.2-2.1 15.4 7.1 12.9 14.7-1.9 3.1-6-1.1-5.5-3.5 1-2.8-1.5-5.5-4.4-5.3-3.9 1.3-9.4 5.2-5.9 9.7 4.6-2.2 8.7 3.1 5.8 6.6-2.8-0.5-5.5-0.9-8.2-1.6-1.2-1.9-2.4-3.8-3.5-5.8-2-2.9-1.2-6.1 0.4-8.9 2.1-2.9 5.1-4.8 8.4-5.9z"/>
		<path class="st20" d="m542-2.6c4.9-0.7 9.8-2.1 14.8-2.3 0.5 1.9 1.2 3.8 1.3 5.8-3.6 3.1-7.2 6.3-10.2 10 4.6-0.5 14.5-5.4 12 3.9-4.3 2.7-10.2 1.7-15 3.1-2.1-0.5-6.3 2.3-6.3-1.1-1.8-6.6 5.8-9.7 9.6-13.6-3.7-1-9.9 3.1-12.3-1.2-0.7-4 1.7-5.4 6.1-4.6z"/>
		<path class="st20" d="m34.8 124.1c2.2-0.1 4.2 0.3 6.2 0.9 2.5 3.5 4.6 7.3 4.3 11.8-0.5 1.4-0.9 2.7-1.4 4.1-1.3 1-2.6 1.9-4 2.8-0.5 0.2-1.5 0.7-2 0.9-9.1 5.5-19.5-7.3-14-15.6 0.5-2.6 3.6-2.5 4.1 0 2.3 2.6-1.8 6.6 1.1 8.9 3.1 3.2 7.8-0.3 10.8-1.9 0.8-3-1.1-5.8-4.2-5.9-0.3-2.1-0.5-4.1-0.9-6z"/>
		<path class="st21" d="m305.8-195.8c3.1-0.2 6.2-0.4 9.3-0.2l-0.1 1.1c-3.1-0.1-6.2-0.5-9.2-0.9z"/>
		<path class="st22" d="m420-187c1.2 0.4 4.4-1.1 4 1 0.7 2.5-2.3 2.5-4 3.1v-4.1z"/>
		<path class="st23" d="m414.2-179.8c2.9-0.7 2.5 4 3.7 5.8-3.7 1.6-7.9-3.8-3.7-5.8z"/>
		<path class="st23" d="m541.9 95.1c-0.3-2.6 1.2-4.9 4.1-4.1 2.1-0.5 0.1 2 0.2 3-1.6-1.1-3 0-4.3 1.1z"/>
		<path class="st24" d="m342.6-172.1c-2.6-3.8 4.9-0.8 6.6-1.3-1.6 0.4-4.9 1-6.6 1.3z"/>
		<path class="st25" d="m342.6-172.1c1.6-0.3 4.9-0.9 6.6-1.3 2.7 0.3 5.3 0.7 8 1-4.2 0.6-10.1-1.4-12.5 3.3-0.7-0.9-1.4-1.9-2.1-3z"/>
		<path class="st26" d="m344.7-169c2.4-4.7 8.3-2.7 12.5-3.3 19 1.6 37.5 6.2 55.9 11.3 12.9 6.7 24.3 16.2 35.6 25.3 17.7 16.8 34.8 34.5 47.3 55.6 20.4 32.9 33.3 70.5 36.2 109.2l-0.6 3.9c-2.8-25.3-8.2-50.4-17.8-74-16.4-39-41.7-75.2-75.8-101-14.5-12.9-33-20.1-51.9-23.3-8.6-1.6-17.3-3.3-26-2.6-2.4 0.7-6.1 2.6-4.8 5.6 2.3 6.9 7.7 12.2 12.4 17.6 10.4 9.6 21.3 18.6 30.9 29 11 13.1 17.6 29.2 24.4 44.7 3.1 10.3 8.3 21.3 5.3 32.2-0.3-2.9-0.3-5.7-1-8.5-4.8-22.2-14.3-43.4-26.7-62.4-11.2-11.8-23-23-35.4-33.6-8.2-7.3-14.5-16.5-20.5-25.7z"/>
		<path class="st27" d="m282.9-168.1c4.6-3.1 9.8-0.6 13.9 2.3 8 7.3 13.2 16.9 17.4 26.7 9.1-4.1 18.6-10.1 28.9-10.9h6.7c4.1-0.4 8 3.2 8.2 7.2v6.7c-2 10.7-9.3 19.1-15 28 9.1 6.3 18.4 13.8 22.9 24.3 2.7 7.6-4.9 14.2-12 14-5.3 0-10.7-0.1-16 0-1.6 0-3.2-0.1-4.8-0.5-1.1-0.3-2.1-0.5-3.2-0.6 0.1 3.9 0.1 7.9 0.1 11.9-0.2 7.4-1.8 15.5-6.7 21.3-4.7 5.4-13 1.8-17.1-2.4-6.4-7-11.4-15.1-15.4-23.7-7.8 2.6-15.1 7.9-23.6 9.1-5.7 1.4-12.8 1.4-16.8-3.5-1.4-4.1-2-8.7-0.2-12.7 3-9.7 9.2-17.8 14.9-26.1-6.3-5.7-14.9-9.7-20-17-3.4-4.5-7.8-9.5-6.6-15.7 0.7-5.8 7.4-8.4 12.6-8.4 5.3 0 10.7 0.1 16 0 1.7 0 5.2 0 6.9-0.1 0.5-10.1 0.4-22.6 8.9-29.9m2.4 8.4c-1.1 0.5-2.3 0.9-3 2-4 5.9-6 13.3-5.3 20.5 3.6 2.5 8.7 1.6 12.8 3.4 4.3 0.6 9.6 6.3 13.5 2.2 1.9-2.4 8.3-3.1 6.4-7.1-4.1-6.2-7.1-13.2-12.9-18.1-3.3-2.3-7.2-4.5-11.5-2.9m50 15.2c-6.9 1.3-13.3 4.2-19.4 7.7 1.3 5.4 3.9 10.3 5.4 15.6 5.9 3.3 11.9 6.4 17.5 10.2 6.1-7.9 12.1-17.2 11.9-27.6-2.2-6.2-9.5-7.9-15.4-5.9m-75.3 11.5c-6.5-0.4-15.8 3.7-13.6 11.7 2.6 9.1 11 15.2 17.9 21 1.1 0.4 2.1 1.8 3.4 1.1 2.3-3.9 5.9-6.6 9-9.9-1.4-7.5-2.3-15-2.9-22.6-1.1-2.1-3.9-1-5.8-1.3v-0.9c-2.4 0.4-7.2-1.3-8 0.9m50.3-0.7c-2.1 1.4-5 2.4-6.4 4.6 3.9 1.9 7.9 3.7 12 5.2-1.2-3.4-2.6-6.7-4.1-10-0.4 0-1.2 0.1-1.5 0.2m-34.3 11.7h1c-0.3 3.8 1.5 7.3 1.2 11.1l2.7-2.4c0.4 0.4 1.1 1.1 1.5 1.4-1.5 1.6-4.1 3.1-3.1 5.8 1.8 5.6 2 12.2 4.6 17.4 7.1 3.4 14.4 7.5 22.2 8.7 6.5-3.1 11.1-9.1 16.9-13.2 0.5-8.5-2.8-16.6-5-24.6-5.9-3.3-12.4-5.9-18.9-8.1-4.6 2.9-8.8 6.6-12.8 10.2-0.4-0.3-1-1-1.4-1.3 3.9-2.8 7.1-6.4 11.2-9.1 0-1.8-2.5-1.7-3.8-2.1-5-1.5-10-2.8-15.1-3.8-0.4 2.5-0.9 7.5-1.2 10m48 7.9c0.2 5.5 2.6 10.7 3.2 16.1 3.4-2.7 6.3-6.1 8.6-9.7-3.9-2.1-7.4-5.2-11.8-6.4m-47.8 8.4c-2.8 2.5-5.1 5.4-7.1 8.5 3.9 2.7 8 4.8 12 7.2-0.3-3.4-2-6.4-2.4-9.7-0.7-1.8-0.1-6.3-2.5-6m63.1 1.9c-3.7 3.5-7.3 7.3-10.9 10.9 2.3 6.3 0.3 13.9 2.8 19.8 8 0.3 16.9 1.2 23.6-4 1.5-2.2 2.8-5.4 1.3-8-2.9-7.9-9.3-15.7-16.8-18.7m-72.1 9c-5.4 5.8-8.8 13.3-11.1 20.9-0.4 2.9-0.4 6.1 1.1 8.8 9.3 7.4 21.2 0.8 30.7-3.1-0.5-6.8-5.1-12.7-6.1-19.5-5.2-1.7-9.5-5.9-14.6-7.1m56.6 6.9c-4.1 2.8-7.8 6.1-11.7 9.1v1.6c4.3 1.1 8.6 2.1 12.9 3.1-0.4-4.5 1.4-10-1.2-13.8m-39.7 1.8c1.8 5.4 4.3 10.6 6.1 16 4.5-1.5 8.4-5 12.7-7v-1.6c-6.6-1.6-12.5-5.1-18.8-7.4m8.9 20.3c0.3 3 2.8 5.2 4.1 7.8 4 6.1 9.1 13 16.9 14 9-2.6 10.8-13.2 11.1-21.1 1.8-0.8 1.8-6-0.1-6.6-5.3-1.3-10.6-3-16-4.3-5.2 3.5-10.5 7-16 10.2z"/>
		<path class="st27" d="m262.2 154.1 4.9-0.1c-4.4 16.8-9.8 33.2-13.9 50.1-0.3 2.7-3 5.1-6.2 2.9 4.2-13.9 7.8-28.1 11.9-42 1.5-3.5 0.9-7.9 3.3-10.9z"/>
		<path class="st28" d="m426.2-169c15 8.2 27.9 19.8 40.8 30.9-0.7 2.3-1.1 4.7-0.8 7-0.3 0.3-0.9 0.8-1.3 1.1-14-12.1-27.9-24.5-43.7-34.2 0.2-0.4 0.6-1.3 0.8-1.7 1.6-0.6 4.1-0.9 4.2-3.1z"/>
		<path class="st29" d="m355.3-162.3c-1.4-3 2.4-4.9 4.8-5.6 8.8-0.6 17.5 1.1 26 2.6 18.9 3.2 37.4 10.4 51.9 23.3 34.1 25.8 59.3 62 75.8 101.2 9.6 23.6 15 48.7 17.8 74v0.8c-1.4 8.6 1.5 17.1 0.1 25.7-0.4 10.8-2.1 21.5-4 32.1-0.1 1.5-0.4 4.5-0.5 6-3.9 14.9-7.3 30.8-17.5 43-11.3 14.7-28 24.5-45.4 30.7-20.2 7.3-43 3.8-61.7-6.1-11.9-6.9-20.8-17.6-27.7-29.4-17.2-25.1-22.2-56.2-23.9-86-2.1-23 9.1-44.5 23.3-61.8 11.9-12.6 29.1-17.1 45.1-21.9 3.2-1.1 7.4-1.8 9-5.1 3-10.9-2.2-21.9-5.3-32.2-6.8-15.5-13.4-31.6-24.4-44.7-9.6-10.4-20.5-19.5-30.9-29-4.8-5.4-10.2-10.7-12.5-17.6m12-2.3c-4.4 0.1-7.2 4.9-4.3 8.6 12.2 19.6 34.9 30.4 45.9 51 6.2 9.4 10 20 14.9 30.1 3.1 10.1 8.3 20 7.2 30.9 1.2 5-2.6 9.4-7 11-8.8 3.7-18.3 5.1-27 9.1-17.4 6.7-29.8 22.2-37 39-7.2 14.2-8.6 30.5-6.3 46.1 1.5 13.5 4.1 26.8 7.2 40 6 19.1 16.3 36.6 29.2 51.7 8.1 7.6 18 13.2 28.5 16.7 9.9 4.2 20.8 2.1 31.3 2.5 18.1-1.7 34.6-11.1 48.3-22.7 11.1-9.8 19-23 22.7-37.3 3.9-14.7 7.1-29.8 8-45 2.8-49.5-8.6-100.4-35.5-142.4-18.1-31.7-44.5-58.4-75.4-77.6-15.9-6.9-33.2-12.9-50.7-11.7z"/>
		<path class="st29" d="m485-23h1c-0.2 2.5-0.7 7.5-1 10v-10z"/>
		<path class="st30" d="m119.3-164.8c4.5-1.9 7.4 2.5 8.7 5.9 1.2 4.1-5.3 7.3-7.8 3.7-2.9-2.3-5-7.4-0.9-9.6z"/>
		<path class="st31" d="m367.3-164.6c17.5-1.2 34.8 4.8 50.7 11.6 30.9 19.3 57.4 45.9 75.4 77.6 26.9 42 38.3 92.9 35.5 142.4-0.8 15.2-4.1 30.3-8 45-3.7 14.3-11.6 27.5-22.7 37.3-13.6 11.6-30.2 21-48.3 22.7-10.4-0.4-21.3 1.7-31.3-2.5-10.6-3.5-20.4-9.1-28.5-16.7-12.8-15.2-23.1-32.7-29.1-51.8-3.1-13.2-5.7-26.5-7.2-40-2.3-15.5-0.9-31.9 6.3-46.1 7.2-16.8 19.5-32.3 37-39 8.7-3.9 18.2-5.4 27-9.1 4.4-1.5 8.2-6 7-11 1.1-10.9-4-20.8-7.2-30.9-4.9-10.1-8.7-20.7-14.9-30.1-11-20.6-33.8-31.4-45.9-51-3-3.5-0.2-8.3 4.2-8.4m7 3c-3.5 0.4-8.6 2.4-6 7.3 2.8 4.7 6 9.4 10.4 12.7 13.9 12.4 28.6 25.2 36.4 42.6 8.6 16.4 16.5 33.5 18.9 52 0 6.3-2.2 13.8-9 16-10.4 4.1-21.5 6.7-31.7 11.4-17.7 9.1-28.6 27-34.7 45.3-4.5 14.2-2.8 29.4-1 44 2.9 23.5 9.2 47.1 23.4 66.3 8.9 16.3 24.9 28.1 42.9 32.3 30.4 7.4 62.4-7.3 81.8-30.6 8.2-10.7 13-23.5 15.5-36.6 6.7-27.6 7.7-56.4 3.2-84.4-2.1-12.8-4-25.8-9-37.9-3.6-14-9.6-27.2-16.3-39.8-18.7-36-46.6-67.3-80.9-89-13.7-6.6-28.8-11.3-43.9-11.6z"/>
		<path class="st32" d="m374.3-161.6c15.1 0.3 30.2 5 43.7 11.6 34.4 21.7 62.2 53 80.9 89 6.8 12.7 12.7 25.9 16.3 39.8 5 12 6.9 25.1 9 37.9 4.5 28 3.6 56.8-3.2 84.4-2.5 13.1-7.3 26-15.5 36.6-19.4 23.2-51.4 38-81.8 30.6-18-4.2-34-16-42.9-32.3-14.2-19.3-20.6-42.9-23.4-66.3-1.8-14.6-3.5-29.8 1-44 6.1-18.3 17.1-36.2 34.7-45.3 10.2-4.7 21.2-7.3 31.7-11.4 6.8-2.2 8.9-9.6 9-16-2.5-18.5-10.3-35.6-18.9-52-7.8-17.4-22.5-30.1-36.4-42.6-4.3-3.3-7.6-8.1-10.4-12.7-2.4-5 2.7-6.9 6.2-7.3m2 3.8c-1.5 1.2-2.8 2.7-2.2 4.8 2.3 6.7 8.4 11 13.7 15.3 8.3 8.6 17.9 16.4 24.2 26.8 10.7 19.3 21.7 39.3 24.7 61.6 1 8.6-2.4 18.4-11.3 21.6-11.8 4.5-24.3 7.2-35.2 13.8-12.5 7.8-20.5 20.8-26.2 33.9-8.9 21-4.7 44.7-0.4 66.3 3.1 20.2 12.8 38.8 24.9 55.1 9.5 12.8 23.9 21.7 39.5 24.5 19.9 3.7 40.7-2.3 56.9-13.9 16.7-10.2 28-28 32-47 3.2-13.1 5.5-26.5 6.9-40 1.8-48.4-9.7-97.9-36.1-138.8-12.6-21.3-28.6-40.6-47.8-56.2-11.2-8.9-22.4-18.4-36.2-22.7-9-2.1-18-6.4-27.4-5.1z"/>
		<path class="st33" d="m194.3-159.8c2.5-2.1 5.7-1.2 6.9 1.8-4.1 3.4-6.5 9.3-12.4 9.8-3.6 1.9-6.7 4.9-8.1 8.8l-0.8 1.2c-3.6 3.3-7 6.9-10.6 10.1-0.4-1.1-0.7-2.2-1-3.3 0.2-1.4 0.5-4.3 0.7-5.7 0.1 0.8 0.2 2.3 0.2 3.1 7.4-7.2 14.9-14.3 21.9-21.9-0.5-0.1-1.5-0.2-2-0.3-0.8-2.7 6.3 0.9 5.2-3.6z"/>
		<path class="st34" d="m201.2-158c2 1.3 3.7 3.1 5 5.1-2 2-4 4.1-6.1 6-3.7-0.9-7.5-1.1-11.3-1.2 6-0.5 8.3-6.5 12.4-9.9z"/>
		<path class="st35" d="m376.3-157.8c9.5-1.3 18.5 3 27.5 5.2 13.9 4.3 25.1 13.8 36.2 22.7 19.2 15.5 35.3 34.9 47.8 56.2 26.4 40.9 37.9 90.4 36.1 138.8-1.3 13.5-3.6 26.8-6.9 40-4 19-15.3 36.8-32 47-16.3 11.6-37.1 17.5-56.9 13.9-15.7-2.8-30-11.7-39.5-24.5-12.1-16.3-21.8-34.9-24.9-55.1-4.4-21.7-8.6-45.4 0.3-66.4 5.7-13.1 13.8-26.1 26.1-33.9 10.9-6.6 23.5-9.3 35.2-13.8 8.9-3.2 12.3-13 11.3-21.6-3-22.2-14-42.3-24.7-61.6-6.3-10.4-15.8-18.2-24.2-26.8-5.3-4.3-11.4-8.6-13.7-15.3-0.6-2.1 0.7-3.7 2.3-4.8m89 99.1c-4.4 2.9-3.3 8.9-3 13.4 3 5.2 6.9 9.7 10.7 14.2-3.2 2.1-7.3 1.8-10.7 3.5-10.3 3.3-19 12-21.3 22.7-1.3 8 0.9 18.8 10.1 21 17.2 3.1 32.3-12.8 34-28.9 0.3-2.5 0.7-7.5 1-10h-1c-1-12.3-14.4-17.4-19.7-27.2-0.2-4.5 4.3-10.1 9.5-7.6 3.8 2.8 5.5 9.5 11.2 8.8 4.3-0.9 3.8-7.6 0-9-6.3-4-14.4-4.3-20.8-0.9m-63.3 64.7c0.9 3.1 3.4 5.1 6 6.8-4.2 0.4-8.7 4.2-6.9 9 3.7 5.3 10.7 5.9 16.6 4.9 2.9-1.4 6.4-3.9 5.2-7.6-1.8-1.3-4.9-0.9-5.1 1.8-0.4 5.2-9.5 6-10.8 1 0-2.8-1.3-6.6 1.7-8.2 2.5-0.3 7.4 1.5 8.3-0.8h1c-0.3-0.2-0.9-0.7-1.2-1-0.9-2.1-5-1.3-6.8-0.5-4-2.6-3.4-7.7 0.2-10.3 4.7-2.6 6 2.2 8 4.8 2.4 0.9 4.7-1.3 3.6-3.7-5.3-6.1-17.4-4.4-19.8 3.8m82.9 23.1c2.7-1.9 4.3-6.2 8.9-4 3.3 3.4 2.3 8.7-0.9 11.8-1.5 1.6-2.8 3.4-4.2 5.1-1.5 1.1-2.8 2.5-3.9 4l0.2 1c4.7 0.3 9.3 0 14 0l-0.2-1c0.6-1.8 2.3-5.3-0.6-2.8-2.8-0.2-5.6-0.3-8.4-0.3 0.9-1.7 3.9-2.9 3.8-4.8 4.4-3.4 8.4-12.5 1.8-15.5-5-3.1-9.9 1.8-10.5 6.5m-69.9 5.9c-6.6 0.2-10.9 7-12 13 2.2 0.2 4.6 0.1 5.8-2.2 6.1-7.7 20.3-4 23.9 4.5 1.4 6.8 3.5 13.5 3.3 20.5-12.5 8.3-24.7 16.7-37 25.2-2.3 1.9-5.6 3-7 5.8 5.6 0.8 11 3.7 16.8 2.9 10-6.9 20-13.9 30.1-20.7 2.5 7.4 1.7 15.8 5.2 23 2.6 6.9 10.1 10.1 17 11v0.9c2.4-0.7 8.8 2.3 9-1 6.3-0.7 12.4-6.4 12-13-2.8-0.8-4.1 1.6-5.5 3.6-5.6 4.6-13.6 1.8-19.6-0.5-5.4-1.7-7.6-7.1-8.8-12.1-0.4-5.6-3-11-2.1-16.7 13.6-9 27-18.5 40.8-27.4 0-0.4 0.1-1.2 0.1-1.6-5.4-0.6-10.5-3.1-15.9-3.2-9.6 5.9-18.6 12.7-28 18.9-2.7-8.4-2.1-18.2-7.5-25.6-3.4-3.1-7.9-5.5-12.6-5.4v-0.9c-2.4 0.5-7.1-1.2-8 1z"/>
		<path class="st36" d="m168.9-137c1-9.9 10.6-18 20.2-19.1 0.5 0.1 1.5 0.2 2 0.3-7 7.6-14.5 14.8-21.9 21.9-0.1-0.8-0.2-2.3-0.3-3.1z"/>
		<path class="st37" d="m206.2-152.9c2 1.1 3.6 2.7 4.8 4.9-1.5 1.5-3.6 6.6-6.3 4.2-1.3-1.4-4-1.5-4.6-3.1 2.2-1.9 4.2-3.9 6.1-6z"/>
		<path d="m224.3-150.7c0.4-0.1 1.2-0.2 1.5-0.3 2.4 3.3 5 6.5 7.2 9.9-3.5 4.8-11.9 6.3-12.7 12.9 5 7.8 11.4 14.6 16.7 22.2-6.7 7.5-16.3 13.2-24.1 19.9-1.3 1-2.7 2.9-4.5 1.9-4.7-6.9-10.4-13.1-15.1-19.9-0.6-1.5-3.4-0.1-3.4-2 3.4-3.3 6.3-7.3 10.4-9.6 3.7-1.3 7.1-3.3 9.6-6.5-1.7-4.2-8.2-6.7-7.5-11.4 7.3-5.6 14.7-11.3 21.9-17.1z"/>
		<path class="st38" d="m343.1-150.1c0.8-1.8 5.9-1.8 6.7 0h-6.7z"/>
		<path class="st39" d="m474.8-144.2c7-4.8 18.3 6.7 12.1 13.3-1.6-1.1-2.9-2.6-4-4.2 0.9-2.8-0.5-5.8-3.9-4.9-0.3 2.5 1.6 4.3 2.9 6.2 1.7 3.2 1.7 7.4-1 10.1-2.6 0.3-5.1 0.5-7.7 0.7-2.9-2.1-5.1-4.9-6.9-7.9-0.3-2.4 0.1-4.8 0.8-7 1.9 1.1 5.8 1.7 5.5 4.4-3.6 3.5 2.3 7.3 4.4 4.5-1.5-4.7-6.4-10.6-2.2-15.2z"/>
		<path class="st39" d="m68.2-120.9c1.2 0.9 3.2 1.3 3.7 2.9-1.8 3-4.4 5.6-5.8 8.9 0.8 0.7 1.6 1.4 2.5 1.9 1.8-2.7 3.6-5.3 5.6-7.8 1.6-0.2 2.6 1.2 3.6 2.2-1.8 3-4.3 5.6-5.8 8.8 1.1 0.7 2.3 1.4 3.6 1.8 1.9-2.6 3.8-5.1 5.2-7.9 2.7-1.2 6.7 1.4 4.2 4.3-4.3 2.8-6.2 7.9-9.1 11.9-2.1-0.6-3.7-2.1-5.5-3.2-4.1-3.1-8.2-6.1-12.3-9.1 2.9-5.2 6.9-9.7 10.1-14.7z"/>
		<path class="st39" d="m25.2-41.7c1.3 0.2 2.5 0.6 3.8 0.9-0.6 3.6-1.8 7.1-2.7 10.7 1.1 0.4 2.2 0.9 3.4 1.1 1.1-3.6 0.8-10.6 6.3-9 0.2 3.8-2.3 7.2-2.1 11 5.8 1.9 4.7-5.4 6.1-9 1.5-1.2 3.3-0.6 4.8 0.3 0.5 3.5-1 6.6-2.2 9.7-1.2 2.5-1.3 5.6-3.7 7.3-1-0.3-2-0.7-3-1-5.2-2.2-10.8-3.2-15.9-5.4 1.1-5.7 3.2-11.2 5.2-16.6z"/>
		<path class="st40" d="m358-142.9c1.8 0.8 1.8 5.9 0 6.7v-6.7z"/>
		<path class="st41" d="m478.9-140c3.4-0.9 4.7 2.1 3.9 4.9-0.3 0.3-0.8 1-1 1.3-1.2-2-3.1-3.7-2.9-6.2z"/>
		<path class="st42" d="m179.9-138.1 0.8-1.2c0.4 2.7 0.4 5.4 0.2 8.1-3.5 3.1-6.5 7-10.6 9.4-0.8-0.9-1.2-1.9-1.2-3.1 0.5 0.2 1.4 0.5 1.8 0.6 3.4-4.3 10.5-7.3 9-13.8z"/>
		<path class="st43" d="m251-139c5.3-0.1 10.6-0.1 16 0v1c-5.3 0.1-10.7 0-16 0v-1z"/>
		<path class="st44" d="m169.3-128c3.7-3.2 7-6.8 10.6-10.1 1.5 6.5-5.7 9.5-9.1 13.8-0.5-0.2-1.4-0.5-1.8-0.6-0.8-2-1.3-4.2-0.8-6.3 0.4 1 0.7 2.1 1.1 3.2z"/>
		<path class="st45" d="m260-133c0.8-2.2 5.6-0.5 8-0.9v0.9h-8z"/>
		<path class="st45" d="m341.1 138h1c0 1.6 0 3.3-0.1 5-33 0.1-66 0-99 0l0.2-0.9c32.6-0.3 65.1 0.1 97.7-0.2 0.1-1.3 0.1-2.6 0.2-3.9z"/>
		<path class="st45" d="m308.1 164.1 0.9-0.3c0.3 6.7 0 13.4 0.1 20.1h-1c-0.1-6.5-0.3-13.1 0-19.8z"/>
		<path class="st45" d="m272 177 1 0.1c0.1 5.3 0.1 10.6 0 15.9l-1-0.1c0-5.3-0.1-10.6 0-15.9z"/>
		<path class="st45" d="m258 196c2.8 0 8.2 0 11 0.1v1h-11v-1.1z"/>
		<path class="st46" d="m310.3-133.7c0.4-0.1 1.2-0.2 1.5-0.2 1.5 3.3 2.9 6.6 4.1 10-4.1-1.5-8.1-3.3-12-5.2 1.4-2.2 4.2-3.2 6.4-4.6z"/>
		<path class="st47" d="m276-122c0.3-2.5 0.8-7.5 1-10v10h-1z"/>
		<path class="st48" d="m170.2-121.8c4.1-2.4 7.1-6.2 10.6-9.4 1.2 0.4 1.6 1.5 1.2 3.3-3.5 2.8-6.7 6-10 9.1-1.3-0.2-1.2-2-1.8-3z"/>
		<path class="st49" d="m182.1-127.9c1.4-0.4 1.1 1.9 1.7 2.7-3.3 3.1-6.4 6.4-9.8 9.4-1.2-0.6-2.6-1.5-2-3 3.4-3.1 6.6-6.3 10.1-9.1z"/>
		<path class="st50" d="m174.1-115.8c3.3-3.1 6.5-6.3 9.8-9.4 1.5 0.1 1.4 2 2.1 3-3.3 3.1-6.4 6.4-9.8 9.4-1.3-0.5-2.6-1.4-2.1-3z"/>
		<path class="st51" d="m473.1-123.1c2.6-0.1 5.1-0.3 7.7-0.7 2.9 7 9.5 11.7 13.9 17.8-1.6 2.8-2.4 6.1-0.4 8.9-0.3 0.3-1 0.8-1.4 1.1-7.1-9.2-14.1-18.4-22-27 0.6 0.1 1.7 0 2.2-0.1z"/>
		<path class="st52" d="m176.1-112.8c3.4-3.1 6.5-6.3 9.8-9.4 1.2 0.7 2.6 1.7 3.1 3-3.2 2.9-6.3 5.9-9.2 9.1-1.2-0.8-3.6-1.1-3.7-2.7z"/>
		<path class="st53" d="m179.8-110.1c2.9-3.2 6-6.2 9.2-9.1 1.2 0.7 4 0.5 3.9 2.1-2.9 3.4-5.6 7.1-9.5 9.5-1.2-0.9-3.1-1-3.6-2.5z"/>
		<path class="st54" d="m183.4-107.6c3.9-2.4 6.6-6 9.5-9.5 2.4 0.7 4.8 1.2 7.3 1.4-4.2 2.3-7.1 6.3-10.4 9.6-1.8 0.3-6.6-0.6-6.4-1.5z"/>
		<path class="st55" d="m280.8-113.3c1.2-1.3 2.5-2.6 3.9-3.8 0.3 0.3 1 1 1.4 1.3-1.3 1.3-2.5 2.6-3.9 3.9l-1.4-1.4z"/>
		<path class="st56" d="m300.2-115.5c4.4-0.3 9.2 2.1 10.8 6.5 3.9 6.7-1.7 17.6-10 16-8 1.5-14.5-8-11.1-15.1 1.3-4.5 5.9-7.1 10.3-7.4m-1.9 1.8c-1.9 1-4.1 1.7-5.6 3.4-4.5 5.5-1.1 15.5 6.2 16.3 7.1 1.2 13.9-5.6 11.8-12.7-2.1-4.4-7-9-12.4-7z"/>
		<path class="st57" d="m298.3-113.7c5.4-2 10.3 2.5 12.4 7 2.2 7.1-4.7 13.9-11.8 12.7-7.3-0.7-10.7-10.8-6.2-16.3 1.5-1.7 3.7-2.4 5.6-3.4z"/>
		<path class="st58" d="m324-114.1c4.4 1.1 7.9 4.3 11.8 6.4-2.4 3.6-5.2 7-8.6 9.7-0.6-5.4-3-10.6-3.2-16.1z"/>
		<path class="st59" d="m136.8-109.3c5.1-0.9 10.4-1.1 15.5 0-5.2 0.2-10.4 0.4-15.5 0z"/>
		<path class="st60" d="m84.3-87.7c14.9-12.2 33.5-19.2 52.5-21.5 5.1 0.4 10.3 0.1 15.5 0 17.4 2.9 34.8 9.8 47.1 23 9.5 8.8 14.4 21.2 18.9 33.1 1.9 4 2.3 9 5.5 12.3-1.3 7 2.7 14 2.8 21.1l0.6 9.6 0.1 0.9c-0.1 4.2-0.1 8.4 0 12.6l-0.4 6.8c-0.5 2.7-0.8 5.5-0.7 8.2 0.3 24-8.8 48-26.4 64.6-4.8 4.8-9.8 9.7-15.9 13-12.1 7.6-27 8.2-40.9 9.3-2.9-1.3-5.3-1.1-7.2 0.7-2.5 0.1-5.3-0.1-6.7 2.5-2.8 13-0.4 26.3 2.4 39 3.5 14.5 6.5 30 15.5 42.5 12 19.3 28.9 35.6 36.7 57.3 1.2 2.7 2.4 5.5 2.4 8.5-20.1-4.3-39.5-11.3-58.1-19.9-2.7-1.1-5.2-3.9-8.4-3.3-5.7-3.1-10.4-8.5-14.7-13.6-25.3-26.4-43.4-59-55.6-93.3-3.5-15.5-8.9-30.8-9.5-46.8 0.5-2.4 0.3-4.7-0.5-6.9-0.4-1.3-0.6-2.6-0.5-4 0-10.4 0.1-20.7 0-31.1v-6.7c3.1-35.9 14.1-70.9 32-102.2 2.4-2.7 3-6.8 6-8.9 2.9-2 5-4.6 7.5-6.8m52-18.8c-17.7 2.2-34.9 9-49.1 19.7-13.4 11-20.3 27.3-27.3 42.8-13 30.9-20.2 64.5-19.9 98 1.8 17.4 3.1 34.9 7 52 10.6 43.9 33.4 84.7 65.3 116.7 13.1 10.1 28.6 16.3 44 21.9 6.3 1.2 13.9 4.8 19.6 0.2 0.2-7.7-4-14.5-7.9-20.8-12.4-18.2-28.6-35-34-57-5-17.6-9.3-35.9-7.5-54.4-0.3-5.5 4.5-10.2 10.1-9.2 16.9-1.3 35.2-2 49.4-12.4 16.9-12.8 31.1-30.8 35.1-52 2.5-8.5 2.7-17.3 2.9-26.1 2.6-20.9-0.2-42.2-6.9-62.1-4.8-11.9-9.6-24.1-18.1-34-6.3-5-12-11-19.4-14.5-13.3-6.3-28.2-11.4-43.3-8.8z"/>
		<path class="st61" d="m136.3-106.5c15-2.6 30 2.4 43.3 8.8 7.4 3.6 13.1 9.5 19.4 14.5 8.4 9.9 13.3 22.1 18.1 34 6.7 19.9 9.6 41.2 6.9 62.1-0.3 8.7-0.5 17.6-2.9 26.1-4 21.2-18.2 39.2-35.1 52-14.2 10.4-32.6 11.1-49.4 12.4-5.6-1-10.4 3.8-10.1 9.2-1.8 18.4 2.5 36.7 7.5 54.4 5.4 22 21.5 38.8 34 57 3.9 6.3 8.1 13.1 7.9 20.8-5.7 4.6-13.3 1-19.6-0.2-15.4-5.6-31-11.8-44-21.9-31.9-32-54.7-72.8-65.3-116.7-3.9-17.1-5.1-34.6-7-52-0.3-33.6 6.8-67.1 19.9-98 6.9-15.5 13.8-31.7 27.3-42.7 14.3-10.8 31.4-17.6 49.1-19.8m5.1 2.1c-24.7 1.9-50.8 12.4-65.3 33.5-21.6 36.5-33.1 78.6-34.1 120.9 1.8 17.5 2.4 35.1 6.6 52.3 7.6 36.3 24.9 70.3 47.8 99.4 6.8 7.5 12.3 16.4 20.9 22 9.9 6.6 20.8 11.7 31.9 15.9 6.1 2.1 12.7 4.6 19.1 2.8 3.8-1.5 2.5-6.3 1.4-9.3-6-14.6-18.2-25.4-25.8-39.1-11.5-16.8-15-37.4-18.9-57-0.2-9-0.1-18 0-27 1.3-3.1 2.7-7.2 6.6-7.5 13.4-2.2 27.2-2.5 40.3-6.6 17.9-7 31.1-22.3 40.3-38.6 8.5-16.3 10-35 10.1-53.1 1-20.8-2.6-42.3-10.9-61.6-4.8-11.5-11.1-23-21.4-30.6-13.8-10.4-31.2-17.4-48.6-16.4z"/>
		<path class="st58" d="m276.2-105.7c2.4-0.3 1.8 4.2 2.4 6 0.4 3.3 2.2 6.4 2.4 9.7-4-2.3-8.2-4.5-12-7.2 2.1-3.1 4.4-6.1 7.2-8.5z"/>
		<path class="st62" d="m141.4-104.4c17.5-1 34.8 6 48.6 16.4 10.3 7.5 16.6 19.1 21.5 30.6 8.3 19.3 11.9 40.7 10.9 61.6-0.1 18-1.6 36.8-10.1 53.1-9.3 16.4-22.4 31.6-40.3 38.6-13.1 4.1-26.9 4.4-40.3 6.6-3.9 0.3-5.3 4.4-6.6 7.5-0.1 9-0.2 18 0 27 3.9 19.6 7.4 40.2 18.9 57 7.6 13.7 19.8 24.5 25.8 39.1 1.1 3 2.4 7.7-1.4 9.3-6.5 1.8-13.1-0.7-19.1-2.8-11.1-4.3-22-9.3-31.9-15.9-8.6-5.7-14.2-14.5-20.9-22-22.8-29.1-40.2-63-47.8-99.4-4.3-17.2-4.8-34.8-6.7-52.3 1-42.3 12.5-84.4 34.1-120.9 14.5-21.1 40.5-31.6 65.3-33.5m-5.1 2.8c-22.2 3.3-45.5 13.2-58.2 32.6-20.1 33.8-31.5 72.7-33.1 112-0.4 20.7 2.6 41.4 6.5 61.6 5.7 20 11.8 40.3 22.5 58.3 8.7 16.6 19.7 31.9 32 46.1 11.3 14.7 28.9 22.2 45.8 28.5 3.6 2.4 8.1 1.4 12.1 1.4 1.2-1.7 2.6-3.6 2.1-5.8-1.4-4.8-3.8-9.2-6.9-13-8.6-12.8-18.9-24.7-24.9-39.1-7.9-20-12.6-41.4-12-63 0.6-5.3 0.6-12 5.3-15.7 14.7-6.9 32.1-2.7 46.7-10.4 22.6-10.7 38.4-33.4 43.6-57.6 4.3-29.4 4.3-60.5-7.5-88.4-5.3-12.9-12-26.2-24.2-33.8-14.6-9.7-32.2-16.2-49.8-13.7z"/>
		<path class="st63" d="m136.3-101.6c17.5-2.5 35.2 4 49.5 13.8 12.2 7.6 19 20.9 24.2 33.8 11.8 27.8 11.8 58.9 7.5 88.4-5.2 24.2-21 46.9-43.6 57.6-14.5 7.7-32 3.4-46.7 10.4-4.6 3.7-4.6 10.3-5.3 15.7-0.6 21.6 4.2 43 12 63 6 14.4 16.3 26.3 24.9 39.1 3.1 3.8 5.6 8.3 6.9 13 0.6 2.2-0.9 4.1-2.1 5.8-4-0.1-8.4 0.9-12.1-1.4-16.9-6.3-34.5-13.8-45.8-28.5-12.3-14.1-23.2-29.5-32-46.1-10.7-18-16.8-38.3-22.5-58.3-3.6-20.3-6.6-41-6.2-61.7 1.6-39.3 13-78.2 33.1-112 12.7-19.4 36-29.3 58.2-32.6m1 3.1c-23.5 3.4-48 14.4-59.7 36.2-22 41.1-34.1 88.7-27.7 135.3 1.5 18.1 5.2 36.1 11.7 53.2 3.7 10.9 7.3 22 13.3 31.8 12.7 22.9 27.3 45.6 47.8 62.2 10 5.8 20.2 11.8 31.6 14.3 4 3 5.6-0.9 6.6-3.5-3.6-12.3-14.7-20.4-20.3-31.6-10.5-15-15.3-33-19.2-50.6-2.2-13.8-3.9-28.1-0.5-41.8 1.9-6.5 8.9-9.6 15.1-10.9 17-1.8 35.8-2.7 49.3-14.8 18.7-15.4 30.6-38.9 30.9-63.3 3.4-30.9-2-63.7-19.1-90-3.6-7.2-10.8-11.3-17.1-15.9-12.9-7.1-27.7-12.9-42.7-10.6z"/>
		<path class="st64" d="m137.3-98.5c15-2.3 29.7 3.5 42.6 10.6 6.3 4.6 13.4 8.7 17.1 15.9 17.1 26.3 22.5 59.1 19.1 90-0.3 24.3-12.2 47.9-30.9 63.3-13.4 12-32.2 12.9-49.2 14.7-6.2 1.3-13.2 4.4-15.1 10.9-3.4 13.7-1.7 28 0.5 41.8 3.9 17.7 8.8 35.6 19.2 50.6 5.6 11.3 16.7 19.3 20.3 31.6-0.9 2.6-2.5 6.6-6.6 3.5-11.3-2.5-21.6-8.6-31.6-14.3-20.5-16.7-35.2-39.3-47.8-62.2-6.1-9.8-9.7-20.9-13.3-31.8-6.5-17-10.2-35.1-11.7-53.2-6.4-46.6 5.8-94.3 27.8-135.3 11.7-21.7 36.1-32.7 59.6-36.1m19.1 50.1c-11.9 1.7-23.8 2.7-35.6 4.1-2.6 0.5-5.7-0.5-7.7 1.5-1.4-0.1-2.9-0.2-4.3 0-4.2-0.1-5.8 4.5-6.7 7.9-2.6-0.6-4.7 1.3-4 3.9 1.3 0.1 2.7 0.1 4 0.1-0.2 4.6 4.1 9.4 9 8 2.6-0.7 5.5-0.3 7.7-1.9 0.2 0.5 0.6 1.4 0.8 1.9-3.6 9.6-10.6 19.2-7.7 29.9 1.6 7.7 9.1 12.4 11 20-0.4 0.1-1.2 0.3-1.7 0.3-2.8 0.2-9.6-2.3-10.3 0.6-2.9 1.1-4.3 4.2-5 7-2.1-0.4-4.3 0.7-5 2.8 1.2 1.5 3.2 0.9 4.9 1.2 0.5 3.1 2.2 8 5.8 7.7 1.1 1.1 2.7 1.5 4.2 1.3v0.9c2.4-0.7 8.8 2.3 9-0.9 4.5-0.4 8.6-2.5 13-3.5 2.6 1.6-1.5 8 2.1 7.4 0.1 1.2 0.8 1.9 2 2v1c7.3 0.2 14.7 0 22 0v-1c1.2-0.1 1.9-0.8 2-2h1c0.2-4.7 0.1-9.3 0-14l-1 0.1c-0.3-0.5-0.8-1.4-1.1-1.9 8.3-1.4 17-2.1 25.1 0.7v-1.8c3.1-1.5-0.2-8.9 1-12h-1c1.4-9.6-7.8-15.3-14.3-20.3 0.8-3.2 2.5-7-0.6-9.5 1.4-1 4.9-0.4 4.9-2.4 2.3-0.7 1.4-4.9 0.6-6.8 0.4-1.7 1.3-4.6-1.5-4.3 3.4-2.6 1-6.4-0.3-9.5-1-0.4-3.3 0.1-2.2-1.6 1.6-4.1-5.4-0.4-4.8-3.7 1.5-7.7-7.1-16.8-15.3-13.2z"/>
		<path class="st65" d="m70.5-97.2c1.8 1.1 3.4 2.6 5.5 3.2 0.3 0.3 0.8 0.8 1 1.1-5.3 8.3-10.2 17-15.8 25.1-0.1-0.6-0.3-1.8-0.4-2.3 0.8-3.4 0.4-6.4-2.9-7.5l1.6-0.8c3.7-6.3 8.1-12.2 11-18.8z"/>
		<path class="st66" d="m498.4-87.4c-0.7-1.2-1.8-2.6-0.6-3.9 2.7 0.7 5.4 1.1 8.2 1.6 2.3 7.2 7.6 13.3 11 20-1.5 1.1-4.5 1.2-4.1 3.6 0 1.8 1.2 3.4 2.1 4.9 2-0.8 3.9-1.9 5.8-2.8 2.1 7.6 5.9 14.6 8.4 22.1-1.6 0.8-4.6 1.1-4.2 3.6-0.1 0.6-0.3 1.8-0.3 2.4-4.4-7.7-6.5-16.4-10.8-24.2-4.9-9.1-9.8-18.4-15.5-27.3z"/>
		<path class="st67" d="m284.1-86.1c6.3 2.3 12.2 5.8 18.8 7.4v1.6c-4.4 2-8.3 5.6-12.7 7-1.8-5.4-4.3-10.6-6.1-16z"/>
		<path class="st68" d="m325-71.7c1.9 0.6 1.8 5.8 0.1 6.6-0.1-1.7-0.1-5-0.1-6.6z"/>
		<path class="st69" d="m330.1-71.1c1.1 0.2 2.1 0.4 3.2 0.6-6 0.1 1 10.6-3.2 11.5-0.1-4-0.1-8 0-12.1z"/>
		<path class="st70" d="m338-70c5.3-0.1 10.7 0 16 0v1c-5.3 0.1-10.6 0.1-16 0v-1z"/>
		<path class="st71" d="m48.1-58.8c2.8 0 5.6-0.7 8-2.3 0.4 0 1.3 0.1 1.8 0.2-4.8 11.9-10 23.6-14 35.8-0.3-0.2-0.9-0.7-1.2-0.9 1.2-3.1 2.7-6.3 2.2-9.7-1.6-0.8-3.3-1.5-4.8-0.3 1.9-7.8 7.5-14.7 8-22.8z"/>
		<path class="st72" d="m465.3-58.7c6.4-3.4 14.5-3 20.7 0.7 3.7 1.4 4.3 8.1 0 9-5.7 0.7-7.4-6.1-11.2-8.8-5.2-2.5-9.7 3.1-9.5 7.6 5.3 9.8 18.8 15 19.7 27.2v10c-1.7 16.1-16.7 32.1-34 28.9-9.1-2.2-11.3-12.9-10-20.9 2.3-10.7 11-19.4 21.3-22.7 3.4-1.7 7.5-1.3 10.7-3.5-3.9-4.4-7.8-9-10.7-14.2-0.4-4.4-1.4-10.4 3-13.3m5 31.1c-11.9 3.8-19.2 15.9-20.4 27.8-1.8 0.8-1.8 5.9 0 6.7 0.5 8.8 13.8 7.6 17.1 1.2 4.1-6.8 8.2-14 8.9-22 0.3-2.5 0.7-7.5 1-10h-1c-0.3-2.6-1.4-7-5.6-3.7z"/>
		<path class="st73" d="m156.4-48.4c8.2-3.6 16.9 5.5 15.5 13.5h-1.6c-0.9-4.5-2.6-10.6-7.9-11.4-11.7-0.8-23.2 1.6-34.8 2.8-3.3 0.2-6.9 0.5-9.5 2.8-0.5 4.9 4.1 8.7 2.9 13.8 0.8 10.2-7.7 18-7.9 28.1-0.8 11.7 12.7 18.1 11.9 29.8 1.6 5.1-3.5 8.9-2.9 13.8 4.5 2.3 9.4-0.9 14.1-1.6 2.8-0.2 2.8-3.4 3.7-5.4 0.1 2 0.1 4 0.1 6.1-0.5 0.2-1.5 0.5-2 0.7-4.3 1-8.5 3.1-13 3.5h-8c0-1.4-0.1-2.7-0.1-4.1 1-0.8 2.2-1.5 3-2.6 1.5-1.8 2.4-4.1 3.4-6.2 1.4-2.3 2.1-5.5-0.1-7.3l-0.2-0.9c-1.9-7.6-9.4-12.3-11-20-3-10.7 4-20.3 7.5-30 1.2-2.2 1.3-5-0.1-7.1-0.7-3.2-2.5-5.9-4.6-8.3-0.5-0.6-1.1-1.2-1.6-1.8 0-0.7-0.1-2-0.2-2.7 2.1-1.9 5.1-0.9 7.7-1.5 11.9-1.3 23.8-2.4 35.7-4z"/>
		<path class="st74" d="m127.6-43.6c11.6-1.2 23.1-3.6 34.8-2.8 5.4 0.9 7 6.9 7.9 11.4-2.5 3.4-7.9 5.6-7.1 10.5-3.3 3-4.5 7.6-5 11.9-2.9 5.1-3.5 11-5.2 16.6-1.2 2.6 1.2 5.1-0.2 7.7-1.9 5.7 0.1 11.5 1.2 17.1-3.5 0.7-10.2-0.3-8.4 5.9-1.4 2-4.9 0.7-5.9 3.1-0.9 2-0.9 5.2-3.7 5.4-4.6 0.7-9.5 3.9-14.1 1.6-0.6-4.9 4.5-8.7 2.9-13.8 0.8-11.7-12.7-18.2-11.9-29.9 0.4-10.1 8.9-17.9 8.1-28.1 1.1-5.1-3.5-8.9-2.9-13.8 2.6-2.3 6.2-2.6 9.5-2.8z"/>
		<path class="st75" d="m427.4-47.3c0.7 2.8 0.7 5.6 1 8.5l-1.1 0.1c-0.1-2.8 0-5.7 0.1-8.6z"/>
		<path class="st76" d="m529.3-41.8c5.3-1.2 10.4-3.4 15.6-5.2 2.5 5.4 3.8 11.3 6 16.8-1.1 1.4-3.1 1.2-4.7 1-1.4-3.2-2.1-6.6-3.5-9.8-1.3-0.4-2.9 0.5-2.7 1.9 0.3 3.1 2.2 5.8 2.9 8.8-1.3 0.5-2.5 1-3.8 1.2-1.7-2.9-1.7-6.6-4.3-9-5.2 1.9-0.9 7.7 0.5 11-1.4 0.9-2.9 1.7-4.4 2.4-2.2-5.1-3.7-10.5-5.8-15.6-0.4-2.4 2.6-2.7 4.2-3.5z"/>
		<path class="st77" d="m101.9-35c0.9-3.4 2.5-8 6.7-7.9 0.5 2.1 2.9 2 4.5 2.7 0.6 0.6 1.1 1.1 1.6 1.8-0.8 2.7 0.2 5.5 0.1 8.3-0.9 2.6-2.4 4.8-3.9 7.1-4.8 1.4-9.2-3.4-9-8 2.4-0.6 4.2 0.8 5.4 2.8 4.9 1.8 5.1-6.4 2.4-8.6-2.7-0.4-4.8 2.5-7.8 1.8z"/>
		<path class="st78" d="m108.7-42.9c1.4-0.1 2.9-0.1 4.3 0 0 0.7 0.1 2 0.2 2.7-1.7-0.7-4-0.6-4.5-2.7z"/>
		<path class="st79" d="m223.7-40.9c10.7 4.4 20.3 10.9 31.1 15 8 7 18.5 10.1 27.3 15.9 3 2 6.8 3.3 8.5 6.7-1 2.6-2 5.2-3.1 7.6-16.3-8.5-32.3-17.6-48.7-25.8-3.7 0.8-11-4.6-12.1 1.6-0.3-7-4.3-14-3-21z"/>
		<path class="st80" d="m427.3-38.6 1.1-0.1c-1.6 3.3-5.8 4.1-9 5.1-16 4.7-33.3 9.2-45.1 21.9-14.2 17.2-25.4 38.7-23.3 61.7 1.8 29.8 6.8 60.8 24.1 85.9 6.8 11.8 15.8 22.5 27.7 29.4 18.7 9.9 41.4 13.4 61.7 6.1 17.3-6.1 34-15.9 45.4-30.7 10.2-12.2 13.5-28 17.5-43 0.3 1 0.7 2.1 1 3.1-2.1 11.5-5.4 22.9-9.3 34l-0.6-0.3-0.6-0.4c-14 23.2-39.4 37.6-65.5 43.1-1.8 0-5.3-0.1-7.1-0.2-3.5-0.1-6.8-0.1-10.3 0.2-17.3-1.3-34.4-7.8-47-20-13.6-15.2-23.5-33.2-30.6-52.2-2.7-11.2-4.4-22.7-7.1-33.9-0.2-5.7-0.8-11.3-1.3-16.9 0.1-5.1 0.3-10.2 0.3-15.3-0.4-5.5 1.1-10.7 2.4-16 1.3-3.3 2.6-6.7 4-10 1.7-3.3 3.3-6.5 4.9-9.8 1.9-3 3.8-6.1 5.8-9 0.2-0.3 0.7-0.9 1-1.1 3.9-5 8.7-9.3 13.2-13.8 13.6-9.7 30.9-12.1 46.7-17.8z"/>
		<path class="st81" d="m114.9-30.1c0.1-2.8-0.8-5.6-0.1-8.3 2.2 2.4 3.9 5.1 4.6 8.3-0.5 1.7-0.7 3.5-0.7 5.2-2.2 1.5-5.2 1.2-7.7 1.9 1.4-2.3 2.9-4.5 3.9-7.1z"/>
		<path class="st82" d="m101.9-35c3 0.7 5-2.2 7.8-1.9 2.7 2.3 2.5 10.5-2.4 8.6-1.2-1.9-2.9-3.4-5.4-2.8-1.3 0-2.7 0-4-0.1-0.6-2.5 1.4-4.4 4-3.8z"/>
		<path class="st83" d="m170.3-35h1.6c-0.6 3.3 6.3-0.5 4.8 3.7-1.1 1.7 1.2 1.2 2.2 1.6 1.3 3.1 3.7 6.9 0.3 9.5 2.8-0.3 1.9 2.6 1.5 4.3-0.7 2.2-0.9 4.5-0.6 6.8 0 2-3.5 1.3-4.9 2.4 3.1 2.6 1.4 6.3 0.6 9.5-0.2 0.5-0.5 1.6-0.7 2.2-2.2 1.3-4.6 2.3-6.7 3.7 0.4 0.4 1.3 1.1 1.8 1.5-1.7 2.9-3.2 6.1-6.6 7.4 0.4 2.5 0.4 5-0.7 7.3-1.6 1.7-4 2.2-6.1 3.1 0.3-1.7 0.6-3.3 1-5 3.3 0.5 2.9-3.9 4.4-5.8 1.9-2.6 3.9-5.3 4.3-8.7 3.2-3.8 9.4-6 7.5-12.3-0.4-5.1 6.2-8.1 4.7-13.4 0.7-5.5-2.5-14-9.4-12.4-4.6 5.2-9.6 12.3-7.6 19.6-1.1 2.4-3.4 4.1-4.2 6.6 0.4 4-3 7.4-2.1 11.3 0.6 4.5-3.1 9.8 0.6 13.6-1 2.1 1 7.3-1.9 7.5-1.1-5.6-3.2-11.4-1.2-17.1 1.3-2.6-1.1-5.1 0.2-7.7 1.7-5.5 2.3-11.5 5.2-16.6 0.5-4.3 1.7-8.9 5-11.9-0.9-5 4.5-7.3 7-10.7z"/>
		<path class="st84" d="m119.4-30.1c1.4 2.1 1.3 4.9 0.1 7.1-0.2-0.5-0.6-1.4-0.8-1.9 0.1-1.7 0.3-3.5 0.7-5.2z"/>
		<path class="st85" d="m169.3-29.8c6.9-1.6 10.1 6.9 9.4 12.4 1.4 5.3-5.1 8.3-4.7 13.4 1.9 6.3-4.3 8.6-7.5 12.3-0.4 3.4-2.4 6.1-4.3 8.7-1.5 2-1.1 6.3-4.4 5.8 1-5.6 2.5-11.1 3.7-16.6 2.8-10.3 8-20 9.6-30.5-6.1 8.6-8.2 19.1-10.7 29.1-1.4 5.5-2.5 11-4.3 16.4-3.7-3.8 0-9.1-0.6-13.6-0.9-4 2.5-7.3 2.1-11.3 0.8-2.5 3.1-4.2 4.2-6.6-2.1-7.2 2.9-14.3 7.5-19.5z"/>
		<path class="st86" d="m470.3-27.6c4.2-3.2 5.3 1.1 5.7 3.6v10c-0.8 8.1-4.9 15.2-8.9 22-3.4 6.4-16.6 7.7-17.1-1.2v-6.7c1.1-11.8 8.4-24 20.3-27.7z"/>
		<path class="st87" d="m254.8-25.9c2.7 0.5 5.3 1.3 7.9 2.3 13.6 5.5 27.8 8.9 42.2 11.7 8.8 5.6 18.5 9.9 27 16-0.2 0.5-0.6 1.4-0.8 1.9-5.4 1.4-10.5 3.7-15.9 5 0.2-3.5-3.9-4.2-6.3-5.8-3.9 0.4-5.9 5.2-9 7.4l-0.5-0.6c-2.4-5.4-5.3-10.5-8.9-15.2-1.7-3.5-5.5-4.8-8.5-6.8-8.8-5.8-19.2-8.9-27.2-15.9z"/>
		<path class="st88" d="m535.3-25c4 6.8 3.1 15.4 6.6 22.4-4.4-0.8-6.8 0.6-6.1 4.6-3-7.5-4.3-15.8-6.5-23.7 0.4-0.2 1.2-0.7 1.6-0.9 1.6-0.7 3-1.5 4.4-2.4z"/>
		<path class="st88" d="m528 125.8c2.9-8.8 4.3-18.3 7.7-26.9 0.2 2.6 3.4 2.3 5.3 3.1 0.1 7-2.8 13.6-3.8 20.5-2.7 0.3-5.8 0.9-7.4 3.4-0.4 0-1.3 0-1.8-0.1z"/>
		<path class="st88" d="m45.3 136.8c5.8 11.3 9.3 23.8 16.2 34.6 19.4 36.5 48.5 67.3 82.7 90.4 26.1 17.4 55.7 29.4 86.1 36.9-0.3 0.6-1 1.8-1.3 2.4-75.8-16.7-143.1-69.6-176-140.1-3.7-6.4-5.9-13.5-9.1-20.1 0.5-1.4 1-2.7 1.4-4.1z"/>
		<path class="st89" d="m160.3 4.9c2.5-10.1 4.6-20.5 10.7-29.1-1.6 10.5-6.8 20.2-9.6 30.5-0.3-0.4-0.8-1-1.1-1.4z"/>
		<path class="st90" d="m476-24h1c-0.3 2.5-0.7 7.5-1 10v-10z"/>
		<path class="st91" d="m226.5-19.9c1.1-6.2 8.4-0.9 12.1-1.6 16.4 8.3 32.4 17.3 48.7 25.8-1.3 3.6-2.7 7.2-4 10.8-1.4-4.1-5.3-5.5-9.4-5.9 1.8 0.4 3-1.5 1.4-2.6-13.3-8.3-26.5-16.6-39.7-25.2-1.5-0.9-3.5-0.8-2.5 1.4 4.8 4.3 11.7 6.2 15.9 11.2-6.9-2.4-14.3-5.9-21.8-4.3-0.3-3.1-0.4-6.4-0.7-9.6z"/>
		<path class="st92" d="m36-19.7c1 0.4 2 0.7 3 1 1.3 0.3 2.7 0.3 4 0.8-18.1 64-9.4 135.3 24.1 192.9 27.7 48.8 72.5 87.7 124.6 108.3 17.9 7.2 36.6 12 55.6 15.4 21.3 2.9 42.8 3 64.3 2.5 0.2 0.4 0.5 1.2 0.7 1.6-3.8 0.1-7.5 0.2-11.3 0.2-2.7 0-8 0.1-10.7 0.1l-0.4 1.8c-1.7 0-5.2 0.1-7 0.1-6.6-2.5-15.3-3.8-20.6 1.8-1.6-0.8-3.4-0.8-5.2-1-0.1-1.3-0.1-2.6-0.3-3.9-3.3-0.1-6.8-0.4-9.9 0.9-2.6-0.4-5.1-0.7-7.7-1-0.9-3.7-6.2-1.9-9-3.2-30.4-7.5-60-19.4-86.1-36.9-34.1-23.1-63.3-53.9-82.7-90.4-6.9-10.8-10.4-23.3-16.2-34.6 0.3-4.5-1.8-8.3-4.3-11.8 0-5.4-2.3-10.4-3.4-15.7-1.1-3.9-1.2-8.2-3.5-11.7v-1.5c1.8-2 2.1-5.5 0.1-7.3-0.8-2-1.9-3.8-3-5.6 1.3-8.3-0.8-16.6-1.1-25 0.2-0.3 0.6-1 0.8-1.3 0.3-5.2 0.2-10.3-0.1-15.5-1-0.4-2-0.9-3-1.3 0.5-0.1 1.5-0.3 2-0.3 0.4-6.8 1.3-13.6 1.3-20.5 0.4-0.2 1.2-0.5 1.6-0.7 0.6-5.5 1.8-11 2.3-16.5-1.6-0.1-3.2-0.1-4.8 0 4.3-6.2 4.6-14.5 5.9-21.7z"/>
		<path class="st93" d="m233.1-17.1c-1-2.2 1.1-2.3 2.5-1.4 13.2 8.5 26.4 16.8 39.7 25.2 1.6 1.1 0.4 3-1.4 2.6-5.6-3.4-11.8-5.9-16.6-10.4-2.4-2.2-5-4.2-8.2-4.9-4.3-4.9-11.2-6.8-16-11.1z"/>
		<path class="st94" d="m180-9.2c-0.3-2.3-0.1-4.5 0.6-6.8 0.8 1.8 1.7 6.1-0.6 6.8z"/>
		<path class="st95" d="m304.8-11.9c11.6 1.8 23.2 3.4 34.9 3.9 1.6 4.1 6.7 5.1 9.7 7.9-6.1 2-12.2 4.4-18.5 6 0.2-0.5 0.6-1.4 0.8-1.9-8.4-6-18.1-10.3-26.9-15.9z"/>
		<path class="st96" d="m227.2-10.3c7.6-1.6 14.9 1.9 21.8 4.3 2.1 2.4 4.9 4.4 8.2 4.9 4.8 4.5 11.1 6.9 16.6 10.4 4.1 0.4 8.1 1.8 9.4 5.9-1 2.6-2 5.3-3 8-2.3-0.8-5.5-2.9-7.3-0.3 0.1-2.3-2.3-2.8-4-3.5 0.2-0.3 0.6-0.9 0.7-1.2-2.2-2.6-5.8-3.4-8-5.9 4.3 0.8 7.9 3.7 12.1 4.7 0.3-0.5 1-1.4 1.3-1.8-13-6.8-26.2-13.5-39.8-19.2-0.3 0.5-1 1.4-1.3 1.9 4.6 2.6 9.5 4.6 14.3 7-5 0-10 0.2-15-0.3-2.1 1.8-4.1 3.7-6.3 5.4l0.4-6.8c0.3-4.1 1.6-8.6 0-12.6l-0.1-0.9z"/>
		<path class="st97" d="m227.2-9.4c1.7 4 0.4 8.5 0 12.6v-12.6z"/>
		<path class="st98" d="m339.7-7.9c4.7 0 9.3 1.4 14 1.2 4.1 0.5 8.2 0.7 12.3 0.9-2 2.9-3.9 6-5.8 9-2.3-1.1-4.7-2.2-7.2-2.6-1.2-0.2-2.4-0.5-3.6-0.6-2.9-2.9-8.1-3.8-9.7-7.9z"/>
		<path class="st99" d="m353.8-6.7c4.4-0.1 8.8-0.2 13.3-0.2-0.2 0.3-0.7 0.9-1 1.1-4.1-0.2-8.2-0.4-12.3-0.9z"/>
		<path class="st100" d="m249-6c3.2 0.7 5.9 2.7 8.2 4.9-3.3-0.4-6.1-2.4-8.2-4.9z"/>
		<path class="st101" d="m235.2-4c13.6 5.7 26.8 12.4 39.9 19.1-0.3 0.4-1 1.3-1.3 1.8-4.2-1-7.8-3.9-12.1-4.7-4.7-2.1-9-4.9-13.6-7.3-4.7-2.4-9.6-4.4-14.3-7 0.4-0.5 1.1-1.4 1.4-1.9z"/>
		<path class="st102" d="m290.5-3.3c3.7 4.6 6.5 9.8 8.9 15.2-4.3 8.6-12.7 14.5-19.4 21.2-0.3-0.2-0.9-0.6-1.3-0.9 0.2-3.1 0.9-6 1.5-9 1-2.7 2-5.4 3-8 1.3-3.6 2.8-7.2 4-10.8 1.3-2.5 2.3-5.1 3.3-7.7z"/>
		<path class="st103" d="m402 6c2.3-8.2 14.5-9.9 19.8-3.8 1 2.4-1.2 4.6-3.6 3.7-2-2.6-3.3-7.3-8-4.8-3.6 2.6-4.2 7.7-0.2 10.3 2.1 0.7 4.4 0.9 6.8 0.5 0.3 0.2 0.9 0.7 1.2 1h-1c-2.8 0.2-5.9-0.8-8.3 0.8-3 1.6-1.7 5.3-1.7 8.2 1.2 5 10.4 4.1 10.8-1 0.2-2.7 3.2-3.1 5.1-1.8 1.2 3.7-2.3 6.2-5.2 7.6-5.9 1-12.8 0.4-16.6-4.9-1.8-4.9 2.7-8.6 6.9-9-2.5-1.7-5.1-3.7-6-6.8z"/>
		<path class="st104" d="m349.5 0c1.2 0.2 2.4 0.4 3.6 0.6-2.9 3.7-8.2 3.2-12.3 4.9-5.6 2-11.4 3.5-17.1 5.4-4.6 1.5-9.1 3-13.8 3.9-0.9-3.5 2.9-3.2 5.3-4 5.4-1.3 10.5-3.5 15.9-5 6.2-1.4 12.3-3.8 18.4-5.8z"/>
		<path class="st105" d="m353.1 0.6c2.5 0.4 4.9 1.5 7.2 2.6-1.6 3.3-3.2 6.6-4.9 9.8-1.9-1.3-4-2.4-6.1-3.3-2.7-1.6-5.3-3.7-8.5-4.2 4-1.7 9.3-1.2 12.3-4.9z"/>
		<path class="st106" d="m450 6.9c-1.8-0.8-1.8-5.9 0-6.7v6.7z"/>
		<path class="st107" d="m30.2 2.1c1.6-0.1 3.2-0.1 4.8 0-0.5 5.5-1.6 11-2.3 16.5-0.4 0.2-1.2 0.5-1.6 0.7-1.8-0.4-3.5-0.9-5.3-1.2-4.9-0.9-9.8-1.5-14.7-2.3 0.2-2.2 0.6-4.5 1-6.7 5.2 0.9 10.4 2.2 15.7 1.8 2.5-2.3 0.1-6.4 2.4-8.8z"/>
		<path class="st107" d="m539.2 83.2c1.9 0.2 3.8 0.6 5.7 0.8 5 0.8 10 1.9 15 2.2-0.6 5.9-1.9 11.9-3.2 17.7-1.3 0.1-2.5 0.1-3.8 0.1 0.4-4 1-8 0.9-12-3.7-1.1-3.2 2.7-3.6 5.1 3.4 5.2-3.4 6.3-5.1 3.7 0.3-2.3 0.8-4.6 1-6.8-0.1-0.9 1.8-3.5-0.2-3-2.8-0.9-4.3 1.5-4.1 4.1-0.3 2.3-0.8 4.7-1 7-1.8-0.9-5-0.5-5.3-3.1 1.9-2.8 1.8-6.4 2-9.7 0.6-2.1 1.1-4.1 1.7-6.1z"/>
		<path class="st107" d="m529.8 126c1.6-2.5 4.7-3 7.4-3.4 0.9 2-0.1 4.1-0.4 6.2-1.5 1-3.2 1.5-4.7 2.4-0.2 1.7-0.2 3.6 1.1 4.9 4.8-3 6.3-11.6 13.6-9 2 1.9 4.1 4.7 2.9 7.6-1.2 4.5-3.2 11.2-9.5 9.3 0.3-2 0.7-3.9 1-5.9 3.3 0.4 4.6-2.3 3.9-5.2-2.9-0.1-4 3.1-4.9 5.3-1.4 1.6-2.9 3.2-4.9 4.1-1.4-0.2-2.8-0.3-4.2-0.5-1.2-0.9-2.4-1.8-3.5-2.8-0.2-1.3-0.5-2.7-0.7-4-0.1-3.3 1.6-6.1 2.9-9z"/>
		<path class="st108" d="m175 4.8c0.2-0.5 0.5-1.6 0.7-2.2 6.5 5 15.7 10.8 14.3 20.3v12 1.8c-8.1-2.8-16.9-2.1-25.1-0.7-1.1-0.5-3.9 0.7-3.8-1.1 8.4-2.1 17.1-2.1 25.7-2.2l1.1-1.1c-0.1-5.8 1.5-12.4-2.1-17.5-3.3-3.4-6.9-6.5-10.8-9.3z"/>
		<path class="st109" d="m233.2 4.6c5 0.5 10 0.3 15 0.3 4.6 2.4 8.9 5.2 13.6 7.3 2.3 2.5 5.8 3.3 8 5.9-0.2 0.3-0.6 0.9-0.7 1.2-11.4-4-22.5-8.9-34.1-12.4 0.1 0.7 0.2 2 0.2 2.7 12.1 4 23.9 9 35.9 13.2h1.9c1.8-2.6 5-0.4 7.3 0.3-0.7 3-1.4 6-1.5 9l-0.6-0.4c-1.7-1.5-3.6-3-5.7-3.8-12.4-4.7-25.2-8.1-38.1-11 0.1-3.6-5-4.2-7.4-6v-0.9c2.1-1.7 4.1-3.6 6.2-5.4z"/>
		<path class="st110" d="m160.3 4.9c0.3 0.3 0.8 1 1 1.3-1.2 5.5-2.6 11-3.7 16.6-0.4 1.6-0.7 3.3-1 5-0.8 2.1 2.9 1.6 4.1 2.5 0.2 1.6 0.2 3.1 0.4 4.7-0.2 1.8 2.7 0.6 3.8 1.1 0.3 0.5 0.8 1.4 1.1 1.9v13.9c-0.1 1.2-0.8 1.9-2 2h-21.9c-1.2-0.1-1.9-0.8-2-2 0-2.7 0-5.4-0.1-8.1 0-2-0.1-4.1-0.1-6.1 1-2.4 4.4-1.1 5.9-3.1-1.8-6.2 4.9-5.2 8.4-5.9 2.9-0.2 0.9-5.4 1.9-7.5 1.7-5.2 2.8-10.8 4.2-16.3z"/>
		<path class="st111" d="m168.2 8.5c2.2-1.3 4.5-2.4 6.7-3.7 3.9 2.8 7.6 5.8 10.8 9.4 3.6 5.2 2 11.7 2.1 17.5l-1.1 1.1c-8.6 0.1-17.3 0-25.7 2.2-0.1-1.6-0.1-3.1-0.4-4.7-1.2-0.9-5-0.4-4.1-2.5 2.1-0.9 4.5-1.4 6.1-3.1 1.1-2.3 1.1-4.8 0.7-7.3 3.4-1.3 4.9-4.5 6.6-7.4-0.3-0.4-1.2-1.1-1.7-1.5z"/>
		<path class="st112" d="m299.9 12.5c3.1-2.2 5.1-7 9-7.4 2.4 1.6 6.4 2.3 6.3 5.8-2.3 0.8-6.1 0.5-5.3 4 4.7-1 9.3-2.5 13.8-3.9 2.2 1.1 4.5 2 6.4 3.6-6.8 2.1-14.1 3.2-20.5 6.2-2 1.9-3.9 3.8-5 6.3-1.4-4.9-2.3-10-4.7-14.6z"/>
		<path class="st113" d="m323.7 11c5.7-1.9 11.4-3.5 17.1-5.4 3.2 0.4 5.8 2.5 8.5 4.2-6.3 2-12.8 3.3-19.2 4.9-1.8-1.7-4.1-2.6-6.4-3.7z"/>
		<path class="st114" d="m235 7c11.6 3.5 22.6 8.4 34.1 12.4 1.7 0.7 4.1 1.2 4 3.5h-1.9c-12.1-4.2-23.8-9.2-35.9-13.2-0.2-0.7-0.3-2.1-0.3-2.7z"/>
		<path class="st115" d="m226.2 18.2c-0.1-2.8 0.3-5.5 0.7-8.2v0.9c-0.1 2.4-0.4 4.9-0.7 7.3z"/>
		<path class="st116" d="m330.1 14.6c6.4-1.6 12.9-2.9 19.2-4.9-0.1 0.7-0.5 2.2-0.6 2.9-5 1.2-10 2.5-15 4-6.3 1.7-12.8 3.1-19 5.2-1.9 0.6-5.4 2.6-5.2-1 6.5-2.9 13.8-4 20.6-6.2z"/>
		<path class="st117" d="m349.3 9.8c2.1 0.9 4.2 2 6.1 3.3-1.4 3.3-2.7 6.6-4 10-5.9-2.1-11.1-6.5-17.6-6.4 5-1.4 9.9-2.7 15-4 0.1-0.8 0.4-2.2 0.5-2.9z"/>
		<path class="st118" d="m226.9 10.9c2.4 1.9 7.5 2.4 7.4 6-0.3 1.4 0.6 2.3 1.5 3.1 3.9 5.1 11.3 6 15.1 11.2-5.8 0-11.3-1.8-16.9-2.3 0 0.7 0 2.1 0.1 2.9 10.4 1.3 20.9 2.5 31 5 0.6 1.1 1.3 2.1 2 3.1-0.8 0-2.3 0-3.1 0.1h-10c-3.1 0-6.1 0.1-9.2 0.2-4-0.2-7.9-0.2-11.8-0.2-0.3 1.5 0.3 2.3 1.8 2.2 3.4 0.6 6.8 0.9 10.2 0.8 3.1-0.1 6.1-0.1 9.2-0.3 2.8 0.1 5.7 0.2 8.6 0.5 2.4-0.6 7.8 2.5 9.3-0.3l0.3-1c1.2 1.3 2.7 2.1 4.4 2.2 0.2 4 0.2 8.1 0.8 12.1 0.1 0.4 0.2 1.3 0.2 1.8 0.1 10.1 4.7 20.5 14.3 24.8-0.8 0.1-2.5 0.4-3.4 0.5-4.5-0.3-9-0.4-13.5-0.6-5.1-0.9-10.3-1-15.4-0.6-4.9-0.2-9.7-0.1-14.6-0.4-4.1-0.5-8.5-1.6-12.5-0.1-4.8 0.3-9.7 0.2-14.5 0.5-4.4 0.4-9.2-1.2-13.5 0.6-1.6 0.1-3.3 0.1-4.9 0.1 17.6-16.6 26.6-40.6 26.4-64.6 0.3-2.4 0.6-4.9 0.7-7.3m39.3 39.1c-11.4 0.7-22.8 0.7-34.1 2.2 0 0.5 0 1.4-0.1 1.8 13.7 0.1 27.4-1.3 41-2.1 0-0.5-0.2-1.4-0.2-1.9-0.7-1.9-5.9-1.8-6.6 0m1.2 7.5c-14.2 2.3-28.6 4.9-42.7 7.2-2.5 1.6 5 5 5 1.8 14.1-2.5 28.4-4.5 42.4-7.4 3.6-1.7-3.3-4.3-4.7-1.6m4.9 6.8c-17.4 4.1-35 7.6-52.4 11.8 0.7 1.8 2.3 2.3 4.1 1.8 16.6-3.8 33.3-7.5 50-11 0.1-1.6 0.5-3.8-1.7-2.6z"/>
		<path class="st119" d="m410 11.4c1.8-0.8 5.9-1.5 6.8 0.5-2.4 0.5-4.7 0.3-6.8-0.5z"/>
		<path class="st120" d="m299.4 11.9 0.5 0.6c2.4 4.6 3.3 9.7 4.7 14.7l0.3 3.6c-5.2 4.7-2.5 11.9-3.9 17.8-0.5-1.5-0.9-3.1-1.3-4.6-0.5-2-1.2-4-1.9-6-0.6-2.1-0.9-4.3-2.3-6.1-1.3-2-2.5-4.1-4.1-5.8-1.5 4.4-3 8.8-4.9 13.1-1.9 3-1.2 6.7-1.5 10.2-0.5 2.7-0.7 5.3-1 8l-0.1 0.9c-1.6-2.6-4-1.3-6-0.1-0.1-0.4-0.2-1.3-0.2-1.8 0.3-5.8 0.3-11.7 0-17.5 0.1-1.8 0.4-5.2 0.5-7l0.6 0.4c0.3 0.2 0.9 0.6 1.3 0.9 6.6-6.9 15-12.7 19.3-21.3z"/>
		<path class="st121" d="m408.7 13.8c2.4-1.6 5.5-0.6 8.3-0.8-0.9 2.3-5.8 0.5-8.3 0.8z"/>
		<path class="st122" d="m234.4 16.9c12.9 3 25.8 6.4 38.1 11-5.5 1.7-10.6-1.3-15.8-2.5-6.9-1.8-13.7-4.4-20.8-5.5-0.9-0.7-1.9-1.6-1.5-3z"/>
		<path class="st123" d="m314.8 21.8c6.2-2 12.6-3.5 19-5.2 6.5-0.1 11.7 4.3 17.6 6.4-1.2 5.3-2.8 10.5-2.4 16h-0.9c-0.1-1.9 0.2-4.3-2.2-4.6-1.7-1 0.1 3.2-1.9 2.6 0-0.7-0.1-2.2-0.1-2.9-2.6-3.2-7.6-6-12.1-6.4 4.7-1 9.4-2 14.1-2.9 0-0.7 0.1-2.1 0.1-2.8-6.7 0.9-13.3 2.8-20 4 0.4-0.9 0.7-1.8 1-2.8-4-1-8.1-1.2-12.2-1.4z"/>
		<path class="st124" d="m539.2 47.6c0.3-10.3-1.7-20.6-0.5-30.8 0 3.4 4.2 0.6 6.3 1.1 0.5 7.8 0.8 15.6 1.9 23.3-2.1 2.1-5.5 3.7-6.1 6.9-0.4-0.1-1.2-0.3-1.6-0.5z"/>
		<path class="st125" d="m25.8 18.1c1.8 0.3 3.5 0.8 5.3 1.2 0 6.9-0.9 13.7-1.3 20.5-0.5 0.1-1.5 0.3-2 0.3-0.5 0.2-1.5 0.6-2 0.7-2.7 1.7 1 8.2-1.9 9.1-0.1-10.6 1-21.2 1.9-31.8z"/>
		<path class="st126" d="m235.9 20c7.1 1 13.8 3.6 20.8 5.5 5.2 1.2 10.3 4.2 15.8 2.5 2.1 0.9 4 2.3 5.7 3.8-0.1 1.8-0.4 5.2-0.5 7-0.5 1.8-0.7 3.6-0.9 5.4-1.8-0.1-3.3-0.9-4.4-2.2l-0.4-1c-0.7-1.8-3.4-0.7-4.9-1.1-0.7-1-1.3-2.1-2-3.1 2.1-0.8 8.7 2.3 7.8-1.6-7.2-1.8-14.8-1.8-21.9-3.9-3.8-5.3-11.2-6.2-15.1-11.3z"/>
		<path class="st127" d="m304.6 27.1c1.1-2.5 3.1-4.4 5-6.3-0.2 3.5 3.3 1.5 5.2 1 4.1 0.2 8.2 0.4 12.2 1.4-0.3 0.9-0.6 1.9-1 2.8-5.2 1.2-10.8 1.2-15.5 3.9-1.7 0.9-3.1 2.2-4.6 3.4-0.3-0.6-0.8-1.8-1.1-2.5 0-1.3-0.1-2.5-0.2-3.7z"/>
		<path class="st128" d="m326 25.9c6.7-1.1 13.2-3.1 20-4 0 0.7-0.1 2.1-0.1 2.8-4.7 0.9-9.4 1.9-14.1 2.9-7 0.9-13.8 3.4-20.9 3.2l-0.4-1c4.7-2.7 10.4-2.7 15.5-3.9z"/>
		<path class="st129" d="m484.9 29.1c0.5-4.7 5.5-9.6 10.4-6.5 6.6 3.1 2.6 12.1-1.8 15.5-0.2-0.3-0.5-0.9-0.6-1.2 3.2-3.2 4.2-8.4 0.9-11.8-4.6-2.2-6.2 2.1-8.9 4z"/>
		<path class="st130" d="m190 23h1c-1.2 3.1 2.1 10.5-1 12v-12z"/>
		<path class="st131" d="m291.4 26c1.6 1.8 2.9 3.8 4.1 5.8-2 2.7-5 8.7-9 7.2 1.9-4.2 3.4-8.6 4.9-13z"/>
		<path class="st132" d="m111.1 28c0.7-2.9 7.4-0.4 10.3-0.6-1.7 0.5-3.5 0.6-5.3 0.7-1.8-0.1-3.4-0.1-5-0.1z"/>
		<path class="st133" d="m121.3 27.4c0.4-0.1 1.2-0.3 1.7-0.3l0.3 0.8c0 1.8 0.1 5.5 0.1 7.3-1 2.1-1.9 4.4-3.4 6.2-0.3-4.7-1.4-9.3-4-13.3 1.8-0.1 3.6-0.3 5.3-0.7z"/>
		<path class="st133" d="m299 320.2c1.6-0.2 3.1-0.3 4.7-0.5l0.3 1.1c-3.1-0.7-3.4 1.6-3 4.1 2.7 0 8-0.1 10.7-0.1l0.3 1c-3.9 0.1-7.8 0.1-11.8 0-0.5-1.8-1.1-3.7-1.2-5.6z"/>
		<path class="st134" d="m-5.8 36.2c0-2.8 0.3-5.6 0.6-8.4 0.1 2.8-0.3 5.6-0.6 8.4z"/>
		<path class="st135" d="m106.1 35c0.7-2.8 2.1-6 5-7 1.6 0 3.3 0 4.9 0.1 2.6 4 3.7 8.6 4 13.3-0.9 1-2 1.7-3 2.6-1.7 1-3.4 1.9-5.1 2.8-3.6 0.3-5.3-4.6-5.8-7.7 2.6-0.5 4.2 1.8 6.1 3.1 3.8-1.5 3.3-5.9 1.8-9-3.2-1.1-4.9 2.6-7.9 1.8z"/>
		<path class="st136" d="m123.2 27.8c2.2 1.8 1.5 5.1 0.1 7.3 0-1.8-0.1-5.4-0.1-7.3z"/>
		<path class="st137" d="m310.9 30.8c7.1 0.1 13.9-2.3 20.9-3.2 4.5 0.4 9.5 3.1 12.1 6.4-5.3 0.4-10.5 1-15.8 1.1h-7c-2.5-3.4-8-1.8-10.2-4.3z"/>
		<path class="st138" d="m234 29c5.7 0.4 11.2 2.3 16.9 2.3 7.1 2.2 14.7 2.2 21.9 3.9 1 3.9-5.7 0.8-7.8 1.6-10.2-2.4-20.7-3.7-31-5 0.1-0.7 0-2.1 0-2.8z"/>
		<path class="st139" d="m532.2 29.2c1.7 1.2 0.9 4.8 0.4 6.7-0.2-0.5-0.7-1.4-1-1.9v-0.8c0.2-1.4 0.4-2.7 0.6-4z"/>
		<path class="st140" d="m38.3 36.9c-0.6-1.9-1.3-5.7 0.7-6.8v6.7l-0.7 0.1z"/>
		<path class="st141" d="m306 33.2c1.5-1.2 2.9-2.5 4.6-3.4l0.4 1c2.2 2.5 7.7 0.9 10.1 4.3v0.8c-3 0-8.1-1.2-8.2 3.1 4.7 0.1 9.4 0.2 14-0.7 2.4 1.2 4.7 2.6 6.4 4.6-6.1 0.1-12.1 0-18.2 0.2l-0.1 1v2 1c9 0.1 18 0 27 0 1.9 1.1 3.8 2.3 5.7 3.3 0.3 1.3 0.5 2.7 0.9 4 0.5 5.6 1.1 11.3 1.3 16.9-2.2-0.7-4.1-1.8-6-3-0.1-0.7-0.2-2.1-0.3-2.8-5-1.2-10.1-2.3-14.8-4.1-2-2.1-4-4.1-6.1-6.1 6.4-0.2 12.6 2 19 1.8 0.3-0.5 1-1.4 1.3-1.8-7.3-1.7-14.8-1.8-22.1-3.3-2.1-0.3-4.5-1.4-6.5 0-1.6-1.3-6.1-5-5.8-0.7-0.4-6.2-1.4-12.2-2.6-18.1z"/>
		<path class="st142" d="m301 48.5c1.4-5.9-1.3-13.1 3.9-17.8 0.3 0.6 0.8 1.8 1.1 2.5 1.2 5.9 2.3 11.9 2.8 18 0.1 1.9 0.2 3.8 0.1 5.8-1.7 2.3-1.8 4.7-0.5 7.1-1.3 6.2-2.4 13.5-7.7 17.6-2.5 1.3-5.3 1.4-7.9 2.1-1.3-0.1-2.7-0.2-4-0.4 0.9-0.1 2.5-0.4 3.4-0.5-9.6-4.4-14.2-14.7-14.3-24.8 2.1-1.3 4.4-2.5 6 0.1 0.1 2.8 0 5.7 0.8 8.4 0.6 5.8 5.8 11.7 12.1 10.4 6.7-5.3 6.2-15.2 5.2-22.8-0.2-2-0.7-3.8-1-5.7z"/>
		<path class="st143" d="m295.5 31.8c1.3 1.8 1.6 4 2.3 6.1-5 2.8-8.3 7.8-12.8 11.3 0.3-3.4-0.3-7.1 1.5-10.2 4.1 1.5 7.1-4.5 9-7.2z"/>
		<path class="st144" d="m106.1 35c3.1 0.8 4.7-2.9 7.8-2 1.5 3.1 2.1 7.6-1.8 9-1.9-1.3-3.5-3.6-6.1-3.1-1.7-0.2-3.7 0.4-4.9-1.2 0.6-2 2.8-3.1 5-2.7z"/>
		<path class="st145" d="m328.1 35.1c5.3-0.2 10.5-0.7 15.8-1.1 0 0.7 0.1 2.2 0.1 2.9-5.8 0-11.4 0.6-17.1 1.4-4.6 0.9-9.3 0.8-14 0.7 0.1-4.3 5.2-3.1 8.2-3.1 2.7 1.2 5.1 1 7-0.8z"/>
		<path class="st146" d="m344 36.9c2 0.7 0.2-3.6 1.9-2.6 2.5 0.3 2.1 2.7 2.2 4.6-0.1 3.7-0.1 7.5-0.3 11.3-2-1-3.8-2.2-5.7-3.3l-0.1-1c0-0.5-0.1-1.5-0.1-2-0.3-3.2-6.3-0.2-8.7-1.2-1.7-2-4-3.4-6.4-4.6 5.7-0.6 11.4-1.2 17.2-1.2z"/>
		<path class="st147" d="m415 35c0.9-2.2 5.6-0.5 8-0.9v0.9h-8z"/>
		<path class="st148" d="m531.7 59.7c1.4-8.6-1.5-17.2-0.1-25.7 0.2 0.5 0.7 1.5 1 1.9 0.6 1.6 0.4 3.4 0.5 5.1-0.1 6-0.1 12 0 18 0.2 12.8-0.6 26-4.4 38.3-0.5-1.8-0.7-3.6-0.9-5.4 1.9-10.7 3.5-21.4 3.9-32.2z"/>
		<path class="st149" d="m321 35.1h7c-1.9 1.7-4.3 2-7 0.7v-0.7z"/>
		<path class="st150" d="m402.9 48c1.1-6 5.5-12.8 12-13h8c4.7-0.2 9.2 2.2 12.6 5.4 5.4 7.4 4.8 17.2 7.5 25.6 9.4-6.2 18.3-13.1 28-18.9 5.4 0 10.5 2.6 15.9 3.2 0 0.4-0.1 1.2-0.1 1.6-13.8 8.9-27.1 18.3-40.8 27.4-0.9 5.7 1.7 11.1 2.1 16.7 1.2 5 3.4 10.5 8.8 12.1 6 2.3 14 5.1 19.6 0.5 1.3-1.9 2.7-4.4 5.5-3.6 0.4 6.6-5.7 12.3-12 13h-9c-6.9-0.9-14.4-4.1-17-11-3.5-7.2-2.6-15.5-5.2-23-10.1 6.7-20.1 13.8-30.1 20.7-5.8 0.8-11.1-2.1-16.8-2.9 1.4-2.8 4.7-3.9 7-5.8 12.3-8.5 24.5-16.9 36.9-25.2 0.3-7-1.9-13.7-3.3-20.5-3.5-8.5-17.7-12.2-23.9-4.5-1 2.3-3.4 2.4-5.7 2.2z"/>
		<path class="st150" d="m484.8 46c1.1-1.5 2.4-2.9 3.9-4 0.3 4.2 7.4 1.1 9.5 1.2 2.9-2.5 1.3 1 0.6 2.8h-14z"/>
		<path class="st151" d="m38.3 36.9h0.6c0.1 10.4 0.1 20.7 0.1 31.1h-1c0.1-10.4-0.4-20.8 0.3-31.1z"/>
		<path class="st152" d="m488.7 42c1.4-1.7 2.7-3.4 4.2-5.1 0.2 0.3 0.5 0.9 0.6 1.2 0.1 1.9-2.8 3-3.8 4.8 2.8 0 5.6 0.1 8.4 0.3-2-0.1-9.1 2.9-9.4-1.2z"/>
		<path class="st153" d="m166 38 1-0.1c0 4.7 0.2 9.3 0 14h-1v-13.9z"/>
		<path class="st154" d="m285 49.2c4.5-3.5 7.8-8.5 12.8-11.3 0.6 2 1.4 4 1.9 6-6.7 2.3-10.2 9.1-15.7 13.3 0.3-2.7 0.5-5.4 1-8z"/>
		<path class="st155" d="m276.8 44.2c0.2-1.8 0.4-3.7 0.9-5.4 0.3 5.8 0.3 11.7 0 17.5-0.7-4-0.7-8.1-0.9-12.1z"/>
		<path class="st156" d="m348.1 39h0.9c0 5.1-0.1 10.2-0.3 15.3-0.4-1.3-0.6-2.7-0.9-4 0.2-3.8 0.2-7.6 0.3-11.3z"/>
		<path class="st157" d="m25.8 40.8c0.5-0.2 1.5-0.5 2-0.7 1 0.4 2 0.9 3 1.3 0.3 5.2 0.4 10.3 0.1 15.5-3.6 0.1-7.3 0.1-10.9 0.1h-11c-0.1-1.3-0.1-2.6 0-3.9 3.7-4.8 11.8-0.6 17-2.2 0.1-3.4 0-6.7-0.2-10.1z"/>
		<path class="st158" d="m233 40c3.9 0 7.9 0 11.8 0.2 3 0.4 6.1 0.9 9.2 0.8h10c2.7 0 5.3 0 8 0.1l0.4 0.9-0.3 1-9.3 0.3c-2.9-0.2-5.7-0.3-8.6-0.5-3.1-0.4-6.1-0.8-9.2-0.8-3.4 0-6.8 0.1-10.2 0.3-1.6 0-2.2-0.7-1.8-2.3z"/>
		<path class="st158" d="m315 44h26.9c0 0.5 0.1 1.5 0.1 2h-27v-2z"/>
		<path class="st159" d="m244.8 40.2c3.1-0.1 6.1-0.2 9.2-0.2v1c-3.1 0.1-6.2-0.4-9.2-0.8z"/>
		<path class="st160" d="m254 40c3.3-0.1 6.6 0 10 0v1h-10v-1z"/>
		<path class="st161" d="m264 40c0.8 0 2.3 0 3.1-0.1 1.5 0.4 4.3-0.7 4.9 1.1-2.7 0-5.4-0.1-8-0.1v-0.9z"/>
		<path class="st162" d="m24 50c2.9-0.9-0.9-7.5 1.9-9.1 0.2 3.4 0.2 6.7 0.1 10.1-5.2 1.6-13.3-2.6-17 2.2 0-0.8 0.1-2.3 0.1-3 4.9-0.4 9.9-0.1 14.9-0.2z"/>
		<path class="st163" d="m533 41h1c0 6 0.2 12 0 18h-1c-0.1-6 0-12 0-18z"/>
		<path class="st164" d="m-7 42h1v16h-1v-16z"/>
		<path class="st165" d="m234.8 42.2c3.4-0.2 6.8-0.3 10.2-0.3v1c-3.4 0.2-6.9-0.1-10.2-0.7z"/>
		<path class="st166" d="M245,42c3.1,0,6.1,0.4,9.2,0.8c-3.1,0.2-6.2,0.2-9.2,0.3V42z"/>
		<path class="st167" d="m262.8 43.2 9.3-0.3c-1.5 2.8-7-0.3-9.3 0.3z"/>
		<path class="st168" d="m315 43.1c6-0.2 12.1 0 18.2-0.2 2.4 1 8.4-2.1 8.7 1.2h-26.9v-1z"/>
		<path class="st169" d="m111.8 46.7c1.7-0.9 3.4-1.8 5.1-2.8 0 1.4 0 2.7 0.1 4.1h-1c-1.6 0.2-3.1-0.2-4.2-1.3z"/>
		<path class="st170" d="m138 44.5c0.5-0.2 1.5-0.5 2-0.7 0 2.7 0.1 5.4 0.1 8.1-3.6 0.7 0.4-5.8-2.1-7.4z"/>
		<path class="st171" d="m284 57.2c5.5-4.2 9-11 15.7-13.3 0.4 1.6 0.8 3.1 1.3 4.6 0.4 1.8 0.8 3.7 1 5.5-1-0.8-2-1.5-3.1-2.2-5.3 4.3-9.8 9.5-14.3 14.6-0.8-2.7-0.7-5.6-0.8-8.4l0.2-0.8z"/>
		<path class="st172" d="m315 46h27l0.1 1c-9 0-18 0.2-27 0l-0.1-1z"/>
		<path class="st173" d="m484.8 46h14l0.2 1c-4.7 0-9.3 0.3-14 0l-0.2-1z"/>
		<path class="st174" d="m116 48h1 8c-0.2 3.2-6.6 0.2-9 0.9v-0.9z"/>
		<path class="st175" d="m266.2 50c0.8-1.8 5.9-1.8 6.6 0h-6.6z"/>
		<path class="st176" d="m308.7 51.2c-0.3-4.3 4.2-0.6 5.8 0.7 0.8 3.6 5.5 2.2 8.3 3.2 2.1 2 4.1 4 6.1 6.1-4.6-1-9.2-2.5-13.9-3.2 0 0.7 0.1 2.1 0.2 2.8 9.7 2.3 19.3 4.9 28.9 7.3 1.9 1.3 3.8 2.4 6 3 2.6 11.2 4.4 22.7 7.1 33.9-8-4.1-15.6-9-24.1-12-12.8-5.3-26.5-7.7-40.2-9.2 2.6-0.7 5.5-0.8 7.9-2.1 5.3-4.2 6.4-11.4 7.7-17.6 1.3-2.4 1.4-4.8 0.5-7.1-0.1-2-0.1-3.9-0.3-5.8m5.4 13c-0.9 0.5-1.8 2.7-0.2 2.9 10.4 5.2 20.5 11 31.1 15.9 1.6 0.2 2.8-2.3 0.7-2.6-10.7-5-21-11-31.6-16.2m-3.1 8.8c-0.3 3.2 3.6 4 5.7 5.4 8.7 5.6 17.8 10.7 26.5 16.4 1.2 1.3 5 2.2 3.7-0.7-9.3-6.5-19.4-11.8-28.9-18.1-2.3-1.1-4.2-3.5-7-3z"/>
		<path class="st177" d="m232.1 52.1c11.3-1.5 22.7-1.5 34.1-2.2h6.6c0.1 0.5 0.2 1.4 0.2 1.9-13.7 0.8-27.3 2.1-41 2.1 0-0.4 0-1.3 0.1-1.8z"/>
		<path class="st178" d="m314.5 51.9c2-1.4 4.3-0.3 6.5 0 7.3 1.4 14.8 1.6 22.1 3.3-0.3 0.5-1 1.4-1.3 1.8-6.4 0.1-12.6-2-19-1.8-2.7-1.1-7.4 0.3-8.3-3.3z"/>
		<path class="st179" d="m284.7 66.5c4.5-5.1 9-10.3 14.3-14.6 1.1 0.6 2 1.4 3.1 2.2 1 7.6 1.5 17.5-5.2 22.8-6.4 1.3-11.7-4.6-12.2-10.4z"/>
		<path class="st180" d="m142 54h21.9v1c-7.3 0-14.7 0.2-22 0l0.1-1z"/>
		<path class="st181" d="m539.2 56.4c0.4-0.1 1.3-0.4 1.7-0.5 1 3.1 3.5 5.4 6.8 5.1-2.5 2.6-1.7 6.4-2.3 9.6-0.1 4.4-1.6 9-0.5 13.4-1.9-0.2-3.8-0.5-5.7-0.8-0.6 2-1.1 4-1.5 6-1.7-10.8 2.4-21.8 1.5-32.8z"/>
		<path class="st182" d="m9 57h11v1h-10.9l-0.1-1z"/>
		<path class="st183" d="m20 57c3.6 0 7.3-0.1 10.9-0.1-0.2 0.3-0.6 1-0.8 1.3-2-0.1-4.1-0.2-6.1-0.2h-4v-1z"/>
		<path class="st184" d="m267.4 57.5c1.5-2.8 8.4-0.2 4.7 1.6-14 2.9-28.3 4.9-42.4 7.4 0 3.2-7.5-0.2-5-1.8 14-2.3 28.4-4.8 42.7-7.2z"/>
		<path class="st185" d="m308.4 64.1c-1.4-2.4-1.2-4.8 0.5-7.1 0.9 2.3 0.7 4.6-0.5 7.1z"/>
		<path class="st186" d="m24 58c2.1 0 4.1 0.1 6.2 0.2 0.4 8.3 2.4 16.7 1.1 25-2.5-1.7-5.5-2.5-8.5-2.6 1-0.3 2.1-0.6 3.1-0.9-0.3-7.2-1.1-14.5-1.9-21.7z"/>
		<path class="st187" d="m315 58c4.7 0.7 9.3 2.2 13.9 3.2 4.8 1.8 9.9 2.9 14.8 4.1 0.1 0.7 0.2 2.1 0.3 2.8-9.6-2.4-19.3-5-28.9-7.3 0-0.7-0.1-2.1-0.1-2.8z"/>
		<path class="st188" d="m272.3 64.3c2.2-1.2 1.8 1 1.6 2.5-16.7 3.5-33.4 7.2-50 11-1.8 0.6-3.4 0-4.1-1.8 17.5-4.1 35-7.6 52.5-11.7z"/>
		<path class="st189" d="m314.1 64.2c10.6 5.2 20.8 11.2 31.6 16.1 2.1 0.4 0.9 2.8-0.7 2.6-10.6-4.8-20.7-10.6-31.1-15.9-1.6-0.2-0.7-2.3 0.2-2.8z"/>
		<path class="st190" d="m-5.7 64.7c0.9 2.8 0.4 5.6 0.4 8.5-0.9-2.7-0.4-5.6-0.4-8.5z"/>
		<path class="st191" d="m39.5 72c0.8 2.2 1 4.4 0.5 6.9-2.2-0.9-1.3-5.1-0.5-6.9z"/>
		<path class="st192" d="m311 73c2.8-0.5 4.7 1.9 7 3.1 9.5 6.3 19.6 11.6 28.9 18.1 1.3 2.9-2.5 1.9-3.7 0.7-8.7-5.7-17.8-10.8-26.5-16.4-2.2-1.5-6-2.4-5.7-5.5z"/>
		<path class="st193" d="m232.7 81.7c4-1.5 8.4-0.4 12.5 0.1-4.1 0-8.3 0-12.5-0.1z"/>
		<path class="st194" d="m204.7 82.8c4.3-1.8 9.1-0.2 13.5-0.6-4.4 0.8-9 0.8-13.5 0.6z"/>
		<path class="st194" d="m259.8 82.2c5.1-0.4 10.3-0.3 15.4 0.6-5.1 0.3-10.3 0.2-15.4-0.6z"/>
		<path class="st195" d="m23.3 87.4c3.2-0.1 8.5 1.7 5.6 6.5-0.1 1.9-3.2 1.6-4.6 2.5-3.7 2.4-9.4-2.8-6.4-6.5 0.8-2.3 3.5-1.9 5.4-2.5z"/>
		<path class="st195" d="m239.3 301.9c2.5 0.3 5.1 0.7 7.7 1 0.9 6.5-1.5 12.9-1.3 19.3-0.7 3.1-5.6 1.8-7.5 1.2-0.2-2.8-0.9-5.6-1.2-8.3 1.6-4.2 1.6-8.8 2.3-13.2z"/>
		<path class="st196" d="m34.3 88.8c2 1.8 1.8 5.3-0.1 7.3 0-1.8 0-5.5 0.1-7.3z"/>
		<path class="st197" d="m527.2 97.8c0.1-1.5 0.4-4.5 0.5-6 0.2 1.8 0.4 3.6 0.9 5.4-0.1 1 1.5 4.3-0.4 3.7-0.3-1-0.7-2.1-1-3.1z"/>
		<path class="st198" d="m29.9 101.9c1.3-1.5 2.7-2.9 4.2-4.3 2.3 3.5 2.4 7.8 3.5 11.7 1.1 5.2 3.4 10.3 3.4 15.7-2-0.6-4.1-1-6.2-0.9h-0.7c1.5-7.5-3-14.9-4.2-22.2z"/>
		<path class="st199" d="m135.9 105.8c1.9-1.8 4.3-2 7.2-0.7-1.9 1.8-4.3 2-7.2 0.7z"/>
		<path class="st200" d="m461 118h9c-0.1 3.2-6.5 0.3-9 1v-1z"/>
		<path class="st201" d="m34.2 124h0.7c0.3 2 0.5 3.9 0.9 5.9-2.6-0.4-3.2-2.4-1.6-5.9z"/>
		<path class="st202" d="m540.1 138.2c0.9-2.2 2-5.4 4.9-5.3 0.8 2.9-0.6 5.6-3.9 5.2l-1 0.1z"/>
		<path class="st203" d="m522.6 138.6c0.6-1.9 1.8-5.7 4.3-3.7 0.2 1.3 0.4 2.7 0.7 4-5.5 9.6-8.9 20.4-14.4 30.1-32.2 62.1-91.4 108.9-158.8 127.4-4.8 1.5-10 1.7-14.5 4.2-2.3-0.3-4.6-0.6-7-0.7 1.3-1.9 3.1-3.2 5.4-3.5 35.6-7.4 69.4-22.8 98.7-44.3 38.3-28.9 69.2-68.2 85.6-113.5z"/>
		<path class="st204" d="m239 137c34.3-0.1 68.7-0.1 103 0v1h-1-101.9l-0.1-1z"/>
		<path class="st204" d="m190 163c5.3-0.1 10.7-0.1 16 0l-0.2 1c-5.3-0.1-10.6 0-15.8 0v-1z"/>
		<path class="st204" d="m318 197c2.7 0 8.2 0 10.9 0.1v1h-10.9v-1.1z"/>
		<path class="st205" d="m239.1 138h101.9c0 1.3-0.1 2.6-0.2 3.9-32.6 0.3-65.1-0.2-97.7 0.2l-0.1 0.9c-6.4 27.1-13.8 53.9-20.2 81l-0.6-0.3c-6.4-18.2-13.2-36.3-19.2-54.7-2.9-2.3-8.8-0.6-12.9-1-0.1-1.3-0.1-2.7 0-4h15.8c5.7 13.6 10 27.9 15.4 41.7l0.7 0.3c5.4-22.6 11.7-45.2 17.1-68z"/>
		<path class="st205" d="m245 162c3.5-0.1 2.8-5.2 6-5 0 8.8 0.1 17.5 0 26.3-0.5-0.1-1.4-0.4-1.8-0.5-0.1-6.6-0.2-13.2-0.2-19.8-0.4 0.2-1.2 0.7-1.7 1-1.3 1.6-3.5 2.3-5.3 3.2-0.5-2.6 0.5-4.3 3-5.2z"/>
		<path class="st206" d="m513.1 169c5.6-9.7 8.9-20.4 14.4-30.1 1.1 1 2.3 1.9 3.5 2.8-2 0-2.3 1.8-3 3.3-29.9 77.7-99.9 138.4-181.1 156.8-1.8 0-3 1.5-3.3 3.2-0.9-1.7-2.3-3.3-3.8-4.5 4.4-2.5 9.7-2.7 14.5-4.2 67.3-18.3 126.6-65.2 158.8-127.3z"/>
		<path class="st207" d="m39.9 143.6c1.4-0.9 2.7-1.8 4-2.8 3.2 6.6 5.4 13.7 9.1 20.1 32.9 70.5 100.2 123.4 176 140.1-0.1 1.7-0.2 3.4-0.6 5.1-0.2-0.5-0.5-1.5-0.6-1.9-54.2-12.5-104.1-42.5-140.5-84.6-17.6-20.8-32.1-44.3-42.6-69.4-1.1-2.4-1.5-6.1-4.8-6.6z"/>
		<path class="st207" d="m332.8 313.3c-5 1-5.9-9.4 1-5.2 2.5 1.5 0.1 3.6-1 5.2z"/>
		<path class="st208" d="m528.1 145.1c0.6-1.5 1-3.3 3-3.3 1.4 0.2 2.8 0.3 4.2 0.5-2.3 0.9-2.6 3.5-3.5 5.4-29.2 74.7-95 133.1-171.8 155.3-5.3 1.2-10.5 2.8-15.4 5-0.3-1-0.7-1.9-1-2.9 0.3-1.7 1.5-3.2 3.3-3.2 81.3-18.4 151.3-79.1 181.2-156.8z"/>
		<path class="st209" d="m38 144.6c0.5-0.2 1.5-0.7 2-0.9 3.3 0.5 3.7 4.1 4.8 6.6 10.5 25.2 25 48.6 42.6 69.4 36.4 42 86.3 72.1 140.5 84.6 0.2 0.5 0.5 1.5 0.6 1.9l-0.2 1c-2.1-0.1-4.3-0.3-6.4-0.9-21-5.6-41.6-13-60.6-23.5-22-11.3-41.6-26.6-60-43-25.2-24.7-45.5-54.3-59.3-86.8-1.3-2.9-2.2-5.9-4-8.4z"/>
		<path class="st210" d="m322.3 154.8c0.9-2.5 7.2-0.2 4.1 2-0.6-1.9-2.6-1.8-4.1-2z"/>
		<path class="st27" d="m321.3 155 1-0.2c1.5 0.3 3.6 0.1 4.1 2-5 15.9-8.9 32-13.7 47.9-0.9 2.4-0.5 6.5-5.7 3.3 4-17.9 10.4-35.1 14.3-53z"/>
		<path class="st211" d="m251 156.9 1 0.1c0 9 0.2 18 0 26.9l-1 0.2v-0.9-26.3z"/>
		<path class="st205" d="m302.2 164.3c3.5-1.3 5-5.9 8.8-6.4v26.1h-2c-0.1-6.7 0.2-13.4-0.1-20.1l-0.9 0.3c-2.1 0.8-3.7 2.9-6.1 2.9 0.1-0.7 0.3-2.1 0.3-2.8z"/>
		<path class="st212" d="m311 157.9 1 0.1c0.1 8.6 0.1 17.3 0 26h-1v-26.1z"/>
		<path class="st212" d="m291 181.4c1.9-0.6 5.8-1.4 6.8 0.6-2.6 0.4-4.8 0.2-6.8-0.6z"/>
		<path class="st212" d="m291 184.7c1.5-1.5 3.8-1.7 6.8-0.6-1 1.8-4.9 1.1-6.8 0.6z"/>
		<path class="st45" d="m247.3 163.8c0.4-0.2 1.3-0.7 1.7-1 0 6.6 0.1 13.2 0.2 19.8 0.4 0.1 1.4 0.4 1.8 0.5v0.9c-0.7 0-2.2-0.1-2.9-0.2-0.3-6.6 0.4-13.4-0.8-20z"/>
		<path class="st45" d="m190 168c4.2 0.5 10.1-1.3 12.9 1-4.3 0-8.6 0.1-13-0.1l0.1-0.9z"/>
		<path class="st45" d="m328.2 184c0.4 0 1.3 0.1 1.7 0.1-0.2 2.5-0.7 7.5-0.9 9.9-0.1-3.1 0.3-6.2-0.6-9.2l-0.2-0.8z"/>
		<path class="st213" d="m287.3 180.9c-0.3-2-1.1-5.4 0.5-6.7l0.4 0.6c-0.1 2-0.1 4.1-0.3 6.2l-0.6-0.1z"/>
		<path class="st213" d="m287.3 185.2h0.6c0.3 2 0.3 4.1 0.4 6.1l-0.4 0.5c-1.7-1.2-0.9-4.7-0.6-6.6z"/>
		<path class="st214" d="m287.8 174.1c5.1-1.9 3 4 3.2 7.2-1-2.3 0-5.9-2.8-6.7l-0.4-0.5z"/>
		<path class="st214" d="m288.2 191.3c2.8-0.8 1.9-4.4 2.8-6.7 0.1 3.5 1.6 8.9-3.2 7.2l0.4-0.5z"/>
		<path d="m288.2 174.7c2.8 0.8 1.8 4.4 2.8 6.7 1.9 0.8 4.2 1 6.8 0.6v2.1c-3-1.1-5.3-0.9-6.8 0.6-0.9 2.3 0 5.9-2.8 6.7-0.1-2.1-0.1-4.1-0.4-6.1 0.4-3.7-6.7 0.8-6.8-2.2-1-3.8 6.7 0.9 6.8-2.1 0.3-2.2 0.3-4.3 0.4-6.3z"/>
		<path class="st215" d="m270.1 177.1c0.5 0 1.4-0.1 1.9-0.1 0 5.3 0 10.6 0.1 15.9l1 0.1c1.6 0.1 3.8-0.3 3 2.1 1.4 4.5-8.4-1-3 7 0.3 2-2.8 0.6-3.9 1 0-1.5-0.1-4.5-0.1-6v-1c-2.7 0-8.2-0.1-11-0.1 0.6-7.7 8.7-12.3 12-18.9m-1.9 6.9 0.2 0.8c-2.1 2.5-3.9 5.3-5.5 8.2-1.9 1.7 5.6 1.9 6 0.2l1-0.2c-0.6-2.7 2.7-9.7-1.7-9z"/>
		<path class="st211" d="m330.2 177.7c-0.8-2.4 9.2 0.1 2.9 4.3v11.9l-0.9-0.1c0-5.2-0.1-10.4-0.2-15.6-0.6-0.1-1.4-0.3-1.8-0.5z"/>
		<path class="st216" d="m434.8 177.3c3.4-0.2 6.8-0.2 10.3-0.2v0.8c-3.5 0.2-7-0.1-10.3-0.6z"/>
		<path class="st217" d="m445 177.1c1.8 0 5.3 0.1 7.1 0.2-2.1 1.5-4.4 1.7-7.1 0.7v-0.9z"/>
		<path class="st218" d="m323.4 186.4c2.5-2.6 3.5-6.9 6.7-8.6 0.4 0.1 1.3 0.4 1.7 0.5 0.1 5.2 0.2 10.4 0.2 15.6l0.9 0.1c2.5-1.2 4.5 2.3 2.1 3-5.7-1.6-0.4 7.5-6 6.2-0.1-1.7-0.1-3.4-0.1-5.1v-1c-2.7 0-8.2-0.1-10.9-0.1-0.7-4.4 3.5-7.2 5.4-10.6m4.8-2.4 0.2 0.8c-1.9 3.2-4.5 6-6.5 9.2h7.1c0.2-2.5 0.7-7.5 0.9-9.9-0.4-0.1-1.3-0.1-1.7-0.1z"/>
		<path class="st211" d="m280 181c1.8-0.1 5.4-0.1 7.3-0.2h0.6c-0.1 3-7.9-1.6-6.8 2.1 0.1 2.9 7.2-1.5 6.8 2.2h-0.6c-1.8 0-5.4-0.2-7.2-0.2-0.1-1.3-0.1-2.6-0.1-3.9z"/>
		<path class="st219" d="m268.2 184c4.4-0.7 1.1 6.4 1.7 9l-1 0.2c0-2.8 0.4-5.7-0.5-8.4l-0.2-0.8z"/>
		<path class="st220" d="m268.9 193.1c-0.4 1.7-7.8 1.5-6-0.2 2 0 4 0 6 0.2z"/>
		<path class="st221" d="m329.1 203.1c5.6 1.3 0.3-7.8 6-6.2-2.5 1.5-2.1 4.2-2.2 7-1.1-0.3-4.4 1.1-3.8-0.8z"/>
		<path class="st222" d="m274 296.5c2.2-0.8 4.5-1 6.9-0.5v0.7c-2 1-4.8 0.7-6.9-0.2z"/>
		<path class="st222" d="m291.1 296.1h6.8v0.6c-2.1 0.8-4.7 0.8-6.8 0v-0.6z"/>
		<path class="st223" d="m280.9 296c3.4 0 6.8 0 10.2 0.1v0.6c-3.3 0.5-6.9 0.7-10.2 0v-0.7z"/>
		<path class="st224" d="m297.9 296h8.1c-0.9 2.2-5.7 0.7-8.1 0.6v-0.6z"/>
		<path class="st225" d="m230.3 298.7c2.8 1.3 8-0.5 9 3.2-0.6 4.4-0.7 9-2.3 13.2l-1-0.2c0.2-4.7 1.6-9.3 2-14-1.7 0-5.2 0-6.9 0.1-1.9 6.3-3.3 13.2-3.1 19.9 2.5 8 12.6 10.1 19.8 7.9 0.9 0.1 3.3-1.7 3 0.1-7.1 3.8-17.5 2.3-22.8-4.1-2.4-5.6-0.7-11.9 0.1-17.7l0.2-1c0.4-1.7 0.5-3.4 0.6-5.1 0.4-0.5 1.1-1.7 1.4-2.3z"/>
		<path class="st226" d="m317.8 302.7c4.8-1.7 10.2-1.2 15.1-2.8 2.3 0.1 4.7 0.4 7 0.7 1.6 1.2 2.9 2.7 3.8 4.5 0.3 1 0.6 1.9 1 2.9 0.5 2.5 0 5.1-1.4 7.2-2.7 4-8.1 3.3-12.2 4.9-0.3 3 0.3 5.9 0.7 8.9l0.1 0.8c-3.6 0.8-7.2 1.3-10.9 1.2-1-9.4-1.2-19-3.2-28.3m10.6-0.1c-2.7 0.5-5.6 0.3-8.3 0.5 0 9 1.8 17.9 2.1 26.9 2.6-0.2 5.3-0.6 7.8-1.2 0.2-3.3-0.8-6.4-0.9-9.7 4.6-2.1 10.7-0.6 13.7-5.4 0.7-4.1 0.5-8.8-3-11.6-3.8-0.4-7.7-0.3-11.4 0.5z"/>
		<path class="st227" d="m231.2 301.1c1.7 0 5.2 0 6.9-0.1-0.4 4.7-1.8 9.3-2 14-0.1 3.1-1.2 6.9 2.1 8.5 1.9 0.6 6.8 1.9 7.5-1.2 1.7-5.3 1.9-11 3.2-16.4 2.4 0.2 4.7 0.7 7.1 1.2-0.4 6.4-1.2 12.9-2.9 19.1 0.4-0.4 1.3-1.1 1.7-1.5 1.6-6.1 1.7-12.5 2.4-18.8 1.8 0.1 3.6 0.2 5.2 1-0.4 1.1-0.8 2.2-1.1 3.4-0.6 1.9-0.7 4.3 0.9 5.8 1.8 2.3 4.7 3.4 7.1 4.9-2.7 1.1-8.9-1.4-10.3 1.2-0.4 2.7 0.7 5.5 3 7l0.2 0.8c0.6 5.6-8.6-0.6-11.1 1.1-0.1-0.5-0.2-1.5-0.2-2 0.2-1.9-2.1 0-3-0.1-7.2 2.3-17.3 0.1-19.8-7.9-0.2-6.8 1.2-13.8 3.1-20z"/>
		<path class="st228" d="m246.9 302.9c3.1-1.3 6.6-1 9.9-0.9l0.3 3.9c-0.7 6.3-0.8 12.7-2.4 18.8-0.4 0.4-1.3 1.1-1.7 1.5 1.7-6.2 2.6-12.7 2.9-19.1 1.9-4.4-8.6-6.6-7.1-1.2-1.4 5.4-1.5 11.1-3.2 16.4-0.2-6.5 2.2-12.9 1.3-19.4z"/>
		<path class="st229" d="m328.4 302.6c3.8-0.7 7.6-0.9 11.4-0.4 3.5 2.8 3.7 7.5 3 11.6-3 4.8-9.2 3.3-13.7 5.4 0.1 3.2 1.1 6.4 0.9 9.7-2.5 0.6-5.2 1-7.8 1.2-0.3-9-2.1-17.9-2.1-26.9 2.6-0.3 5.5-0.1 8.3-0.6m2.3 3.9c-5.1-0.5-4.6 12.5 2.5 7.5l-0.4-0.8c6-0.1 2.7-8.9-2.1-6.7z"/>
		<path class="st230" d="m248.9 305.9c-1.5-5.4 9-3.2 7.1 1.2-2.4-0.5-4.7-1-7.1-1.2z"/>
		<path class="st231" d="m262.3 306.8c5.3-5.6 14-4.2 20.6-1.8 1.2 1.6 2.3 3.2 3.3 4.9-0.2 1.5-0.1 3.5-2.3 3v-0.7c1.3-4.4-2.9-7.2-6.7-7.5-2.8-0.6-5.8-1.2-8.5-0.2-3 0.3-4.9 2.8-6.1 5.3l-0.9 0.2-0.5 0.1c0.4-1 0.7-2.1 1.1-3.3z"/>
		<path class="st232" d="m290.3 303.1c2.7 0 8-0.1 10.7-0.1v1h-10.9l0.2-0.9z"/>
		<path class="st233" d="m301 303c3.8 0 7.5-0.1 11.3-0.2 1 0.3 2 0.6 2.9 1l-0.4 6c-4.9 0.2-9.9 0.7-14.8 1.3-1.7 5 4.6 2.6 7.7 2.6 0.4 0.3 1.1 0.9 1.4 1.2-3.4 0.1-6.7 0.3-10 0.1-0.2-1.7-0.3-3.5-0.4-5.2 4.6-0.8 9.4-0.4 14-1 2-0.9 0.1-3.2 0-4.7-4-0.7-7.8 1-11.7 0.9v-1-1z"/>
		<path class="st234" d="m315.2 303.8c0.8-0.4 1.7-0.7 2.5-1.1 2 9.3 2.2 18.9 3.3 28.3-1.4 0-3 0.2-4-1.1 0-1.5-0.1-4.4-0.2-5.8-1.3 0.2-3.9 0.6-5.2 0.8-2.7 0-8 0.1-10.7 0.1-0.4-2.5-0.2-4.8 3-4.1 3.7 0.2 7.4-0.5 11-0.9 0.1-2.4-0.6-4.6-1.3-6.8-1.5 0.1-4.5 0.4-6 0.6-3.1 0-9.4 2.5-7.7-2.6 4.9-0.6 9.8-1.1 14.8-1.3 0.2-1.6 0.4-4.6 0.5-6.1z"/>
		<path class="st235" d="m268.7 304.6c2.8-1 5.7-0.5 8.5 0.2-2.8-0.1-5.7-0.1-8.5-0.2z"/>
		<path class="st236" d="m290.1 304c3.6 0 7.3-0.1 10.9 0v1c-3 0-6-0.1-9 0-2.9 0.9-0.2 7.1-1 10h-1v-5c0-1.7 0-3.4-0.1-5l0.2-1z"/>
		<path class="st237" d="m301 305c4 0.1 7.7-1.6 11.7-0.9 0.1 1.5 2 3.7 0 4.7-4.7 0.6-9.4 0.2-14 1-1.7 0.1-5 0.2-6.7 0.3v-5c3-0.2 6-0.1 9-0.1z"/>
		<path class="st238" d="m262.6 309.9c1.2-2.5 3.1-5 6.1-5.3 2.8 0.1 5.7 0.1 8.5 0.2 3.9 0.3 8 3.1 6.7 7.5-2-0.4-4-0.4-6-0.5-1.5-1.4-2.5-4-5-3.8-1.7-0.1-2.9 1.4-4.3 2.2-1.9-0.2-3.9-0.2-6-0.3z"/>
		<path class="st238" d="m282.9 305.1c1.8 0 5.2-0.1 7-0.1 0.1 1.7 0.1 3.4 0.1 5h-3.7c-1.1-1.7-2.2-3.3-3.4-4.9z"/>
		<path class="st239" d="m291 315c0.8-2.8-1.9-9.1 1-10v5 5h-1z"/>
		<path class="st240" d="m330.7 306.5c4.8-2.2 8.1 6.6 2.1 6.8 1.1-1.6 3.5-3.6 1-5.2-6.9-4.2-6 6.2-1 5.2l0.4 0.8c-7.1 4.9-7.6-8.1-2.5-7.6z"/>
		<path class="st241" d="m268.7 310.1c1.4-0.7 2.6-2.3 4.3-2.2 2.4-0.3 3.5 2.3 5 3.8-0.1 0.3-0.4 0.9-0.6 1.2 0.8 2.5 6.3 2 7.9 4.7 2.3 3 3 7.9 0 10.5 0.2-3.2 1.7-6.9-1-9.5-4-4.9-13.2-2-15.6-8.5m2.3-0.1c-0.5 2.8 3.1 2.9 5.1 3 0.5-3.1-2.9-3.3-5.1-3z"/>
		<path class="st242" d="m261.2 310.2 0.5-0.1c0.3 1.9 0.8 3.9 1.1 5.8l-0.7 0.1c-1.6-1.5-1.5-3.9-0.9-5.8z"/>
		<path class="st243" d="m261.8 310.1 0.9-0.2c2 0 4.1 0.1 6.1 0.2 2.3 6.5 11.6 3.6 15.5 8.6 2.7 2.6 1.2 6.3 1 9.5-6.8 5.1-16 4.8-23.3 0.8-0.3-3-5.1-9.4 3-6.1 2.4-0.5 3.5 1.8 4.9 3.2 1.8 3.7 8.5 2 8.1-2.1 0.2-1.5-0.5-2.3-2.1-2.4-1.5-1.5-3.6-2.2-5.7-1.7-2.4-1.5-4.9-2.8-7.5-4-0.2-1.9-0.6-3.9-0.9-5.8z"/>
		<path class="st243" d="m286.2 310h3.7v5 18.1c-2.5-0.4-8.1 1.7-6.8-1.9 0.7-1 1.4-1.9 2-2.9 3.1-2.6 2.3-7.6 0-10.5-1.6-2.7-7.1-2.2-7.9-4.7h6.6c2.3 0.4 2.2-1.6 2.4-3.1z"/>
		<path class="st243" d="m269.3 320.9 0.9-0.2c1.6 0.6 3.2 1.3 5 1.4 0.7 0.6 1.3 1.3 1.9 2-1.2 2.9-4.7 2.5-7.2 2.1l-0.9-4.2 0.3-1.1z"/>
		<path class="st244" d="m271 310c2.2-0.3 5.6-0.1 5.1 3-2-0.1-5.7-0.2-5.1-3z"/>
		<path class="st245" d="m292 310c1.7-0.1 5-0.2 6.7-0.3 0.1 1.7 0.2 3.5 0.4 5.2 3.3 0.3 6.7 0 10-0.1 2.5 0.3 7.1-2.7 3.8 3.9-3.1 0.2-6.3-0.1-9.3 0.9-1.6 0.2-3.1 0.3-4.7 0.5 0.1 2 0.7 3.8 1.3 5.7 3.9 0.1 7.8 0.1 11.8 0 2.6 0.5 7.4-1.1 4 5.1-4.7 0.1-9.3 0-14 0-3.1 0-6.3-0.4-9.2 0.7l-0.8 0.2v-16.9-4.9z"/>
		<path class="st246" d="m277.4 313c0.1-0.3 0.4-0.9 0.6-1.2 2 0.1 4 0.1 6 0.5v0.7h-6.6z"/>
		<path class="st247" d="m307.7 313.7c1.5-0.1 4.5-0.4 6-0.6 0.7 2.2 1.4 4.4 1.3 6.8-3.7 0.5-7.3 1.2-11 0.9l-0.3-1.1c3-1 6.2-0.7 9.3-0.9 3.3-6.7-1.3-3.7-3.8-3.9-0.4-0.4-1.1-0.9-1.5-1.2z"/>
		<path class="st248" d="m236 315 1 0.2c0.3 2.7 0.9 5.5 1.2 8.3-3.3-1.6-2.3-5.5-2.2-8.5z"/>
		<path class="st249" d="m290 315h1 1v16.9c-0.3 0.2-1 0.6-1.3 0.8l-0.7 0.4v-18.1z"/>
		<path class="st250" d="m262.2 316 0.7-0.1c2.5 1.3 5.1 2.5 7.5 4l-0.1 0.7-0.9 0.2c-2.5-1.5-5.4-2.5-7.2-4.8z"/>
		<path class="st251" d="m270.3 319.9c2.1-0.4 4.1 0.3 5.7 1.7l-0.8 0.4c-1.8-0.1-3.4-0.8-5-1.4l0.1-0.7z"/>
		<path class="st252" d="m259 322c1.4-2.6 7.7-0.1 10.3-1.2l-0.3 1.1c-3.4 0-6.7 0.1-10 0.1z"/>
		<path class="st253" d="m259 322c3.3 0 6.6-0.1 10-0.1l0.9 4.2c-1.4-1.4-2.5-3.8-4.9-3.2-8.2-3.3-3.3 3-3 6.1-2.4-1.5-3.4-4.2-3-7z"/>
		<path class="st254" d="m275.2 322 0.8-0.4c1.6 0 2.3 0.8 2.1 2.4 0.3 4.1-6.3 5.8-8.1 2.1 2.5 0.4 6 0.8 7.2-2.1-0.7-0.7-1.4-1.3-2-2z"/>
		<path class="st255" d="m311.7 324.8c1.3-0.2 3.9-0.6 5.2-0.8 0 1.5 0.1 4.4 0.2 5.8 0 0.5-0.1 1.5-0.1 2-5-0.2-10 1.1-15 1.1v-1-1h14c3.4-6.2-1.4-4.6-4-5.1l-0.3-1z"/>
		<path class="st256" d="m262 329c7.2 4 16.4 4.4 23.3-0.8-0.6 1-1.3 2-2 2.9-6.4 2.7-15.5 3.7-21-1.3l-0.3-0.8z"/>
		<path class="st257" d="m292.8 331.7c3-1.1 6.1-0.7 9.2-0.7v1c-3.1-0.1-6.2-0.1-9.2-0.3z"/>
		<path class="st258" d="m290.7 332.7c0.3-0.2 1-0.6 1.3-0.8l0.8-0.2c3.1 0.2 6.1 0.2 9.2 0.3v1c-3.8 0-7.5 0.2-11.3-0.3z"/>
		<path class="st259" d="m263 340c2.8 0 5.6 0.5 8.4 1h-8.4v-1z"/>
		<path class="st260" d="m300.5 341c2.6-1.5 5.6-1 8.5-1l-0.1 1h-8.4z"/>
</svg>
