<?xml version="1.0" encoding="UTF-8"?>
<!DOCTYPE svg  PUBLIC '-//W3C//DTD SVG 1.1//EN'  'http://www.w3.org/Graphics/SVG/1.1/DTD/svg11.dtd'>
<svg width="568pt" height="567pt" version="1.1" viewBox="0 0 568 567" xmlns="http://www.w3.org/2000/svg">
<g fill="#fff">
<path d="m258.08 35.19c8.59-1.16 17.31-1.29 25.97-1.16 2.28-0.3 1.5 2.51 1.78 3.85-7.29 0.78-14.68 0.11-22 0.97 0.26 4.2 0.57 8.39 0.95 12.58 6.47-0.22 12.95-0.68 19.44-0.33 0.03 1.34 0.02 2.68-0.03 4.02-6.35 0.23-12.72 0.01-19.05 0.75 0.08 5.63 1.3 11.24 0.86 16.88-2.02 0.14-4.03 0.23-6.05 0.28-1.47-10.96-2.42-21.98-3.76-32.95-0.19-1.73-0.61-4.79 1.89-4.89z"/>
<path d="m321.43 38.24c0.22-2.79 3.49-2.26 5.43-1.86 8.11 1.63 16.37 2.96 24.19 5.76-0.25 1.3-0.57 2.6-1.23 3.75-7.13-1.71-14.22-3.62-21.46-4.82-0.67 3.78-1.39 7.56-2.09 11.35 5.99 1.61 12.31 2.14 18.07 4.56-0.37 1.26-0.81 2.49-1.37 3.68-5.82-1.39-11.61-2.98-17.56-3.72-0.75 4.41-1.61 8.79-2.39 13.19 6.3 1.7 13 2.22 18.96 4.97-0.35 1.1-0.66 2.21-0.93 3.33-6.54-0.88-12.84-3.1-19.4-4.02-2.02-0.46-5.8-0.45-5.27-3.49 1.56-10.9 3.27-21.8 5.05-32.68z"/>
<path d="m226.38 39.54c7.55-1.72 16.95-1.63 22.38 4.73 4.9 6.6 5.6 16.12 2.06 23.49-3.77 7.41-12.15 10.59-19.84 12.12-6.67 1.41-14.59 0.91-19.55-4.32-5.7-6.16-8.97-16.02-4.64-23.79 4.08-6.97 11.99-10.57 19.59-12.23m2.04 4.01c-4.89 0.89-10.02 2.62-13.31 6.55-6.05 7.03-2.13 18.13 4.32 23.48 10.58 6.58 29.06-1.86 26.5-15.68 0.14-9.12-8.31-17.03-17.51-14.35z"/>
<path d="m358.33 44.47c10.35 2.62 22.57 5.95 28.4 15.81 5.84 11.21-4.22 26.6-16.71 26.46-7.71 0.12-14.76-3.49-21.93-5.83-2.44-0.49-1.61-3.23-1.12-4.87 2.93-9.45 5.87-18.9 8.77-28.36 0.51-1.24 0.85-3.27 2.59-3.21m4.12 5.64c-3.03 9.33-6.19 18.62-9.41 27.89 5.91 2.1 12.19 5.38 18.61 3.49 6.65-2.6 10.91-10.4 10.04-17.37-2.04-8.69-11.62-11.88-19.24-14.01z"/>
<path d="m153.18 71.16c6.78-3.42 13.11-8.57 20.6-10.08 0.06 1.14 1.6 2.94 0.11 3.71-6.18 3.41-12.6 6.41-18.56 10.22 1.91 3.35 3.91 6.65 5.93 9.93 4.92-2.72 9.72-5.71 14.86-8 2.24-1.5 4.23 3.03 1.82 3.84-4.83 2.58-9.82 4.92-14.33 8.05 2.4 3.83 4.34 7.98 7.22 11.5 5.25-3.16 10.6-6.25 16.23-8.67 1.75 0.16 1.9 2.03 2.43 3.32-6.63 3.52-13.27 7.02-19.7 10.89-1.93 1.7-3.8-0.2-4.71-1.91-5.55-8.79-11.29-17.47-16.73-26.32-2.22-3.28 2.7-5.01 4.83-6.48z"/>
<path d="m399.14 61.65c2.37 0.5 4.57 1.6 6.28 3.35-3.93 7.48-8.37 14.69-12.32 22.16-5.54 10.17 11.42 21.63 18.8 12.76 5.34-6.86 10.06-14.19 15.28-21.16 2.2 0.91 4.15 2.3 5.69 4.12-4.87 6.77-9.96 13.38-15.02 20.01-10.99 13.59-37.8-2.49-30.59-18.59 3.82-7.62 7.91-15.1 11.88-22.65z"/>
<path d="m115.51 105.39c2.32-11.82 13.03-20.91 24.47-23.53 2.5-1 4.09 1.19 5.02 3.15-8.63 2.4-18.34 5.75-22.33 14.65-5.31 9.99 4.66 22.49 15.35 21.59 6.9-0.65 12.96-5.32 16.48-11.14-2.22-3.07-4.3-6.25-6.71-9.19-3.95 1.13-6.68 5.35-10.62 7.01-0.79-0.96-1.55-1.95-2.3-2.94 5.02-3.96 9.88-9.33 16.05-11.03 3.71 4.52 7.64 9.56 9.83 14.92-4.36 8.76-13.18 15.8-22.88 17.73-11.96 2.38-24.58-8.98-22.36-21.22z"/>
<path d="m126.69 172.69c35.59-51.46 97.72-83.38 160.31-81.69 60.59 0.32 119.61 32.22 154.14 81.85 17.57 24.86 28.62 54.05 33 84.12 0.02 0.57 0.07 1.71 0.09 2.28-4-0.86-7.75-2.55-11.66-3.67-14.33-2.11-27.05 6.5-40.95 8.03-10.15 1.58-20.35 3.45-30.62 3.61-9.74-2.75-19.33-6.2-29.48-7.16 0.13-6.5-0.35-13.03 0.23-19.51 8.76 0.19 17.54 0.02 26.3 0.12 8.32 0.6 12.76-8.07 19.82-10.83 3.28-0.96 2.69-5.73 1.39-8-6.24-2.29-10.97-7.14-16.4-10.76-10.32-0.83-20.76-0.25-31.12-0.27-0.33-3.58-0.23-7.18-0.47-10.77 6.48-3.85 13.08-7.5 19.74-11.01 8.37-3.32 7.62-14.04 12.68-20.32 3.06-2.79 0.7-8.63-3.61-7.69-8.45 0.91-17.83-5.08-25.28 0.77-7.53 4.62-15.14 9.08-22.72 13.61-1.99-1.91-3.96-3.84-5.94-5.76 5.11-9.34 10.69-18.39 15.71-27.79 0.44-6.97-1.76-13.88-1.82-20.88 0.44-3.31-4.03-5.23-6.51-3.47-5.43 4.14-12.75 4.8-18.24 8.76-5.1 7.96-9.54 16.37-14.5 24.44-1.44 4.21-6.99 1.52-9.56 0.07-0.51-10.54 0.27-21.14-0.34-31.67-3.57-5.33-8.15-9.98-11.57-15.44-1.22-2.78-5.45-3.06-7.07-0.52-3.7 5.36-7.77 10.51-11.28 15.99-0.86 10.72-0.01 21.55-0.41 32.32-2.9 0.5-5.78 1.09-8.63 1.84-6.01-8.71-10.76-18.2-15.76-27.49-5.48-3.69-12.33-4.52-17.96-7.95-2.01-1.55-4.57-0.77-6.84-0.46-0.13 8.22-2.17 16.33-2.26 24.51 4.78 9.36 10.8 18.06 16.05 27.18-1.9 2.13-3.8 4.28-5.65 6.45-8.29-4.65-16.41-9.57-24.53-14.5-2.04-1.18-4.28-2.53-6.72-1.81-6.88 1.45-13.88 1.75-20.87 2.14-1.24 8.97 6.14 16.46 8.34 24.96 9.8 4.69 18.92 10.62 28.4 15.9-1.16 2.71-2.09 5.51-2.76 8.39-9.12 0.2-18.25 0.06-27.37 0.06-9.17-0.89-13.82 9.94-22.56 10.95-0.76 2.54-1.03 5.21 0.02 7.72 8.43 1.31 12.56 11.84 21.5 11.32 10.5 0 21-0.09 31.5 0.02 0.12 6.32 0.02 12.64 0.02 18.96-10.53 0.96-20.59 4.1-30.62 7.22-11.04 0.42-22.01-2.11-32.92-3.65-11.59-1.42-22.04-7.98-33.85-8.07-8.48-1.14-15.67 5.61-23.88 5.59 3.57-31.52 15.24-62.1 33.49-88.04z"/>
<path d="m419.5 113.45c0.83-10.06 9.02-20.03 19.48-20.69 10.11-0.07 19.37 7.75 22.13 17.26 0.91 2.38-0.56 4.57-2.94 5.06-1.98-7.57-6.71-15.92-15.31-16.85-8.76-0.29-15.81 7.9-17.53 15.92-1.34 8.75 7.27 15.16 15.05 16.48 0.22 0.56 0.66 1.7 0.88 2.26 11.01-3.67 22.05-7.57 33.49-9.65 2.29 1.59 4.32 4 5.08 6.72-5.4 11.74-12.11 22.9-19.27 33.65-2.06 3.22-4.07-1.94-5.01-3.6 1.86-2.97 3.72-5.94 5.51-8.95-3.76-5.05-7.44-10.23-11.92-14.66-2.7 0.95-5.36 1.99-8.08 2.85-2.82 1.15-5.72-2.51-4.6-5.16-8.91-2.75-17.26-10.78-16.96-20.64m34.4 21.44c3.37 3.94 6.39 8.16 9.82 12.05 3.22-5.85 6.56-11.64 9.43-17.67-6.46 1.73-12.96 3.35-19.25 5.62z"/>
<path d="m88.1 128.03c5.29-6.71 10.98-13.11 17.05-19.12 1.55 0.39 2.57 1.45 3.08 2.94-4.92 5.2-9.95 10.33-14.29 16.04 2.96 2.45 5.83 5.01 8.94 7.28 3.91-4.55 7.67-9.27 12.13-13.3 1.14 0.76 2.14 1.7 2.83 2.91-3.86 4.41-7.98 8.61-11.6 13.24 3.5 2.88 6.88 5.95 10.6 8.56 3.73-4.51 7.56-8.96 11.76-13.03 1.5-1.82 4.64 1.44 2.95 2.98-4.79 5.23-9.54 10.51-14.07 15.99-1.2 1.73-3.28 0.3-4.5-0.61-8.21-6.42-16.5-12.74-24.66-19.21-1.84-1.02-1.5-3.35-0.22-4.67z"/>
<path d="m482.41 139.53c-1.66-1.94 2.17-4.73 3.45-2.47 7 9.66 13.16 19.95 18.55 30.59 1.46 2.21-1.31 3.21-3.05 3.35-2.44-4.53-4.8-9.1-7.42-13.53-9.79 5.37-19.29 11.27-28.99 16.82-1.58-1.35-2.51-3.19-3.18-5.11 9.2-6.02 18.67-11.61 27.92-17.53-0.94-4.38-5.06-8.05-7.28-12.12z"/>
<path d="m69.8 155.9c0.04-2.1 1.66-5.85 4.02-5.75 9.53 5.37 18.33 12.04 27.97 17.23 3.15-4.99 6.29-10.06 10.28-14.44 1 0.87 3.55 1.89 2.37 3.55-3.97 5.41-7.66 11.01-11.34 16.62-1.34 2.44-4.02 0.32-5.7-0.53-9.14-5.66-18.63-10.77-27.6-16.68z"/>
<path d="m472.16 187.5c11.25-5.34 22.29-11.17 33.64-16.28 1.25 2.08 4.78 6.11 0.83 7.31-10.83 4.71-21.35 10.22-32.37 14.42-0.93-1.72-1.9-3.47-2.1-5.45z"/>
<path d="m97.22 174.97c1.52-1 2.9 0.88 3.8 1.9-3.89 6.42-7 13.26-10.39 19.95-12.1-2.82-23.07-9.72-34.75-14.08 0.36-2.29 0.85-5.48 3.13-6.5 10.16 4.23 19.94 9.4 29.99 13.91 2.75-5.05 5-10.4 8.22-15.18z"/>
<path d="m498.35 188.45c15.09-3.65 24.52 13.65 23.93 26.53 0.31 17.58-26.7 22.89-35.98 9.68-4.17-5.96-6.52-13.52-5.61-20.8 1.42-8.52 9.9-13.56 17.66-15.41m-0.03 6.89c-5.61 1.87-12.07 5.3-13.06 11.75-0.79 7.63 3.47 17 11.76 18.27 6.68 0.72 14.51-1.02 18.7-6.68 6.36-10.65-4.17-28.88-17.4-23.34z"/>
<path d="m59.42 192.55c9-0.93 18.86 3.85 22.99 12.07 3.55 8.31 0.97 17.97-3.32 25.52-6.31 10.55-22.35 9.97-30.93 2.69-6.58-6.12-6.24-16.32-3.58-24.24 2.15-7.11 6.88-14.81 14.84-16.04m-0.08 6.79c-12.33 2.5-17 23.38-5.11 29.53 6.67 3.23 16.45 4.41 21.45-2.27 3.87-5.79 5.9-14.4 1.05-20.26-4.28-4.8-11-7.44-17.39-7z"/>
<path d="m237.66 221.22c10.8-1.66 20.44 4.49 30.1 8.26-0.94 8.11 5.45 13.4 8.91 19.91-2.95 0.97-4.96 3.39-6.89 5.67 2.05 12.21 4.53 24.35 6.4 36.58l-1.17 0.23c-7.04-7.09-17.66-6.19-25.45-0.89-6.92-20.7-14.02-41.34-21.02-62.02 2.36-2.73 5.22-4.92 7.99-7.21 0.29-0.13 0.85-0.4 1.13-0.53z"/>
<path d="m309.31 228.21c9.17-2.93 18.02-8.76 28.05-6.99 0.28 0.14 0.83 0.4 1.11 0.53 2.76 2.29 5.64 4.48 7.99 7.22-7.01 20.66-14.1 41.3-21.01 61.99-6.27-3.44-14.28-6.75-20.88-2.15 1.17-11.35 3.91-22.47 5.65-33.74-2.29-2.89-5.03-5.7-8.88-6.18 4.06-6.29 10.83-12.39 7.97-20.68z"/>
<path d="m489.32 239.85c11.78-2.75 23.71-5.01 35.63-7.03 3.61 1.48 3.46 7.41 2.43 10.64-7.65 9.02-17.16 16.28-26.08 23.99 9.85-0.13 19.67-1.34 29.53-1.34 0.15 2.35 0.19 4.7 0.16 7.06-11.32 0.7-22.68 0.64-34.01 1.11-5.35 1.1-5.44-7.13-2.16-9.46 9.21-7.61 18.34-15.36 26.49-24.12-10.3 1.34-20.46 3.53-30.76 4.88-0.54-1.88-0.95-3.8-1.23-5.73z"/>
<path d="m40.93 236.88c1.22-2.05 3.49-1.66 5.35-0.85-3.36 6.53-8.38 13.51-5.7 21.39 3.1 10.7 18.33 12.76 26.33 6.49 6.17-5.54 5.67-15 2.7-22.07 0.03-2.46 2.75-1.19 4.05-0.57 3.64 7.1 2.85 15.92-0.4 23.02-6.35 13.53-29.38 13.64-35.44-0.19-3.73-8.71-2.65-19.63 3.11-27.22z"/>
<path d="m213.83 339.81c12.35-3.18 24.97-5.24 37.47-7.74 11.34 7.2 24.17 11.55 36.65 16 11.84-4.35 24.04-8.2 34.93-14.83 9.99-0.31 19.6 2.81 29.36 4.47 10.11 1.63 19.31 6.88 29.59 7.67 24.3 4.13 46.82-11.14 71.12-8.54 4.8 0.84 10.73-0.88 14.64 2.63-11.14 34.07-31.03 65.43-58.41 88.73-37.61 32.84-88.48 49.66-138.21 46.54-32.9-2.89-65.43-13.25-92.99-31.7-36.56-24.08-63.97-61.05-77.54-102.58 10.63-4.04 22.36-3.94 33.55-3.22 13.92 0.75 26.73 7.29 40.63 8.21 13.32 2.73 26.71-1.3 39.21-5.64m129.68 24.22c4.88 3.7 7.92 9.02 8.18 15.31-3.86 0.86-7.83-0.27-11.69 0.48-6.18 1.78-10.69 6.7-14.86 11.32-7.28 9.82-4.94 22.84-3.04 34.02 2.06 8.13 9.54 13.2 16.87 16.18 8.16 0.74 16.48-0.73 24.26-3.07 3.36-25.33 0.95-51.45-4.02-76.49-4.79-0.56-14.29-4.37-15.7 2.25m-73.19-1.54c-3.58 0.53-4.57 4.54-5.31 7.51-5.11 16.48-3.32 33.97-3.65 50.95-1.67 5.95-0.57 12.11-0.87 18.18 1.38 0.93 2.66 2.44 4.51 2.25 13.33-0.09 26.7 2.54 39.99 0.28 3.11-0.31 8.98 1.33 8.6-3.72-2.69-3.81-6.63-6.62-8.7-10.91-0.71-1.96-2.74-1.7-4.42-1.66-4.32 6.4-12.97 7.1-19.94 5.92-3.5-2.56-5.96-6.27-7.58-10.24-3.34-6.33-0.32-13.48-0.18-20.15 4.51-1.12 9.35-2.52 13.88-0.65 3.42 0.82 7.03 3.48 10.59 1.99 2.76-3.58 2.61-8.39 2.17-12.66-1.76-4.19-7-1.87-9.42 0.42-4.87 4.58-14.8 2.92-16.49-4 2.34-9.22 12.99-17.19 22.24-11.75 7.15 4.52 11.94-4.76 16.05-9.22-0.42-0.63-1.27-1.88-1.69-2.5-13.29 0.26-26.53 1.19-39.78-0.04m-57.7 1.16c-10.38 5.37-19.18 14.84-22.51 26.19-1.47 14.02-4.69 30.11 4.91 42.15 9.18 9.96 25.41 16.37 38.03 9.12 9.33-3.51 11.79-14.94 10.44-23.82-4.58 2.3-5.82 9.2-11.07 11.14-11.23 3.96-24.35-2.02-28.84-13.05-5.3-12.32-4.26-29.94 7.93-37.93 3.69-2.66 8.21-4.83 12.88-3.86 3.4 1.07 5.59 4.13 8.53 5.99 4.21 1.2 9.28-3.18 7.35-7.51-6.09-8.56-18.01-10.92-27.65-8.42z"/>
<path d="m494.61 364.52c-7.35-1.41-4.46-14.73 2.57-13.39-2.01 2.62-6.95 6.55-2.83 9.59 5.43 1.23 7.44-7.99 13.27-6.3 6.23 1.68 4.93 9.88 1.66 13.8-1.79 5.06-3.61 10.19-6.46 14.82-6.82-2.56-13.05-6.43-19.69-9.39 2.04-3.74 2.59-10.71 6.99-11.57-0.52 3.27-2.25 6.13-3.58 9.1 2.13 1.33 4.41 2.4 6.7 3.42 2.06-2.21 1.98-8.12 5.7-7.35-0.62 2.79-2.11 5.25-3.15 7.87 1.22 2.11 4.42 2.48 6.44 3.81 1.36-2.28 2.45-4.71 3.52-7.13-0.32-0.88-0.63-1.76-0.93-2.63 3.06-2.33 7.14-7.88 2.82-10.89-5.33-1.19-7.31 7.6-13.03 6.24z"/>
<path d="m60.22 360.2c4.75-1.87 9.49-3.85 14.44-5.13 0.19 0.74 0.56 2.23 0.75 2.97-4.62 2.43-9.83 3.5-14.39 6.05-4.94 2.96-0.94 12.4 4.66 10.64 4.95-1.58 9.46-4.26 14.35-6.01 0.41 1.04 0.8 2.09 1.19 3.15-4.45 2.01-8.79 4.29-13.36 6.04-9.48 3.57-16.73-13.36-7.64-17.71z"/>
<path d="m62.19 382.49c6.04-2.69 11.95-5.67 17.99-8.35 2.53-1.65 4.23 2.47 3.26 4.35-3.05 5.34-6.67 10.36-9.53 15.82 4.9-2.33 9.61-5.05 14.31-7.76 1.2 0.64 1.78 1.81 1.92 3.13-5.95 3.09-11.63 6.7-17.6 9.76-2.29 1.42-3.69-2.3-3.13-4.02 2.78-5.88 6.71-11.13 9.94-16.76-5.55 2.01-10.5 5.39-16.11 7.25-0.36-1.15-0.71-2.28-1.05-3.42z"/>
<path d="m482.08 375.13c6.61 3.26 13.37 6.29 19.72 10.06-0.81 1.34-1.08 3.63-2.92 3.87-6.54 0.92-13.17 0.82-19.75 1.01 4.8 3.37 10.14 5.85 15.09 8.99-0.49 1.04-0.97 2.09-1.45 3.15-5.97-2.83-11.43-6.59-17.17-9.83-3.07-1-1-5.31 1.44-5.45 6.08-0.34 12.19-0.21 18.25-0.9-4.66-3.09-9.99-4.97-14.63-8.07 0.47-0.95 0.94-1.89 1.42-2.83z"/>
<path d="m341.27 387.2c4.2-2.03 8.7 1.36 10.55 5.06 2.92 4.4 1.01 9.86 2.09 14.73 0.7 5.76 1.91 12.67-2.71 17.18-2.76 3.94-8.2 2.42-12.26 2.18-6.07-2.78-6.43-10.57-7.21-16.35 0.54-8.03 1.38-18.83 9.54-22.8z"/>
<path d="m72.03 402.02c6.29-3.8 12.71-7.38 19.1-11.02 1.19 1.61 2.24 3.3 3.21 5.06-3.67 5.42-8.26 10.18-11.58 15.85 6.45-1.13 12.68-3.23 19.13-4.34 1.96 4.89 8.75 8.59 8.18 13.85-3.04-1.51-4.37-4.86-6.45-7.36-2.27 1.29-4.42 2.78-6.29 4.61 1.14 2.41 6.43 5.54 3.57 8-2.18-1.76-3.39-4.37-5.27-6.4-2.45 0.27-4.28 2.73-6.38 4.01 1.94 3 4.56 5.56 6.01 8.87-4.96-0.07-6.63-6.95-9.86-10.19 4.26-4.67 10.59-6.91 14.77-11.66-6.46 1.23-12.77 3.17-19.28 4.13-1.58-0.34-1.88-2.26-2.71-3.41 3.6-5.43 7.88-10.38 11.48-15.81-5.49 2.52-10.4 6.09-15.72 8.94-0.64-1.04-1.28-2.08-1.91-3.13z"/>
<path d="m472.14 392.79c6.56 3.4 12.7 7.55 19.06 11.3-0.48 1.04-0.95 2.08-1.42 3.13-4.02-1.69-7.46-4.42-11.25-6.51 2.18 4.56 0.27 9.22-2.48 13.01 2.18 1.36 4.3 2.82 6.36 4.36-0.65 1.05-1.39 2.06-2.23 2.98-3.47-2.43-6.93-4.87-10.42-7.28 2.32 4.67-0.31 9.25-3.02 13.02 2.11 1.51 4.18 3.09 6 4.96-0.5 0.63-1.5 1.87-2 2.5-5.99-3.99-11.58-8.65-17.05-13.32 1.61-4.71 5.87-9.89 11.46-9.95-0.87-1.01-1.73-2.03-2.58-3.04 2.64-4.3 5.45-9.74 11.25-9.86-0.99-0.82-1.98-1.63-2.95-2.44 0.41-0.96 0.84-1.91 1.27-2.86m-6.08 14.01c2.61 1.86 5.27 3.65 7.96 5.38 2.47-2.55 4.3-7.42 0.48-9.69-3.69-2.43-6.88 1.3-8.44 4.31m-8.86 12.73c2.56 1.85 5.02 3.82 7.62 5.62 2.32-2.62 4.72-7.34 0.76-9.74-3.52-2.72-7.09 0.92-8.38 4.12z"/>
<path d="m94.43 435c5.62-4.81 11.32-9.65 17.5-13.71 3.35 3.81 8.5 8.73 5.01 14.14 5.52-2.85 12.49 2.69 11.14 8.65-3.06-0.23-1.98-4.53-4.47-5.78-1.88-2.07-5.72 0.04-5 2.67 1.08 3.63 2.69 7.17 2.56 11.07 3.24-3.22 6.3-6.61 9.63-9.74 4.91 4.42 9.54 9.19 14.89 13.1-0.67 3.93-1.64 7.8-2.43 11.71 3.63-1.59 7.22-3.27 10.87-4.83 0.78 0.77 1.51 1.58 2.19 2.46-7.12 3.38-15.06 5.52-19.25 12.81-0.86-0.84-1.71-1.67-2.57-2.5 5.59-4.82 6.69-11.99 7.52-18.93-0.62-1.41-2.06-2.2-3.09-3.26-4.81 4.72-8.65 10.38-13.78 14.77-0.75-0.87-1.5-1.74-2.25-2.6 4.35-4.96 9.11-9.56 13.18-14.76-1.47-1.28-2.93-2.58-4.36-3.9-4.7 4.61-9.1 9.53-13.84 14.1-0.88-0.79-1.76-1.59-2.64-2.38 0.99-1.12 1.99-2.23 2.99-3.34-7.38 1.84-10.72-5.79-15.34-9.73 1.63-4.2 6.46-9.81 1.33-13.51-2.39 2.13-4.92 4.11-7.37 6.17-0.81-0.9-1.62-1.79-2.42-2.68m11.78-4.91c1.63 2.27 4.96 5.73 7.66 2.8 2.76-2.44 0.28-5.82-1.78-7.7-2 1.58-3.96 3.21-5.88 4.9m3.6 6.5c-0.68 3.78-3.5 7.78-0.71 11.38 1.23 3.05 6.38 6.13 8.22 1.95 0.37-4.58-4.03-9.19-1.1-13.82-2.07 0.71-4.25 0.88-6.41 0.49z"/>
<path d="m449.72 424.3c0.58-0.49 1.73-1.48 2.31-1.98 5.63 4.62 11.43 9.06 16.99 13.77-3.46 4.05-6.41 9.36-10.9 12.03-5.63-4.39-10.7-9.49-16.06-14.23 0.66-0.85 1.32-1.69 1.99-2.54 5.39 3.78 9.93 8.65 15.02 12.82 2.28-1.94 4.14-4.3 5.85-6.74-5.02-4.4-10.94-7.98-15.2-13.13z"/>
<path d="m438.29 437.91c0.83-0.86 1.88-3.36 3.29-1.72 5.21 4.58 10.27 9.33 15.34 14.06-0.95 0.71-1.86 3.24-3.24 2.07-5.22-4.71-10.26-9.61-15.39-14.41z"/>
<path d="m434.58 441.9c0.75-0.87 1.52-1.72 2.3-2.56 5.39 4.91 10.56 10.08 15.89 15.06-2.74 5.95-6.58-2.05-9.57-3.93-2.57 2.5-5.1 5.04-7.65 7.56 2.15 2.38 4.33 4.75 6.58 7.04-0.95 0.68-1.59 2.52-2.83 2.39-3.13-2.75-5.65-6.12-8.6-9.04 1.07 4.97-2.13 9.05-5.88 11.82 1.4 2.06 2.95 4.03 4.61 5.9-0.81 0.93-1.64 1.85-2.49 2.75-4.75-5.46-9.54-10.97-13.67-16.9 2.8-4.19 8.29-8.94 13.93-7.04-1.6-1.71-3.45-4.57-0.19-5.78 2.34 2.29 4.45 4.82 6.94 6.97 2.52-2.36 5.08-4.69 7.43-7.22-2.18-2.42-4.51-4.7-6.8-7.02m-17.64 19.17c1.92 2.55 4 4.99 6.15 7.36 3.13-1.83 6.61-6.29 2.96-9.43-2.86-3.4-6.75-0.16-9.11 2.07z"/>
<path d="m394.92 471.15c1-0.48 2-0.95 3.02-1.41 3.74 6.34 8.25 12.33 11.17 19.11-1.58 0.77-3.33 2.29-5.18 1.4-5.83-2.57-11.16-6.13-16.81-9.07 2.2 5.38 5.38 10.29 7.77 15.59-2.38 0.99-4.62 2.29-6.95 3.37-4.29-1.88-7.68-8.3-13.11-5.08 0.75 3.4 2.91 6.33 3.34 9.82-1.05 0.33-2.09 0.68-3.12 1.04-2.73-6.85-6.33-13.47-8.1-20.63 4.15-1.59 8.9-5.17 13.36-2.58 3.08 2.12 2.6 6.06 0.93 8.9 3.67 1.35 6.41 4.22 9.63 6.34-2.34-6.86-6.88-12.78-8.99-19.71 1.58-0.48 3.28-2.16 4.96-1.2 5.41 2.84 10.55 6.2 16.1 8.79-2.09-5.2-5.74-9.57-8.02-14.68m-24.17 14.96c0.87 2.29 1.79 4.56 2.7 6.85 3.11-0.24 7.41-3.11 5.3-6.59-1.81-3.14-5.52-1.45-8-0.26z"/>
<path d="m155.25 487.89c-2.04-7.62 5.37-18.16 13.85-15.05 5.32 1.32 8.89 6.31 8.1 11.81 1.31-1.92 1.8-4.7 3.82-5.95 3.39 2.15 9.34 2.45 10.36 6.79-3.27-0.47-6.02-2.43-9.08-3.53-1.09 2.24-2.14 4.5-3.11 6.8 2.46 1.76 6.73 1.92 7.75 5.09-3.28 0.61-5.96-1.93-8.88-2.99-1.41 2.94-2.79 5.91-4.3 8.81-0.92-0.32-1.85-0.62-2.77-0.92 0.41-2.64 1.89-4.93 2.84-7.38-5.28 5.92-15.61 3.52-18.58-3.48m9.11-12.5c-3.77 2.13-5.88 6.4-6.4 10.58 0.48 4.18 4.97 7.01 8.98 6.17 3.88-1.83 6.31-5.99 6.85-10.15 0.46-4.69-5.2-8.77-9.43-6.6z"/>
<path d="m363.62 486.61c1.28-0.73 2.34-0.05 2.67 1.33-3.01 1.35-6.15 2.41-9.18 3.74 0.84 2.35 1.71 4.71 2.64 7.04 2.75-1.02 5.51-2.01 8.28-2.97 0.22 0.5 0.65 1.51 0.86 2.02-2.8 1.06-5.58 2.16-8.37 3.25 0.77 2.39 1.62 4.77 2.56 7.11 3.43-1.15 6.74-2.67 10.27-3.53-1.11 4.83-8.91 5.02-13.23 6.66-2.21-6.1-4.25-12.26-6.33-18.4-2.14 0.51-4.24 1.18-6.28 1.98 1.74 6.42 4.19 12.64 5.61 19.15-1.19 0.24-2.37 0.5-3.56 0.73-1.86-6.3-3.6-12.62-5.57-18.88-2.02 0.68-5.18 0.43-5.29 3.3-3.04-0.89-8.08-1.27-8.76 2.83 1.23 4.12 6.56 3.03 9.78 4.33 3.88 0.8 5.03 6.09 2.53 8.88-3.02 3.76-8.32 3.18-12.49 4.58-3.28 1.28-3.42-3.86-5.87-4.71-3.22 0.25-6.38 1-9.58 1.4-0.6 2.06-1.16 4.13-1.68 6.22-5.22 0.84-10.49 1.36-15.77 1.54-0.99-7.25-1.23-14.58-1.63-21.88 4.34-0.67 8.73-0.97 13.1-1.39-0.1 4.33-6.54 2.11-9.52 3.17 0.18 2.54 0.37 5.1 0.61 7.65 2.88-0.17 5.76-0.46 8.63-0.79 0.18 0.49 0.53 1.47 0.71 1.97-2.99 0.68-6.06 0.92-9.11 1.13 0.13 2.57 0.34 5.14 0.62 7.71 3.04-0.43 6.38-0.04 9.18-1.35 2.28-6.72 3.51-13.75 5.57-20.53 1.18-0.18 2.36-0.35 3.54-0.55 3.77 5.27 6.75 11.12 10.85 16.15 3.57 2.18 11.2 0.94 10.6-4.37-2.92-4.02-9.49-1.47-12.49-5.54-2.13-3.18-0.06-7.61 3.46-8.63 11.08-2.75 22.01-6.17 32.64-10.35m-46.47 17.11c-0.88 3.41-1.61 6.86-2.26 10.33 2.67-0.37 5.34-0.81 8.01-1.27-1.85-3.06-3.53-6.25-5.75-9.06z"/>
<path d="m203.7 496.98c0.56-7.83 14.53-5.94 14.36 1.19-3.21-1.3-7.29-6.39-10.37-2.1-0.54 4.65 5.54 6.51 7.92 9.92 1.5-13.56 23.29-11.69 24.04 1.26 0.3-2.7 0.59-5.41 1.49-7.98 1.05 0.19 2.11 0.39 3.17 0.59-0.57 5.06-1.77 10.03-2.25 15.11-0.15 5.77 9.27 7.82 11.71 2.71 1.68-5.28 1.13-10.95 2.43-16.31 7.56 0.88 15.18 0.97 22.77 1.46 0.01 3.33 0.03 6.67 0.11 10 3.65-0.25 7.31-0.36 10.98-0.4-0.11-3.37-0.68-6.8 0.08-10.14 0.68 0 2.05-0.01 2.73-0.02 0.63 7.43 1.6 14.99 0.99 22.42-1.08-0.11-2.15-0.22-3.23-0.32-0.22-3.19-0.4-6.39-0.47-9.59-3.72-0.12-7.45 0.04-11.16 0.3 0.03 3.24 0.01 6.49-0.1 9.73-1.2-0.04-2.4-0.08-3.6-0.11-0.33-6.65 0.44-13.29 0.14-19.94-2.2-0.02-4.4-0.01-6.6 0.01-0.27 6.5-0.75 13-0.87 19.51-1.32 0.25-2.65 0.21-3.94-0.13 0.28-6.62 1.26-13.23 0.99-19.85-1.93-0.07-3.85-0.16-5.77-0.27-0.55 4.56-0.52 9.22-1.49 13.73-3.75 8.7-20.04 5.89-19.84-4.05-4.69 8.5-19.64 6.5-22.49-2.48-4.91 4.92-15.76 2.73-17.35-4.11 3.21-0.06 4.8 3.64 7.95 4.05 2.57 1.15 6.53-0.63 5.67-3.83-2.19-3.8-8.02-5.32-8-10.36m20.64 2.44c-4.17 2.3-6.06 7.87-5.01 12.35 2.56 6.8 14.18 6.65 15.38-1.05 3.21-6.58-3.58-14.1-10.37-11.3z"/>
</g>
<g>
<path d="m266.38 14.5c90.75-5.76 184.01 36.96 236.1 111.97 28.48 36.89 44.15 82.54 49.57 128.55 1.28 18.61 1.31 37.3 0.22 55.91-5 54.89-27.22 108.23-63.6 149.74-29.88 35-69.07 61.97-112.31 77.7-39.91 16.92-84.32 18.66-126.97 15.17-20.34-2.9-40.96-6.58-59.78-15.1-51.46-18.47-96.64-53.32-128.3-97.8-29.59-41.93-46.09-92.46-49.01-143.58-2.76-68.9 20.64-139.34 66.8-190.93 46.84-54.02 116.08-87.12 187.28-91.63m0.97 9.96c-29.18 1.82-58.11 8.41-85.06 19.78-57.25 23.76-105.29 68.79-132.7 124.39-15.84 31.28-24.41 65.85-27.14 100.71-2.47 45.25 7.12 91.19 27.42 131.72 27.88 56.53 77.3 101.92 135.81 125.27 29.93 11.93 62.07 18.57 94.32 18.68 55.39 0.95 110.83-16.79 155.62-49.33 66.33-47.5 108.45-127.84 107.38-209.68 1.7-74.39-32.14-148.18-87.99-197.01-50.81-45.11-119.85-68.82-187.66-64.53z"/>
<path d="m265.38 82.51c15.87-1.17 31.78-0.26 47.65 0.49 47.04 6.43 91.22 30.89 122.24 66.78 20.19 21.18 33.45 48.08 42.15 75.79 4.46 6.62 2.84 14.71 5.05 22.1 2.24 27.07 2.72 54.6-1.76 81.46 0.37 5.19-3.7 9.19-4.37 14.21-7.64 25.11-20.6 48.46-37.27 68.69-26.13 32.7-63.83 55.21-104.04 66.02-7.91 0.82-14.9 5.84-23.03 4.98-15.19 0.69-30.42 1.58-45.62 0.47-8.22-0.87-16.85 0.63-24.49-3.28-32.19-7.13-63.2-21.32-88.31-42.9-16.75-14.79-31.07-32.07-43.25-50.77-13.64-22.73-22.54-48.3-26.32-74.52-1.33-19.33-1.3-38.71-0.03-58.03 5.06-38.43 22.25-75.05 47.98-104.04 33.66-38.15 82.14-64.95 133.42-67.45m-138.69 90.18c-18.25 25.94-29.92 56.52-33.49 88.04l-0.87-0.16c-0.63 14.48-0.22 28.98-0.11 43.47l0.52-0.12c1.06 12.41 3.68 24.76 7.7 36.54 13.57 41.53 40.98 78.5 77.54 102.58 27.56 18.45 60.09 28.81 92.99 31.7 49.73 3.12 100.6-13.7 138.21-46.54 27.38-23.3 47.27-54.66 58.41-88.73 3.75-12.09 6.83-24.58 7.22-37.29-0.11-15.05 1.15-30.28-0.67-45.21-4.38-30.07-15.43-59.26-33-84.12-34.53-49.63-93.55-81.53-154.14-81.85-62.59-1.69-124.72 30.23-160.31 81.69z"/>
<path d="m282.24 103.14c1.62-2.54 5.85-2.26 7.07 0.52 3.42 5.46 8 10.11 11.57 15.44 0.61 10.53-0.17 21.13 0.34 31.67 2.57 1.45 8.12 4.14 9.56-0.07 4.96-8.07 9.4-16.48 14.5-24.44 5.49-3.96 12.81-4.62 18.24-8.76 2.48-1.76 6.95 0.16 6.51 3.47 0.06 7 2.26 13.91 1.82 20.88-5.02 9.4-10.6 18.45-15.71 27.79 1.98 1.92 3.95 3.85 5.94 5.76 7.58-4.53 15.19-8.99 22.72-13.61 7.45-5.85 16.83 0.14 25.28-0.77 4.31-0.94 6.67 4.9 3.61 7.69-5.06 6.28-4.31 17-12.68 20.32-6.66 3.51-13.26 7.16-19.74 11.01 0.24 3.59 0.14 7.19 0.47 10.77 10.36 0.02 20.8-0.56 31.12 0.27 5.43 3.62 10.16 8.47 16.4 10.76 1.3 2.27 1.89 7.04-1.39 8-7.06 2.76-11.5 11.43-19.82 10.83-8.76-0.1-17.54 0.07-26.3-0.12-0.58 6.48-0.1 13.01-0.23 19.51-0.14 13.78-4.1 27.18-10.18 39.46-8.78 11.81-15.79 25.42-28.46 33.72-10.89 6.63-23.09 10.48-34.93 14.83-12.48-4.45-25.31-8.8-36.65-16-11.51-8.57-18.56-21.19-26.47-32.82-6.74-12.05-10.05-25.84-10.36-39.61 0-6.32 0.1-12.64-0.02-18.96-10.5-0.11-21-0.02-31.5-0.02-8.94 0.52-13.07-10.01-21.5-11.32-1.05-2.51-0.78-5.18-0.02-7.72 8.74-1.01 13.39-11.84 22.56-10.95 9.12 0 18.25 0.14 27.37-0.06 0.67-2.88 1.6-5.68 2.76-8.39-9.48-5.28-18.6-11.21-28.4-15.9-2.2-8.5-9.58-15.99-8.34-24.96 6.99-0.39 13.99-0.69 20.87-2.14 2.44-0.72 4.68 0.63 6.72 1.81 8.12 4.93 16.24 9.85 24.53 14.5 1.85-2.17 3.75-4.32 5.65-6.45-5.25-9.12-11.27-17.82-16.05-27.18 0.09-8.18 2.13-16.29 2.26-24.51 2.27-0.31 4.83-1.09 6.84 0.46 5.63 3.43 12.48 4.26 17.96 7.95 5 9.29 9.75 18.78 15.76 27.49 2.85-0.75 5.73-1.34 8.63-1.84 0.4-10.77-0.45-21.6 0.41-32.32 3.51-5.48 7.58-10.63 11.28-15.99m-8.56 17.8c-0.27 11.11 0.21 22.23-0.22 33.33-4.44 1.05-8.81 2.35-13.21 3.52-6.02-9.47-11.09-19.53-17.06-29.02-5.93-3.46-12.59-5.53-18.75-8.56 0.26 6.68-1.45 13.23-1.89 19.86 5.26 10.21 11.61 19.84 17.04 29.97-3.23 3.24-6.35 6.57-9.63 9.76-10.04-5.59-19.85-11.57-29.86-17.2-6.67 0.96-13.35 2.02-20.1 2.13 3.46 5.94 5.28 12.66 8.64 18.63 8.75 5.26 17.65 10.43 26.63 15.3 46.9-0.68 93.85 0.15 140.75-0.42 7.61-2.89 14.19-8 21.43-11.71 9.04-3.4 9.19-14.57 13.76-21.86-6.77 0.13-13.47-1.75-20.15-1.8-10.12 5.31-19.74 11.56-29.84 16.9-2.77-3.51-6.61-6.24-9.06-9.9 4.55-10.2 11.34-19.4 16.3-29.44-0.03-6.8-1.62-13.54-2.05-20.34-5.82 3.66-12.68 5.24-18.51 8.78-5.92 9.5-10.96 19.57-17.11 28.93-4.2-1.63-8.99-1.99-12.94-3.94-0.78-11.1 0.1-22.33-0.4-33.47-3.53-5.73-8.34-10.6-11.64-16.5-3.76 5.88-8.59 11.06-12.13 17.05m14.57 79.85c-23.54 1.42-47.22 0.2-70.82 0.64 0.11 19.81 0.11 39.62 0.01 59.44 4.42 0.1 8.9 0.51 13.28-0.31 1.14 1.37 1.85 2.95 1.73 4.77l-0.36-1.19c-4.75-0.27-9.5-0.12-14.25-0.12 0.42 16.44 7.22 32.08 17.17 44.98 9.02 16.14 25.35 27.12 42.92 32.04 3.6 0.73 6.41 3.52 10.06 4.06 15.63-5.97 32.59-11.03 44.13-24.02 13.17-16.38 25.82-35.2 26.04-57.06-5.08 0-10.17-0.16-15.25 0.12l-0.36 1.2c-0.15-1.83 0.58-3.41 1.72-4.78 4.72 0.84 9.53 0.4 14.29 0.31-0.1-19.82-0.11-39.63 0.01-59.44-22.94-0.45-45.96 0.8-68.83-0.65-0.19-0.4-0.56-1.2-0.74-1.59-0.19 0.4-0.56 1.2-0.75 1.6m-124.71 25.13c6.04 3.15 10.85 8.13 16.64 11.6 11.43 0.27 22.89 0.07 34.34 0.09-0.02-7.82-0.08-15.65 0.03-23.48-11.13-0.91-22.41-0.33-33.59-0.32-6.21 3.38-11.26 8.58-17.42 12.11m197.94-11.66c0.05 7.77-0.01 15.54 0.04 23.31 9.99-0.02 20.04 0.38 30-0.18 5.24-3.55 10.14-7.59 15.19-11.41-7.12-4.75-13.15-13.88-22.71-12.3-7.49 0.36-15.11-0.69-22.52 0.58z"/>
<path d="m237.66 221.22c4.24-2.43 9.38-1.02 13.68 0.54 5.61 2.23 11.68 3.77 16.42 7.72-9.66-3.77-19.3-9.92-30.1-8.26z"/>
<path d="m309.31 228.21c8.36-4.3 18.53-10.49 28.05-6.99-10.03-1.77-18.88 4.06-28.05 6.99z"/>
<path d="m276.67 249.39c2.81-0.59 5.66-1.02 8.53-1.1 2.32 0.23 4.65 0.5 7 0.36 3.04-0.21 6.11-0.28 9.14 0.24 3.85 0.48 6.59 3.29 8.88 6.18-1.74 11.27-4.48 22.39-5.65 33.74-0.97 4.69-2.22 9.34-2.76 14.13-2.45 11.1-3.73 22.44-6.39 33.49-0.66 5.1-10.17 5.1-10.84 0-2.33-9.38-3.43-19.02-5.38-28.49-0.12-1.23-0.93-2.11-1.85-2.83 1.52-4.59-0.16-9.19-2.34-13.24l1.17-0.23c-1.87-12.23-4.35-24.37-6.4-36.58 1.93-2.28 3.94-4.7 6.89-5.67m-4.62 5.88c4.02 25.45 9.01 50.77 13.38 76.17 0.7 2.41 0.49 6.02 3.49 6.81 0.42-29.1 0.23-58.23 0.09-87.34-5.86-0.79-13.1-1.01-16.96 4.36m18.94-4.36c-0.14 29.1-0.33 58.23 0.09 87.32 3.01-0.78 2.79-4.39 3.49-6.79 4.34-25.11 9.21-50.15 13.27-75.28-2.35-6.51-11.14-5.96-16.85-5.25z"/>
<path d="m45.54 297.74c0.94-4.93 3.72-9.52 7.58-12.65 5.62 2.21 6.64 9.6 9.04 14.62 5.57 0.76 11.16 1.24 16.78 1.51 1 6.36-6.5 8.96-9.31 13.76 0.08 5.91 3.3 11.67 1.77 17.55-6.21 1.33-9.82-6.12-15.8-6.07-6.97 0.15-11.74 6.26-18.4 7.57-1.18-5.6 1.35-11.06 1.31-16.64-2.55-4.34-6.84-7.32-9.64-11.47-1.18-1.82 0.32-4.4 2.31-4.81 4.7-1.46 9.64-1.99 14.36-3.37m7.8-10.88c-2.23 4.03-4.61 7.96-6.23 12.29-5.01 2.85-12.41 1.55-16.68 5.1 2.46 4.4 7.38 7.7 10.19 12.16 0.11 4.97-1.45 9.8-1.98 14.73 5.52-2.28 10.42-6.17 16.34-7.36 5.48 0.96 9.8 5.04 14.89 7.11-0.29-5.64-2.18-11.16-2.07-16.78 2.85-3.84 6.76-6.78 9.46-10.73-5.34-0.62-10.7-1.04-16.04-1.67-2.87-4.82-4.42-10.37-7.88-14.85z"/>
<path d="m503.57 297.76c1.07-4.86 3.7-10.67 8.32-12.68 4.8 3.39 6.03 9.53 8.28 14.63 5.57 0.7 11.15 1.23 16.76 1.52 1.01 6.35-6.48 8.93-9.31 13.72-0.05 5.8 3.6 11.73 1.59 17.34-5.93 1.89-9.71-6.07-15.6-5.83-6.98 0.14-11.75 6.26-18.41 7.58-1.19-5.61 1.41-11.06 1.29-16.66-2.54-4.37-6.91-7.35-9.68-11.57-0.59-1.57-0.13-3.84 1.64-4.4 4.89-1.76 10.13-2.22 15.12-3.65m7.77-10.9c-2.23 4.02-4.62 7.96-6.23 12.29-5.11 3.06-12.81 1.21-16.99 5.57 3.64 3.75 7.38 7.48 10.51 11.69 0.08 4.97-1.45 9.81-1.99 14.73 5.52-2.27 10.41-6.18 16.35-7.35 5.48 0.94 9.79 5.04 14.89 7.1-0.3-5.64-2.2-11.16-2.08-16.78 2.85-3.85 6.76-6.77 9.45-10.73-5.34-0.62-10.69-1.03-16.03-1.68-2.88-4.81-4.42-10.36-7.88-14.84z"/>
</g>
<g fill="#020088">
<path d="m267.35 24.46c67.81-4.29 136.85 19.42 187.66 64.53 55.85 48.83 89.69 122.62 87.99 197.01 1.07 81.84-41.05 162.18-107.38 209.68-44.79 32.54-100.23 50.28-155.62 49.33-32.25-0.11-64.39-6.75-94.32-18.68-58.51-23.35-107.93-68.74-135.81-125.27-20.3-40.53-29.89-86.47-27.42-131.72 2.73-34.86 11.3-69.43 27.14-100.71 27.41-55.6 75.45-100.63 132.7-124.39 26.95-11.37 55.88-17.96 85.06-19.78m-9.27 10.73c-2.5 0.1-2.08 3.16-1.89 4.89 1.34 10.97 2.29 21.99 3.76 32.95 2.02-0.05 4.03-0.14 6.05-0.28 0.44-5.64-0.78-11.25-0.86-16.88 6.33-0.74 12.7-0.52 19.05-0.75 0.05-1.34 0.06-2.68 0.03-4.02-6.49-0.35-12.97 0.11-19.44 0.33-0.38-4.19-0.69-8.38-0.95-12.58 7.32-0.86 14.71-0.19 22-0.97-0.28-1.34 0.5-4.15-1.78-3.85-8.66-0.13-17.38 0-25.97 1.16m63.35 3.05c-1.78 10.88-3.49 21.78-5.05 32.68-0.53 3.04 3.25 3.03 5.27 3.49 6.56 0.92 12.86 3.14 19.4 4.02 0.27-1.12 0.58-2.23 0.93-3.33-5.96-2.75-12.66-3.27-18.96-4.97 0.78-4.4 1.64-8.78 2.39-13.19 5.95 0.74 11.74 2.33 17.56 3.72 0.56-1.19 1-2.42 1.37-3.68-5.76-2.42-12.08-2.95-18.07-4.56 0.7-3.79 1.42-7.57 2.09-11.35 7.24 1.2 14.33 3.11 21.46 4.82 0.66-1.15 0.98-2.45 1.23-3.75-7.82-2.8-16.08-4.13-24.19-5.76-1.94-0.4-5.21-0.93-5.43 1.86m-95.05 1.3c-7.6 1.66-15.51 5.26-19.59 12.23-4.33 7.77-1.06 17.63 4.64 23.79 4.96 5.23 12.88 5.73 19.55 4.32 7.69-1.53 16.07-4.71 19.84-12.12 3.54-7.37 2.84-16.89-2.06-23.49-5.43-6.36-14.83-6.45-22.38-4.73m131.95 4.93c-1.74-0.06-2.08 1.97-2.59 3.21-2.9 9.46-5.84 18.91-8.77 28.36-0.49 1.64-1.32 4.38 1.12 4.87 7.17 2.34 14.22 5.95 21.93 5.83 12.49 0.14 22.55-15.25 16.71-26.46-5.83-9.86-18.05-13.19-28.4-15.81m-205.15 26.69c-2.13 1.47-7.05 3.2-4.83 6.48 5.44 8.85 11.18 17.53 16.73 26.32 0.91 1.71 2.78 3.61 4.71 1.91 6.43-3.87 13.07-7.37 19.7-10.89-0.53-1.29-0.68-3.16-2.43-3.32-5.63 2.42-10.98 5.51-16.23 8.67-2.88-3.52-4.82-7.67-7.22-11.5 4.51-3.13 9.5-5.47 14.33-8.05 2.41-0.81 0.42-5.34-1.82-3.84-5.14 2.29-9.94 5.28-14.86 8-2.02-3.28-4.02-6.58-5.93-9.93 5.96-3.81 12.38-6.81 18.56-10.22 1.49-0.77-0.05-2.57-0.11-3.71-7.49 1.51-13.82 6.66-20.6 10.08m245.96-9.51c-3.97 7.55-8.06 15.03-11.88 22.65-7.21 16.1 19.6 32.18 30.59 18.59 5.06-6.63 10.15-13.24 15.02-20.01-1.54-1.82-3.49-3.21-5.69-4.12-5.22 6.97-9.94 14.3-15.28 21.16-7.38 8.87-24.34-2.59-18.8-12.76 3.95-7.47 8.39-14.68 12.32-22.16-1.71-1.75-3.91-2.85-6.28-3.35m-283.63 43.74c-2.22 12.24 10.4 23.6 22.36 21.22 9.7-1.93 18.52-8.97 22.88-17.73-2.19-5.36-6.12-10.4-9.83-14.92-6.17 1.7-11.03 7.07-16.05 11.03 0.75 0.99 1.51 1.98 2.3 2.94 3.94-1.66 6.67-5.88 10.62-7.01 2.41 2.94 4.49 6.12 6.71 9.19-3.52 5.82-9.58 10.49-16.48 11.14-10.69 0.9-20.66-11.6-15.35-21.59 3.99-8.9 13.7-12.25 22.33-14.65-0.93-1.96-2.52-4.15-5.02-3.15-11.44 2.62-22.15 11.71-24.47 23.53m149.87-22.88c-51.28 2.5-99.76 29.3-133.42 67.45-25.73 28.99-42.92 65.61-47.98 104.04-1.27 19.32-1.3 38.7 0.03 58.03 3.78 26.22 12.68 51.79 26.32 74.52 12.18 18.7 26.5 35.98 43.25 50.77 25.11 21.58 56.12 35.77 88.31 42.9 7.64 3.91 16.27 2.41 24.49 3.28 15.2 1.11 30.43 0.22 45.62-0.47 8.13 0.86 15.12-4.16 23.03-4.98 40.21-10.81 77.91-33.32 104.04-66.02 16.67-20.23 29.63-43.58 37.27-68.69 0.67-5.02 4.74-9.02 4.37-14.21 4.48-26.86 4-54.39 1.76-81.46-2.21-7.39-0.59-15.48-5.05-22.1-8.7-27.71-21.96-54.61-42.15-75.79-31.02-35.89-75.2-60.35-122.24-66.78-15.87-0.75-31.78-1.66-47.65-0.49m154.12 30.94c-0.3 9.86 8.05 17.89 16.96 20.64-1.12 2.65 1.78 6.31 4.6 5.16 2.72-0.86 5.38-1.9 8.08-2.85 4.48 4.43 8.16 9.61 11.92 14.66-1.79 3.01-3.65 5.98-5.51 8.95 0.94 1.66 2.95 6.82 5.01 3.6 7.16-10.75 13.87-21.91 19.27-33.65-0.76-2.72-2.79-5.13-5.08-6.72-11.44 2.08-22.48 5.98-33.49 9.65-0.22-0.56-0.66-1.7-0.88-2.26-7.78-1.32-16.39-7.73-15.05-16.48 1.72-8.02 8.77-16.21 17.53-15.92 8.6 0.93 13.33 9.28 15.31 16.85 2.38-0.49 3.85-2.68 2.94-5.06-2.76-9.51-12.02-17.33-22.13-17.26-10.46 0.66-18.65 10.63-19.48 20.69m-331.4 14.58c-1.28 1.32-1.62 3.65 0.22 4.67 8.16 6.47 16.45 12.79 24.66 19.21 1.22 0.91 3.3 2.34 4.5 0.61 4.53-5.48 9.28-10.76 14.07-15.99 1.69-1.54-1.45-4.8-2.95-2.98-4.2 4.07-8.03 8.52-11.76 13.03-3.72-2.61-7.1-5.68-10.6-8.56 3.62-4.63 7.74-8.83 11.6-13.24-0.69-1.21-1.69-2.15-2.83-2.91-4.46 4.03-8.22 8.75-12.13 13.3-3.11-2.27-5.98-4.83-8.94-7.28 4.34-5.71 9.37-10.84 14.29-16.04-0.51-1.49-1.53-2.55-3.08-2.94-6.07 6.01-11.76 12.41-17.05 19.12m394.31 11.5c2.22 4.07 6.34 7.74 7.28 12.12-9.25 5.92-18.72 11.51-27.92 17.53 0.67 1.92 1.6 3.76 3.18 5.11 9.7-5.55 19.2-11.45 28.99-16.82 2.62 4.43 4.98 9 7.42 13.53 1.74-0.14 4.51-1.14 3.05-3.35-5.39-10.64-11.55-20.93-18.55-30.59-1.28-2.26-5.11 0.53-3.45 2.47m-412.61 16.37c8.97 5.91 18.46 11.02 27.6 16.68 1.68 0.85 4.36 2.97 5.7 0.53 3.68-5.61 7.37-11.21 11.34-16.62 1.18-1.66-1.37-2.68-2.37-3.55-3.99 4.38-7.13 9.45-10.28 14.44-9.64-5.19-18.44-11.86-27.97-17.23-2.36-0.1-3.98 3.65-4.02 5.75m402.36 31.6c0.2 1.98 1.17 3.73 2.1 5.45 11.02-4.2 21.54-9.71 32.37-14.42 3.95-1.2 0.42-5.23-0.83-7.31-11.35 5.11-22.39 10.94-33.64 16.28m-374.94-12.53c-3.22 4.78-5.47 10.13-8.22 15.18-10.05-4.51-19.83-9.68-29.99-13.91-2.28 1.02-2.77 4.21-3.13 6.5 11.68 4.36 22.65 11.26 34.75 14.08 3.39-6.69 6.5-13.53 10.39-19.95-0.9-1.02-2.28-2.9-3.8-1.9m401.13 13.48c-7.76 1.85-16.24 6.89-17.66 15.41-0.91 7.28 1.44 14.84 5.61 20.8 9.28 13.21 36.29 7.9 35.98-9.68 0.59-12.88-8.84-30.18-23.93-26.53m-438.93 4.1c-7.96 1.23-12.69 8.93-14.84 16.04-2.66 7.92-3 18.12 3.58 24.24 8.58 7.28 24.62 7.86 30.93-2.69 4.29-7.55 6.87-17.21 3.32-25.52-4.13-8.22-13.99-13-22.99-12.07m429.9 47.3c0.28 1.93 0.69 3.85 1.23 5.73 10.3-1.35 20.46-3.54 30.76-4.88-8.15 8.76-17.28 16.51-26.49 24.12-3.28 2.33-3.19 10.56 2.16 9.46 11.33-0.47 22.69-0.41 34.01-1.11 0.03-2.36-0.01-4.71-0.16-7.06-9.86 0-19.68 1.21-29.53 1.34 8.92-7.71 18.43-14.97 26.08-23.99 1.03-3.23 1.18-9.16-2.43-10.64-11.92 2.02-23.85 4.28-35.63 7.03m-448.39-2.97c-5.76 7.59-6.84 18.51-3.11 27.22 6.06 13.83 29.09 13.72 35.44 0.19 3.25-7.1 4.04-15.92 0.4-23.02-1.3-0.62-4.02-1.89-4.05 0.57 2.97 7.07 3.47 16.53-2.7 22.07-8 6.27-23.23 4.21-26.33-6.49-2.68-7.88 2.34-14.86 5.7-21.39-1.86-0.81-4.13-1.2-5.35 0.85m4.61 60.86c-4.72 1.38-9.66 1.91-14.36 3.37-1.99 0.41-3.49 2.99-2.31 4.81 2.8 4.15 7.09 7.13 9.64 11.47 0.04 5.58-2.49 11.04-1.31 16.64 6.66-1.31 11.43-7.42 18.4-7.57 5.98-0.05 9.59 7.4 15.8 6.07 1.53-5.88-1.69-11.64-1.77-17.55 2.81-4.8 10.31-7.4 9.31-13.76-5.62-0.27-11.21-0.75-16.78-1.51-2.4-5.02-3.42-12.41-9.04-14.62-3.86 3.13-6.64 7.72-7.58 12.65m458.03 0.02c-4.99 1.43-10.23 1.89-15.12 3.65-1.77 0.56-2.23 2.83-1.64 4.4 2.77 4.22 7.14 7.2 9.68 11.57 0.12 5.6-2.48 11.05-1.29 16.66 6.66-1.32 11.43-7.44 18.41-7.58 5.89-0.24 9.67 7.72 15.6 5.83 2.01-5.61-1.64-11.54-1.59-17.34 2.83-4.79 10.32-7.37 9.31-13.72-5.61-0.29-11.19-0.82-16.76-1.52-2.25-5.1-3.48-11.24-8.28-14.63-4.62 2.01-7.25 7.82-8.32 12.68m-8.96 66.76c5.72 1.36 7.7-7.43 13.03-6.24 4.32 3.01 0.24 8.56-2.82 10.89 0.3 0.87 0.61 1.75 0.93 2.63-1.07 2.42-2.16 4.85-3.52 7.13-2.02-1.33-5.22-1.7-6.44-3.81 1.04-2.62 2.53-5.08 3.15-7.87-3.72-0.77-3.64 5.14-5.7 7.35-2.29-1.02-4.57-2.09-6.7-3.42 1.33-2.97 3.06-5.83 3.58-9.1-4.4 0.86-4.95 7.83-6.99 11.57 6.64 2.96 12.87 6.83 19.69 9.39 2.85-4.63 4.67-9.76 6.46-14.82 3.27-3.92 4.57-12.12-1.66-13.8-5.83-1.69-7.84 7.53-13.27 6.3-4.12-3.04 0.82-6.97 2.83-9.59-7.03-1.34-9.92 11.98-2.57 13.39m-434.39-4.32c-9.09 4.35-1.84 21.28 7.64 17.71 4.57-1.75 8.91-4.03 13.36-6.04-0.39-1.06-0.78-2.11-1.19-3.15-4.89 1.75-9.4 4.43-14.35 6.01-5.6 1.76-9.6-7.68-4.66-10.64 4.56-2.55 9.77-3.62 14.39-6.05-0.19-0.74-0.56-2.23-0.75-2.97-4.95 1.28-9.69 3.26-14.44 5.13m1.97 22.29c0.34 1.14 0.69 2.27 1.05 3.42 5.61-1.86 10.56-5.24 16.11-7.25-3.23 5.63-7.16 10.88-9.94 16.76-0.56 1.72 0.84 5.44 3.13 4.02 5.97-3.06 11.65-6.67 17.6-9.76-0.14-1.32-0.72-2.49-1.92-3.13-4.7 2.71-9.41 5.43-14.31 7.76 2.86-5.46 6.48-10.48 9.53-15.82 0.97-1.88-0.73-6-3.26-4.35-6.04 2.68-11.95 5.66-17.99 8.35m419.89-7.36c-0.48 0.94-0.95 1.88-1.42 2.83 4.64 3.1 9.97 4.98 14.63 8.07-6.06 0.69-12.17 0.56-18.25 0.9-2.44 0.14-4.51 4.45-1.44 5.45 5.74 3.24 11.2 7 17.17 9.83 0.48-1.06 0.96-2.11 1.45-3.15-4.95-3.14-10.29-5.62-15.09-8.99 6.58-0.19 13.21-0.09 19.75-1.01 1.84-0.24 2.11-2.53 2.92-3.87-6.35-3.77-13.11-6.8-19.72-10.06m-410.05 26.89c0.63 1.05 1.27 2.09 1.91 3.13 5.32-2.85 10.23-6.42 15.72-8.94-3.6 5.43-7.88 10.38-11.48 15.81 0.83 1.15 1.13 3.07 2.71 3.41 6.51-0.96 12.82-2.9 19.28-4.13-4.18 4.75-10.51 6.99-14.77 11.66 3.23 3.24 4.9 10.12 9.86 10.19-1.45-3.31-4.07-5.87-6.01-8.87 2.1-1.28 3.93-3.74 6.38-4.01 1.88 2.03 3.09 4.64 5.27 6.4 2.86-2.46-2.43-5.59-3.57-8 1.87-1.83 4.02-3.32 6.29-4.61 2.08 2.5 3.41 5.85 6.45 7.36 0.57-5.26-6.22-8.96-8.18-13.85-6.45 1.11-12.68 3.21-19.13 4.34 3.32-5.67 7.91-10.43 11.58-15.85-0.97-1.76-2.02-3.45-3.21-5.06-6.39 3.64-12.81 7.22-19.1 11.02m400.11-9.23c-0.43 0.95-0.86 1.9-1.27 2.86 0.97 0.81 1.96 1.62 2.95 2.44-5.8 0.12-8.61 5.56-11.25 9.86 0.85 1.01 1.71 2.03 2.58 3.04-5.59 0.06-9.85 5.24-11.46 9.95 5.47 4.67 11.06 9.33 17.05 13.32 0.5-0.63 1.5-1.87 2-2.5-1.82-1.87-3.89-3.45-6-4.96 2.71-3.77 5.34-8.35 3.02-13.02 3.49 2.41 6.95 4.85 10.42 7.28 0.84-0.92 1.58-1.93 2.23-2.98-2.06-1.54-4.18-3-6.36-4.36 2.75-3.79 4.66-8.45 2.48-13.01 3.79 2.09 7.23 4.82 11.25 6.51 0.47-1.05 0.94-2.09 1.42-3.13-6.36-3.75-12.5-7.9-19.06-11.3m-377.71 42.21c0.8 0.89 1.61 1.78 2.42 2.68 2.45-2.06 4.98-4.04 7.37-6.17 5.13 3.7 0.3 9.31-1.33 13.51 4.62 3.94 7.96 11.57 15.34 9.73-1 1.11-2 2.22-2.99 3.34 0.88 0.79 1.76 1.59 2.64 2.38 4.74-4.57 9.14-9.49 13.84-14.1 1.43 1.32 2.89 2.62 4.36 3.9-4.07 5.2-8.83 9.8-13.18 14.76 0.75 0.86 1.5 1.73 2.25 2.6 5.13-4.39 8.97-10.05 13.78-14.77 1.03 1.06 2.47 1.85 3.09 3.26-0.83 6.94-1.93 14.11-7.52 18.93 0.86 0.83 1.71 1.66 2.57 2.5 4.19-7.29 12.13-9.43 19.25-12.81-0.68-0.88-1.41-1.69-2.19-2.46-3.65 1.56-7.24 3.24-10.87 4.83 0.79-3.91 1.76-7.78 2.43-11.71-5.35-3.91-9.98-8.68-14.89-13.1-3.33 3.13-6.39 6.52-9.63 9.74 0.13-3.9-1.48-7.44-2.56-11.07-0.72-2.63 3.12-4.74 5-2.67 2.49 1.25 1.41 5.55 4.47 5.78 1.35-5.96-5.62-11.5-11.14-8.65 3.49-5.41-1.66-10.33-5.01-14.14-6.18 4.06-11.88 8.9-17.5 13.71m355.29-10.7c4.26 5.15 10.18 8.73 15.2 13.13-1.71 2.44-3.57 4.8-5.85 6.74-5.09-4.17-9.63-9.04-15.02-12.82-0.67 0.85-1.33 1.69-1.99 2.54 5.36 4.74 10.43 9.84 16.06 14.23 4.49-2.67 7.44-7.98 10.9-12.03-5.56-4.71-11.36-9.15-16.99-13.77-0.58 0.5-1.73 1.49-2.31 1.98m-11.43 13.61c5.13 4.8 10.17 9.7 15.39 14.41 1.38 1.17 2.29-1.36 3.24-2.07-5.07-4.73-10.13-9.48-15.34-14.06-1.41-1.64-2.46 0.86-3.29 1.72m-3.71 3.99c2.29 2.32 4.62 4.6 6.8 7.02-2.35 2.53-4.91 4.86-7.43 7.22-2.49-2.15-4.6-4.68-6.94-6.97-3.26 1.21-1.41 4.07 0.19 5.78-5.64-1.9-11.13 2.85-13.93 7.04 4.13 5.93 8.92 11.44 13.67 16.9 0.85-0.9 1.68-1.82 2.49-2.75-1.66-1.87-3.21-3.84-4.61-5.9 3.75-2.77 6.95-6.85 5.88-11.82 2.95 2.92 5.47 6.29 8.6 9.04 1.24 0.13 1.88-1.71 2.83-2.39-2.25-2.29-4.43-4.66-6.58-7.04 2.55-2.52 5.08-5.06 7.65-7.56 2.99 1.88 6.83 9.88 9.57 3.93-5.33-4.98-10.5-10.15-15.89-15.06-0.78 0.84-1.55 1.69-2.3 2.56m-39.66 29.25c2.28 5.11 5.93 9.48 8.02 14.68-5.55-2.59-10.69-5.95-16.1-8.79-1.68-0.96-3.38 0.72-4.96 1.2 2.11 6.93 6.65 12.85 8.99 19.71-3.22-2.12-5.96-4.99-9.63-6.34 1.67-2.84 2.15-6.78-0.93-8.9-4.46-2.59-9.21 0.99-13.36 2.58 1.77 7.16 5.37 13.78 8.1 20.63 1.03-0.36 2.07-0.71 3.12-1.04-0.43-3.49-2.59-6.42-3.34-9.82 5.43-3.22 8.82 3.2 13.11 5.08 2.33-1.08 4.57-2.38 6.95-3.37-2.39-5.3-5.57-10.21-7.77-15.59 5.65 2.94 10.98 6.5 16.81 9.07 1.85 0.89 3.6-0.63 5.18-1.4-2.92-6.78-7.43-12.77-11.17-19.11-1.02 0.46-2.02 0.93-3.02 1.41m-239.67 16.74c2.97 7 13.3 9.4 18.58 3.48-0.95 2.45-2.43 4.74-2.84 7.38 0.92 0.3 1.85 0.6 2.77 0.92 1.51-2.9 2.89-5.87 4.3-8.81 2.92 1.06 5.6 3.6 8.88 2.99-1.02-3.17-5.29-3.33-7.75-5.09 0.97-2.3 2.02-4.56 3.11-6.8 3.06 1.1 5.81 3.06 9.08 3.53-1.02-4.34-6.97-4.64-10.36-6.79-2.02 1.25-2.51 4.03-3.82 5.95 0.79-5.5-2.78-10.49-8.1-11.81-8.48-3.11-15.89 7.43-13.85 15.05m208.37-1.28c-10.63 4.18-21.56 7.6-32.64 10.35-3.52 1.02-5.59 5.45-3.46 8.63 3 4.07 9.57 1.52 12.49 5.54 0.6 5.31-7.03 6.55-10.6 4.37-4.1-5.03-7.08-10.88-10.85-16.15-1.18 0.2-2.36 0.37-3.54 0.55-2.06 6.78-3.29 13.81-5.57 20.53-2.8 1.31-6.14 0.92-9.18 1.35-0.28-2.57-0.49-5.14-0.62-7.71 3.05-0.21 6.12-0.45 9.11-1.13-0.18-0.5-0.53-1.48-0.71-1.97-2.87 0.33-5.75 0.62-8.63 0.79-0.24-2.55-0.43-5.11-0.61-7.65 2.98-1.06 9.42 1.16 9.52-3.17-4.37 0.42-8.76 0.72-13.1 1.39 0.4 7.3 0.64 14.63 1.63 21.88 5.28-0.18 10.55-0.7 15.77-1.54 0.52-2.09 1.08-4.16 1.68-6.22 3.2-0.4 6.36-1.15 9.58-1.4 2.45 0.85 2.59 5.99 5.87 4.71 4.17-1.4 9.47-0.82 12.49-4.58 2.5-2.79 1.35-8.08-2.53-8.88-3.22-1.3-8.55-0.21-9.78-4.33 0.68-4.1 5.72-3.72 8.76-2.83 0.11-2.87 3.27-2.62 5.29-3.3 1.97 6.26 3.71 12.58 5.57 18.88 1.19-0.23 2.37-0.49 3.56-0.73-1.42-6.51-3.87-12.73-5.61-19.15 2.04-0.8 4.14-1.47 6.28-1.98 2.08 6.14 4.12 12.3 6.33 18.4 4.32-1.64 12.12-1.83 13.23-6.66-3.53 0.86-6.84 2.38-10.27 3.53-0.94-2.34-1.79-4.72-2.56-7.11 2.79-1.09 5.57-2.19 8.37-3.25-0.21-0.51-0.64-1.52-0.86-2.02-2.77 0.96-5.53 1.95-8.28 2.97-0.93-2.33-1.8-4.69-2.64-7.04 3.03-1.33 6.17-2.39 9.18-3.74-0.33-1.38-1.39-2.06-2.67-1.33m-159.92 10.37c-0.02 5.04 5.81 6.56 8 10.36 0.86 3.2-3.1 4.98-5.67 3.83-3.15-0.41-4.74-4.11-7.95-4.05 1.59 6.84 12.44 9.03 17.35 4.11 2.85 8.98 17.8 10.98 22.49 2.48-0.2 9.94 16.09 12.75 19.84 4.05 0.97-4.51 0.94-9.17 1.49-13.73 1.92 0.11 3.84 0.2 5.77 0.27 0.27 6.62-0.71 13.23-0.99 19.85 1.29 0.34 2.62 0.38 3.94 0.13 0.12-6.51 0.6-13.01 0.87-19.51 2.2-0.02 4.4-0.03 6.6-0.01 0.3 6.65-0.47 13.29-0.14 19.94 1.2 0.03 2.4 0.07 3.6 0.11 0.11-3.24 0.13-6.49 0.1-9.73 3.71-0.26 7.44-0.42 11.16-0.3 0.07 3.2 0.25 6.4 0.47 9.59 1.08 0.1 2.15 0.21 3.23 0.32 0.61-7.43-0.36-14.99-0.99-22.42-0.68 0.01-2.05 0.02-2.73 0.02-0.76 3.34-0.19 6.77-0.08 10.14-3.67 0.04-7.33 0.15-10.98 0.4-0.08-3.33-0.1-6.67-0.11-10-7.59-0.49-15.21-0.58-22.77-1.46-1.3 5.36-0.75 11.03-2.43 16.31-2.44 5.11-11.86 3.06-11.71-2.71 0.48-5.08 1.68-10.05 2.25-15.11-1.06-0.2-2.12-0.4-3.17-0.59-0.9 2.57-1.19 5.28-1.49 7.98-0.75-12.95-22.54-14.82-24.04-1.26-2.38-3.41-8.46-5.27-7.92-9.92 3.08-4.29 7.16 0.8 10.37 2.1 0.17-7.13-13.8-9.02-14.36-1.19z"/>
<path d="m228.42 43.55c9.2-2.68 17.65 5.23 17.51 14.35 2.56 13.82-15.92 22.26-26.5 15.68-6.45-5.35-10.37-16.45-4.32-23.48 3.29-3.93 8.42-5.66 13.31-6.55z"/>
<path d="m362.45 50.11c7.62 2.13 17.2 5.32 19.24 14.01 0.87 6.97-3.39 14.77-10.04 17.37-6.42 1.89-12.7-1.39-18.61-3.49 3.22-9.27 6.38-18.56 9.41-27.89z"/>
<path d="m453.9 134.89c6.29-2.27 12.79-3.89 19.25-5.62-2.87 6.03-6.21 11.82-9.43 17.67-3.43-3.89-6.45-8.11-9.82-12.05z"/>
<path d="m498.32 195.34c13.23-5.54 23.76 12.69 17.4 23.34-4.19 5.66-12.02 7.4-18.7 6.68-8.29-1.27-12.55-10.64-11.76-18.27 0.99-6.45 7.45-9.88 13.06-11.75z"/>
<path d="m59.34 199.34c6.39-0.44 13.11 2.2 17.39 7 4.85 5.86 2.82 14.47-1.05 20.26-5 6.68-14.78 5.5-21.45 2.27-11.89-6.15-7.22-27.03 5.11-29.53z"/>
<path d="m93.2 260.73c8.21 0.02 15.4-6.73 23.88-5.59 11.81 0.09 22.26 6.65 33.85 8.07 10.91 1.54 21.88 4.07 32.92 3.65 10.03-3.12 20.09-6.26 30.62-7.22 0.31 13.77 3.62 27.56 10.36 39.61-13.12 2.2-25.24 8.59-38.7 9.08-12.9 0.08-25.58-3.06-37.92-6.58-18.25-4.94-37.54-3.22-55.47 2.17l-0.52 0.12c-0.11-14.49-0.52-28.99 0.11-43.47l0.87 0.16z"/>
<path d="m421.62 263.61c13.9-1.53 26.62-10.14 40.95-8.03 3.91 1.12 7.66 2.81 11.66 3.67-0.02-0.57-0.07-1.71-0.09-2.28 1.82 14.93 0.56 30.16 0.67 45.21-15.42-4.5-31.99-4.61-47.59-0.96-15.31 4.08-31.29 8.94-47.23 5.92-9.87-1.25-18.82-6.1-28.65-7.62 6.08-12.28 10.04-25.68 10.18-39.46 10.15 0.96 19.74 4.41 29.48 7.16 10.27-0.16 20.47-2.03 30.62-3.61z"/>
<path d="m343.51 364.03c1.41-6.62 10.91-2.81 15.7-2.25 4.97 25.04 7.38 51.16 4.02 76.49-7.78 2.34-16.1 3.81-24.26 3.07-7.33-2.98-14.81-8.05-16.87-16.18-1.9-11.18-4.24-24.2 3.04-34.02 4.17-4.62 8.68-9.54 14.86-11.32 3.86-0.75 7.83 0.38 11.69-0.48-0.26-6.29-3.3-11.61-8.18-15.31m-2.24 23.17c-8.16 3.97-9 14.77-9.54 22.8 0.78 5.78 1.14 13.57 7.21 16.35 4.06 0.24 9.5 1.76 12.26-2.18 4.62-4.51 3.41-11.42 2.71-17.18-1.08-4.87 0.83-10.33-2.09-14.73-1.85-3.7-6.35-7.09-10.55-5.06z"/>
<path d="m270.32 362.49c13.25 1.23 26.49 0.3 39.78 0.04 0.42 0.62 1.27 1.87 1.69 2.5-4.11 4.46-8.9 13.74-16.05 9.22-9.25-5.44-19.9 2.53-22.24 11.75 1.69 6.92 11.62 8.58 16.49 4 2.42-2.29 7.66-4.61 9.42-0.42 0.44 4.27 0.59 9.08-2.17 12.66-3.56 1.49-7.17-1.17-10.59-1.99-4.53-1.87-9.37-0.47-13.88 0.65-0.14 6.67-3.16 13.82 0.18 20.15 1.62 3.97 4.08 7.68 7.58 10.24 6.97 1.18 15.62 0.48 19.94-5.92 1.68-0.04 3.71-0.3 4.42 1.66 2.07 4.29 6.01 7.1 8.7 10.91 0.38 5.05-5.49 3.41-8.6 3.72-13.29 2.26-26.66-0.37-39.99-0.28-1.85 0.19-3.13-1.32-4.51-2.25 0.3-6.07-0.8-12.23 0.87-18.18 0.33-16.98-1.46-34.47 3.65-50.95 0.74-2.97 1.73-6.98 5.31-7.51z"/>
<path d="m212.62 363.65c9.64-2.5 21.56-0.14 27.65 8.42 1.93 4.33-3.14 8.71-7.35 7.51-2.94-1.86-5.13-4.92-8.53-5.99-4.67-0.97-9.19 1.2-12.88 3.86-12.19 7.99-13.23 25.61-7.93 37.93 4.49 11.03 17.61 17.01 28.84 13.05 5.25-1.94 6.49-8.84 11.07-11.14 1.35 8.88-1.11 20.31-10.44 23.82-12.62 7.25-28.85 0.84-38.03-9.12-9.6-12.04-6.38-28.13-4.91-42.15 3.33-11.35 12.13-20.82 22.51-26.19z"/>
<path d="m466.06 406.8c1.56-3.01 4.75-6.74 8.44-4.31 3.82 2.27 1.99 7.14-0.48 9.69-2.69-1.73-5.35-3.52-7.96-5.38z"/>
<path d="m457.2 419.53c1.29-3.2 4.86-6.84 8.38-4.12 3.96 2.4 1.56 7.12-0.76 9.74-2.6-1.8-5.06-3.77-7.62-5.62z"/>
<path d="m106.21 430.09c1.92-1.69 3.88-3.32 5.88-4.9 2.06 1.88 4.54 5.26 1.78 7.7-2.7 2.93-6.03-0.53-7.66-2.8z"/>
<path d="m109.81 436.59c2.16 0.39 4.34 0.22 6.41-0.49-2.93 4.63 1.47 9.24 1.1 13.82-1.84 4.18-6.99 1.1-8.22-1.95-2.79-3.6 0.03-7.6 0.71-11.38z"/>
<path d="m416.94 461.07c2.36-2.23 6.25-5.47 9.11-2.07 3.65 3.14 0.17 7.6-2.96 9.43-2.15-2.37-4.23-4.81-6.15-7.36z"/>
<path d="m164.36 475.39c4.23-2.17 9.89 1.91 9.43 6.6-0.54 4.16-2.97 8.32-6.85 10.15-4.01 0.84-8.5-1.99-8.98-6.17 0.52-4.18 2.63-8.45 6.4-10.58z"/>
<path d="m370.75 486.11c2.48-1.19 6.19-2.88 8 0.26 2.11 3.48-2.19 6.35-5.3 6.59-0.91-2.29-1.83-4.56-2.7-6.85z"/>
<path d="m224.34 499.42c6.79-2.8 13.58 4.72 10.37 11.3-1.2 7.7-12.82 7.85-15.38 1.05-1.05-4.48 0.84-10.05 5.01-12.35z"/>
<path d="m317.15 503.72c2.22 2.81 3.9 6 5.75 9.06-2.67 0.46-5.34 0.9-8.01 1.27 0.65-3.47 1.38-6.92 2.26-10.33z"/>
</g>
<g fill="#fcff12">
<path d="m273.68 120.94c3.54-5.99 8.37-11.17 12.13-17.05 3.3 5.9 8.11 10.77 11.64 16.5 0.5 11.14-0.38 22.37 0.4 33.47 3.95 1.95 8.74 2.31 12.94 3.94 6.15-9.36 11.19-19.43 17.11-28.93 5.83-3.54 12.69-5.12 18.51-8.78 0.43 6.8 2.02 13.54 2.05 20.34-4.96 10.04-11.75 19.24-16.3 29.44 2.45 3.66 6.29 6.39 9.06 9.9 10.1-5.34 19.72-11.59 29.84-16.9 6.68 0.05 13.38 1.93 20.15 1.8-4.57 7.29-4.72 18.46-13.76 21.86-7.24 3.71-13.82 8.82-21.43 11.71-46.9 0.57-93.85-0.26-140.75 0.42-8.98-4.87-17.88-10.04-26.63-15.3-3.36-5.97-5.18-12.69-8.64-18.63 6.75-0.11 13.43-1.17 20.1-2.13 10.01 5.63 19.82 11.61 29.86 17.2 3.28-3.19 6.4-6.52 9.63-9.76-5.43-10.13-11.78-19.76-17.04-29.97 0.44-6.63 2.15-13.18 1.89-19.86 6.16 3.03 12.82 5.1 18.75 8.56 5.97 9.49 11.04 19.55 17.06 29.02 4.4-1.17 8.77-2.47 13.21-3.52 0.43-11.1-0.05-22.22 0.22-33.33z"/>
<path d="m217.43 201.43c23.6-0.44 47.28 0.78 70.82-0.64-2.77 6.9-9.45 10.92-13.37 17.04-2.72 3.67-4.28 8.06-7.12 11.65-4.74-3.95-10.81-5.49-16.42-7.72-4.3-1.56-9.44-2.97-13.68-0.54-0.28 0.13-0.84 0.4-1.13 0.53-8.1 2.33-11.94 10.8-13.81 18.33 2.01 7.01 4.81 13.91 8 20.48-4.38 0.82-8.86 0.41-13.28 0.31 0.1-19.82 0.1-39.63-0.01-59.44z"/>
<path d="m289.74 200.78c22.87 1.45 45.89 0.2 68.83 0.65-0.12 19.81-0.11 39.62-0.01 59.44-4.76 0.09-9.57 0.53-14.29-0.31 3.2-6.57 5.99-13.48 8.01-20.49-1.87-7.52-5.72-15.99-13.81-18.32-0.28-0.13-0.83-0.39-1.11-0.53-9.52-3.5-19.69 2.69-28.05 6.99-2.05-3.75-4.23-7.43-6.62-10.97-3.9-5.83-10.29-9.78-12.95-16.46z"/>
<path d="m163.54 225.92c6.16-3.53 11.21-8.73 17.42-12.11 11.18-0.01 22.46-0.59 33.59 0.32-0.11 7.83-0.05 15.66-0.03 23.48-11.45-0.02-22.91 0.18-34.34-0.09-5.79-3.47-10.6-8.45-16.64-11.6z"/>
<path d="m361.48 214.26c7.41-1.27 15.03-0.22 22.52-0.58 9.56-1.58 15.59 7.55 22.71 12.3-5.05 3.82-9.95 7.86-15.19 11.41-9.96 0.56-20.01 0.16-30 0.18-0.05-7.77 0.01-15.54-0.04-23.31z"/>
<path d="m217.84 264.02c4.75 0 9.5-0.15 14.25 0.12l0.36 1.19c3.83 11.29 8.67 22.21 12.82 33.39 1.16 2.4 1.96 5.56 4.46 6.89 4.63-1.39 8.52-4.69 13.31-5.62 5.16 0.28 9.66 3.17 14.31 5.12 0.92 0.72 1.73 1.6 1.85 2.83 1.95 9.47 3.05 19.11 5.38 28.49 0.67 5.1 10.18 5.1 10.84 0 2.66-11.05 3.94-22.39 6.39-33.49 4.02-1.22 8.3-4.09 12.56-2.3 3.76 1.59 7.34 3.57 11.07 5.25 3.78-3.95 4.97-9.44 7.06-14.32 3.28-8.77 7.14-17.33 10.05-26.23l0.36-1.2c5.08-0.28 10.17-0.12 15.25-0.12-0.22 21.86-12.87 40.68-26.04 57.06-11.54 12.99-28.5 18.05-44.13 24.02-3.65-0.54-6.46-3.33-10.06-4.06-17.57-4.92-33.9-15.9-42.92-32.04-9.95-12.9-16.75-28.54-17.17-44.98z"/>
<path d="m53.34 286.86c3.46 4.48 5.01 10.03 7.88 14.85 5.34 0.63 10.7 1.05 16.04 1.67-2.7 3.95-6.61 6.89-9.46 10.73-0.11 5.62 1.78 11.14 2.07 16.78-5.09-2.07-9.41-6.15-14.89-7.11-5.92 1.19-10.82 5.08-16.34 7.36 0.53-4.93 2.09-9.76 1.98-14.73-2.81-4.46-7.73-7.76-10.19-12.16 4.27-3.55 11.67-2.25 16.68-5.1 1.62-4.33 4-8.26 6.23-12.29z"/>
<path d="m511.34 286.86c3.46 4.48 5 10.03 7.88 14.84 5.34 0.65 10.69 1.06 16.03 1.68-2.69 3.96-6.6 6.88-9.45 10.73-0.12 5.62 1.78 11.14 2.08 16.78-5.1-2.06-9.41-6.16-14.89-7.1-5.94 1.17-10.83 5.08-16.35 7.35 0.54-4.92 2.07-9.76 1.99-14.73-3.13-4.21-6.87-7.94-10.51-11.69 4.18-4.36 11.88-2.51 16.99-5.57 1.61-4.33 4-8.27 6.23-12.29z"/>
</g>
<g fill="#e20304">
<path d="m288.25 200.79c0.19-0.4 0.56-1.2 0.75-1.6 0.18 0.39 0.55 1.19 0.74 1.59 2.66 6.68 9.05 10.63 12.95 16.46 2.39 3.54 4.57 7.22 6.62 10.97 2.86 8.29-3.91 14.39-7.97 20.68-3.03-0.52-6.1-0.45-9.14-0.24-2.01-4.86-8.31-8.45-6.73-14.26 1.63-4.31 5.73-6.96 8.17-10.75-7.77-0.65-14.99 5.11-17.08 12.39-0.36 5.57 5.35 8.62 8.64 12.26-2.87 0.08-5.72 0.51-8.53 1.1-3.46-6.51-9.85-11.8-8.91-19.91 2.84-3.59 4.4-7.98 7.12-11.65 3.92-6.12 10.6-10.14 13.37-17.04z"/>
<path d="m92.74 303.92c17.93-5.39 37.22-7.11 55.47-2.17 12.34 3.52 25.02 6.66 37.92 6.58 13.46-0.49 25.58-6.88 38.7-9.08 7.91 11.63 14.96 24.25 26.47 32.82-12.5 2.5-25.12 4.56-37.47 7.74-12.5 4.34-25.89 8.37-39.21 5.64-13.9-0.92-26.71-7.46-40.63-8.21-11.19-0.72-22.92-0.82-33.55 3.22-4.02-11.78-6.64-24.13-7.7-36.54z"/>
<path d="m427.22 301.22c15.6-3.65 32.17-3.54 47.59 0.96-0.39 12.71-3.47 25.2-7.22 37.29-3.91-3.51-9.84-1.79-14.64-2.63-24.3-2.6-46.82 12.67-71.12 8.54-10.28-0.79-19.48-6.04-29.59-7.67-9.76-1.66-19.37-4.78-29.36-4.47 12.67-8.3 19.68-21.91 28.46-33.72 9.83 1.52 18.78 6.37 28.65 7.62 15.94 3.02 31.92-1.84 47.23-5.92z"/>
</g>
<g fill="#6c0701">
<path d="m222.72 240.08c1.87-7.53 5.71-16 13.81-18.33-2.77 2.29-5.63 4.48-7.99 7.21 7 20.68 14.1 41.32 21.02 62.02 7.79-5.3 18.41-6.2 25.45 0.89 2.18 4.05 3.86 8.65 2.34 13.24-4.65-1.95-9.15-4.84-14.31-5.12-4.79 0.93-8.68 4.23-13.31 5.62-2.5-1.33-3.3-4.49-4.46-6.89-4.15-11.18-8.99-22.1-12.82-33.39 0.12-1.82-0.59-3.4-1.73-4.77-3.19-6.57-5.99-13.47-8-20.48z"/>
<path d="m338.47 221.75c8.09 2.33 11.94 10.8 13.81 18.32-2.02 7.01-4.81 13.92-8.01 20.49-1.14 1.37-1.87 2.95-1.72 4.78-2.91 8.9-6.77 17.46-10.05 26.23-2.09 4.88-3.28 10.37-7.06 14.32-3.73-1.68-7.31-3.66-11.07-5.25-4.26-1.79-8.54 1.08-12.56 2.3 0.54-4.79 1.79-9.44 2.76-14.13 6.6-4.6 14.61-1.29 20.88 2.15 6.91-20.69 14-41.33 21.01-61.99-2.35-2.74-5.23-4.93-7.99-7.22z"/>
<path d="m272.05 255.27c3.86-5.37 11.1-5.15 16.96-4.36 0.14 29.11 0.33 58.24-0.09 87.34-3-0.79-2.79-4.4-3.49-6.81-4.37-25.4-9.36-50.72-13.38-76.17z"/>
<path d="m290.99 250.91c5.71-0.71 14.5-1.26 16.85 5.25-4.06 25.13-8.93 50.17-13.27 75.28-0.7 2.4-0.48 6.01-3.49 6.79-0.42-29.09-0.23-58.22-0.09-87.32z"/>
</g>
<path d="m276.56 236.03c2.09-7.28 9.31-13.04 17.08-12.39-2.44 3.79-6.54 6.44-8.17 10.75-1.58 5.81 4.72 9.4 6.73 14.26-2.35 0.14-4.68-0.13-7-0.36-3.29-3.64-9-6.69-8.64-12.26z" fill="#e7b57c"/>
</svg>
