<?xml version="1.0" encoding="UTF-8"?>
<!DOCTYPE svg  PUBLIC '-//W3C//DTD SVG 1.1//EN'  'http://www.w3.org/Graphics/SVG/1.1/DTD/svg11.dtd'>
<svg width="1053pt" height="981pt" version="1.1" viewBox="0 0 1053 981" xmlns="http://www.w3.org/2000/svg">
<path d="m242.54 17.58c5.1-1 10.31-0.52 15.46-0.59 178.67-0.01 357.33 0.01 536-0.01 3.77 0.2 7.8-0.76 11.36 0.91-174.45 0.24-348.91 0.03-523.36 0.1-12.79-0.2-25.6 0.4-38.37-0.29l-1.09-0.12z" fill="#2f2f2f" opacity=".38"/>
<g fill="#030303">
<path d="m243.63 17.7c12.77 0.69 25.58 0.09 38.37 0.29 174.45-0.07 348.91 0.14 523.36-0.1 36.35 33.98 69.39 71.37 105.79 105.32-23.55 29.78-38 65.62-47.94 101.97-7.35 26.95-12.9 54.48-14.57 82.4-0.65 5.21-0.79 10.46-0.51 15.7 0.04 4.15 0.04 8.3-0.01 12.46-0.29 5.55-0.15 11.13 0.56 16.65 0.25 2.63 0.32 5.29 0.27 7.94-0.13 1.81 0.12 3.63 0.52 5.4 0.84 5.16 1.36 10.39 1.41 15.62-0.1 1.49 0.19 2.98 0.6 4.42 4.62 32.66 10.57 65.12 16.09 97.64 10.07-16.53 21.84-33.35 39.71-42.15 13.87-7.06 32.57-8.29 44.86 2.57 9.66 8.19 12.78 20.96 15.36 32.76 17.23 32.31 35.28 64.23 52.5 96.54 0.15 15.93-4.71 33.07-16.04 44.84-6.1 6.26-14.25 10.04-22.6 12.23-2.77 46.32-25.7 89.51-58.16 121.97-44.33 45.39-102.4 73.47-160.08 97.88-61.76 27.06-124.63 52.46-182.35 87.68-19.17 11.71-37.53 24.75-54.75 39.19-21.83-18.81-46.11-34.57-71.03-48.95-60.32-34.25-125.05-59.56-188.27-87.77-41.82-18.14-82.61-39.85-117.58-69.39-39.61-32.94-71.9-78.81-77.01-131.19 0.03-1.82-0.18-3.62-0.6-5.36-0.28-1.37-0.55-2.73-0.8-4.09-21.71-4.34-36.09-25.31-37.57-46.55 0.01-1.5-0.28-2.96-0.69-4.38-0.63-2.48-1.06-5.23 0.4-7.51 17.16-31.46 34.4-62.9 51.56-94.36 2.24-6.07 2.39-12.79 5.33-18.67 4.7-12.52 16.57-22.46 30.24-22.8 20.49-1.25 38.7 11.77 50.86 27.2 3.97 4.55 6.62 10.11 10.82 14.46 6.86-39.89 14.75-79.71 17.69-120.14 0.41-3.35 0.66-6.71 0.53-10.07 0.42-11.33 0.38-22.67 0.09-34-0.02-3.29-0.23-6.58-0.61-9.85-0.19-1.96-0.27-3.93-0.27-5.89 0.05-1.81-0.17-3.61-0.56-5.37-3.15-25.68-8.73-51.01-15.92-75.85-9.89-33.21-23.75-65.81-45.46-93.12 36.6-34.07 69.43-71.95 106.46-105.57m1.14 10.06c-33.4 30.9-63.47 65.17-96.63 96.32 22.24 30.35 36.11 65.92 45.71 102.06 6 22.92 11.05 46.18 13.08 69.82 3.83 41.07-0.15 82.43-6.86 122.99-5.31 34.27-12.85 68.25-15.73 102.86-1.88 22.99-1.28 46.5 5.14 68.78 11.57 38.79 38.74 71.56 72.05 93.93 31.48 21.38 66.96 35.71 102.06 49.92 56.18 22.32 113.65 45.14 160.47 84.45 8.5-6.48 16.78-13.26 25.7-19.16 64.34-44.32 141.59-62.84 210.15-98.95 39.37-20.58 74.98-51.61 92.69-93.17 15.34-33.93 13.82-72.41 8.89-108.48-5.92-42.82-15.7-85.08-19.55-128.19-3.81-39.31-2.57-79.31 6.11-117.92 9.8-45.4 24.34-91 52.09-128.84-32.54-30.88-62.31-64.54-95.17-95.09-1.71-1.49-3.38-3.65-5.93-3.26-181.35-0.01-362.7 0.03-544.05-0.02-3.43 0.28-7.67-1.05-10.22 1.95m-129.84 417.22c-9.83 2.5-16.35 11.58-19.12 20.89-4.5 11.76 0.16 24.51 5.45 35.19 7.4-9.25 14.37-18.84 21.87-28.01 4.17-4.37 10.68-0.83 14.5 2.28 13.73 11.15 23.56 31.22 15.12 48.37-11.17 39.31-40.48 69.34-67.66 98.37-2.49 3.12-7.27 5.71-5.8 10.4 3.69 50.17 32.47 95.1 69.75 127.47 34.25 30.19 74.7 52.42 116.32 70.69 64.33 28.86 130.31 54.48 191.86 89.15 24.04 13.73 47.41 28.81 68.81 46.42 25.95-20.96 54.27-38.81 83.67-54.5 59.09-31.58 121.59-55.96 182.57-83.5 51.7-23.23 102.27-53.04 138.91-97.13 21.33-25.61 36.49-56.83 40.78-90.06 0.98-6.31 0.94-12.72 1.95-19.01-25.02-26.85-51.91-54.12-64.64-89.32-2.14-8.23-7.08-15.98-6.11-24.77 1.19-13.23 8.97-25.4 19.36-33.43 3.66-2.82 9.63-5.36 13.46-1.46 7.05 8.72 13.61 17.86 20.7 26.56 3.96-13.39 3.07-28.44-3.32-40.94-3.34-6.86-9.67-12.38-17.23-13.95-10.35-2.13-21.16 0.98-29.93 6.54-11.9 7.57-20.81 18.93-28.04 30.86-2.91 4.56-4.39 10.13-8.7 13.67 4.36 31.85 6.52 64.93-2.36 96.23-11.81 40.84-40.18 75.45-75.08 99.05-29.87 20.41-63.36 34.59-96.75 48.12-56.9 22.92-115.83 44.84-163.58 84.56-3.86 3.8-10.07 4.76-14.13 0.69-29.56-24.59-63.74-42.85-98.81-58.24-56.43-25.21-117.13-42.73-167.95-78.99-28.66-20.63-52.09-48.88-65.1-81.86-13.25-33.45-12.06-70.4-7.37-105.45 0.25-3.36 1.71-7.04-0.16-10.17-6.53-13.01-15.17-25.17-26.49-34.43-10.09-8.22-23.72-13.53-36.75-10.29m-8.28 62.9c11.66 9.04 27.17 6.18 40.82 5.99 1.34-13.92-7.31-27.21-18.69-34.57-7.6 9.36-14.74 19.07-22.13 28.58m805.02 6.05c13.49-0.08 29.19 3.27 40.48-6.22-7.1-9.61-14.46-19.02-21.88-28.38-11.37 7.31-20.17 20.67-18.6 34.6m-870.36 59.41c-0.7 1.23-1.28 2.62-1 4.08 1.02 9.69 3.28 19.48 8.38 27.91 5.19 8.69 14.28 14.91 24.22 16.72 3.37-1.75 5.43-5.39 8.23-7.94 25.13-27.26 52.92-55.15 63.08-91.91-12.23 0.9-25.2 1.61-36.56-3.85-11.23-5.76-17.08-17.9-20.14-29.58-15.35 28.22-30.78 56.39-46.21 84.57m910.67-55.35c-11.46 5.97-24.78 5.02-37.25 4.21 11.33 39.78 42.38 69.09 69.47 98.69 17.57-5.62 25.87-24.35 27.49-41.43 1.2-4.05-1.54-7.46-3.33-10.8-13.88-25.22-27.53-50.57-41.5-75.74-1.66 9.73-5.79 20.09-14.88 25.07z"/>
<path d="m255 35.07c181.46-1.34 362.96-1.79 544.41 0.29 30.57 30.91 61.57 61.41 92.11 92.36-28.82 44.18-46.52 95.13-54.28 147.15-8.57 63.3-3.78 128.16 12.03 189.96 9.34 40.21 13.74 82.92 2.86 123.28-7.73 29.46-25.04 56.16-48.67 75.35-25.11 20.38-54.25 34.99-83.43 48.58-65.78 30.48-135.11 54.49-196.06 94.44-77.71-51.74-169.72-75.55-249.92-122.63-17.43-10.61-34.29-22.71-47.58-38.35-18.7-21.35-30.02-48.5-34.11-76.44-5.48-36.64-0.5-73.95 8.01-109.72 14.42-59.88 19.07-122.43 10.87-183.58-7.69-52.43-25.62-103.61-54.41-148.23 30.35-30.24 60.59-60.59 90.92-90.85 1.76-2.21 4.8-1.41 7.25-1.61m-2.43 8.44c-28.23 28.6-56.89 56.77-85.12 85.37 33.26 53.73 51.63 116.2 55.34 179.14 2.43 42.44-0.68 85.14-8.59 126.9-3.8 20.35-9.68 40.28-12.49 60.82-5.49 36.6-5.31 75.46 9.54 109.98 10.58 25.09 29.51 45.95 51.9 61.15 25.66 17.62 53.88 31.06 82.22 43.75 60.24 27.29 123.21 49.8 178.87 86.14 69.66-45.5 150.35-69.46 223.78-107.74 17.52-9.2 34.67-19.34 50.04-31.87 22.07-17.96 38.37-42.83 45.78-70.31 10.65-38.74 6.52-79.8-2.31-118.46-16.76-65.19-21.69-133.77-11.69-200.45 8.1-48.98 24.69-96.88 51.08-139.07-28.39-28.51-56.94-56.86-85.3-85.39-181.01-1.55-362.04-1.63-543.05 0.04z"/>
</g>
<g fill="#fdfdfd">
<path d="m244.77 27.76c2.55-3 6.79-1.67 10.22-1.95 181.35 0.05 362.7 0.01 544.05 0.02 2.55-0.39 4.22 1.77 5.93 3.26 32.86 30.55 62.63 64.21 95.17 95.09-27.75 37.84-42.29 83.44-52.09 128.84-8.68 38.61-9.92 78.61-6.11 117.92 3.85 43.11 13.63 85.37 19.55 128.19 4.93 36.07 6.45 74.55-8.89 108.48-17.71 41.56-53.32 72.59-92.69 93.17-68.56 36.11-145.81 54.63-210.15 98.95-8.92 5.9-17.2 12.68-25.7 19.16-46.82-39.31-104.29-62.13-160.47-84.45-35.1-14.21-70.58-28.54-102.06-49.92-33.31-22.37-60.48-55.14-72.05-93.93-6.42-22.28-7.02-45.79-5.14-68.78 2.88-34.61 10.42-68.59 15.73-102.86 6.71-40.56 10.69-81.92 6.86-122.99-2.03-23.64-7.08-46.9-13.08-69.82-9.6-36.14-23.47-71.71-45.71-102.06 33.16-31.15 63.23-65.42 96.63-96.32m10.23 7.31c-2.45 0.2-5.49-0.6-7.25 1.61-30.33 30.26-60.57 60.61-90.92 90.85 28.79 44.62 46.72 95.8 54.41 148.23 8.2 61.15 3.55 123.7-10.87 183.58-8.51 35.77-13.49 73.08-8.01 109.72 4.09 27.94 15.41 55.09 34.11 76.44 13.29 15.64 30.15 27.74 47.58 38.35 80.2 47.08 172.21 70.89 249.92 122.63 60.95-39.95 130.28-63.96 196.06-94.44 29.18-13.59 58.32-28.2 83.43-48.58 23.63-19.19 40.94-45.89 48.67-75.35 10.88-40.36 6.48-83.07-2.86-123.28-15.81-61.8-20.6-126.66-12.03-189.96 7.76-52.02 25.46-102.97 54.28-147.15-30.54-30.95-61.54-61.45-92.11-92.36-181.45-2.08-362.95-1.63-544.41-0.29z"/>
<path d="m249.33 401.42c8.68-1.01 18.71-1.29 26.04 4.23 7.11 5.55 5.11 18.23-3.41 21.3-9.21 3.25-19.72 3.16-28.97 0.1-7.18-2.33-10.37-11.4-6.91-17.92 2.67-4.71 8.14-6.88 13.25-7.71z"/>
<path d="m581.8 453.85c7.76 1.32 13.61 7.88 14.87 15.52-3.92 1.12-6.18 4.15-6.04 8.28 7.61-1.58 16.99-1.97 21.24 5.94 4.26-0.27 8.8-0.07 12.75-1.96 1.74-2.38 2.47-5.38 4.35-7.66 4.49-1.58 8.9 1.18 13.1 2.47l0.56 0.2c0.78 17.89 0.25 35.83 0.28 53.75-2.49-0.03-4.98-0.05-7.46-0.13-2.23-4.58-2.93-9.65-2.81-14.69-2.7-0.87-5.55-1.43-8.02-2.87-0.86-6.87-2.32-13.64-4.47-20.24-0.76 0.01-2.29 0.03-3.05 0.05-1.52 8.96-6.28 17.24-5.85 26.48-0.24 3.94-1.76 7.63-3.16 11.28-4.65 0.27-9.32 0-13.9-0.86-6.38-3.87-13.24-7.22-18.94-12.1 2.69-4.8 4.99-9.89 8.73-14-0.65-1.06-1.28-2.12-1.93-3.16-7.46 1.3-14.87-0.85-21.54-4.11-1.67-1.35-3.38-2.65-5.31-3.58-0.17-0.4-0.52-1.21-0.69-1.61 13.71-8.32 19.05-24.1 27.29-37z"/>
</g>
<g fill="#fefefe">
<path d="m252.57 43.51c181.01-1.67 362.04-1.59 543.05-0.04 28.36 28.53 56.91 56.88 85.3 85.39-26.39 42.19-42.98 90.09-51.08 139.07-10 66.68-5.07 135.26 11.69 200.45 8.83 38.66 12.96 79.72 2.31 118.46-7.41 27.48-23.71 52.35-45.78 70.31-15.37 12.53-32.52 22.67-50.04 31.87-73.43 38.28-154.12 62.24-223.78 107.74-55.66-36.34-118.63-58.85-178.87-86.14-28.34-12.69-56.56-26.13-82.22-43.75-22.39-15.2-41.32-36.06-51.9-61.15-14.85-34.52-15.03-73.38-9.54-109.98 2.81-20.54 8.69-40.47 12.49-60.82 7.91-41.76 11.02-84.46 8.59-126.9-3.71-62.94-22.08-125.41-55.34-179.14 28.23-28.6 56.89-56.77 85.12-85.37m68.73 18.9c-7.68 1.45-12.81 10.41-9.47 17.66 3.94 8.45 14.16 9.83 20.73 15.38 2.81 2.2 3.78 6.6 1.32 9.41-4.04 4.36-11.18 3.07-15.34-0.45-4.03-2.93-4.9-8.13-7.47-12.13-0.54 5.99-0.16 12-0.24 18 1.92-1.31 3.86-3.96 6.47-2.62 6.61 2.86 15.14 3.71 20.9-1.42 5.21-4.2 6.58-12.44 2.41-17.83-5.23-7.07-14.93-8.06-20.94-14.14-3.23-3.18-0.72-8.68 3.42-9.49 8.57-2.2 14.22 6.15 16.63 13.13 0.64-5.45 0.28-10.95-0.02-16.41-0.75 1.18-1.47 2.36-2.18 3.55-5.39-0.99-10.57-4.41-16.22-2.64m130.23 8.08c2.64 0.2 5.95-1.47 8.04 0.83 0.84 8.18 0.29 16.47 0.38 24.69-0.15 3.78 0.67 7.94-1.6 11.27-2.21 0.27-4.42 0.53-6.52 1.27 8.5 0.78 17.08 0.75 25.59 0.11-2.62-1.07-7.21-0.91-7.26-4.68-0.76-14.03 0.13-28.12-0.41-42.16-6.17 2.66-12.53 5.09-18.22 8.67m35.14-1.85c-3.93 6.67-3.76 16.87 2.9 21.76 3.98 2.88 9.19 2.07 13.46 0.31-1.56 10.16-10.42 16.29-19.61 19.03 11.39 0.49 23.3-5.67 27.91-16.39 3.93-8.72 4.13-20.5-3.18-27.54-6.05-5.96-17.18-4.47-21.48 2.83m42.9-6.07c-11.38 2.62-14.83 19.76-6.25 27.16 3.9 3.58 9.37 2.62 14.02 1.41-1.49 10.09-10.54 16.13-19.69 18.61 9.43 0.35 19.18-3.53 25.02-11.1 5.9-7.81 7.89-18.98 3.59-27.97-2.87-6.05-10.05-10.11-16.69-8.11m26.96 4.96c-4.6 6.27-4.93 16.36 0.95 21.95 3.97 3.7 9.85 3.22 14.55 1.34-1.62 10.13-10.44 16.25-19.62 19.01 9.92 0.18 20.24-4.16 25.82-12.59 5.78-8.88 7.23-21.91-0.07-30.37-5.3-6.67-16.74-6.26-21.63 0.66m50.12 10.8c2.71 9.09 12.95 11.34 19.99 16 3.77 1.97 5.53 7.41 2.4 10.71-4.35 4.39-11.73 2.7-15.77-1.25-3.67-2.87-4.39-7.68-6.72-11.45-0.52 5.99-0.29 12-0.15 17.99 1.84-1.64 3.99-4.05 6.68-2.55 6.62 2.94 15.22 3.35 20.8-1.92 4.77-3.91 5.94-11.26 2.78-16.52-5.13-8.83-18.06-8.53-22.98-17.36-1.22-6.1 6.4-9.24 11.18-6.84 5.87 1.7 7.5 7.94 10.51 12.44 0.22-5.28 0-10.56-0.24-15.84-2.58 6.27-8.56 0.45-13.04 0.28-9.02-1.52-18.07 7.18-15.44 16.31m59.6-16.62c-6.46 13.54-12.15 27.43-18.62 40.97-1.23 2.92-4.07 4.48-6.58 6.14 5.52 0.4 11.07 0.52 16.58-0.18-2-0.76-4.12-1.23-6.01-2.23-2.06-3.38 0.84-6.98 1.77-10.27 5.51-0.43 11.05-0.37 16.58-0.11 1.51 3.36 2.88 6.79 3.88 10.34-2.03 0.98-4.23 1.45-6.31 2.25 7.7 0.76 15.45 0.51 23.17 0.27-6.17-3.16-7.71-10.29-10.5-16.02-4.77-10.34-8.77-21.03-13.96-31.16m74.26 18.64c-2.56 8.69 0.4 18.82 7.51 24.5 10.03 7.49 25.67 7.1 34.45-2.24-0.02-1.26-0.04-2.51-0.04-3.76-4.66 5.1-11.2 9.14-18.39 7.75-7.45-0.72-11.07-8.56-11.72-15.15-0.66-7.57-0.81-16.4 4.9-22.23 4.94-5.28 13.96-5.58 19.33-0.79 3.23 2.58 4.32 6.73 6.44 10.11 0.53-5.66 0.43-11.36 0.16-17.04-0.89 1.13-1.74 2.27-2.59 3.4-5.36-0.07-10.16-3.09-15.54-2.94-11.08-0.33-21.74 7.67-24.51 18.39m-482.01-17.05c1.96 0.74 4.08 1.15 5.86 2.31 1.78 11.4-0.38 23.13 1.4 34.53 2.03 7.76 10.76 10.5 17.96 9.94 6.67-0.21 13.93-4.1 15.34-11.09 1.69-10.22-0.04-20.68 1.06-30.94 0.36-3.32 4.26-3.63 6.65-4.85-5.73-0.5-11.49-0.45-17.21 0.02 2.95 1.13 7.31 1.75 7.16 5.84 0.18 9.49 0.41 19.05-0.35 28.52-0.43 5.07-4.9 7.84-9.29 9.22-4.52-0.02-10.26-1.78-10.63-7.13-0.72-10.52-0.33-21.11-0.24-31.64-0.27-4.09 4.53-3.7 7.24-4.62-8.29-0.63-16.65-0.74-24.95-0.11m87.97 0c2.56 1.04 6.99 0.88 6.93 4.69 0.22 12 0.22 24.03 0.01 36.04 0.13 3.77-4.36 3.56-6.88 4.55 13.4 1.02 26.91 0.57 40.34 0.3 0.67-5.02 1.64-10.03 1.73-15.11-2.46 3.74-3.76 8.76-8.17 10.76-4.54 2.16-10.25 2.77-14.96 1.04-1.82-5.99-0.52-12.5-0.86-18.7 7.09-0.98 8.83 6.27 10.69 11.39 0.56-8.25 0.43-16.55 0.15-24.81-2.34 4.81-3.73 11.9-10.81 11.19-0.1-6.35 0-12.69-0.03-19.04 5.15 0.14 10.94-0.75 15.41 2.4 3.13 2.17 3.23 6.37 5.27 9.33 0.49-4.72 0.27-9.47 0.29-14.2-13.03 0.07-26.08-0.66-39.11 0.17m46.13-0.03c2.27 0.8 4.59 1.44 6.83 2.3 0.7 12.81 0.45 25.69 0.21 38.51 0.2 3.6-4.4 3.43-6.74 4.62 8.17 0.52 16.4 0.68 24.58 0.14-2.2-0.94-4.67-1.4-6.6-2.86-0.84-5.88-0.28-11.84-0.38-17.76 6.99-0.04 15.77-0.12 19.95-6.8 4.34-6.84-0.58-16.49-8.45-17.55-9.7-1.51-19.62-0.64-29.4-0.6m298.96 0.11c1.98 0.62 4.02 1.27 6.12 1.23 2.38 12.54 0.5 25.59 1.04 38.33 0.63 4.37-4.04 4.89-7.16 5.56 13.48 1.21 27.09 0.61 40.61 0.33 0.53-5.06 1.59-10.06 1.66-15.16-2.22 3.7-3.63 8.3-7.6 10.56-4.77 2.73-10.62 2.63-15.85 1.6-0.99-6.29-0.48-12.65-0.57-18.98 7.04-0.92 9.02 6.33 10.71 11.55 0.48-8.35 0.45-16.75 0.02-25.09-1.95 5.14-3.55 12.03-10.67 11.31-0.12-6.33-0.11-12.65-0.01-18.97 5.05 0.21 10.77-0.89 15.17 2.24 3.21 2.09 3.67 6.21 5.17 9.42 1.03-4.68 0.57-9.49 0.64-14.23-13.08-0.2-26.23-0.61-39.28 0.3m-398.53 63.82c-0.09 120.6-0.02 241.2-0.02 361.8-0.04 37.7 11.22 75.72 33.97 106 21.51 29.13 52.01 50.74 85.17 64.76 64.48 26.77 138.68 28.92 204.94 7.24 33.62-11.11 65.44-29.2 89.98-54.98 31.04-31.7 47.83-75.89 48.19-120.04 0.19-121.55-0.05-243.1 0.13-364.64-154.12-0.27-308.24 0.02-462.36-0.14m503.41 7.21c-6.74 5.94-8.17 15.5-13.81 22.22-1.64 2.2-4.43 2.28-6.92 2.17-4.97-3.95-5.11-11.53-1.14-16.24 2.56-4.04 7.43-5.12 11.13-7.71-5.66-0.43-11.34-0.07-17.01 0.11 1.75 1.55 4.84 2.97 3.05 5.72-3.66 7.12-3.86 16.37 1.78 22.55 4.6 4.01 11.93 5.14 16.93 1.19 7.2-5.45 8.63-15.11 14.11-21.86 2.78-3.68 8.91-3.18 11.05 0.92 2.7 5.26 1.09 12-2.93 16.17-3.06 3.73-8.02 4.65-12.04 6.93 6.42 0.55 12.88 0.24 19.33 0.22-1.98-2.06-4.52-4.58-2.73-7.63 3.39-7.55 3.34-17.44-2.78-23.59-4.52-4.96-12.95-5.65-18.02-1.17m-564.77 24.92c1.84 2.25 4.33 4.93 2.67 8.03-3.4 8.11-3.45 18.62 3.12 25.18 4.12 4.61 11.8 5.52 16.73 1.7 8.32-6.55 8.78-18.66 16.34-25.69 6.56-3.63 10.86 5.5 8.95 10.87-1.14 7.23-8.07 10.37-13.61 13.66 5.63 0.38 11.29 0.19 16.9-0.44-1.22-0.93-2.47-1.81-3.72-2.69 2-6.87 5.24-14.15 2.24-21.29-2.34-7.7-12.23-12.12-19.18-7.56-8.11 5.7-9.41 16.39-15.14 23.91-2.54 3.14-7.55 3.43-10.13 0.15-4.28-5.37-2.18-13.47 2.04-18.27 2.96-3.81 7.9-4.78 11.74-7.36-6.3-0.52-12.63-0.15-18.95-0.2m536.89 16.02c2.61 1.66 5.23 4.09 3.19 7.35-4.92 11.28-2.99 25.72 6.66 33.91 9.27 8.81 25.62 8.72 34.18-1.04 9.42-10.78 9.65-29.22-0.86-39.42-1.41-0.06-2.81-0.11-4.21-0.17 5.02 4.63 9.31 10.87 8.59 18.04 0.29 6.32-4.28 12.09-10.28 13.79-8.44 2.48-18.23 2.92-26.11-1.5-7.81-4.46-9.92-15.91-4.45-22.97 2.53-4.06 7.37-5.28 11.11-7.82-5.92-0.64-11.88-0.3-17.82-0.17m-530.48 36.7c-8.14 11.22-8.59 28.49 0.65 39.24 1.14 1.85 3.51 1.37 5.34 1.68-5.93-5.72-10.2-13.81-8.31-22.25 0.77-7.15 7.62-11.65 14.25-12.62 7.77-1.41 16.59-1.25 23.14 3.71 7.58 5.84 8.21 18.18 1.73 25.08-2.57 3-6.59 4-9.52 6.53 5.86 0.38 11.77 0.41 17.63 0.01-3.94-1.71-4.64-5.68-2.77-9.25 5.28-13.02 1.14-29.73-11.08-37.3-9.67-6.52-24.07-4.21-31.06 5.17m532.46 15.39c-0.57 9.14-0.52 18.36-0.01 27.5 1.18-2.56 0.59-7.3 4.44-7.42 12.66-0.28 25.36-0.2 38.02-0.05 4.45-0.36 3.93 4.91 4.98 7.79 0.68-9.23 0.97-18.68-0.09-27.88-1 2.77-0.55 8.02-4.86 7.56-12.34 0.46-24.73 0.33-37.08 0.11-4.48 0.45-4.25-4.63-5.4-7.61m-0.23 29.86c-0.15 6.85-0.12 13.69-0.09 20.54 1.84 0.82 3.68 1.66 5.54 2.49 4.37 1.94 8.74 3.88 13.15 5.75 4.26 1.81 8.6 3.47 12.68 5.68-10.41 4.86-20.9 9.54-31.4 14.2 0.13 7.13-0.32 14.28 0.34 21.4 0.85-2.27 1.31-4.67 2.01-6.99 13.05-1.61 26.34-0.46 39.48-0.66 4.37-0.2 4.82 4.59 6.18 7.59 0.23-6.06 0.71-12.21-0.27-18.22-0.83 2.61-1.71 5.26-3.44 7.44-13.03 0.39-26.07 0.2-39.1 0.1 14.41-6.83 29.04-13.19 43.52-19.88-9.27-5.07-19.24-8.73-28.82-13.19-4.32-1.98-8.65-3.95-13.04-5.76 0.15-0.31 0.46-0.92 0.61-1.23 12.86 0.65 25.95-1.18 38.64 1 0.47 2.27 0.96 4.54 1.61 6.77 0.93-9.14 0.82-18.48 0.07-27.63-0.78 2.3-0.92 4.87-2.26 6.94-5.73 1.6-11.83 0.43-17.71 0.77-8.52-0.37-17.17 0.85-25.58-0.8-0.57-2.08-1-4.18-1.25-6.31h-0.87m-536.86 2.01c-0.48 9.7-0.51 19.45 0.08 29.14 0.98-2.57 0.63-6.08 3.04-7.83 6.53-0.97 13.18-0.22 19.76-0.45 0 6.32 0.04 12.65-0.01 18.98-6.89-0.12-13.84 0.53-20.65-0.71-0.8-2.34-1.31-4.77-2.26-7.05-0.37 9.49-0.48 19.02 0.08 28.49 1.11-2.92 0.89-8.37 5.41-7.76 12.38-0.28 24.79-0.36 37.16 0.04 4.3-0.32 3.78 5.01 4.84 7.76 0.83-9.51 0.89-19.25-0.04-28.75-1.13 2.44-0.34 7.18-3.9 7.6-5.78 0.81-11.64 0.25-17.46 0.4-0.05-6.34-0.03-12.67 0.01-19.01 5.8 0.13 11.62-0.26 17.41 0.25 3.58 0.72 2.94 5.33 4.02 7.98 0.77-9.6 0.86-19.42-0.08-29-0.8 2.34-0.64 5.16-2.29 7.14-5.67 1.65-11.73 0.52-17.57 0.84-8.48-0.32-17.07 0.79-25.45-0.82-0.73-2.41-1.2-4.89-2.1-7.24m18.87 65.11c-23.47 4.29-27.42 40.44-8.27 52.43 9.24 6.12 22.9 4.99 30.49-3.3 8.86-9.32 9.37-24.39 4.62-35.76-4.62-9.89-16.09-15.91-26.84-13.37m537.02 6.99c-12.42 1.8-20.75 14.5-19.8 26.6-1.2 13.26 9.75 26.77 23.4 26.68 10.9 0.98 21.93-6.23 25.09-16.77 2.55-8.55 2.11-18.48-2.86-26.1-5.5-8.2-16.19-12.4-25.83-10.41m-538.04 55.94c-17.87 4.1-23.54 26.7-16.43 41.82 5.5 12.33 21.93 18.27 33.83 11.56 14.28-7.65 16.57-27.88 9.84-41.28-5.05-9.64-16.66-14.99-27.24-12.1m519.18 2.03c-0.48 5.74-0.44 11.53 0 17.27 0.87-2.01 1.55-4.09 2.26-6.15 8.75-2.85 18.28-0.74 27.35-1.37-9.95 8.01-19.76 16.22-29.46 24.53-1.01 6.11-0.33 12.56-0.19 18.8 1.15-3.07 2.67-6.02 5.36-8.02 12.07 0.21 24.15-0.27 36.21 0.23 4.45-0.04 4.89 4.72 5.89 7.95 0.94-6.31 0.88-12.9-0.01-19.21-0.97 3.26-1.56 8.19-6 8.2-10.8 0.29-21.62 0.16-32.42 0.05 13.45-11.87 27.63-22.93 40.74-35.16-11.06-0.57-22.14-0.13-33.21-0.26-4.78-0.19-9.92 0.89-14.3-1.56-0.62-1.82-1.26-3.63-2.22-5.3m17.79 56.95c-20.35 4.32-25.02 33.92-10.57 47.01 8.79 8.37 23.91 8.3 32.95 0.34 9.11-7.38 10.68-20.96 7.21-31.56-3.85-11.92-17.63-18.74-29.59-15.79m-555.05 1.76c-0.11 15.65-0.07 31.31-0.03 46.96 5.63 1.39 11.59 1.46 17.35 2.2-2.45-3.48-7.37-3.49-10.3-6.47-4.99-4.06-4.58-11.03-4.39-16.8 0.11-2.18 0.01-5.65 3.09-5.5 12.34-0.34 24.72-0.24 37.07-0.04 4.53-0.18 3.9 5.49 4.84 8.46 0.89-9.75 0.97-19.78-0.02-29.51-0.87 2.9-0.49 7.99-4.76 7.99-12.67 0.13-25.38 0.32-38.04-0.1-3.7-0.15-3.6-4.51-3.85-7.21l-0.96 0.02m535.82 54.15c6.73 4.42-0.63 10.48-1.87 15.89-6.31 16.31 6.86 37.01 24.86 35.97 20.64-0.16 31.17-28.06 19.48-43.61-1.31-0.46-2.63-0.82-3.97-1.05 3.43 5.17 6.84 11.13 5.52 17.6-0.48 6.39-5.23 12.34-11.73 13.26-8.96 1.26-18.87 0.2-26.27-5.4-6.88-5.5-7.47-16.86-1.31-23.12 3.03-3.53 7.64-4.89 12.07-5.57-0.03-0.35-0.1-1.05-0.14-1.39-5.56-0.82-11.04-2.13-16.64-2.58m-509.72 12.15c-9.38 1.32-17.67 8.54-20.04 17.74-2.67 11.09-0.09 24.17 8.38 32.21 9.54 9.04 26.54 8.6 34.97-1.73 8.15-9.01 7.11-22.63 2.98-33.21-4.27-9.97-15.35-17.07-26.29-15.01m503.23 33.53c-5.63 13.16-12.1 25.99-17.2 39.35 2.29-2.34 4.24-6.84 8.27-4.77 11.3 4.92 22.61 9.9 33.75 15.16 3.84 1.59 1.76 6.04 1.17 8.96 7.27-12.88 12.37-26.97 18.67-40.38-4.56-2.85-8.88-6.1-13.72-8.45 2 3.77 5.83 6.68 6.35 11.14 0.86 5.38-1.16 10.64-3.65 15.31-0.65 1.48-2.6 2.54-4.14 1.85-5.49-2-10.69-4.72-16.02-7.08 2.28-6.84 9.73-6.68 15.6-5.49-7.3-5-16.01-7.94-24.2-11.28 4.34 4.18 10.21 8.99 6.62 15.74-6.18-2.41-12.22-5.16-18.21-7.99 2.27-4.87 3.76-10.65 8.35-13.92 3.47-2.66 8-1.24 11.99-1.76-4.32-2.58-8.94-4.61-13.63-6.39m-469.31 10.59c0.51 3.16 2.96 7.88-1.31 9.42-12.03 5.27-23.9 10.98-36.14 15.76-2.35-1.62-4.05-3.91-5.87-6.06 3.59 9.1 7.26 18.26 12.06 26.79-0.36-3.09-2.76-7.53 0.99-9.43 5.42-2.67 10.94-5.19 16.65-7.17 0.9 3.4 1.94 7.11 0.8 10.59-1.48 2.85-4.44 4.51-6.61 6.78 8.26-2.42 16.16-6.2 23.73-10.29-6.68 1.77-14.39-1.08-15.76-8.43 6.07-2.51 11.93-5.49 18.09-7.75 2.3 5.82 6.12 11.71 4.99 18.23-0.54 3.72-4.05 5.77-6.26 8.46 4.8-1.11 9.19-3.41 13.67-5.38-6.5-13.75-11.57-28.29-19.03-41.52m343.58 114.24c-0.5-0.37-1.48-1.11-1.98-1.49l0.27 0.7c-8.48 2.82-16.94 5.69-25.32 8.78-14.13 5.9-29.76 5.24-44.31 9.83 3.19 0.27 8.87-1.14 9.29 3.53 2.26 11.61 4.54 23.25 6.38 34.93 0.79 4.26-4.29 4.64-6.88 6.42 9.7-1.54 19.58-2.9 28.99-5.7-3.02-0.36-8 1.09-8.83-3.06-2.41-11.14-4.24-22.42-6.32-33.63-0.88-2.72 0.29-5.33 2.68-6.75 0.49 0.35 1.47 1.04 1.96 1.39 2.6-0.75 6.83-1.89 7.88 1.64 3.96 11.18 7.9 22.4 11.54 33.69 1.52 4.16-3.45 5.59-5.96 7.57 7.9-1.96 15.46-5.08 23.21-7.56 3.37-1.22 6.78-2.36 10.2-3.46 3.71 0.46 8.57 1.83 11.21-1.75 3.48-3.3 1.78-8.27 1.46-12.41 2.36-0.64 4.81-0.86 7.25-0.53 0.18 2.95-0.5 5.81-2.7 7.93 0.33 0.04 0.97 0.12 1.29 0.16 4.31-0.52 7.78-3.43 11.6-5.24 10.53-5.79 23.3-10.86 28.16-22.82 5.7-13.93-6.85-31.19-21.96-29.51-14.53 1.42-26.25 11.33-39.11 17.34m-242.87 8.45c-7.39 5.49-14.24 11.69-21.79 16.96-2.51 1.96-5.8 1.7-8.78 1.92 5.4 3.52 11.59 5.62 17.57 7.97-1.69-1.7-3.7-3.03-5.34-4.77-1.1-4.15 3.98-6.25 6.36-8.76 4.56 1.78 9.04 3.77 13.52 5.78 1.42 0.61 2.85 1.23 4.28 1.86 0.3 3.9 0.65 7.85-0.03 11.74-2.5-0.22-4.95-0.71-7.42-1.09 7.96 4.57 16.67 7.68 25.06 11.38-1.98-2.49-4.09-5.1-4.19-8.42-1.46-15.64-1.92-31.36-3.42-46.99-5.33 4.06-10.6 8.2-15.82 12.42m37.31-2.19c2.65 1.76 7.78 2.63 6.49 6.97-2.66 11.36-5.67 22.68-8.77 33.94-0.7 4.72-6.11 3.1-9.43 3.27 9.18 2.95 18.59 5.3 28.03 7.22-2.24-1.83-7.05-2.51-6.23-6.33 0.91-5.33 2.5-10.52 3.98-15.7 8.47 2.24 20.08 5.42 26.48-2.62 5.06-7.06-1.15-15.79-8.27-18.19-10.45-3.8-21.37-6.46-32.28-8.56m43.05 9.98c2.98 1.4 8.35 1.84 7.44 6.44-1.38 11.75-2.28 23.6-4.2 35.28-0.6 3.95-5.29 2.85-8.11 3.51 9.43 2.24 19.26 2.93 28.92 3.53-2.54-1.28-6-1.23-7.69-3.76-0.4-5.93 1.03-11.8 1.57-17.67 8.72 0.91 20.63 2.66 25.93-6.18 4.2-7.62-3.01-15.43-10.33-16.91-10.99-2.45-22.31-3.5-33.53-4.24m43.01 4.27c3.03 0.63 8.38 0.28 8.29 4.72 0.74 12 1.22 24.06 1.21 36.08 0.07 3.9-5.01 3.42-7.53 4.75 16.32 0.03 32.62-1.04 48.93-1.54 0.34-5.67 1.32-11.31 1.13-17-3.14 3.2-3.48 8.18-6.84 11.23-4.32 4.29-10.9 3.91-16.52 4.06-2.08 0.07-5.51-0.06-5.52-2.86-0.93-11.88-1.19-23.84-1.32-35.75-0.11-4.44 5.61-3.71 8.49-4.9-10.07-0.36-20.34-0.14-30.32 1.21z"/>
<path d="m645.05 131.38c33.14 0.15 66.29-0.2 99.43 0.17-30.25 12.39-60.22 25.52-90.31 38.31 10.71 3.1 20.49 8.76 28.97 15.95-12.53 21.89-25.36 43.62-38.08 65.41 0-39.95-0.04-79.9-0.01-119.84z"/>
<path d="m624.09 131.69c6.21-0.47 12.44 0.19 18.66-0.23l0.35-0.01c-0.27 41-0.05 82.02-0.06 123.02-0.93 1.76-1.88 3.5-2.84 5.24-36.4-0.01-72.8-0.01-109.19 0-0.13-11.91-0.03-23.81-0.03-35.72 2.45-0.65 4.89-1.31 7.34-1.94 0.49-6.34-1.3-13.18-7.17-16.51-0.09-1.23-0.17-2.47-0.25-3.7 2.21-0.96 4.42-1.91 6.63-2.89 0.79-4.86 4.92-7.51 9.08-9.34 3.64 1.27 7.82 2.43 11.44 0.4 7.9-4.52 14.47-10.87 20.24-17.84-0.03-3.93-0.04-7.86 0.2-11.78 7.01 5.72 7.57 16 9.88 24.23 1.61 3.92-3.95 4.68-6.26 6.42 3.63 6.03 4.59 13.53 1.58 20.04-1.16-0.71-2.31-1.41-3.45-2.1 0.2 1.17 0.42 2.36 0.65 3.54-4.71 1.14-9.13 3.32-12.96 6.28-6.36 1.74-13.91 0.25-19.11 5.01-3.37 2.48-7.19 4.23-10.99 5.92 1.34 5.31 3.85 10.87 9.38 12.87 2.08-4.79 5.44-10.66 0.25-14.73 1.6-0.13 3.21-0.26 4.83-0.39 0.28 1.89 0.54 3.78 0.83 5.67 3.46-1.02 6.95-1.96 10.52-2.55 0.04-2.12 0.1-4.25 0.22-6.36 1.91 2.36 3.73 4.8 5.59 7.21 2.52-1.49 4.47-3.68 5.64-6.36 4.43 0.52 9.23 1.14 12.93-1.96 0.97 0.24 1.95 0.49 2.93 0.73 0.55-0.72 1.11-1.44 1.67-2.16-0.5-6.48 1.04-12.85 3.83-18.66-2.94-3.02-5.8-6.27-6.98-10.42 2.81 0.28 5.62 0.72 8.31 1.64 2.26-1.99 4.97-3.28 7.93-3.85-0.01-1.19 0-2.37 0.01-3.56-3.17-0.94-6.45-1.36-9.75-1.46-2.65-1.91-5.39-3.76-7.47-6.32 2.07-0.4 4.17-0.73 6.27-1.01-0.2-0.72-0.4-1.44-0.59-2.15-1.62-0.62-3.24-1.23-4.86-1.83-0.04-1.49-0.06-2.97-0.09-4.45 1.2-0.29 2.41-0.57 3.63-0.86-0.03-0.53-0.09-1.6-0.12-2.13-6.2-2.75-6.74-10.35-11.59-14.46-1.05 1.17-2.07 2.36-3.09 3.56-4.29-2.21-9.14-3.32-13.84-1.72 0.3-1.15 0.61-2.29 0.93-3.43-1.91 0.55-3.81 1.08-5.73 1.54 1.23-3.58 5.37-3.72 8.12-5.57 2.83-1.58 5.16-4.23 8.4-4.94 10.17 2.86 20.95 2.09 31.36 3.95 0.15-1.89 0.28-3.77 0.43-5.65 3.74-0.25 7.69 0.06 9.38 3.93 1.28-0.83 2.56-1.65 3.86-2.46-0.19 1.65-0.37 3.3-0.56 4.96-1.41 0.58-2.82 1.14-4.21 1.72 0.45 9.87 13.79 11.38 13.85 21.23 1.44-1.16 2.86-2.34 4.27-3.54-0.14-4.69 5.07-7.7 4.23-12.33-3.03-3.12-7.81-3.77-10.85-6.98 3.12-0.05 6.24-0.23 9.3-0.94 1.49 0.81 2.98 1.6 4.5 2.39 0.21-3.22 0.32-6.45 0.42-9.68-5.89-2.31-12.04-3.94-17.83-6.53z"/>
<path d="m741.79 241.02c3.2-31.09 5.88-62.23 9.23-93.31 0.27 37.33 0.05 74.67 0.1 112-18.67-0.01-37.35-0.01-56.02 0.01 8.38-14.61 16.94-29.13 25.39-43.7 9.46 5.99 15.76 15.52 21.3 25z"/>
<path d="m488.09 262.24c13.49-1.02 27.17-0.13 40.74-0.44-0.08 49.21 0.18 98.42-0.12 147.63-5.78 8.02-4.24 19.09-3.39 28.41 1.21-0.19 2.42-0.38 3.64-0.56-0.23 4.19-0.19 8.4 0.04 12.6-2.91 2.76-6.76 4.12-10.26 5.91-14.61 7.35-29.14 14.86-43.79 22.13-5.03-3.95-11.03 0.81-16.47-1.35-3.15-1.34-4.2 2.47-4.87 4.69 4.94-0.09 9.9-0.15 14.85-0.05-18.85 9.38-37.52 19.13-56.43 28.39-0.2-12.47-0.18-24.95-0.02-37.42 2.84 2.1 6.51 2 9.75 3.1 9.39 4.55 20.2 1.33 30.01 4.46 0.23-0.74 0.67-2.21 0.89-2.94-3.19-0.6-6.23-1.83-8.35-4.38-2.73-0.07-5.46-0.15-8.17-0.37 2.74-1.46 6.2-2.21 7.62-5.3-3.45-0.23-6.88 0.32-10.09 1.59-3.87-1.63-7.88-2.96-12.05-3.53-0.23 0.8-0.68 2.41-0.91 3.21-2.96-0.6-5.92-1.2-8.88-1.78 0.34-13.37-0.33-26.77 0.38-40.13 0.58 1.86 1.2 3.72 1.8 5.59 1.04 0.33 2.09 0.67 3.14 1.02 0.15 3.67 1.31 7.15 2.65 10.53 2.64-0.05 5.27-0.07 7.91-0.08 0.47 0.93 0.94 1.88 1.42 2.83 5.68-2.19 14.05-3.33 16.42 3.94 3.29-0.6 6.66-0.93 10-0.46 0.46-5.84 2.3-11.45 2.84-17.29 1.54-0.91 3.08-1.8 4.65-2.66 0.15-1.43 0.3-2.84 0.46-4.25 0.55-0.04 1.64-0.13 2.18-0.17 1.66 1.41 3.34 2.8 5.1 4.09 0.8-4.74-4.42-5.97-6.38-9.39 2.7-0.32 5.43-0.46 8.16-0.57-0.07-0.81-0.19-2.43-0.26-3.24-1.61-1.02-3.22-2.03-4.81-3.05-0.36-3.24-1.43-6.32-3.22-9.03 0.43-2.09 0.84-4.17 1.26-6.26 1.31-0.14 2.64-0.27 3.96-0.4 1.42-2.16 3.06-4.16 4.81-6.05-1.94-3.18-5.31-4.57-8.68-5.7-1.89-2.44-2.38-5.6-3.21-8.49-5.02 2.9-7.08 8.64-11.51 12.17-0.32 0.76-0.64 1.53-0.95 2.3-6.14 0.85-9.45 6.06-13.1 10.37-5.29 4.06-10.51 8.3-16.05 12.02-2.08-0.16-3.9-1.32-5.8-2.05-1.01 0.96-2.02 1.91-3.01 2.88-0.09-19.58-0.19-39.17 0.03-58.75l0.54-0.53c7.08-4.6 4.72-13.39 5.03-20.48 0.41-4.77-3.32-8.28-5.34-12.22-0.78-8.48-0.3-17.15-0.1-25.69 3.4-1.32 7.58-5.06 11.17-2.66 1.16 2.45 2.18 4.98 3.4 7.41-3.45 1.31-8.59 1.74-9.33 6.19 0.86 2.4 2.9 4.05 4.58 5.86 4.7-2.29 7.54-6.77 10.48-10.88-1.35-1.11-2.71-2.21-4.07-3.3 0.5-0.94 1.02-1.87 1.56-2.79 4.69-4.3 11.61-3.67 16.69-7.19 5.04-3.56 11.47-2.91 17.29-3.54 1.38-2.4 2.81-5.12 5.84-5.59 5.53-1.26 7.49-7.58 12.75-9.43 0.78-3.54 2.54-6.8 5.58-8.88m-4.72 19.09c-0.99 3.74 1.75 6.82 4.8 8.51 4.23-5.4 6.66-11.97 7.87-18.67-6.9-1.22-8.82 6.19-12.67 10.16m-0.05 30.88c0.01 3.37 0.01 6.75-0.04 10.13-1.28 0.11-2.56 0.23-3.83 0.35-0.17 3.73 0.94 7.29 2.14 10.77 0.77 0.08 2.32 0.23 3.1 0.3-0.49 1.04-0.97 2.08-1.45 3.13 1.23 0.32 2.46 0.65 3.69 1-1.24 0.64-2.49 1.27-3.73 1.91 0.94 3.33 1.94 7.29 5.63 8.56 2.65-2.91 0.89-6.21 0.1-9.42 3.25 2.81 7.44 1.65 11.26 1.05 0.16 2.53 0.1 5.07-0.1 7.6 1.82 0.94 3.62 1.93 5.48 2.82-0.21-2.04-0.9-3.95-1.66-5.83 1.32 1.23 2.65 2.46 4 3.67-1.53 3.77 0.11 7.54 1.31 11.14 4.19 0.28 3.49-2.85 2.01-5.54 1.05-0.16 2.11-0.31 3.18-0.46 0.08-3.11 0.23-6.39-1.93-8.89-2.18 0-4.36-0.01-6.53-0.03-1.28-2.71-2.49-5.48-2.94-8.46-2.01-0.61-4.01-1.24-6.01-1.84-2.08 0.7-4.93 2.45-6.49-0.04-0.09-2.27 2.51-2.16 4-2.96-1.24-0.78-2.51-1.51-3.75-2.27-0.08-0.82-0.23-2.47-0.31-3.29 1.83-0.94 3.68-1.88 5.51-2.83 0.22-4.14 0.17-8.28 0.08-12.42-2.79-0.49-5.44-1.49-8.02-2.6-1.56 1.49-3.12 2.98-4.7 4.45m-13.2 43.96c-1.78 1.54-2.76 3.69-3.23 5.96 5.94-4.25 10.55-10.29 17.61-13.09-0.36-2.23-0.89-4.42-1.66-6.54-5.82 2.86-8.15 9.42-12.72 13.67m22.79-6.56c-0.29 2.68-1.17 5.23-2.26 7.68 2.06 0.01 4.13 0.02 6.2 0.06-0.02 0.56-0.07 1.68-0.09 2.23l-2.64 1.92c-0.15 2.41 1.96 6.09 4.68 4.27 3.21-2.08 6.65-3.83 10.62-3.44-1.05-1.53-2.28-2.94-4.04-3.63 0-1.82-0.08-3.65-0.3-5.45-1.02 1.17-1.95 2.41-2.84 3.68-2.44-3.28-4.29-8.23-9.33-7.32m19.66 11.3c-0.06 1.75-0.12 3.51-0.17 5.27-0.79 0.07-2.38 0.22-3.18 0.29-0.22 1.05-0.43 2.1-0.64 3.16-1.67 0.57-3.35 1.14-5.01 1.72-0.07-0.8-0.22-2.39-0.29-3.19-4.85 1.65-13.18 4.65-10.24 11.28 0.72-1.03 1.41-2.1 2.04-3.19 0.96 0.39 1.92 0.8 2.9 1.2 1.4-0.69 2.81-1.38 4.23-2.06 0.85 0.79 1.66 1.65 2.42 2.55-3.91 5.9 5.06 9.95 9.79 10.62 0.33-2.98-1.15-6.65 1.22-9.05 0.24 0.96 0.72 2.89 0.96 3.85 2.38-1.4 3.54-3.9 4.41-6.41-1.44-5-0.63-10.56-4.74-14.45-1.24-0.53-2.47-1.07-3.7-1.59m-21.92 16.48c-1.46 1.64-3 3.22-4.59 4.74-0.06 0.87-0.17 2.59-0.22 3.46 2.73-1.86 5.2-4.21 6.5-7.31-0.42-0.22-1.27-0.67-1.69-0.89m-7.5 8.55c-0.98 4.07 3.95-0.94 0 0m-1.16 30.97c-3.84 0.68-3.57 6.29-7.65 6.57-2.27 7.44-1.26 15.44-3.76 22.91 1.87 0.32 3.74 0.64 5.62 0.97 0.35 4.19-1.01 8.19-2.12 12.16 2.52 0.01 5.04 0.02 7.56 0.01 0.48-6.25-1.89-12.99 1.48-18.75 2.28 4 3.84 8.54 4.36 13.12 1.18 1.29 2.37 2.59 3.55 3.91 1-0.56 2.01-1.11 3.02-1.65 0.12 1.14 0.24 2.29 0.36 3.44 0.97-0.02 1.94-0.03 2.93-0.02 0.59-2.22 1.27-4.4 2.08-6.54-4.31-3.82-6.02-9.42-8.08-14.59 1.26-1.72 2.47-3.48 3.66-5.25 1.72 0.3 3.45 0.53 5.21 0.64-0.8-1.05-1.93-1.71-3.1-2.25 1.98-1.45 2.8-3.72 3.31-6.03 3-1.36 5.35-3.78 8.4-5.06 0.01-1.47 0.04-2.93 0.07-4.39-8.69 3.98-18.01-1.1-26.9 0.8m35.84 31.86c2.45-0.22 8.13 0.22 7.16-3.7-2.49-4.06-8.34-0.62-7.16 3.7z"/>
<path d="m593.78 433.79c16.08-28.31 32.61-56.36 49.1-84.43 0.19 36.82 0.2 73.64-0.01 110.46-0.62-0.25-1.85-0.75-2.47-1-0.03-1.59-0.06-3.18-0.08-4.76-7.28-3.33-12.58-10.28-21.11-10.3-8.04-4.79-18.21-3.58-25.43-9.97z"/>
<path d="m114.93 444.98c13.03-3.24 26.66 2.07 36.75 10.29 11.32 9.26 19.96 21.42 26.49 34.43 1.87 3.13 0.41 6.81 0.16 10.17-4.69 35.05-5.88 72 7.37 105.45 13.01 32.98 36.44 61.23 65.1 81.86 50.82 36.26 111.52 53.78 167.95 78.99 35.07 15.39 69.25 33.65 98.81 58.24 4.06 4.07 10.27 3.11 14.13-0.69 47.75-39.72 106.68-61.64 163.58-84.56 33.39-13.53 66.88-27.71 96.75-48.12 34.9-23.6 63.27-58.21 75.08-99.05 8.88-31.3 6.72-64.38 2.36-96.23 4.31-3.54 5.79-9.11 8.7-13.67 7.23-11.93 16.14-23.29 28.04-30.86 8.77-5.56 19.58-8.67 29.93-6.54 7.56 1.57 13.89 7.09 17.23 13.95 6.39 12.5 7.28 27.55 3.32 40.94-7.09-8.7-13.65-17.84-20.7-26.56-3.83-3.9-9.8-1.36-13.46 1.46-10.39 8.03-18.17 20.2-19.36 33.43-0.97 8.79 3.97 16.54 6.11 24.77 12.73 35.2 39.62 62.47 64.64 89.32-1.01 6.29-0.97 12.7-1.95 19.01-4.29 33.23-19.45 64.45-40.78 90.06-36.64 44.09-87.21 73.9-138.91 97.13-60.98 27.54-123.48 51.92-182.57 83.5-29.4 15.69-57.72 33.54-83.67 54.5-21.4-17.61-44.77-32.69-68.81-46.42-61.55-34.67-127.53-60.29-191.86-89.15-41.62-18.27-82.07-40.5-116.32-70.69-37.28-32.37-66.06-77.3-69.75-127.47-1.47-4.69 3.31-7.28 5.8-10.4 27.18-29.03 56.49-59.06 67.66-98.37 8.44-17.15-1.39-37.22-15.12-48.37-3.82-3.11-10.33-6.65-14.5-2.28-7.5 9.17-14.47 18.76-21.87 28.01-5.29-10.68-9.95-23.43-5.45-35.19 2.77-9.31 9.29-18.39 19.12-20.89m43.95 177.39c0.89 2.24 2.12 4.36 2.67 6.73-1.93 3.6-5.97 5.09-9.25 7.17-13.64 7.69-27.12 15.67-40.93 23.05-4 2.68-8.07-0.07-11.78-1.76 10.66 12.94 22.8 24.7 34.32 36.9 5.68-3.48 12.8-4.79 17.61-9.5-9.99 0.93-21.27-0.2-28.55-7.91-1.87-1.85-5.71-5.33-2.59-7.69 7.63-5.14 15.9-9.27 23.85-13.9 2.97 3.3 7.51 6.53 6.86 11.57-0.84 3.3-4.08 5.16-5.81 7.96 8.72-4.15 17.25-8.89 25.27-14.27-4.06 0.34-8.15 1.76-12.22 0.85-4.42-1.25-7.54-4.88-10.59-8.09 7.96-4.38 15.63-9.64 23.9-13.24 3.82 4.03 8.65 8.03 9.72 13.76 0.97 4.7-2.84 8.13-4.68 12.01 5.67-2.43 10.74-6.03 16.09-9.07-8.79-9.44-17.66-18.81-26.55-28.16-2.28-2.32-4.25-5.12-7.34-6.41m753.85 29.48c-0.58 6.94-9.27 7.21-12.03 12.88-5.31 7.73 1.53 18.44 10.12 19.58 6.71 2.11 14.8 0.59 20.5 5.33 3.55 2.69 2.68 8.84-1.86 9.83-6.09 2.41-10.91-3.02-16.52-3.94 3.49 4.77 6.7 9.87 11.11 13.86 0.17-6.14 7.37-6.72 10.51-10.83 5.54-6.25 3.5-16.43-2.92-21.26-6.73-5.27-15.92-3.7-23.63-6.26-3.89-1.38-4.93-7.04-1.02-9.06 5.48-2.67 11.05 0.89 15.66 3.67-2.16-5.33-6.66-9.17-9.92-13.8m-27.69 29.05c5.71 12.79 11.24 27.17 7.69 41.3-1.1-0.5-2.41-0.84-2.76-2.14-4.8-11.41-9.44-22.91-14.31-34.3-4.54 4.1-8.85 8.67-12 13.93 2.1 0.07 5.17-1.37 6.2 1.3 5.23 9.6 8.01 20.39 13.28 29.97 1.99 4.06 8.47 5.54 10.87 1.06 4.43-8.03 1.65-17.65 1.28-26.33 2.81 5.27 3.79 12.33 9.15 15.69 9.9 1.57 11.9-13.66 7.2-19.67-0.19 3.19-0.15 6.4-0.6 9.58-1.6-0.88-2.72-2.3-3.33-3.99-4.73-11.09-9.56-22.15-14.23-33.28-2.87 2.22-5.7 4.49-8.44 6.88m-715-5.22c1.59 2.38 3.84 4.93 2.62 8.02-2.35 6.78-6.58 12.7-10.14 18.87-4.61 0.9-9.57 2.91-14.19 1.08-2.13-1.96-1.57-6.13-4.68-7.21-5.08-2.25-11.05 5.37-6.35 9.29 6.81 4.79 15.43 0.3 22.96 0.25-2 4.61-5.22 8.9-5.64 14.05 0.31 9.9 16.74 9.27 20.3 3.46-2.93 0.26-7.27 2.84-9.41-0.33 0.06-6.17 4.39-11.21 7.06-16.52 1.9-4.86 7.85-5.22 12.34-5.47 4.06-0.14 4.58 4.74 7.23 6.76 5.23 2.86 11.7-5.83 6.3-9.41-6.7-3.91-14.69 0.2-21.66 1.37 3.03-4.95 5.77-10.1 7.34-15.71-4.69-2.82-8.79-6.78-14.08-8.5m664.32 15.07c2.45-0.05 6.52-1.97 7.25 1.63 6.35 17.61 11.41 35.67 17.79 53.27 1.2 3.94 6.26 6.21 9.63 3.35 5.53-4.14 4.68-11.81 4.77-17.9-0.39-0.03-1.17-0.09-1.56-0.11-0.26 3.51-0.12 7.25-2.14 10.33-3.24-3.9-4.06-9.03-5.7-13.68-5.55-16.74-10.91-33.55-16.53-50.26-4.87 4.02-10.06 8.01-13.51 13.37m-72.8 37.37c1.29 6.13 2.31 12.34 4.24 18.32 1.94-4.74 0.95-10.33 3.92-14.73 4.01-6.04 10.77-9.36 17.02-12.59-2.84 26.04-6.93 51.96-9.33 78.03 13.97-6.14 27.03-14.29 40.59-21.33-1.06-6.74-2.26-13.46-3.74-20.11-2.52 2.53-1.79 6.49-2.95 9.64-2.33 9.54-10.46 16.39-19.21 20.02 2.61-26.16 6.91-52.17 9.19-78.36-13.49 6.55-26.41 14.22-39.73 21.11m64.63-8.91c-9.15 10.91-9.66 27.4-3.19 39.75 2.6 4.94 8.3 9.35 14.11 7.19 9.79-2.82 15.22-13.1 15.22-22.8-4.3 3.96-4.89 11.89-11.61 13.33-5.91 1.39-8.82-4.98-10.67-9.39 7.22-4.83 13.59-12.15 13.96-21.23 0.34-5.01-1.23-12.05-7-13.15-4.44-0.1-8.04 3.2-10.82 6.3m-648.19 9.81c-3.62 4.92-4.84 12.46-0.24 17.19 6.18 6.81 16.4 6.68 24.55 4.1 0.14-0.47 0.44-1.42 0.59-1.89-5.13 0.38-11.3 0.9-15.15-3.21-2.89-3.62-1.41-8.89 1.22-12.22 5.39-7.2 13.19-13.04 22.1-14.89 3.55-0.93 9.39 0.51 8.7 5.19-5.45 0-11.1 4.04-8.09 9.99 6.07 3.2 13.57-2.77 12.41-9.34-1.03-5.32-6.51-8.38-11.4-9.52-13.12-2.61-26.88 4.09-34.69 14.6m94.85-1.41c1.52 2.2 5.28 4.92 2.31 7.53-12.13 14.51-25.23 28.21-37.23 42.83-4.21 5.18 2.5 11.97 8.11 10 4.38-1.36 10.13-2.66 12.21-7.18-3.48 1.35-6.7 3.57-10.55 3.67 1.36-4.95 5.62-8.19 8.75-12 11.5-13.4 23.74-26.19 34.79-39.96-6.02-1.99-12.07-4.12-18.39-4.89m-64.16 25.05c-3.05 4.89-3.89 12.54 1.41 16.25 7 5.99 19.79 7.05 26.28 0.41-5.86 0.55-13.28 2-17.52-3.24-3-4.62 0.81-9.5 3.49-13.19 9.99 5.19 24.42 6.18 31.97-3.59 3.71-4.08 1.3-10.38-3.72-11.9-15.23-6.39-33.49 1.75-41.91 15.26m55.78 26.76c-3.13 4.94-5.01 12.17-0.95 17.12 7.56 7.55 21.95 7.24 28.96-0.58-5.75 0.79-12.6 3.44-17.61-0.83-4.21-3.96-0.85-9.78 1.41-13.83 10.22 3.83 23.7 3.02 30.51-6.53 3.22-3.67 2.34-10.37-2.76-11.79-14.95-5.67-31.81 3.38-39.56 16.44m49.37-6.79c1.37 1.14 2.77 2.27 4.17 3.4-6.53 12.43-16.92 22.37-24.89 33.9 3.31 1.57 6.69 3 10.06 4.46 4.7-5.37 8.12-11.94 14.05-16.14 6.22-4.5 12.81-10.6 21.01-10.09-4.4 10.39-14.35 17.44-19.61 27.43-1.99 3.69 1.33 8.25 5.37 8.09 5.79 0.13 11.86-2.99 15.22-7.68-3.49 0.45-6.12 3.19-9.62 3.65 4.86-10.49 14.91-17.62 20.2-27.89 1.9-3.54 0.81-9.14-3.74-9.75-9.89-1.23-17.85 6.03-25.8 10.73 3.99-5.78 8.54-11.13 12.65-16.81-6.22-1.51-12.63-4.28-19.07-3.3m401.29 8.9c-5.15 1.41-11.29 1.19-15.18 5.42-5.67 5.41-3.66 15.4 2.36 19.73 5.23 4.59 12.43 6.62 16.94 12.05 3.08 3.6 1.1 10.57-4.24 10.02-6.7 0.13-9.36-6.71-13.92-10.21 0.85 5.96 2.4 11.85 4.5 17.5 1.94-5.64 8.45-3.67 12.81-5.64 7.57-2.7 10.93-12.28 7.6-19.41-3.22-8.97-13.69-10.99-20.07-16.91-3.26-2.7-1.51-9.01 3.05-8.61 6.21-0.51 8.82 5.77 12.88 9.06-1.04-5.42-2.45-10.77-4.06-16.04-0.93 0.98-1.82 1.99-2.67 3.04m-298.9 7.64c-4.98 2.03-6.82 10.43-1.71 13.28 5.14 3.04 10.88-3.12 10.04-8.27-0.15-3.92-4.74-7.06-8.33-5.01m260.03 7.92c0.22 1.95 0.47 3.9 0.76 5.87-1.88-2.29-4.18-5.43-7.59-4.45-6.23 2.16-8.46 9.29-9.94 15.07-1.92 10.31-1.58 21.8 3.91 31.03 2.01 3.78 7.08 7.05 11.06 3.99 5.3-4.18 5.11-11.84 6.47-17.88 1.16 3.61 1.11 7.77 3.54 10.86 2.86 2.53 6.97 0.47 9.09-2.03 3.47-4.18 4.47-9.99 3.78-15.27-2.52 2.57-1.26 7.61-5.12 8.91-3.3-13.37-4.29-27.2-6.94-40.7-3.03 1.5-6.01 3.07-9.02 4.6m-316.7 4.45c-8.52 5.91-16.99 15.36-15.68 26.46 3.3 12.96 22.76 12.79 30.31 4.07-5.5 0.96-11.75 3.2-16.78-0.5-3.3-3.98-2.18-9.77 0.21-13.92 4.1-7.23 9.79-14.16 17.66-17.37 2.97-1.17 7.27-1.41 9.22 1.62-0.6 3.67-5.97 3.15-6.99 6.67-1.36 3.02 1.02 7.06 4.5 6.77 6.66-0.86 10.27-10.66 4.76-15.09-7.8-6.52-19.35-3.66-27.21 1.29m279.06-3.03c-1.64 8.11-4.74 16-10.21 22.31 0.17 0.84 0.53 2.52 0.7 3.36 1.74-0.61 3.47-1.26 5.21-1.88 2.26 11.32 3.23 22.93 6.33 34.06 0.91 4.46 6.55 5.94 9.93 3.23 4.9-3.85 7.13-10.95 5.51-16.93-1.67 3.46-1.89 7.49-4.13 10.69-5.01-11.11-4.8-24.01-7.66-35.85 1.47-0.72 2.96-1.42 4.45-2.11-0.32-1.87-0.64-3.73-0.96-5.58-1.56 0.43-3.12 0.88-4.67 1.32-0.71-4.39-1.39-8.78-2.36-13.12-0.53 0.13-1.6 0.38-2.14 0.5m-24.44 16.71c4.58-5.61-0.43-16.29-8.07-13.12-8.05 4.5-0.01 17.91 8.07 13.12m-218.56-7.53c1.53 1.65 5.37 3.37 3.23 6.03-6.35 9.49-14.91 17.36-21.26 26.84-3.77 6.16 4.37 11.66 9.86 8.9 3.96-1.97 10.4-3.76 11.09-8.69-3.09 2.05-6.14 4.27-9.74 5.31-0.21-4.32 3.85-6.97 6.05-10.21 6.39-8.24 13.92-15.7 19.45-24.56-6.19-1.24-12.29-4.29-18.68-3.62m209.83 23.73c-0.17 0.56-0.49 1.69-0.66 2.25 2.12-0.49 5.57-1.82 6.33 1.24 3.08 10.51 4.07 21.54 6.87 32.13 0.84 4.1 5.75 7 9.48 4.42 5.93-4.25 6.11-12.59 5.78-19.19-3.23 2.82-0.91 8.13-4.25 11.09-4.9-13.41-6.05-27.95-9.39-41.83-5.2 2.56-9.43 6.62-14.16 9.89m-203.08 15.94c-2.24 4.6-2.72 12.35 3.66 13.61 7.03 0.79 12.73-4.53 18.41-7.86-2.56 3.99-8.69 8.23-5.91 13.46 5.98 5.53 16.51 1.41 20.15-4.96-3.12 1.2-6.04 3.72-9.6 2.83 7.39-11.72 17.6-21.4 25.95-32.44-3.16-1.38-6.36-2.65-9.62-3.76-1.05 1.33-2.1 2.68-3.13 4.04 1.19-4.94-1.67-10.24-7.25-9.67-14.27 1.3-26.6 12.19-32.66 24.75m122.3-9.15c2.5 0.97 6.52 1.16 6.46 4.76-0.07 7.13-3.56 13.73-5.45 20.51-3.35 9.25-6.07 18.73-9.79 27.83-3.67-12.38-7.06-24.87-10.27-37.38-1.65-4.45 0.73-8.31 4.14-11.01-8.21 1.28-15.85 4.8-23.86 6.92-0.19 0.39-0.56 1.15-0.75 1.54 3.1-0.16 6.59 0.47 7.29 4.04 5.9 20.03 11.3 40.22 17.05 60.31 0.49-0.03 1.46-0.07 1.95-0.09 5.51-16.52 11.25-32.96 16.81-49.45 4.39-11.23 6.53-23.48 13.28-33.65-5.74 1.45-11.61 2.87-16.86 5.67m68.53 1.88c-1.56 8.46-0.79 17.14-0.66 25.7-1.67-8.96-2.69-18.03-4.13-27.03-5.64 2.63-10.61 6.67-15.11 10.92 2.78-0.19 7.23-1.76 7.62 2.41 2.64 12.57 4.37 25.34 6.63 37.99 3.2-1.28 6.35-2.67 9.5-4.05-1.34-12.63-4.6-25.71-1.04-38.23 2.27 0.74 5.26 4.25 7.42 1.75 1.81-4.61 0.35-10.42-2.99-13.97-3.29-2.55-6.71 1.33-7.24 4.51m-32.78 11.5c-16.19 4.25-24.21 23.17-21.74 38.72 0.71 6.19 5.2 13.52 12.34 12.59 10.11-0.02 17.46-8.59 20.57-17.47-5.31 1.99-7.84 9.81-14.6 9.44-6.17 0.11-7.51-7.13-7.95-11.91 10.27-3.11 20.29-11.47 20.4-22.97 0.54-4.92-3.78-10.24-9.02-8.4z"/>
<path d="m106.65 507.88c7.39-9.51 14.53-19.22 22.13-28.58 11.38 7.36 20.03 20.65 18.69 34.57-13.65 0.19-29.16 3.05-40.82-5.99z"/>
<path d="m911.67 513.93c-1.57-13.93 7.23-27.29 18.6-34.6 7.42 9.36 14.78 18.77 21.88 28.38-11.29 9.49-26.99 6.14-40.48 6.22z"/>
<path d="m531.05 613.97c4.12-2.11 8.87-3.57 13.17-0.98 0.97-0.66 1.96-1.32 2.95-1.97 4.11 2.34 8.77 3.17 13.25 4.43 3.24 3.63 7.06 7.26 7.57 12.39 5.05-2.2 8.88-6.27 13.46-9.22-2.28 3.31-3.82 7.04-4.95 10.89 2.16-1.35 4.28-2.77 6.45-4.1-0.32 1.64-0.64 3.29-0.97 4.94 1.87 1.07 3.72 2.22 5.52 3.44-0.06 2.06-0.11 4.13-0.19 6.2 6.97 3.02 17.11 7.34 23.26 0.69 0.21 0.85 0.63 2.55 0.84 3.4 2.73-0.06 5.47-0.12 8.21-0.22 3.61-4.46 9.64-3.7 14.7-4.74 0.4-6.14 5.31-10.29 8.24-15.3 0.81 9.51 0.36 19.08 0.33 28.62-9.94 4.38-20.04 8.42-30.41 11.71 4.71-2.01 8.54-5.98 8.12-11.46-2.58 0.44-5.11 1.01-7.61 1.74-2.48-0.72-4.99-1.3-7.51-1.75 0.34 3.3 0.87 6.58 1 9.9 1.73 0.62 3.47 1.23 5.21 1.86-26.12 8.1-53.39 12.39-80.72 12.97 0.03-21.15-0.13-42.3 0.08-63.44m41.35 19.04c2.01 0.09 4.04 0.16 6.06 0.16-0.45-2.97-5.49-3.15-6.06-0.16z"/>
</g>
<path d="m321.3 62.41c5.65-1.77 10.83 1.65 16.22 2.64 0.71-1.19 1.43-2.37 2.18-3.55 0.3 5.46 0.66 10.96 0.02 16.41-2.41-6.98-8.06-15.33-16.63-13.13-4.14 0.81-6.65 6.31-3.42 9.49 6.01 6.08 15.71 7.07 20.94 14.14 4.17 5.39 2.8 13.63-2.41 17.83-5.76 5.13-14.29 4.28-20.9 1.42-2.61-1.34-4.55 1.31-6.47 2.62 0.08-6-0.3-12.01 0.24-18 2.57 4 3.44 9.2 7.47 12.13 4.16 3.52 11.3 4.81 15.34 0.45 2.46-2.81 1.49-7.21-1.32-9.41-6.57-5.55-16.79-6.93-20.73-15.38-3.34-7.25 1.79-16.21 9.47-17.66z" fill="#075f07"/>
<path d="m451.53 70.49c5.69-3.58 12.05-6.01 18.22-8.67 0.54 14.04-0.35 28.13 0.41 42.16 0.05 3.77 4.64 3.61 7.26 4.68-8.51 0.64-17.09 0.67-25.59-0.11 2.1-0.74 4.31-1 6.52-1.27 2.27-3.33 1.45-7.49 1.6-11.27-0.09-8.22 0.46-16.51-0.38-24.69-2.09-2.3-5.4-0.63-8.04-0.83z" fill="#026105"/>
<g fill="#056006">
<path d="m486.67 68.64c4.3-7.3 15.43-8.79 21.48-2.83 7.31 7.04 7.11 18.82 3.18 27.54-4.61 10.72-16.52 16.88-27.91 16.39 9.19-2.74 18.05-8.87 19.61-19.03-4.27 1.76-9.48 2.57-13.46-0.31-6.66-4.89-6.83-15.09-2.9-21.76m7.76-1.33c-1.24 6.15-1.14 12.97 1.45 18.76 1.35 3.18 5.06 2.66 7.71 1.76 0.22-7.28 0.73-15.09-2.68-21.78-1.44-2.93-6.11-1.93-6.48 1.26z"/>
<path d="m529.57 62.57c6.64-2 13.82 2.06 16.69 8.11 4.3 8.99 2.31 20.16-3.59 27.97-5.84 7.57-15.59 11.45-25.02 11.1 9.15-2.48 18.2-8.52 19.69-18.61-4.65 1.21-10.12 2.17-14.02-1.41-8.58-7.4-5.13-24.54 6.25-27.16m-0.52 4.52c-1.4 6.09-1.11 12.83 1.11 18.69 1.19 3.36 5.06 3.03 7.84 2.25 0.49-7.22 0.75-14.95-2.4-21.64-1.24-3.02-6.08-2.62-6.55 0.7z"/>
<path d="m796.44 134.41c5.07-4.48 13.5-3.79 18.02 1.17 6.12 6.15 6.17 16.04 2.78 23.59-1.79 3.05 0.75 5.57 2.73 7.63-6.45 0.02-12.91 0.33-19.33-0.22 4.02-2.28 8.98-3.2 12.04-6.93 4.02-4.17 5.63-10.91 2.93-16.17-2.14-4.1-8.27-4.6-11.05-0.92-5.48 6.75-6.91 16.41-14.11 21.86-5 3.95-12.33 2.82-16.93-1.19 0.72-1.48 1.45-2.95 2.19-4.43 2.49 0.11 5.28 0.03 6.92-2.17 5.64-6.72 7.07-16.28 13.81-22.22z"/>
<path d="m788.91 286.08c0.3-0.64 0.89-1.9 1.18-2.53 9.58 4.46 19.55 8.12 28.82 13.19-14.48 6.69-29.11 13.05-43.52 19.88 13.03 0.1 26.07 0.29 39.1-0.1 1.73-2.18 2.61-4.83 3.44-7.44 0.98 6.01 0.5 12.16 0.27 18.22-1.36-3-1.81-7.79-6.18-7.59-13.14 0.2-26.43-0.95-39.48 0.66-0.7 2.32-1.16 4.72-2.01 6.99-0.66-7.12-0.21-14.27-0.34-21.4 10.5-4.66 20.99-9.34 31.4-14.2-4.08-2.21-8.42-3.87-12.68-5.68z"/>
<path d="m252.32 324.42c10.75-2.54 22.22 3.48 26.84 13.37 4.75 11.37 4.24 26.44-4.62 35.76-7.59 8.29-21.25 9.42-30.49 3.3-19.15-11.99-15.2-48.14 8.27-52.43m-0.98 14.01c-5.5 0.65-11.48 2.41-14.82 7.16-3.15 5.29-2.2 13.16 3.05 16.79 5.3 3.78 12.12 4.17 18.41 4.13 6.17-0.05 12.83-0.72 17.85-4.7 5.42-4.83 5.24-14.6-0.63-19.03-6.74-5.17-15.81-4.81-23.86-4.35z"/>
<path d="m789.34 331.41c9.64-1.99 20.33 2.21 25.83 10.41 4.97 7.62 5.41 17.55 2.86 26.1-3.16 10.54-14.19 17.75-25.09 16.77-13.65 0.09-24.6-13.42-23.4-26.68-0.95-12.1 7.38-24.8 19.8-26.6m-5.97 14.02c-9.68 0.78-15.63 13.35-8.26 20.46 9.41 7.26 23.08 6.59 33.87 3.07 8.47-2.54 10.81-15.34 3.39-20.32-8.49-5.52-19.45-4.73-29-3.21z"/>
<path d="m481.99 416.91c8.89-1.9 18.21 3.18 26.9-0.8-0.03 1.46-0.06 2.92-0.07 4.39-3.05 1.28-5.4 3.7-8.4 5.06-0.51 2.31-1.33 4.58-3.31 6.03 1.17 0.54 2.3 1.2 3.1 2.25-1.76-0.11-3.49-0.34-5.21-0.64-1.19 1.77-2.4 3.53-3.66 5.25 2.06 5.17 3.77 10.77 8.08 14.59-0.81 2.14-1.49 4.32-2.08 6.54-0.99-0.01-1.96 0-2.93 0.02-0.12-1.15-0.24-2.3-0.36-3.44-1.01 0.54-2.02 1.09-3.02 1.65-1.18-1.32-2.37-2.62-3.55-3.91-0.52-4.58-2.08-9.12-4.36-13.12-3.37 5.76-1 12.5-1.48 18.75-2.52 0.01-5.04 0-7.56-0.01 1.11-3.97 2.47-7.97 2.12-12.16-1.88-0.33-3.75-0.65-5.62-0.97 2.5-7.47 1.49-15.47 3.76-22.91 4.08-0.28 3.81-5.89 7.65-6.57z"/>
<path d="m769.04 502.24c5.6 0.45 11.08 1.76 16.64 2.58 0.04 0.34 0.11 1.04 0.14 1.39-4.43 0.68-9.04 2.04-12.07 5.57-6.16 6.26-5.57 17.62 1.31 23.12 7.4 5.6 17.31 6.66 26.27 5.4 6.5-0.92 11.25-6.87 11.73-13.26 1.32-6.47-2.09-12.43-5.52-17.6 1.34 0.23 2.66 0.59 3.97 1.05 11.69 15.55 1.16 43.45-19.48 43.61-18 1.04-31.17-19.66-24.86-35.97 1.24-5.41 8.6-11.47 1.87-15.89z"/>
<path d="m259.32 514.39c10.94-2.06 22.02 5.04 26.29 15.01 4.13 10.58 5.17 24.2-2.98 33.21-8.43 10.33-25.43 10.77-34.97 1.73-8.47-8.04-11.05-21.12-8.38-32.21 2.37-9.2 10.66-16.42 20.04-17.74m2.04 14.05c-5.95 1.17-12.19 2.94-16.68 7.23-5.66 5.38-4.03 16.24 3.02 19.64 5.73 2.97 12.5 2.24 18.61 1.07 5.77-1.14 11.95-2.53 16.28-6.8 5.38-5.15 4.21-15.17-2.04-19.12-5.6-3.84-12.85-2.89-19.19-2.02z"/>
<path d="m293.24 558.51c7.46 13.23 12.53 27.77 19.03 41.52-4.48 1.97-8.87 4.27-13.67 5.38 2.21-2.69 5.72-4.74 6.26-8.46 1.13-6.52-2.69-12.41-4.99-18.23-6.16 2.26-12.02 5.24-18.09 7.75 1.37 7.35 9.08 10.2 15.76 8.43-7.57 4.09-15.47 7.87-23.73 10.29 2.17-2.27 5.13-3.93 6.61-6.78 1.14-3.48 0.1-7.19-0.8-10.59-5.71 1.98-11.23 4.5-16.65 7.17-3.75 1.9-1.35 6.34-0.99 9.43-4.8-8.53-8.47-17.69-12.06-26.79 1.82 2.15 3.52 4.44 5.87 6.06 12.24-4.78 24.11-10.49 36.14-15.76 4.27-1.54 1.82-6.26 1.31-9.42z"/>
<path d="m912.73 651.85c3.26 4.63 7.76 8.47 9.92 13.8-4.61-2.78-10.18-6.34-15.66-3.67-3.91 2.02-2.87 7.68 1.02 9.06 7.71 2.56 16.9 0.99 23.63 6.26 6.42 4.83 8.46 15.01 2.92 21.26-3.14 4.11-10.34 4.69-10.51 10.83-4.41-3.99-7.62-9.09-11.11-13.86 5.61 0.92 10.43 6.35 16.52 3.94 4.54-0.99 5.41-7.14 1.86-9.83-5.7-4.74-13.79-3.22-20.5-5.33-8.59-1.14-15.43-11.85-10.12-19.58 2.76-5.67 11.45-5.94 12.03-12.88z"/>
<path d="m885.04 680.9c2.74-2.39 5.57-4.66 8.44-6.88 4.67 11.13 9.5 22.19 14.23 33.28 0.61 1.69 1.73 3.11 3.33 3.99 0.45-3.18 0.41-6.39 0.6-9.58 4.7 6.01 2.7 21.24-7.2 19.67-5.36-3.36-6.34-10.42-9.15-15.69 0.37 8.68 3.15 18.3-1.28 26.33-2.4 4.48-8.88 3-10.87-1.06-5.27-9.58-8.05-20.37-13.28-29.97-1.03-2.67-4.1-1.23-6.2-1.3 3.15-5.26 7.46-9.83 12-13.93 4.87 11.39 9.51 22.89 14.31 34.3 0.35 1.3 1.66 1.64 2.76 2.14 3.55-14.13-1.98-28.51-7.69-41.3z"/>
<path d="m402.37 847.36c6.06-12.56 18.39-23.45 32.66-24.75 5.58-0.57 8.44 4.73 7.25 9.67 1.03-1.36 2.08-2.71 3.13-4.04 3.26 1.11 6.46 2.38 9.62 3.76-8.35 11.04-18.56 20.72-25.95 32.44 3.56 0.89 6.48-1.63 9.6-2.83-3.64 6.37-14.17 10.49-20.15 4.96-2.78-5.23 3.35-9.47 5.91-13.46-5.68 3.33-11.38 8.65-18.41 7.86-6.38-1.26-5.9-9.01-3.66-13.61m21.56-11.44c-4.75 5.29-11.26 11.12-10.68 18.86 2.43 0.13 4.98-0.06 7.03-1.52 7.55-4.89 14.61-11.19 18.55-19.42 0.93-2.31 2.35-6.16-0.81-7.38-5.9 0.73-9.95 5.67-14.09 9.46z"/>
<path d="m560.42 851.59c5.24-1.84 9.56 3.48 9.02 8.4-0.11 11.5-10.13 19.86-20.4 22.97 0.44 4.78 1.78 12.02 7.95 11.91 6.76 0.37 9.29-7.45 14.6-9.44-3.11 8.88-10.46 17.45-20.57 17.47-7.14 0.93-11.63-6.4-12.34-12.59-2.47-15.55 5.55-34.47 21.74-38.72m-6.49 6.37c-4.15 6.61-4.86 14.74-4.87 22.37 8.7-3.36 12.24-13.89 10.14-22.43-0.36-2.8-4.43-2.12-5.27 0.06z"/>
</g>
<g fill="#065f06">
<path d="m556.53 67.53c4.89-6.92 16.33-7.33 21.63-0.66 7.3 8.46 5.85 21.49 0.07 30.37-5.58 8.43-15.9 12.77-25.82 12.59 9.18-2.76 18-8.88 19.62-19.01-4.7 1.88-10.58 2.36-14.55-1.34-5.88-5.59-5.55-15.68-0.95-21.95m7.15-0.91c-1.52 6.31-1.43 13.42 1.18 19.43 1.31 3.23 5.04 2.78 7.68 1.74 0.34-7.06 0.74-14.55-2.26-21.14-0.99-2.94-5.77-3.25-6.6-0.03z"/>
<path d="m606.65 78.33c-2.63-9.13 6.42-17.83 15.44-16.31 4.48 0.17 10.46 5.99 13.04-0.28 0.24 5.28 0.46 10.56 0.24 15.84-3.01-4.5-4.64-10.74-10.51-12.44-4.78-2.4-12.4 0.74-11.18 6.84 4.92 8.83 17.85 8.53 22.98 17.36 3.16 5.26 1.99 12.61-2.78 16.52-5.58 5.27-14.18 4.86-20.8 1.92-2.69-1.5-4.84 0.91-6.68 2.55-0.14-5.99-0.37-12 0.15-17.99 2.33 3.77 3.05 8.58 6.72 11.45 4.04 3.95 11.42 5.64 15.77 1.25 3.13-3.3 1.37-8.74-2.4-10.71-7.04-4.66-17.28-6.91-19.99-16z"/>
<path d="m740.51 80.35c2.77-10.72 13.43-18.72 24.51-18.39 5.38-0.15 10.18 2.87 15.54 2.94 0.85-1.13 1.7-2.27 2.59-3.4 0.27 5.68 0.37 11.38-0.16 17.04-2.12-3.38-3.21-7.53-6.44-10.11-5.37-4.79-14.39-4.49-19.33 0.79-5.71 5.83-5.56 14.66-4.9 22.23 0.65 6.59 4.27 14.43 11.72 15.15 7.19 1.39 13.73-2.65 18.39-7.75 0 1.25 0.02 2.5 0.04 3.76-8.78 9.34-24.42 9.73-34.45 2.24-7.11-5.68-10.07-15.81-7.51-24.5z"/>
<path d="m238.08 212.05c6.99-9.38 21.39-11.69 31.06-5.17 12.22 7.57 16.36 24.28 11.08 37.3-1.87 3.57-1.17 7.54 2.77 9.25-5.86 0.4-11.77 0.37-17.63-0.01 2.93-2.53 6.95-3.53 9.52-6.53 6.48-6.9 5.85-19.24-1.73-25.08-6.55-4.96-15.37-5.12-23.14-3.71-6.63 0.97-13.48 5.47-14.25 12.62-1.89 8.44 2.38 16.53 8.31 22.25-1.83-0.31-4.2 0.17-5.34-1.68-9.24-10.75-8.79-28.02-0.65-39.24z"/>
<path d="m715.13 781.53c0.85-1.05 1.74-2.06 2.67-3.04 1.61 5.27 3.02 10.62 4.06 16.04-4.06-3.29-6.67-9.57-12.88-9.06-4.56-0.4-6.31 5.91-3.05 8.61 6.38 5.92 16.85 7.94 20.07 16.91 3.33 7.13-0.03 16.71-7.6 19.41-4.36 1.97-10.87 0-12.81 5.64-2.1-5.65-3.65-11.54-4.5-17.5 4.56 3.5 7.22 10.34 13.92 10.21 5.34 0.55 7.32-6.42 4.24-10.02-4.51-5.43-11.71-7.46-16.94-12.05-6.02-4.33-8.03-14.32-2.36-19.73 3.89-4.23 10.03-4.01 15.18-5.42z"/>
<path d="m593.2 840.09c0.53-3.18 3.95-7.06 7.24-4.51 3.34 3.55 4.8 9.36 2.99 13.97-2.16 2.5-5.15-1.01-7.42-1.75-3.56 12.52-0.3 25.6 1.04 38.23-3.15 1.38-6.3 2.77-9.5 4.05-2.26-12.65-3.99-25.42-6.63-37.99-0.39-4.17-4.84-2.6-7.62-2.41 4.5-4.25 9.47-8.29 15.11-10.92 1.44 9 2.46 18.07 4.13 27.03-0.13-8.56-0.9-17.24 0.66-25.7z"/>
</g>
<g fill="#066007">
<path d="m666.25 61.71c5.19 10.13 9.19 20.82 13.96 31.16 2.79 5.73 4.33 12.86 10.5 16.02-7.72 0.24-15.47 0.49-23.17-0.27 2.08-0.8 4.28-1.27 6.31-2.25-1-3.55-2.37-6.98-3.88-10.34-5.53-0.26-11.07-0.32-16.58 0.11-0.93 3.29-3.83 6.89-1.77 10.27 1.89 1 4.01 1.47 6.01 2.23-5.51 0.7-11.06 0.58-16.58 0.18 2.51-1.66 5.35-3.22 6.58-6.14 6.47-13.54 12.16-27.43 18.62-40.97m-11.27 31.67c4.56 0 9.12 0.02 13.69-0.01-2.09-5.22-4.37-10.36-6.77-15.44-2.55 5.04-4.82 10.21-6.92 15.45z"/>
<path d="m512.57 360.91c1.23 0.52 2.46 1.06 3.7 1.59 4.11 3.89 3.3 9.45 4.74 14.45-0.87 2.51-2.03 5.01-4.41 6.41-0.24-0.96-0.72-2.89-0.96-3.85-2.37 2.4-0.89 6.07-1.22 9.05-4.73-0.67-13.7-4.72-9.79-10.62-0.76-0.9-1.57-1.76-2.42-2.55-1.42 0.68-2.83 1.37-4.23 2.06-0.98-0.4-1.94-0.81-2.9-1.2-0.63 1.09-1.32 2.16-2.04 3.19-2.94-6.63 5.39-9.63 10.24-11.28 0.07 0.8 0.22 2.39 0.29 3.19 1.66-0.58 3.34-1.15 5.01-1.72 0.21-1.06 0.42-2.11 0.64-3.16 0.8-0.07 2.39-0.22 3.18-0.29 0.05-1.76 0.11-3.52 0.17-5.27z"/>
<path d="m158.88 622.37c3.09 1.29 5.06 4.09 7.34 6.41 8.89 9.35 17.76 18.72 26.55 28.16-5.35 3.04-10.42 6.64-16.09 9.07 1.84-3.88 5.65-7.31 4.68-12.01-1.07-5.73-5.9-9.73-9.72-13.76-8.27 3.6-15.94 8.86-23.9 13.24 3.05 3.21 6.17 6.84 10.59 8.09 4.07 0.91 8.16-0.51 12.22-0.85-8.02 5.38-16.55 10.12-25.27 14.27 1.73-2.8 4.97-4.66 5.81-7.96 0.65-5.04-3.89-8.27-6.86-11.57-7.95 4.63-16.22 8.76-23.85 13.9-3.12 2.36 0.72 5.84 2.59 7.69 7.28 7.71 18.56 8.84 28.55 7.91-4.81 4.71-11.93 6.02-17.61 9.5-11.52-12.2-23.66-23.96-34.32-36.9 3.71 1.69 7.78 4.44 11.78 1.76 13.81-7.38 27.29-15.36 40.93-23.05 3.28-2.08 7.32-3.57 9.25-7.17-0.55-2.37-1.78-4.49-2.67-6.73z"/>
<path d="m359.56 801.54c7.86-4.95 19.41-7.81 27.21-1.29 5.51 4.43 1.9 14.23-4.76 15.09-3.48 0.29-5.86-3.75-4.5-6.77 1.02-3.52 6.39-3 6.99-6.67-1.95-3.03-6.25-2.79-9.22-1.62-7.87 3.21-13.56 10.14-17.66 17.37-2.39 4.15-3.51 9.94-0.21 13.92 5.03 3.7 11.28 1.46 16.78 0.5-7.55 8.72-27.01 8.89-30.31-4.07-1.31-11.1 7.16-20.55 15.68-26.46z"/>
</g>
<g fill="#046104">
<path d="m258.5 63.3c8.3-0.63 16.66-0.52 24.95 0.11-2.71 0.92-7.51 0.53-7.24 4.62-0.09 10.53-0.48 21.12 0.24 31.64 0.37 5.35 6.11 7.11 10.63 7.13-1.17 1.05-2.27 2.17-3.36 3.28-7.2 0.56-15.93-2.18-17.96-9.94-1.78-11.4 0.38-23.13-1.4-34.53-1.78-1.16-3.9-1.57-5.86-2.31z"/>
<path d="m393.95 681.2c5.22-4.22 10.49-8.36 15.82-12.42 1.5 15.63 1.96 31.35 3.42 46.99 0.1 3.32 2.21 5.93 4.19 8.42-8.39-3.7-17.1-6.81-25.06-11.38 2.47 0.38 4.92 0.87 7.42 1.09 0.68-3.89 0.33-7.84 0.03-11.74-1.43-0.63-2.86-1.25-4.28-1.86-0.17-1-0.33-1.98-0.49-2.96 1.51 0.63 3.03 1.25 4.56 1.87-0.22-5.85-0.7-11.69-1.19-17.52-0.54 0.4-1.61 1.22-2.15 1.62-0.76-0.71-1.52-1.42-2.27-2.11z"/>
</g>
<path d="m289.56 63.22c5.72-0.47 11.48-0.52 17.21-0.02-2.39 1.22-6.29 1.53-6.65 4.85-1.1 10.26 0.63 20.72-1.06 30.94-1.41 6.99-8.67 10.88-15.34 11.09 1.09-1.11 2.19-2.23 3.36-3.28 4.39-1.38 8.86-4.15 9.29-9.22 0.76-9.47 0.53-19.03 0.35-28.52 0.15-4.09-4.21-4.71-7.16-5.84z" fill="#155414"/>
<g fill="#085e08">
<path d="m346.47 63.3c13.03-0.83 26.08-0.1 39.11-0.17-0.02 4.73 0.2 9.48-0.29 14.2-2.04-2.96-2.14-7.16-5.27-9.33-4.47-3.15-10.26-2.26-15.41-2.4 0.03 6.35-0.07 12.69 0.03 19.04 7.08 0.71 8.47-6.38 10.81-11.19 0.28 8.26 0.41 16.56-0.15 24.81-1.86-5.12-3.6-12.37-10.69-11.39 0.34 6.2-0.96 12.71 0.86 18.7 4.71 1.73 10.42 1.12 14.96-1.04 4.41-2 5.71-7.02 8.17-10.76-0.09 5.08-1.06 10.09-1.73 15.11-13.43 0.27-26.94 0.72-40.34-0.3 2.52-0.99 7.01-0.78 6.88-4.55 0.21-12.01 0.21-24.04-0.01-36.04 0.06-3.81-4.37-3.65-6.93-4.69z"/>
<path d="m483.37 281.33c3.85-3.97 5.77-11.38 12.67-10.16-1.21 6.7-3.64 13.27-7.87 18.67-3.05-1.69-5.79-4.77-4.8-8.51z"/>
</g>
<g fill="#055f06">
<path d="m392.6 63.27c9.78-0.04 19.7-0.91 29.4 0.6 7.87 1.06 12.79 10.71 8.45 17.55-4.18 6.68-12.96 6.76-19.95 6.8 0.1 5.92-0.46 11.88 0.38 17.76 1.93 1.46 4.4 1.92 6.6 2.86-8.18 0.54-16.41 0.38-24.58-0.14 2.34-1.19 6.94-1.02 6.74-4.62 0.24-12.82 0.49-25.7-0.21-38.51-2.24-0.86-4.56-1.5-6.83-2.3m17.9 2.15c-0.08 6.79-0.08 13.59 0.02 20.39 13.79 2.13 13.74-22.62-0.02-20.39z"/>
<path d="m770.31 257.3h0.87c0.25 2.13 0.68 4.23 1.25 6.31 8.41 1.65 17.06 0.43 25.58 0.8 5.88-0.34 11.98 0.83 17.71-0.77 1.34-2.07 1.48-4.64 2.26-6.94 0.75 9.15 0.86 18.49-0.07 27.63-0.65-2.23-1.14-4.5-1.61-6.77-12.69-2.18-25.78-0.35-38.64-1-0.15 0.31-0.46 0.92-0.61 1.23-0.32 0.63-0.97 1.91-1.29 2.54-1.86-0.83-3.7-1.67-5.54-2.49-0.03-6.85-0.06-13.69 0.09-20.54z"/>
</g>
<path d="m691.56 63.38c13.05-0.91 26.2-0.5 39.28-0.3-0.07 4.74 0.39 9.55-0.64 14.23-1.5-3.21-1.96-7.33-5.17-9.42-4.4-3.13-10.12-2.03-15.17-2.24 0.99-0.49 1.99-0.97 3-1.46-5.07-0.1-10.13 0.17-15.18 0.42-2.1 0.04-4.14-0.61-6.12-1.23z" fill="#105712"/>
<path d="m494.43 67.31c0.37-3.19 5.04-4.19 6.48-1.26 3.41 6.69 2.9 14.5 2.68 21.78-2.65 0.9-6.36 1.42-7.71-1.76-2.59-5.79-2.69-12.61-1.45-18.76z" fill="#fafcf7"/>
<path d="m529.05 67.09c0.47-3.32 5.31-3.72 6.55-0.7 3.15 6.69 2.89 14.42 2.4 21.64-2.78 0.78-6.65 1.11-7.84-2.25-2.22-5.86-2.51-12.6-1.11-18.69z" fill="#f8fcf7"/>
<path d="m563.68 66.62c0.83-3.22 5.61-2.91 6.6 0.03 3 6.59 2.6 14.08 2.26 21.14-2.64 1.04-6.37 1.49-7.68-1.74-2.61-6.01-2.7-13.12-1.18-19.43z" fill="#f8fbf6"/>
<path d="m697.68 64.61c5.05-0.25 10.11-0.52 15.18-0.42-1.01 0.49-2.01 0.97-3 1.46-0.1 6.32-0.11 12.64 0.01 18.97 7.12 0.72 8.72-6.17 10.67-11.31 0.43 8.34 0.46 16.74-0.02 25.09-1.69-5.22-3.67-12.47-10.71-11.55 0.09 6.33-0.42 12.69 0.57 18.98 5.23 1.03 11.08 1.13 15.85-1.6 3.97-2.26 5.38-6.86 7.6-10.56-0.07 5.1-1.13 10.1-1.66 15.16-13.52 0.28-27.13 0.88-40.61-0.33 3.12-0.67 7.79-1.19 7.16-5.56-0.54-12.74 1.34-25.79-1.04-38.33z" fill="#055f05"/>
<path d="m410.5 65.42c13.76-2.23 13.81 22.52 0.02 20.39-0.1-6.8-0.1-13.6-0.02-20.39z" fill="#f9fcf9"/>
<path d="m654.98 93.38c2.1-5.24 4.37-10.41 6.92-15.45 2.4 5.08 4.68 10.22 6.77 15.44-4.57 0.03-9.13 0.01-13.69 0.01z" fill="#f7fbf6"/>
<g fill="#030302">
<path d="m293.03 127.2c154.12 0.16 308.24-0.13 462.36 0.14-0.18 121.54 0.06 243.09-0.13 364.64-0.36 44.15-17.15 88.34-48.19 120.04-24.54 25.78-56.36 43.87-89.98 54.98-66.26 21.68-140.46 19.53-204.94-7.24-33.16-14.02-63.66-35.63-85.17-64.76-22.75-30.28-34.01-68.3-33.97-106 0-120.6-0.07-241.2 0.02-361.8m4.37 4.2c-0.86 9.51-0.11 19.07-0.32 28.6 0.17 55.69-0.45 111.4 0.24 167.07-0.35 52.3-0.05 104.62-0.15 156.93-0.17 15.56 1.15 31.18 4.66 46.36 26.12 0 52.25 0.02 78.37 0-0.15 0.51-0.46 1.52-0.61 2.03-25.75 0.09-51.5-0.02-77.25 0.06 7.65 32.59 25.68 62.47 50.46 84.9l-0.07 0.23c12.88 11.1 26.73 21.11 41.76 29.11 5.02 2.63 10.04 5.31 15.31 7.44 0.11-19.22-0.09-38.43 0.09-57.65 0.62-1.68 1.38-3.3 1.97-4.98 0.15 21.23-0.04 42.46 0.09 63.68 36.79 15.7 76.97 22.85 116.89 22.29-0.05-21.01 0.07-42.02-0.05-63.03-0.01-0.36-0.03-1.09-0.04-1.45 0.58 0.02 1.73 0.04 2.31 0.06l-0.01 0.92c-0.21 21.14-0.05 42.29-0.08 63.44 27.33-0.58 54.6-4.87 80.72-12.97l0.18 0.06c0.15-0.08 0.46-0.26 0.61-0.35 10.37-3.29 20.47-7.33 30.41-11.71 0.03-9.54 0.48-19.11-0.33-28.62 0.96-2.82 0.59-5.91 0.63-8.84-1.1-23.14 0.06-46.34-0.32-69.47 0.18-4.36 0.15-8.73 0.1-13.09h-6.82c-0.18-0.54-0.53-1.62-0.7-2.16 2.48 0.08 4.97 0.1 7.46 0.13-0.03-17.92 0.5-35.86-0.28-53.75l-0.56-0.2c1.47-5.43 1.33-11.08 0.8-16.62 0.21-36.82 0.2-73.64 0.01-110.46 0.75-1.21 1.5-2.42 2.19-3.67-0.04 38.09-0.01 76.19 0 114.28-0.58 7.53-0.12 15.11 0.22 22.65-0.57 15.89-0.08 31.82-0.21 47.72 33.79 0.07 67.59-0.01 101.38 0.04 3.22-13.88 4.66-28.15 4.67-42.39 0.04-75.39-0.04-150.78 0.04-226.16-18.48 0.08-36.97-0.25-55.44 0.15-0.28-0.36-0.83-1.06-1.11-1.42l0.48-0.84c18.67-0.02 37.35-0.02 56.02-0.01-0.05-37.33 0.17-74.67-0.1-112 0.84-5.27 0.25-10.6 0-15.89-2.18-0.16-4.37-0.59-6.54-0.27-33.14-0.37-66.29-0.02-99.43-0.17-0.03 39.94 0.01 79.89 0.01 119.84-0.69 1.07-1.4 2.14-2.02 3.25 0.01-41-0.21-82.02 0.06-123.02l-0.35 0.01c-8.87-0.78-17.85-0.35-26.75 0.11-28.36 0.2-56.74-0.32-85.09 0.25-0.29 23.33-0.19 46.69-0.01 70.02 0.08 1.23 0.16 2.47 0.25 3.7-0.65 6.13-0.7 12.31-0.17 18.45 0 11.91-0.1 23.81 0.03 35.72 36.39-0.01 72.79-0.01 109.19 0-0.77 1.37-1.55 2.72-2.35 4.07 0.27-0.48 0.8-1.44 1.07-1.92-36-0.11-71.99-0.04-107.98-0.04 0.05 50.64 0.05 101.27-0.01 151.9-0.3 4-0.28 8.01 0.15 12-0.05 4.16-0.18 8.32-0.16 12.48 1.81-0.57 3.75-2.68 5.63-1.25l0.38-0.21c-0.58 1.04-1.16 2.09-1.82 3.08-0.71-1.54-3.01-0.93-4.32-1.41 0.13 1.15 0.4 3.44 0.53 4.59-0.55 2.35-0.84 4.88-2.32 6.88-0.23-4.2-0.27-8.41-0.04-12.6-0.29-1.51-0.56-3.02-1.02-4.47 1.83-0.41 1.55-3.28 0.19-4.09 1.59-6.27 0.5-12.89 0.58-19.29 0.3-49.21 0.04-98.42 0.12-147.63-13.57 0.31-27.25-0.58-40.74 0.44-25.31-0.78-50.67-0.26-76-0.25-0.28 11.67-0.32 23.38 0.06 35.05-0.2 8.54-0.68 17.21 0.1 25.69-0.72 10.86-0.83 21.86 0.31 32.7l-0.54 0.53c-0.22 19.58-0.12 39.17-0.03 58.75-0.1 3.79-0.58 7.66 0.22 11.4-0.71 13.36-0.04 26.76-0.38 40.13-0.02 1.97-0.05 3.96 0.18 5.94-0.16 12.47-0.18 24.95 0.02 37.42-0.54 0.27-1.62 0.8-2.16 1.07-0.14-12.32 0-24.65-0.07-36.97-0.02-2.61-0.03-5.23-0.02-7.84 0.08-36.08 0.01-72.16 0.03-108.24 0.35-11.93 0.53-23.89-0.25-35.81 0.6-7.35 0.12-14.73 0.29-22.09-0.07-12.57 0.51-25.15-0.05-37.72-36.13-0.53-72.31 0.46-108.43-0.49-0.34-0.44-0.66-0.88-0.99-1.31 35.47-0.91 71.05 0.38 106.46-0.7 1.31 0.72 3.23 0.22 2.9-1.59 0.74-41.46-0.37-83 0.58-124.46-0.14-0.54-0.43-1.63-0.57-2.17-37.45 0-74.9-0.22-112.35 0.12m114.51 0.42c0.21 42.64-0.25 85.3 0.31 127.93 25.68-0.45 51.45 0.65 77.07-0.47 13.14 0.96 26.36 0.15 39.54 0.44 0.06-11.69-0.06-23.37 0.05-35.06l-0.75 0.14c0.67-30.99 0.3-62.04 0.17-93.05-38.79-0.23-77.61-0.37-116.39 0.07m233.15 400.61c-0.05 4.72-0.03 9.44 0.01 14.17-0.18 25.17-0.85 50.46 0.39 75.59-0.95 9.63-0.22 19.4-0.36 29.09 19.08-9.28 37.07-21.03 52.48-35.68 23.74-22.23 41.07-51.43 48.36-83.18-33.63 0.01-67.25 0-100.88 0.01z"/>
<path d="m663.4 483.13c0.57-0.53 1.15-1.05 1.74-1.57 2.52 1.72 4.86 4.17 4.57 7.48-2.16-1.91-4.12-4.04-6.31-5.91z"/>
</g>
<path d="m297.4 131.4c37.45-0.34 74.9-0.12 112.35-0.12 0.14 0.54 0.43 1.63 0.57 2.17-4.68-1.19-9.52-1.37-14.32-1.16-32.53 0.21-65.06-0.17-97.59 0.17-0.6 36.52-0.25 73.05-0.18 109.57-0.16 5.26-0.18 10.55 0.7 15.76 30 1.01 60.05 0.17 90.07 0.45 5.94 0.31 12.15-0.97 17.84 1.26-35.41 1.08-70.99-0.21-106.46 0.7 0.33 0.43 0.65 0.87 0.99 1.31-1.52 1.49-3.41 3.04-3.06 5.44-0.24 17.52-0.5 35.06-0.04 52.58 1.23 0.22 2.47 0.44 3.71 0.67-1.95 1.98-3.53 4.32-4.66 6.87-0.69-55.67-0.07-111.38-0.24-167.07 0.21-9.53-0.54-19.09 0.32-28.6z" fill="#154816"/>
<path d="m616 131.57c8.9-0.46 17.88-0.89 26.75-0.11-6.22 0.42-12.45-0.24-18.66 0.23 5.79 2.59 11.94 4.22 17.83 6.53-0.1 3.23-0.21 6.46-0.42 9.68-1.52-0.79-3.01-1.58-4.5-2.39-3.06 0.71-6.18 0.89-9.3 0.94 3.04 3.21 7.82 3.86 10.85 6.98 0.84 4.63-4.37 7.64-4.23 12.33-1.41 1.2-2.83 2.38-4.27 3.54-0.06-9.85-13.4-11.36-13.85-21.23 1.39-0.58 2.8-1.14 4.21-1.72 0.19-1.66 0.37-3.31 0.56-4.96-1.3 0.81-2.58 1.63-3.86 2.46-1.69-3.87-5.64-4.18-9.38-3.93-0.15 1.88-0.28 3.76-0.43 5.65-10.41-1.86-21.19-1.09-31.36-3.95-3.24 0.71-5.57 3.36-8.4 4.94-2.75 1.85-6.89 1.99-8.12 5.57 1.92-0.46 3.82-0.99 5.73-1.54-0.32 1.14-0.63 2.28-0.93 3.43 4.7-1.6 9.55-0.49 13.84 1.72 1.02-1.2 2.04-2.39 3.09-3.56 4.85 4.11 5.39 11.71 11.59 14.46 0.03 0.53 0.09 1.6 0.12 2.13-1.22 0.29-2.43 0.57-3.63 0.86 0.03 1.48 0.05 2.96 0.09 4.45 1.62 0.6 3.24 1.21 4.86 1.83 0.19 0.71 0.39 1.43 0.59 2.15-2.1 0.28-4.2 0.61-6.27 1.01 2.08 2.56 4.82 4.41 7.47 6.32 3.3 0.1 6.58 0.52 9.75 1.46-0.01 1.19-0.02 2.37-0.01 3.56-2.96 0.57-5.67 1.86-7.93 3.85-2.69-0.92-5.5-1.36-8.31-1.64 1.18 4.15 4.04 7.4 6.98 10.42-2.79 5.81-4.33 12.18-3.83 18.66-0.56 0.72-1.12 1.44-1.67 2.16-0.98-0.24-1.96-0.49-2.93-0.73-3.7 3.1-8.5 2.48-12.93 1.96-1.17 2.68-3.12 4.87-5.64 6.36-1.86-2.41-3.68-4.85-5.59-7.21-0.12 2.11-0.18 4.24-0.22 6.36-3.57 0.59-7.06 1.53-10.52 2.55-0.29-1.89-0.55-3.78-0.83-5.67-1.62 0.13-3.23 0.26-4.83 0.39 5.19 4.07 1.83 9.94-0.25 14.73-5.53-2-8.04-7.56-9.38-12.87 3.8-1.69 7.62-3.44 10.99-5.92 5.2-4.76 12.75-3.27 19.11-5.01 3.83-2.96 8.25-5.14 12.96-6.28-0.23-1.18-0.45-2.37-0.65-3.54 1.14 0.69 2.29 1.39 3.45 2.1 3.01-6.51 2.05-14.01-1.58-20.04 2.31-1.74 7.87-2.5 6.26-6.42-2.31-8.23-2.87-18.51-9.88-24.23-0.24 3.92-0.23 7.85-0.2 11.78-5.77 6.97-12.34 13.32-20.24 17.84-3.62 2.03-7.8 0.87-11.44-0.4-4.16 1.83-8.29 4.48-9.08 9.34-2.21 0.98-4.42 1.93-6.63 2.89-0.18-23.33-0.28-46.69 0.01-70.02 28.35-0.57 56.73-0.05 85.09-0.25z" fill="#036103"/>
<g fill="#016102">
<path d="m744.48 131.55c2.17-0.32 4.36 0.11 6.54 0.27 0.25 5.29 0.84 10.62 0 15.89-3.35 31.08-6.03 62.22-9.23 93.31-5.54-9.48-11.84-19.01-21.3-25-8.45 14.57-17.01 29.09-25.39 43.7l-0.48 0.84c0.28 0.36 0.83 1.06 1.11 1.42-0.56 0.05-1.69 0.15-2.26 0.2-15.9 27.97-32.54 55.52-48.4 83.51-0.69 1.25-1.44 2.46-2.19 3.67-16.49 28.07-33.02 56.12-49.1 84.43 7.22 6.39 17.39 5.18 25.43 9.97 8.53 0.02 13.83 6.97 21.11 10.3 0.02 1.58 0.05 3.17 0.08 4.76 0.62 0.25 1.85 0.75 2.47 1 0.53 5.54 0.67 11.19-0.8 16.62-4.2-1.29-8.61-4.05-13.1-2.47-1.88 2.28-2.61 5.28-4.35 7.66-3.95 1.89-8.49 1.69-12.75 1.96-4.25-7.91-13.63-7.52-21.24-5.94-0.14-4.13 2.12-7.16 6.04-8.28-1.26-7.64-7.11-14.2-14.87-15.52-8.24 12.9-13.58 28.68-27.29 37-7.88 3.92-15.69 7.96-23.58 11.88-0.51 0.25-1.54 0.75-2.05 1.01-17.6 8.97-35.37 17.64-52.79 26.95-0.69 0.4-2.07 1.21-2.77 1.61-17.64 7.91-34.63 17.24-51.93 25.89-3.06 11.13-7.31 21.97-9.53 33.31-0.59 1.68-1.35 3.3-1.97 4.98-5.38 16.66-10.23 33.49-15.4 50.21-15.03-8-28.88-18.01-41.76-29.11l0.07-0.23c9.07-28.28 17.93-56.62 26.79-84.96 0.15-0.51 0.46-1.52 0.61-2.03 0.54-1.84 1.11-3.66 1.67-5.48 9.35-4.7 18.77-9.27 28-14.21 0.54-0.27 1.62-0.8 2.16-1.07 18.91-9.26 37.58-19.01 56.43-28.39-4.95-0.1-9.91-0.04-14.85 0.05 0.67-2.22 1.72-6.03 4.87-4.69 5.44 2.16 11.44-2.6 16.47 1.35 14.65-7.27 29.18-14.78 43.79-22.13 3.5-1.79 7.35-3.15 10.26-5.91 1.48-2 1.77-4.53 2.32-6.88 1.27-1.04 2.78-1.86 3.79-3.18 0.66-0.99 1.24-2.04 1.82-3.08 33.71-57.62 67.17-115.37 100.92-172.96 0.8-1.35 1.58-2.7 2.35-4.07 0.96-1.74 1.91-3.48 2.84-5.24 0.62-1.11 1.33-2.18 2.02-3.25 12.72-21.79 25.55-43.52 38.08-65.41-8.48-7.19-18.26-12.85-28.97-15.95 30.09-12.79 60.06-25.92 90.31-38.31z"/>
<path d="m412.09 261.99c25.33-0.01 50.69-0.53 76 0.25-3.04 2.08-4.8 5.34-5.58 8.88-5.26 1.85-7.22 8.17-12.75 9.43-3.03 0.47-4.46 3.19-5.84 5.59-5.82 0.63-12.25-0.02-17.29 3.54-5.08 3.52-12 2.89-16.69 7.19-2.6 0.63-4.76-0.89-6.62-2.49-3.59-2.4-7.77 1.34-11.17 2.66-0.38-11.67-0.34-23.38-0.06-35.05z"/>
<path d="m494.51 532.51c11.37 0.5 22.77-0.45 34.13 0.43 0.05 26.68-0.2 53.37 0.11 80.05 0.01 0.36 0.03 1.09 0.04 1.45-8.34-0.22-17.05 2.36-22.04 9.47-3.66 0.14-7.33-0.15-10.83-1.31-5.35-1.52-9.34 3.45-14.07 4.88-5.74 0.93-11.74-0.12-16.61-3.34 2.29-5.88 1.89-13.04-3.58-17-1.02-8.63-7.61-14.73-11.15-22.28 0.99-0.68 1.99-1.36 3-2.02-1.59-3.59-3.83-6.8-6.26-9.85 2.22-5 0.03-10.69 2.48-15.57 0.25 0.97 0.73 2.92 0.97 3.89 5.2-4 9.86-10.92 17.19-9.97 3.58-0.37 6.62-2.61 10.11-3.35 8.44 1.04 16.25-7.47 16.51-15.48z"/>
</g>
<g fill="#006100">
<path d="m298.41 132.46c32.53-0.34 65.06 0.04 97.59-0.17 4.8-0.21 9.64-0.03 14.32 1.16-0.95 41.46 0.16 83-0.58 124.46 0.33 1.81-1.59 2.31-2.9 1.59-5.69-2.23-11.9-0.95-17.84-1.26-30.02-0.28-60.07 0.56-90.07-0.45-0.88-5.21-0.86-10.5-0.7-15.76-0.07-36.52-0.42-73.05 0.18-109.57z"/>
<path d="m411.91 131.82c38.78-0.44 77.6-0.3 116.39-0.07 0.13 31.01 0.5 62.06-0.17 93.05-2.15 0.4-4.3 0.75-6.44 1.08 0.19-4.8 0.45-9.59 1-14.36-2.86-0.22-5.7-0.67-8.39-1.7 0.52-2.37 2.91-4.92 1.49-7.33-6.52-2.42-12.09 2.99-17.96 4.87 1.68-3.07 3.52-6.06 5.13-9.18-8.07 0.5-13.25 8.19-21.49 8.28 1.56 1.47 3.3 2.74 5.12 3.88 0.28 0.72 0.84 2.16 1.12 2.88 4.93-3.6 10.78-2.98 16.32-1.35-0.55 3.47-4.27 3.34-6.86 4.42-3.93 1.31-6.84 4.43-9.64 7.34 1.49 1.46 3 2.9 4.48 4.37 0.29 6.05 7.62 9.05 6.32 15.51-2.11 0.49-4.2 0.99-6.27 1.61 2.53 0.48 5.08 0.72 7.64 0.97-1.94 5.45-4.93 10.67-10.41 13.19-25.62 1.12-51.39 0.02-77.07 0.47-0.56-42.63-0.1-85.29-0.31-127.93z"/>
<path d="m531.13 532.93c22.13-0.65 44.31-0.35 66.45-0.26 2.75 0.93 5.7 1.46 8.32-0.15l0.42-0.07c9.98 0.27 20-0.24 29.97 0.51 0.03 5.23 1.39 10.25 6.58 12.55 0.38 23.13-0.78 46.33 0.32 69.47-0.04 2.93 0.33 6.02-0.63 8.84-2.93 5.01-7.84 9.16-8.24 15.3-5.06 1.04-11.09 0.28-14.7 4.74-2.74 0.1-5.48 0.16-8.21 0.22-0.21-0.85-0.63-2.55-0.84-3.4-6.15 6.65-16.29 2.33-23.26-0.69 0.08-2.07 0.13-4.14 0.19-6.2-1.8-1.22-3.65-2.37-5.52-3.44 0.33-1.65 0.65-3.3 0.97-4.94-2.17 1.33-4.29 2.75-6.45 4.1 1.13-3.85 2.67-7.58 4.95-10.89-4.58 2.95-8.41 7.02-13.46 9.22-0.51-5.13-4.33-8.76-7.57-12.39-4.48-1.26-9.14-2.09-13.25-4.43-0.99 0.65-1.98 1.31-2.95 1.97-4.3-2.59-9.05-1.13-13.17 0.98l0.01-0.92c0.11-26.71-0.11-53.42 0.07-80.12z"/>
</g>
<path d="m768.69 134.96c5.67-0.18 11.35-0.54 17.01-0.11-3.7 2.59-8.57 3.67-11.13 7.71-3.97 4.71-3.83 12.29 1.14 16.24-0.74 1.48-1.47 2.95-2.19 4.43-5.64-6.18-5.44-15.43-1.78-22.55 1.79-2.75-1.3-4.17-3.05-5.72z" fill="#115712"/>
<g fill="#066006">
<path d="m231.67 159.33c6.32 0.05 12.65-0.32 18.95 0.2-3.84 2.58-8.78 3.55-11.74 7.36-4.22 4.8-6.32 12.9-2.04 18.27 2.58 3.28 7.59 2.99 10.13-0.15 5.73-7.52 7.03-18.21 15.14-23.91 6.95-4.56 16.84-0.14 19.18 7.56 3 7.14-0.24 14.42-2.24 21.29 1.25 0.88 2.5 1.76 3.72 2.69-5.61 0.63-11.27 0.82-16.9 0.44 5.54-3.29 12.47-6.43 13.61-13.66 1.91-5.37-2.39-14.5-8.95-10.87-7.56 7.03-8.02 19.14-16.34 25.69-4.93 3.82-12.61 2.91-16.73-1.7-6.57-6.56-6.52-17.07-3.12-25.18 1.66-3.1-0.83-5.78-2.67-8.03z"/>
<path d="m768.56 175.35c5.94-0.13 11.9-0.47 17.82 0.17-3.74 2.54-8.58 3.76-11.11 7.82-5.47 7.06-3.36 18.51 4.45 22.97 7.88 4.42 17.67 3.98 26.11 1.5 6-1.7 10.57-7.47 10.28-13.79 0.72-7.17-3.57-13.41-8.59-18.04 1.4 0.06 2.8 0.11 4.21 0.17 10.51 10.2 10.28 28.64 0.86 39.42-8.56 9.76-24.91 9.85-34.18 1.04-9.65-8.19-11.58-22.63-6.66-33.91 2.04-3.26-0.58-5.69-3.19-7.35z"/>
<path d="m762.55 547.92c4.69 1.78 9.31 3.81 13.63 6.39-3.99 0.52-8.52-0.9-11.99 1.76-4.59 3.27-6.08 9.05-8.35 13.92 5.99 2.83 12.03 5.58 18.21 7.99 3.59-6.75-2.28-11.56-6.62-15.74 8.19 3.34 16.9 6.28 24.2 11.28-5.87-1.19-13.32-1.35-15.6 5.49 5.33 2.36 10.53 5.08 16.02 7.08 1.54 0.69 3.49-0.37 4.14-1.85 2.49-4.67 4.51-9.93 3.65-15.31-0.52-4.46-4.35-7.37-6.35-11.14 4.84 2.35 9.16 5.6 13.72 8.45-6.3 13.41-11.4 27.5-18.67 40.38 0.59-2.92 2.67-7.37-1.17-8.96-11.14-5.26-22.45-10.24-33.75-15.16-4.03-2.07-5.98 2.43-8.27 4.77 5.1-13.36 11.57-26.19 17.2-39.35z"/>
</g>
<path d="m481.47 206.46c8.24-0.09 13.42-7.78 21.49-8.28-1.61 3.12-3.45 6.11-5.13 9.18 5.87-1.88 11.44-7.29 17.96-4.87 1.42 2.41-0.97 4.96-1.49 7.33 2.69 1.03 5.53 1.48 8.39 1.7-0.55 4.77-0.81 9.56-1 14.36 2.14-0.33 4.29-0.68 6.44-1.08l0.75-0.14c-0.11 11.69 0.01 23.37-0.05 35.06-13.18-0.29-26.4 0.52-39.54-0.44 5.48-2.52 8.47-7.74 10.41-13.19-2.56-0.25-5.11-0.49-7.64-0.97 2.07-0.62 4.16-1.12 6.27-1.61 1.3-6.46-6.03-9.46-6.32-15.51-1.48-1.47-2.99-2.91-4.48-4.37 2.8-2.91 5.71-6.03 9.64-7.34 2.59-1.08 6.31-0.95 6.86-4.42-5.54-1.63-11.39-2.25-16.32 1.35-0.28-0.72-0.84-2.16-1.12-2.88-1.82-1.14-3.56-2.41-5.12-3.88z" fill="#fefefd"/>
<path d="m531.15 205.54c5.87 3.33 7.66 10.17 7.17 16.51-2.45 0.63-4.89 1.29-7.34 1.94-0.53-6.14-0.48-12.32 0.17-18.45z" fill="#0b5c07"/>
<path d="m770.54 227.44c1.15 2.98 0.92 8.06 5.4 7.61 12.35 0.22 24.74 0.35 37.08-0.11 4.31 0.46 3.86-4.79 4.86-7.56 1.06 9.2 0.77 18.65 0.09 27.88-1.05-2.88-0.53-8.15-4.98-7.79-12.66-0.15-25.36-0.23-38.02 0.05-3.85 0.12-3.26 4.86-4.44 7.42-0.51-9.14-0.56-18.36 0.01-27.5z" fill="#056003"/>
<g fill="#046005">
<path d="m233.45 259.31c0.9 2.35 1.37 4.83 2.1 7.24 8.38 1.61 16.97 0.5 25.45 0.82 5.84-0.32 11.9 0.81 17.57-0.84 1.65-1.98 1.49-4.8 2.29-7.14 0.94 9.58 0.85 19.4 0.08 29-1.08-2.65-0.44-7.26-4.02-7.98-5.79-0.51-11.61-0.12-17.41-0.25-0.04 6.34-0.06 12.67-0.01 19.01 5.82-0.15 11.68 0.41 17.46-0.4 3.56-0.42 2.77-5.16 3.9-7.6 0.93 9.5 0.87 19.24 0.04 28.75-1.06-2.75-0.54-8.08-4.84-7.76-12.37-0.4-24.78-0.32-37.16-0.04-4.52-0.61-4.3 4.84-5.41 7.76-0.56-9.47-0.45-19-0.08-28.49 0.95 2.28 1.46 4.71 2.26 7.05 6.81 1.24 13.76 0.59 20.65 0.71 0.05-6.33 0.01-12.66 0.01-18.98-6.58 0.23-13.23-0.52-19.76 0.45-2.41 1.75-2.06 5.26-3.04 7.83-0.59-9.69-0.56-19.44-0.08-29.14z"/>
<path d="m474.31 688.99c11.22 0.74 22.54 1.79 33.53 4.24 7.32 1.48 14.53 9.29 10.33 16.91-5.3 8.84-17.21 7.09-25.93 6.18-0.54 5.87-1.97 11.74-1.57 17.67 1.69 2.53 5.15 2.48 7.69 3.76-9.66-0.6-19.49-1.29-28.92-3.53 2.82-0.66 7.51 0.44 8.11-3.51 1.92-11.68 2.82-23.53 4.2-35.28 0.91-4.6-4.46-5.04-7.44-6.44m20.5 4.58c-0.73 6.7-1.52 13.38-2.4 20.06 6.57 2.39 14.35-2.2 13.55-9.61 1.21-6.65-5.36-10.46-11.15-10.45z"/>
<path d="m485.9 849.84c8.01-2.12 15.65-5.64 23.86-6.92-3.41 2.7-5.79 6.56-4.14 11.01 3.21 12.51 6.6 25 10.27 37.38 3.72-9.1 6.44-18.58 9.79-27.83 0.85 0.89 1.71 1.8 2.57 2.71-5.56 16.49-11.3 32.93-16.81 49.45-0.49 0.02-1.46 0.06-1.95 0.09-5.75-20.09-11.15-40.28-17.05-60.31-0.7-3.57-4.19-4.2-7.29-4.04 0.19-0.39 0.56-1.15 0.75-1.54z"/>
</g>
<path d="m298.31 266.95c-0.35-2.4 1.54-3.95 3.06-5.44 36.12 0.95 72.3-0.04 108.43 0.49 0.56 12.57-0.02 25.15 0.05 37.72-2.32 1.97-4.73 3.83-7.24 5.54-0.69 6.38 4 11.38 6.95 16.55 0.78 11.92 0.6 23.88 0.25 35.81-2.54 1.2-5.13 2.32-7.74 3.38-2.35 5.1-7.38 7.8-11.84 10.75 0.02-3.48 0.01-6.95-0.01-10.42-1.67-0.21-3.32-0.4-4.97-0.59-0.34-0.97-0.68-1.94-1.01-2.9-1.02-0.39-2.04-0.77-3.05-1.15-0.15-2.07-0.29-4.13-0.43-6.18-2.85-1.15-5.74-2.23-8.72-2.98-0.17-1.73-0.36-3.45-0.54-5.16-6.92 2.73-3.73 11.86-8.7 16.45-1.76-1.85-3.44-3.78-4.99-5.81 3.37-9.97-1.8-19.92-1.13-30.05-4.24 2.87-8.1 7.19-13.67 6.98 0.3-6.7 3.33-13.7-0.06-20.11 0.3-1.02 0.62-2.04 0.93-3.06-5.33-1.96-4.78-8.01-5.17-12.63-5.27 3.2-11.2 5.14-17.4 5.15-0.68 0.69-1.36 1.38-2.04 2.07-0.13 1.53-0.25 3.06-0.37 4.6-6.17 4.12-11.5 9.2-16.92 14.24-1.24-0.23-2.48-0.45-3.71-0.67-0.46-17.52-0.2-35.06 0.04-52.58z" fill="#006102"/>
<g fill="#fff">
<path d="m530.94 261.82c35.99 0 71.98-0.07 107.98 0.04-0.27 0.48-0.8 1.44-1.07 1.92-33.75 57.59-67.21 115.34-100.92 172.96l-0.38 0.21c-1.88-1.43-3.82 0.68-5.63 1.25-0.02-4.16 0.11-8.32 0.16-12.48 1.93-0.55 3.86-1.1 5.81-1.64-1.48-1.49-2.99-2.94-4.5-4.38 0.78-1.18 1.57-2.34 2.37-3.5-0.25-0.45-0.76-1.35-1.02-1.8-0.7-0.17-2.11-0.51-2.81-0.68 0.06-50.63 0.06-101.26 0.01-151.9z"/>
<path d="m693.47 262.18c0.57-0.05 1.7-0.15 2.26-0.2 18.47-0.4 36.96-0.07 55.44-0.15-0.08 75.38 0 150.77-0.04 226.16-0.01 14.24-1.45 28.51-4.67 42.39-33.79-0.05-67.59 0.03-101.38-0.04 0.13-15.9-0.36-31.83 0.21-47.72 1.29 2.1 2.79 4.08 4.23 6.11 3.16 0.01 6.33 0.02 9.5 0.06 2.01 1.98 4.34 3.61 7.21 4.04-1.18-5.58-5.45-9.6-10.53-11.79-1.04-2.19-2.12-4.36-3.13-6.55-0.58-0.2-1.75-0.59-2.33-0.79-0.95-1.99-1.94-3.95-2.91-5.92 1.51-0.56 3.03-1.12 4.56-1.67-1.25-3.05-3.75-5.11-6.82-6.14-0.01-38.09-0.04-76.19 0-114.28 15.86-27.99 32.5-55.54 48.4-83.51m-30.07 220.95c2.19 1.87 4.15 4 6.31 5.91 0.29-3.31-2.05-5.76-4.57-7.48-0.59 0.52-1.17 1.04-1.74 1.57z"/>
<path d="m321.31 299.29c6.2-0.01 12.13-1.95 17.4-5.15 0.39 4.62-0.16 10.67 5.17 12.63-0.31 1.02-0.63 2.04-0.93 3.06 3.39 6.41 0.36 13.41 0.06 20.11 5.57 0.21 9.43-4.11 13.67-6.98-0.67 10.13 4.5 20.08 1.13 30.05 1.44 7.59-3.2 14.58-2.48 22.19 1.12 0.29 2.25 0.58 3.37 0.88 1.19 3.59 2.96 6.97 5.58 9.73 0.28 4.49 0.76 8.97 1.04 13.46 2.97 2.52 3.49 6.56 5.52 9.71-0.04 0.81-0.13 2.44-0.18 3.25-4.52-1.37-8.44-4.27-10.09-8.83-5.1-1.71-7.46-6.63-9.86-11-4.02-0.29-7.96-1.17-11.76-2.51-0.2 6.59 4.76 10.84 9.01 14.99 2.73 6.94 9.33 11.03 12.88 17.36 2.78 8.27 6.07 16.36 9.65 24.32 0.91 0.28 1.82 0.57 2.74 0.86 1.76 5.91 8.39 7.32 11.96 11.76 3.18 0.47 6.32 1.16 9.47 1.78 0.79-5.74-1.72-11.76 1.06-17.19 1.43 0.4 2.88 0.79 4.33 1.17-1.34-4-5.03-6.91-5.04-11.38-1.64 0.69-3.27 1.41-4.89 2.14 0.48 1.34 0.97 2.69 1.44 4.05-4.81-2.68-5.84-8.84-10.63-11.62 0.77-1.09 1.54-2.18 2.32-3.26-0.44-1.19-0.88-2.36-1.32-3.52 2.24-0.71 4.49-1.39 6.75-2.07-1.18-0.97-2.37-1.91-3.56-2.84-0.25-3.89-1.8-7.44-3.55-10.85-1.22-4.7 0.2-9.68-0.76-14.44-3.58-4.74-7.87-9.48-13.81-11.12-0.82-4.43-2.27-8.73-2.85-13.21-1.12-0.37-2.22-0.73-3.33-1.1 0.53-2.34 1.05-4.69 1.98-6.9 4.97-4.59 1.78-13.72 8.7-16.45 0.18 1.71 0.37 3.43 0.54 5.16 2.98 0.75 5.87 1.83 8.72 2.98 0.14 2.05 0.28 4.11 0.43 6.18 1.01 0.38 2.03 0.76 3.05 1.15 0.33 0.96 0.67 1.93 1.01 2.9 1.65 0.19 3.3 0.38 4.97 0.59 0.02 3.47 0.03 6.94 0.01 10.42 4.46-2.95 9.49-5.65 11.84-10.75 2.61-1.06 5.2-2.18 7.74-3.38-0.02 36.08 0.05 72.16-0.03 108.24-5.24-2.83-14.45-6.47-17.93 0.31 5.41 3.65 11.18 7.35 17.95 7.53 0.07 12.32-0.07 24.65 0.07 36.97-9.23 4.94-18.65 9.51-28 14.21-0.56 1.82-1.13 3.64-1.67 5.48-26.12 0.02-52.25 0-78.37 0-3.51-15.18-4.83-30.8-4.66-46.36 0.1-52.31-0.2-104.63 0.15-156.93 1.13-2.55 2.71-4.89 4.66-6.87 5.42-5.04 10.75-10.12 16.92-14.24 0.12-1.54 0.24-3.07 0.37-4.6 0.68-0.69 1.36-1.38 2.04-2.07z"/>
<path d="m41.31 573.34c15.43-28.18 30.86-56.35 46.21-84.57 3.06 11.68 8.91 23.82 20.14 29.58 11.36 5.46 24.33 4.75 36.56 3.85-10.16 36.76-37.95 64.65-63.08 91.91-2.8 2.55-4.86 6.19-8.23 7.94-9.94-1.81-19.03-8.03-24.22-16.72-5.1-8.43-7.36-18.22-8.38-27.91-0.28-1.46 0.3-2.85 1-4.08z"/>
<path d="m951.98 517.99c9.09-4.98 13.22-15.34 14.88-25.07 13.97 25.17 27.62 50.52 41.5 75.74 1.79 3.34 4.53 6.75 3.33 10.8-1.62 17.08-9.92 35.81-27.49 41.43-27.09-29.6-58.14-58.91-69.47-98.69 12.47 0.81 25.79 1.76 37.25-4.21z"/>
<path d="m302.34 532.45c25.75-0.08 51.5 0.03 77.25-0.06-8.86 28.34-17.72 56.68-26.79 84.96-24.78-22.43-42.81-52.31-50.46-84.9z"/>
<path d="m421.39 558.19c17.3-8.65 34.29-17.98 51.93-25.89 7.06 0.27 14.13 0.08 21.19 0.21-0.26 8.01-8.07 16.52-16.51 15.48-3.49 0.74-6.53 2.98-10.11 3.35-7.33-0.95-11.99 5.97-17.19 9.97-0.24-0.97-0.72-2.92-0.97-3.89-2.45 4.88-0.26 10.57-2.48 15.57 2.43 3.05 4.67 6.26 6.26 9.85-1.01 0.66-2.01 1.34-3 2.02 3.54 7.55 10.13 13.65 11.15 22.28 5.47 3.96 5.87 11.12 3.58 17 4.87 3.22 10.87 4.27 16.61 3.34 4.73-1.43 8.72-6.4 14.07-4.88 3.5 1.16 7.17 1.45 10.83 1.31 4.99-7.11 13.7-9.69 22.04-9.47 0.12 21.01 0 42.02 0.05 63.03-39.92 0.56-80.1-6.59-116.89-22.29-0.13-21.22 0.06-42.45-0.09-63.68 2.22-11.34 6.47-22.18 9.53-33.31z"/>
<path d="m645.06 532.43c33.63-0.01 67.25 0 100.88-0.01-7.29 31.75-24.62 60.95-48.36 83.18-15.41 14.65-33.4 26.4-52.48 35.68 0.14-9.69-0.59-19.46 0.36-29.09 0.68-1.86 1.49-3.67 2.3-5.48 1.52-0.69 3.06-1.37 4.6-2.05 4.53-5.83 6.75-12.96 11.27-18.78 0.4-6.58 1.1-13.12 2.28-19.6-4.35-4.11-8.76-8.65-9.58-14.87-1.49-0.72-2.97-1.43-4.46-2.13-0.94-3.49-2.12-6.92-2.84-10.46-1.32-0.75-2.65-1.49-3.96-2.22-0.04-4.73-0.06-9.45-0.01-14.17z"/>
</g>
<path d="m777.05 277.79c4.39 1.81 8.72 3.78 13.04 5.76-0.29 0.63-0.88 1.89-1.18 2.53-4.41-1.87-8.78-3.81-13.15-5.75 0.32-0.63 0.97-1.91 1.29-2.54z" fill="#1c5720"/>
<path d="m198.55 292.24c0.39 1.76 0.61 3.56 0.56 5.37-2.18-0.28-2-4.15-0.56-5.37z" fill="#2b2b2b" opacity=".4"/>
<path d="m423.32 294.38c1.86 1.6 4.02 3.12 6.62 2.49-0.54 0.92-1.06 1.85-1.56 2.79 1.36 1.09 2.72 2.19 4.07 3.3-2.94 4.11-5.78 8.59-10.48 10.88-1.68-1.81-3.72-3.46-4.58-5.86 0.74-4.45 5.88-4.88 9.33-6.19-1.22-2.43-2.24-4.96-3.4-7.41z" fill="#095f08"/>
<path d="m402.61 305.26c2.51-1.71 4.92-3.57 7.24-5.54-0.17 7.36 0.31 14.74-0.29 22.09-2.95-5.17-7.64-10.17-6.95-16.55z" fill="#f9faf9"/>
<path d="m199.38 303.5c0.38 3.27 0.59 6.56 0.61 9.85-1.42-3.11-1.06-6.56-0.61-9.85z" fill="#2a2a2a" opacity=".37"/>
<path d="m483.32 312.21c1.58-1.47 3.14-2.96 4.7-4.45 2.58 1.11 5.23 2.11 8.02 2.6 0.09 4.14 0.14 8.28-0.08 12.42-1.83 0.95-3.68 1.89-5.51 2.83 0.08 0.82 0.23 2.47 0.31 3.29 1.24 0.76 2.51 1.49 3.75 2.27-1.49 0.8-4.09 0.69-4 2.96 1.56 2.49 4.41 0.74 6.49 0.04 2 0.6 4 1.23 6.01 1.84 0.45 2.98 1.66 5.75 2.94 8.46 2.17 0.02 4.35 0.03 6.53 0.03 2.16 2.5 2.01 5.78 1.93 8.89-1.07 0.15-2.13 0.3-3.18 0.46 1.48 2.69 2.18 5.82-2.01 5.54-1.2-3.6-2.84-7.37-1.31-11.14-1.35-1.21-2.68-2.44-4-3.67 0.76 1.88 1.45 3.79 1.66 5.83-1.86-0.89-3.66-1.88-5.48-2.82 0.2-2.53 0.26-5.07 0.1-7.6-3.82 0.6-8.01 1.76-11.26-1.05 0.79 3.21 2.55 6.51-0.1 9.42-3.69-1.27-4.69-5.23-5.63-8.56 1.24-0.64 2.49-1.27 3.73-1.91-1.23-0.35-2.46-0.68-3.69-1 0.48-1.05 0.96-2.09 1.45-3.13-0.78-0.07-2.33-0.22-3.1-0.3-1.2-3.48-2.31-7.04-2.14-10.77 1.27-0.12 2.55-0.24 3.83-0.35 0.05-3.38 0.05-6.76 0.04-10.13z" fill="#085f09"/>
<path d="m848.13 323.28c-0.28-5.24-0.14-10.49 0.51-15.7 0.54 5.22 0.78 10.56-0.51 15.7z" fill="#292929" opacity=".39"/>
<path d="m412.25 322.73c2.02 3.94 5.75 7.45 5.34 12.22-0.31 7.09 2.05 15.88-5.03 20.48-1.14-10.84-1.03-21.84-0.31-32.7z" fill="#085c07"/>
<path d="m848.12 335.74c1.33 5.45 1.03 11.11 0.56 16.65-0.71-5.52-0.85-11.1-0.56-16.65z" fill="#292929" opacity=".4"/>
<g fill="#fdfdfc">
<path d="m251.34 338.43c8.05-0.46 17.12-0.82 23.86 4.35 5.87 4.43 6.05 14.2 0.63 19.03-5.02 3.98-11.68 4.65-17.85 4.7-6.29 0.04-13.11-0.35-18.41-4.13-5.25-3.63-6.2-11.5-3.05-16.79 3.34-4.75 9.32-6.51 14.82-7.16z"/>
<path d="m783.37 345.43c9.55-1.52 20.51-2.31 29 3.21 7.42 4.98 5.08 17.78-3.39 20.32-10.79 3.52-24.46 4.19-33.87-3.07-7.37-7.11-1.42-19.68 8.26-20.46z"/>
</g>
<path d="m470.12 356.17c4.57-4.25 6.9-10.81 12.72-13.67 0.77 2.12 1.3 4.31 1.66 6.54-7.06 2.8-11.67 8.84-17.61 13.09 0.47-2.27 1.45-4.42 3.23-5.96z" fill="#0c6010"/>
<path d="m199.76 346.21 0.14 1.14c0.13 3.36-0.12 6.72-0.53 10.07-0.46-3.73-0.63-7.56 0.39-11.21z" fill="#292929" opacity=".43"/>
<path d="m492.91 349.61c5.04-0.91 6.89 4.04 9.33 7.32 0.89-1.27 1.82-2.51 2.84-3.68 0.22 1.8 0.3 3.63 0.3 5.45 1.76 0.69 2.99 2.1 4.04 3.63-3.97-0.39-7.41 1.36-10.62 3.44-2.72 1.82-4.83-1.86-4.68-4.27l2.64-1.92c0.02-0.55 0.07-1.67 0.09-2.23-2.07-0.04-4.14-0.05-6.2-0.06 1.09-2.45 1.97-5 2.26-7.68z" fill="#0c5c0d"/>
<g fill="#056005">
<path d="m357.81 353.01c1.55 2.03 3.23 3.96 4.99 5.81-0.93 2.21-1.45 4.56-1.98 6.9 1.11 0.37 2.21 0.73 3.33 1.1 0.58 4.48 2.03 8.78 2.85 13.21 5.94 1.64 10.23 6.38 13.81 11.12 0.96 4.76-0.46 9.74 0.76 14.44 1.75 3.41 3.3 6.96 3.55 10.85 1.19 0.93 2.38 1.87 3.56 2.84-1.77 0.02-3.53 0.03-5.29 0.02-3.05-4.68-8.14-7.16-12.55-10.32-2.03-3.15-2.55-7.19-5.52-9.71-0.28-4.49-0.76-8.97-1.04-13.46-2.62-2.76-4.39-6.14-5.58-9.73-1.12-0.3-2.25-0.59-3.37-0.88-0.72-7.61 3.92-14.6 2.48-22.19z"/>
<path d="m788.27 446.33c11.96-2.95 25.74 3.87 29.59 15.79 3.47 10.6 1.9 24.18-7.21 31.56-9.04 7.96-24.16 8.03-32.95-0.34-14.45-13.09-9.78-42.69 10.57-47.01m-5.92 14.11c-6.46 1.35-12.05 7.65-10.28 14.49 1.44 7.22 9.33 10.24 15.87 10.9 8.09 0.56 16.99 0.79 24.08-3.79 7-4.3 6.15-16.35-1.36-19.7-8.7-4.24-19.05-3.54-28.31-1.9z"/>
<path d="m636.82 672.75c12.86-6.01 24.58-15.92 39.11-17.34 15.11-1.68 27.66 15.58 21.96 29.51-4.86 11.96-17.63 17.03-28.16 22.82-3.82 1.81-7.29 4.72-11.6 5.24 2.64-1.59 6.91-4.09 4.79-7.75-5.38-10.55-11.08-20.98-16.89-31.29-1.74-3.63-5.71-1.47-8.53-0.73-0.17-0.11-0.51-0.34-0.68-0.46m19.75-7.76c6.13 12.01 12.41 23.99 19.31 35.58 7.2-0.98 13.2-8.1 11.71-15.49-1.6-8.56-6.11-17.26-13.64-22-5.58-3.41-12.23-1.19-17.38 1.91z"/>
<path d="m431.26 679.01c10.91 2.1 21.83 4.76 32.28 8.56 7.12 2.4 13.33 11.13 8.27 18.19-6.4 8.04-18.01 4.86-26.48 2.62-1.48 5.18-3.07 10.37-3.98 15.7-0.82 3.82 3.99 4.5 6.23 6.33-9.44-1.92-18.85-4.27-28.03-7.22 3.32-0.17 8.73 1.45 9.43-3.27 3.1-11.26 6.11-22.58 8.77-33.94 1.29-4.34-3.84-5.21-6.49-6.97m14.69 27.14c3.66 0.57 7.98 1.56 11.06-1.16 3.28-3.03 4.43-8.09 3.38-12.34-1.2-4.01-5.71-5.03-9.09-6.44-2.45 6.44-3.81 13.24-5.35 19.94z"/>
</g>
<path d="m848.95 360.33c2.14 0.31 1.91 4.17 0.52 5.4-0.4-1.77-0.65-3.59-0.52-5.4z" fill="#292929" opacity=".51"/>
<path d="m450.9 389.19c4.43-3.53 6.49-9.27 11.51-12.17 0.83 2.89 1.32 6.05 3.21 8.49 3.37 1.13 6.74 2.52 8.68 5.7-1.75 1.89-3.39 3.89-4.81 6.05-1.32 0.13-2.65 0.26-3.96 0.4-0.42 2.09-0.83 4.17-1.26 6.26 1.79 2.71 2.86 5.79 3.22 9.03 1.59 1.02 3.2 2.03 4.81 3.05 0.07 0.81 0.19 2.43 0.26 3.24-2.73 0.11-5.46 0.25-8.16 0.57 1.96 3.42 7.18 4.65 6.38 9.39-1.76-1.29-3.44-2.68-5.1-4.09-0.54 0.04-1.63 0.13-2.18 0.17-0.16 1.41-0.31 2.82-0.46 4.25-1.57 0.86-3.11 1.75-4.65 2.66-0.54 5.84-2.38 11.45-2.84 17.29-3.34-0.47-6.71-0.14-10 0.46-2.37-7.27-10.74-6.13-16.42-3.94-0.48-0.95-0.95-1.9-1.42-2.83-2.64 0.01-5.27 0.03-7.91 0.08-1.34-3.38-2.5-6.86-2.65-10.53-1.05-0.35-2.1-0.69-3.14-1.02-0.6-1.87-1.22-3.73-1.8-5.59-0.8-3.74-0.32-7.61-0.22-11.4 0.99-0.97 2-1.92 3.01-2.88 1.9 0.73 3.72 1.89 5.8 2.05 5.54-3.72 10.76-7.96 16.05-12.02 3.65-4.31 6.96-9.52 13.1-10.37 0.31-0.77 0.63-1.54 0.95-2.3z" fill="#026102"/>
<path d="m490.65 377.39c0.42 0.22 1.27 0.67 1.69 0.89-1.3 3.1-3.77 5.45-6.5 7.31 0.05-0.87 0.16-2.59 0.22-3.46 1.59-1.52 3.13-3.1 4.59-4.74z" fill="#3e5d39"/>
<path d="m850.88 381.35c2.05-0.07 2.07 3.5 0.6 4.42-0.41-1.44-0.7-2.93-0.6-4.42z" fill="#282828" opacity=".51"/>
<path d="m483.15 385.94c3.95-0.94-0.98 4.07 0 0z" fill="#4d594f"/>
<g fill="#046006">
<path d="m251.3 387.35c10.58-2.89 22.19 2.46 27.24 12.1 6.73 13.4 4.44 33.63-9.84 41.28-11.9 6.71-28.33 0.77-33.83-11.56-7.11-15.12-1.44-37.72 16.43-41.82m-1.97 14.07c-5.11 0.83-10.58 3-13.25 7.71-3.46 6.52-0.27 15.59 6.91 17.92 9.25 3.06 19.76 3.15 28.97-0.1 8.52-3.07 10.52-15.75 3.41-21.3-7.33-5.52-17.36-5.24-26.04-4.23z"/>
<path d="m233.22 448.09 0.96-0.02c0.25 2.7 0.15 7.06 3.85 7.21 12.66 0.42 25.37 0.23 38.04 0.1 4.27 0 3.89-5.09 4.76-7.99 0.99 9.73 0.91 19.76 0.02 29.51-0.94-2.97-0.31-8.64-4.84-8.46-12.35-0.2-24.73-0.3-37.07 0.04-3.08-0.15-2.98 3.32-3.09 5.5-0.19 5.77-0.6 12.74 4.39 16.8 2.93 2.98 7.85 2.99 10.3 6.47-5.76-0.74-11.72-0.81-17.35-2.2-0.04-15.65-0.08-31.31 0.03-46.96z"/>
<path d="m761.56 728.12c13.32-6.89 26.24-14.56 39.73-21.11-2.28 26.19-6.58 52.2-9.19 78.36 8.75-3.63 16.88-10.48 19.21-20.02 1.16-3.15 0.43-7.11 2.95-9.64 1.48 6.65 2.68 13.37 3.74 20.11-13.56 7.04-26.62 15.19-40.59 21.33 2.4-26.07 6.49-51.99 9.33-78.03-6.25 3.23-13.01 6.55-17.02 12.59-2.97 4.4-1.98 9.99-3.92 14.73-1.93-5.98-2.95-12.19-4.24-18.32z"/>
<path d="m676.26 797.09c3.01-1.53 5.99-3.1 9.02-4.6 2.65 13.5 3.64 27.33 6.94 40.7 3.86-1.3 2.6-6.34 5.12-8.91 0.69 5.28-0.31 11.09-3.78 15.27-2.12 2.5-6.23 4.56-9.09 2.03-2.43-3.09-2.38-7.25-3.54-10.86-1.36 6.04-1.17 13.7-6.47 17.88-3.98 3.06-9.05-0.21-11.06-3.99-5.49-9.23-5.83-20.72-3.91-31.03 1.48-5.78 3.71-12.91 9.94-15.07 3.41-0.98 5.71 2.16 7.59 4.45-0.29-1.97-0.54-3.92-0.76-5.87m-5.09 4.18c-3.1 1.01-3.16 5.06-3.56 7.76-0.25 9.14 0.14 18.81 4.23 27.18 0.91 2.47 4.79 2.87 5.35-0.07 2.95-8.99 2.48-19.05-0.32-28.02-1.17-2.61-2.32-6.7-5.7-6.85z"/>
</g>
<g fill="#046105">
<path d="m338.95 389.89c3.8 1.34 7.74 2.22 11.76 2.51 2.4 4.37 4.76 9.29 9.86 11 1.65 4.56 5.57 7.46 10.09 8.83 4.75 1.64 7.25 6.37 11.27 9.12 0.44 1.16 0.88 2.33 1.32 3.52-0.78 1.08-1.55 2.17-2.32 3.26 4.79 2.78 5.82 8.94 10.63 11.62-0.47-1.36-0.96-2.71-1.44-4.05 1.62-0.73 3.25-1.45 4.89-2.14 0.01 4.47 3.7 7.38 5.04 11.38-1.45-0.38-2.9-0.77-4.33-1.17-2.78 5.43-0.27 11.45-1.06 17.19-3.15-0.62-6.29-1.31-9.47-1.78-3.57-4.44-10.2-5.85-11.96-11.76-0.92-0.29-1.83-0.58-2.74-0.86-3.58-7.96-6.87-16.05-9.65-24.32-3.55-6.33-10.15-10.42-12.88-17.36-4.25-4.15-9.21-8.4-9.01-14.99z"/>
<path d="m834.36 690.75c3.45-5.36 8.64-9.35 13.51-13.37 5.62 16.71 10.98 33.52 16.53 50.26 1.64 4.65 2.46 9.78 5.7 13.68 2.02-3.08 1.88-6.82 2.14-10.33 0.39 0.02 1.17 0.08 1.56 0.11-0.09 6.09 0.76 13.76-4.77 17.9-3.37 2.86-8.43 0.59-9.63-3.35-6.38-17.6-11.44-35.66-17.79-53.27-0.73-3.6-4.8-1.68-7.25-1.63z"/>
<path d="m565.48 690.57c14.55-4.59 30.18-3.93 44.31-9.83 1.5 0.34 3 0.75 4.5 1.17-0.47 0.19-1.4 0.58-1.87 0.77 1.87 6.05 4.06 12 6.12 17.99 0.48 1.4 0.95 2.81 1.43 4.23 2.07 5.12 2.87 10.96 6.2 15.46 1.05 0.92 2.15 1.79 3.25 2.68-7.75 2.48-15.31 5.6-23.21 7.56 2.51-1.98 7.48-3.41 5.96-7.57-3.64-11.29-7.58-22.51-11.54-33.69-1.05-3.53-5.28-2.39-7.88-1.64-0.49-0.35-1.47-1.04-1.96-1.39-2.39 1.42-3.56 4.03-2.68 6.75 2.08 11.21 3.91 22.49 6.32 33.63 0.83 4.15 5.81 2.7 8.83 3.06-9.41 2.8-19.29 4.16-28.99 5.7 2.59-1.78 7.67-2.16 6.88-6.42-1.84-11.68-4.12-23.32-6.38-34.93-0.42-4.67-6.1-3.26-9.29-3.53z"/>
<path d="m605.45 831.42c4.73-3.27 8.96-7.33 14.16-9.89 3.34 13.88 4.49 28.42 9.39 41.83 3.34-2.96 1.02-8.27 4.25-11.09 0.33 6.6 0.15 14.94-5.78 19.19-3.73 2.58-8.64-0.32-9.48-4.42-2.8-10.59-3.79-21.62-6.87-32.13-0.76-3.06-4.21-1.73-6.33-1.24 0.17-0.56 0.49-1.69 0.66-2.25z"/>
</g>
<path d="m770.48 389.38c0.96 1.67 1.6 3.48 2.22 5.3 4.38 2.45 9.52 1.37 14.3 1.56 11.07 0.13 22.15-0.31 33.21 0.26-13.11 12.23-27.29 23.29-40.74 35.16 10.8 0.11 21.62 0.24 32.42-0.05 4.44-0.01 5.03-4.94 6-8.2 0.89 6.31 0.95 12.9 0.01 19.21-1-3.23-1.44-7.99-5.89-7.95-12.06-0.5-24.14-0.02-36.21-0.23-2.69 2-4.21 4.95-5.36 8.02-0.14-6.24-0.82-12.69 0.19-18.8 9.7-8.31 19.51-16.52 29.46-24.53-9.07 0.63-18.6-1.48-27.35 1.37-0.71 2.06-1.39 4.14-2.26 6.15-0.44-5.74-0.48-11.53 0-17.27z" fill="#075f08"/>
<path d="m370.84 408.98c4.41 3.16 9.5 5.64 12.55 10.32 1.76 0.01 3.52 0 5.29-0.02-2.26 0.68-4.51 1.36-6.75 2.07-4.02-2.75-6.52-7.48-11.27-9.12 0.05-0.81 0.14-2.44 0.18-3.25z" fill="#f0ffde"/>
<path d="m525.32 437.84c-0.85-9.32-2.39-20.39 3.39-28.41-0.08 6.4 1.01 13.02-0.58 19.29-0.84 1.25-0.86 2.75-0.19 4.09 0.46 1.45 0.73 2.96 1.02 4.47-1.22 0.18-2.43 0.37-3.64 0.56z" fill="#0b5e07"/>
<path d="m530.93 413.72c0.7 0.17 2.11 0.51 2.81 0.68 0.26 0.45 0.77 1.35 1.02 1.8-0.8 1.16-1.59 2.32-2.37 3.5 1.51 1.44 3.02 2.89 4.5 4.38-1.95 0.54-3.88 1.09-5.81 1.64-0.43-3.99-0.45-8-0.15-12z" fill="#254b25"/>
<g fill="#fafcf9">
<path d="m527.94 432.81c-0.67-1.34-0.65-2.84 0.19-4.09 1.36 0.81 1.64 3.68-0.19 4.09z"/>
<path d="m597.58 532.67c2.77-0.09 5.54-0.21 8.32-0.15-2.62 1.61-5.57 1.08-8.32 0.15z"/>
<path d="m634.84 671.26c0.5 0.38 1.48 1.12 1.98 1.49 0.17 0.12 0.51 0.35 0.68 0.46 2.82-0.74 6.79-2.9 8.53 0.73 5.81 10.31 11.51 20.74 16.89 31.29 2.12 3.66-2.15 6.16-4.79 7.75-0.32-0.04-0.96-0.12-1.29-0.16 2.2-2.12 2.88-4.98 2.7-7.93-2.44-0.33-4.89-0.11-7.25 0.53 0.32 4.14 2.02 9.11-1.46 12.41-2.64 3.58-7.5 2.21-11.21 1.75 4-1.37 7.97-2.8 11.97-4.16-0.79-5.07-1.54-10.14-2.76-15.12-1.7 4.59-2.06 10.13-6.11 13.44-4.6 3.88-10.52 6.4-16.55 6.62-3.33-4.5-4.13-10.34-6.2-15.46-0.18-0.56-0.54-1.66-0.73-2.22 6.78-3 12.11 2.02 15.95 6.99-2.34-8.28-4.67-16.72-8.59-24.39 0.69 6.35-0.86 13.79-8.06 15.39-2.06-5.99-4.25-11.94-6.12-17.99 0.47-0.19 1.4-0.58 1.87-0.77 5.04-1.68 10.26-4.04 15.69-3.12 4.05 0.84 6.44 4.58 9.44 7.08-0.97-4.78-2.62-9.36-4.31-13.91l-0.27-0.7z"/>
</g>
<path d="m530.79 438.41c1.31 0.48 3.61-0.13 4.32 1.41-1.01 1.32-2.52 2.14-3.79 3.18-0.13-1.15-0.4-3.44-0.53-4.59z" fill="#b5e3b8"/>
<path d="m517.83 448.77c-1.18-4.32 4.67-7.76 7.16-3.7 0.97 3.92-4.71 3.48-7.16 3.7z" fill="#0e5d0e"/>
<path d="m645.07 459.97c3.07 1.03 5.57 3.09 6.82 6.14-1.53 0.55-3.05 1.11-4.56 1.67 0.97 1.97 1.96 3.93 2.91 5.92 0.58 0.2 1.75 0.59 2.33 0.79 1.01 2.19 2.09 4.36 3.13 6.55 5.08 2.19 9.35 6.21 10.53 11.79-2.87-0.43-5.2-2.06-7.21-4.04-3.17-0.04-6.34-0.05-9.5-0.06-1.44-2.03-2.94-4.01-4.23-6.11-0.34-7.54-0.8-15.12-0.22-22.65z" fill="#065f09"/>
<g fill="#fcfdfd">
<path d="m782.35 460.44c9.26-1.64 19.61-2.34 28.31 1.9 7.51 3.35 8.36 15.4 1.36 19.7-7.09 4.58-15.99 4.35-24.08 3.79-6.54-0.66-14.43-3.68-15.87-10.9-1.77-6.84 3.82-13.14 10.28-14.49z"/>
<path d="m261.36 528.44c6.34-0.87 13.59-1.82 19.19 2.02 6.25 3.95 7.42 13.97 2.04 19.12-4.33 4.27-10.51 5.66-16.28 6.8-6.11 1.17-12.88 1.9-18.61-1.07-7.05-3.4-8.68-14.26-3.02-19.64 4.49-4.29 10.73-6.06 16.68-7.23z"/>
</g>
<path d="m391.85 466.17c3.48-6.78 12.69-3.14 17.93-0.31-0.01 2.61 0 5.23 0.02 7.84-6.77-0.18-12.54-3.88-17.95-7.53z" fill="#056207"/>
<path d="m421.62 464.81c4.17 0.57 8.18 1.9 12.05 3.53 3.21-1.27 6.64-1.82 10.09-1.59-1.42 3.09-4.88 3.84-7.62 5.3 2.71 0.22 5.44 0.3 8.17 0.37 2.12 2.55 5.16 3.78 8.35 4.38-0.22 0.73-0.66 2.2-0.89 2.94-9.81-3.13-20.62 0.09-30.01-4.46-3.24-1.1-6.91-1-9.75-3.1-0.23-1.98-0.2-3.97-0.18-5.94 2.96 0.58 5.92 1.18 8.88 1.78 0.23-0.8 0.68-2.41 0.91-3.21z" fill="#066008"/>
<g fill="#f9faf8">
<path d="m530.93 502.73c7.89-3.92 15.7-7.96 23.58-11.88 0.17 0.4 0.52 1.21 0.69 1.61 1.93 0.93 3.64 2.23 5.31 3.58-2.1-0.61-4.24-1.12-6.35-1.62 1.31 1.69 2.67 3.37 3.97 5.09-4.37 2.53-9.49 2.61-14.34 3.39-0.11 1.84-0.2 3.7-0.3 5.55-1.2 0.25-2.38 0.5-3.57 0.76-0.84 2.93-1.46 5.93-1.45 8.99-2.48-0.6-4.97-1.17-7.46-1.62 0.01-4.62-0.01-9.24-0.08-13.85z"/>
<path d="m224.35 750.98c4.92-5.21 10.83-9.83 17.67-12.16 2.23-0.94 6.54-0.53 5.46 2.82-4.18 7.87-14.47 13.23-23.13 9.34z"/>
</g>
<path d="m617.1 492.51c0.76-0.02 2.29-0.04 3.05-0.05 2.15 6.6 3.61 13.37 4.47 20.24 2.47 1.44 5.32 2 8.02 2.87-0.12 5.04 0.58 10.11 2.81 14.69-9.12-0.09-18.24-0.43-27.36 0.01 1.4-3.65 2.92-7.34 3.16-11.28-0.43-9.24 4.33-17.52 5.85-26.48z" fill="#036105"/>
<path d="m554.16 494.42c2.11 0.5 4.25 1.01 6.35 1.62 6.67 3.26 14.08 5.41 21.54 4.11 0.65 1.04 1.28 2.1 1.93 3.16-3.74 4.11-6.04 9.2-8.73 14 5.7 4.88 12.56 8.23 18.94 12.1-21 1.33-42.1 0.55-63.13 0.47-0.04-4.44-0.06-8.87-0.05-13.3 2.49 0.45 4.98 1.02 7.46 1.62-0.01-3.06 0.61-6.06 1.45-8.99 1.19-0.26 2.37-0.51 3.57-0.76 0.1-1.85 0.19-3.71 0.3-5.55 4.85-0.78 9.97-0.86 14.34-3.39-1.3-1.72-2.66-3.4-3.97-5.09z" fill="#026103"/>
<path d="m528.88 503.74c0.51-0.26 1.54-0.76 2.05-1.01 0.07 4.61 0.09 9.23 0.08 13.85-0.01 4.43 0.01 8.86 0.05 13.3 21.03 0.08 42.13 0.86 63.13-0.47 4.58 0.86 9.25 1.13 13.9 0.86 9.12-0.44 18.24-0.1 27.36-0.01 0.17 0.54 0.52 1.62 0.7 2.16l0.14 0.54c-9.97-0.75-19.99-0.24-29.97-0.51l-0.42 0.07c-2.78-0.06-5.55 0.06-8.32 0.15-22.14-0.09-44.32-0.39-66.45 0.26-0.18 26.7 0.04 53.41-0.07 80.12-0.58-0.02-1.73-0.04-2.31-0.06-0.31-26.68-0.06-53.37-0.11-80.05-11.36-0.88-22.76 0.07-34.13-0.43-7.06-0.13-14.13 0.06-21.19-0.21 0.7-0.4 2.08-1.21 2.77-1.61 7.69-1.95 17.47 2.89 23.37-3.96 0.08 0.89 0.24 2.68 0.32 3.57 0.92-0.02 2.75-0.04 3.67-0.06 8.28-0.22 16.57-0.09 24.86-0.19 0.26-5 0.32-10 0.48-15 0.07-3.77 0.08-7.54 0.09-11.31z" fill="#051302"/>
<path d="m476.09 530.69c17.42-9.31 35.19-17.98 52.79-26.95-0.01 3.77-0.02 7.54-0.09 11.31-1.64-1.5-3-4.48-5.62-3.87-6.42 1.25-10.91 6.45-15.92 10.22 0.25 1.28 0.5 2.55 0.76 3.84-1.53 0.05-3.05 0.12-4.58 0.18 0.01 1.6 0.01 3.21 0.02 4.82-0.92 0.02-2.75 0.04-3.67 0.06-0.08-0.89-0.24-2.68-0.32-3.57-5.9 6.85-15.68 2.01-23.37 3.96z" fill="#f5fbf4"/>
<g fill="#036104">
<path d="m507.25 521.4c5.01-3.77 9.5-8.97 15.92-10.22 2.62-0.61 3.98 2.37 5.62 3.87-0.16 5-0.22 10-0.48 15-8.29 0.1-16.58-0.03-24.86 0.19-0.01-1.61-0.01-3.22-0.02-4.82 1.53-0.06 3.05-0.13 4.58-0.18-0.26-1.29-0.51-2.56-0.76-3.84z"/>
<path d="m649.03 548.82c0.72 3.54 1.9 6.97 2.84 10.46 1.49 0.7 2.97 1.41 4.46 2.13 0.82 6.22 5.23 10.76 9.58 14.87-1.18 6.48-1.88 13.02-2.28 19.6-4.52 5.82-6.74 12.95-11.27 18.78-1.54 0.68-3.08 1.36-4.6 2.05-2.45-8.7-1.67-17.79-1.65-26.71 0.76-13.72-2.36-28.05 2.92-41.18z"/>
</g>
<path d="m636.15 532.42h6.82c0.05 4.36 0.08 8.73-0.1 13.09-5.19-2.3-6.55-7.32-6.58-12.55l-0.14-0.54z" fill="#f6fbf9"/>
<path d="m645.07 546.6c1.31 0.73 2.64 1.47 3.96 2.22-5.28 13.13-2.16 27.46-2.92 41.18-0.02 8.92-0.8 18.01 1.65 26.71-0.81 1.81-1.62 3.62-2.3 5.48-1.24-25.13-0.57-50.42-0.39-75.59z" fill="#1b5017"/>
<path d="m32.47 579.24c0.41 1.42 0.7 2.88 0.69 4.38-2.08 0.1-2.21-3.48-0.69-4.38z" fill="#272727" opacity=".46"/>
<path d="m394.49 646.69c5.17-16.72 10.02-33.55 15.4-50.21-0.18 19.22 0.02 38.43-0.09 57.65-5.27-2.13-10.29-4.81-15.31-7.44z" fill="#fdfefd"/>
<path d="m572.4 633.01c0.57-2.99 5.61-2.81 6.06 0.16-2.02 0-4.05-0.07-6.06-0.16z" fill="#4a5d4d"/>
<path d="m71.53 634.26c0.42 1.74 0.63 3.54 0.6 5.36-2.18-0.29-2.04-4.15-0.6-5.36z" fill="#272727" opacity=".49"/>
<path d="m605.48 652.68c2.52 0.45 5.03 1.03 7.51 1.75 2.5-0.73 5.03-1.3 7.61-1.74 0.42 5.48-3.41 9.45-8.12 11.46-0.15 0.09-0.46 0.27-0.61 0.35l-0.18-0.06c-1.74-0.63-3.48-1.24-5.21-1.86-0.13-3.32-0.66-6.6-1-9.9z" fill="#056008"/>
<path d="m656.57 664.99c5.15-3.1 11.8-5.32 17.38-1.91 7.53 4.74 12.04 13.44 13.64 22 1.49 7.39-4.51 14.51-11.71 15.49-6.9-11.59-13.18-23.57-19.31-35.58z" fill="#fbfcfa"/>
<path d="m609.79 680.74c8.38-3.09 16.84-5.96 25.32-8.78 1.69 4.55 3.34 9.13 4.31 13.91-3-2.5-5.39-6.24-9.44-7.08-5.43-0.92-10.65 1.44-15.69 3.12-1.5-0.42-3-0.83-4.5-1.17z" fill="#0f5812"/>
<g fill="#056106">
<path d="m170.04 675.68c5.29 1.72 9.39 5.68 14.08 8.5-1.57 5.61-4.31 10.76-7.34 15.71 6.97-1.17 14.96-5.28 21.66-1.37 5.4 3.58-1.07 12.27-6.3 9.41-2.65-2.02-3.17-6.9-7.23-6.76-4.49 0.25-10.44 0.61-12.34 5.47-2.67 5.31-7 10.35-7.06 16.52 2.14 3.17 6.48 0.59 9.41 0.33-3.56 5.81-19.99 6.44-20.3-3.46 0.42-5.15 3.64-9.44 5.64-14.05-7.53 0.05-16.15 4.54-22.96-0.25-4.7-3.92 1.27-11.54 6.35-9.29 3.11 1.08 2.55 5.25 4.68 7.21 4.62 1.83 9.58-0.18 14.19-1.08 3.56-6.17 7.79-12.09 10.14-18.87 1.22-3.09-1.03-5.64-2.62-8.02z"/>
<path d="m395.62 807.69c6.39-0.67 12.49 2.38 18.68 3.62-5.53 8.86-13.06 16.32-19.45 24.56-2.2 3.24-6.26 5.89-6.05 10.21 3.6-1.04 6.65-3.26 9.74-5.31-0.69 4.93-7.13 6.72-11.09 8.69-5.49 2.76-13.63-2.74-9.86-8.9 6.35-9.48 14.91-17.35 21.26-26.84 2.14-2.66-1.7-4.38-3.23-6.03z"/>
</g>
<path d="m372.16 698.16c7.55-5.27 14.4-11.47 21.79-16.96 0.75 0.69 1.51 1.4 2.27 2.11-3.95 3.01-7.81 6.13-11.64 9.29 3.47 1.58 6.92 3.21 10.42 4.74 0.16 0.98 0.32 1.96 0.49 2.96-4.48-2.01-8.96-4-13.52-5.78-2.38 2.51-7.46 4.61-6.36 8.76 1.64 1.74 3.65 3.07 5.34 4.77-5.98-2.35-12.17-4.45-17.57-7.97 2.98-0.22 6.27 0.04 8.78-1.92z" fill="#0d5a15"/>
<path d="m396.22 683.31c0.54-0.4 1.61-1.22 2.15-1.62 0.49 5.83 0.97 11.67 1.19 17.52-1.53-0.62-3.05-1.24-4.56-1.87-3.5-1.53-6.95-3.16-10.42-4.74 3.83-3.16 7.69-6.28 11.64-9.29z" fill="#f6fdf4"/>
<path d="m626.6 685.28c3.92 7.67 6.25 16.11 8.59 24.39-3.84-4.97-9.17-9.99-15.95-6.99 0.19 0.56 0.55 1.66 0.73 2.22-0.48-1.42-0.95-2.83-1.43-4.23 7.2-1.6 8.75-9.04 8.06-15.39z" fill="#095b11"/>
<path d="m445.95 706.15c1.54-6.7 2.9-13.5 5.35-19.94 3.38 1.41 7.89 2.43 9.09 6.44 1.05 4.25-0.1 9.31-3.38 12.34-3.08 2.72-7.4 1.73-11.06 1.16z" fill="#f7fcf8"/>
<path d="m517.32 693.26c9.98-1.35 20.25-1.57 30.32-1.21-2.88 1.19-8.6 0.46-8.49 4.9 0.13 11.91 0.39 23.87 1.32 35.75 0.01 2.8 3.44 2.93 5.52 2.86 5.62-0.15 12.2 0.23 16.52-4.06 3.36-3.05 3.7-8.03 6.84-11.23 0.19 5.69-0.79 11.33-1.13 17-16.31 0.5-32.61 1.57-48.93 1.54 2.52-1.33 7.6-0.85 7.53-4.75 0.01-12.02-0.47-24.08-1.21-36.08 0.09-4.44-5.26-4.09-8.29-4.72z" fill="#036005"/>
<g fill="#f9fcf7">
<path d="m494.81 693.57c5.79-0.01 12.36 3.8 11.15 10.45 0.8 7.41-6.98 12-13.55 9.61 0.88-6.68 1.67-13.36 2.4-20.06z"/>
<path d="m553.93 857.96c0.84-2.18 4.91-2.86 5.27-0.06 2.1 8.54-1.44 19.07-10.14 22.43 0.01-7.63 0.72-15.76 4.87-22.37z"/>
</g>
<path d="m642.72 713.74c4.05-3.31 4.41-8.85 6.11-13.44 1.22 4.98 1.97 10.05 2.76 15.12-4 1.36-7.97 2.79-11.97 4.16-3.42 1.1-6.83 2.24-10.2 3.46-1.1-0.89-2.2-1.76-3.25-2.68 6.03-0.22 11.95-2.74 16.55-6.62z" fill="#085c0e"/>
<g fill="#056105">
<path d="m826.19 719.21c2.78-3.1 6.38-6.4 10.82-6.3 5.77 1.1 7.34 8.14 7 13.15-0.37 9.08-6.74 16.4-13.96 21.23 1.85 4.41 4.76 10.78 10.67 9.39 6.72-1.44 7.31-9.37 11.61-13.33 0 9.7-5.43 19.98-15.22 22.8-5.81 2.16-11.51-2.25-14.11-7.19-6.47-12.35-5.96-28.84 3.19-39.75m3.94-0.56c-5.74 7.31-2.71 17.59-0.95 25.87 8.5-5.06 9.13-20.56 0.95-25.87z"/>
<path d="m313.84 772.63c6.44-0.98 12.85 1.79 19.07 3.3-4.11 5.68-8.66 11.03-12.65 16.81 7.95-4.7 15.91-11.96 25.8-10.73 4.55 0.61 5.64 6.21 3.74 9.75-5.29 10.27-15.34 17.4-20.2 27.89 3.5-0.46 6.13-3.2 9.62-3.65-3.36 4.69-9.43 7.81-15.22 7.68-4.04 0.16-7.36-4.4-5.37-8.09 5.26-9.99 15.21-17.04 19.61-27.43-8.2-0.51-14.79 5.59-21.01 10.09-5.93 4.2-9.35 10.77-14.05 16.14-3.37-1.46-6.75-2.89-10.06-4.46 7.97-11.53 18.36-21.47 24.89-33.9-1.4-1.13-2.8-2.26-4.17-3.4z"/>
</g>
<path d="m178 729.02c7.81-10.51 21.57-17.21 34.69-14.6 4.89 1.14 10.37 4.2 11.4 9.52 1.16 6.57-6.34 12.54-12.41 9.34-3.01-5.95 2.64-9.99 8.09-9.99 0.69-4.68-5.15-6.12-8.7-5.19-8.91 1.85-16.71 7.69-22.1 14.89-2.63 3.33-4.11 8.6-1.22 12.22 3.85 4.11 10.02 3.59 15.15 3.21-0.15 0.47-0.45 1.42-0.59 1.89-8.15 2.58-18.37 2.71-24.55-4.1-4.6-4.73-3.38-12.27 0.24-17.19z" fill="#065f08"/>
<path d="m830.13 718.65c8.18 5.31 7.55 20.81-0.95 25.87-1.76-8.28-4.79-18.56 0.95-25.87z" fill="#f8fbf7"/>
<g fill="#066106">
<path d="m272.85 727.61c6.32 0.77 12.37 2.9 18.39 4.89-11.05 13.77-23.29 26.56-34.79 39.96-3.13 3.81-7.39 7.05-8.75 12 3.85-0.1 7.07-2.32 10.55-3.67-2.08 4.52-7.83 5.82-12.21 7.18-5.61 1.97-12.32-4.82-8.11-10 12-14.62 25.1-28.32 37.23-42.83 2.97-2.61-0.79-5.33-2.31-7.53z"/>
<path d="m614.18 815.22c-8.08 4.79-16.12-8.62-8.07-13.12 7.64-3.17 12.65 7.51 8.07 13.12z"/>
</g>
<g fill="#065f07">
<path d="m208.69 752.66c8.42-13.51 26.68-21.65 41.91-15.26 5.02 1.52 7.43 7.82 3.72 11.9-7.55 9.77-21.98 8.78-31.97 3.59-2.68 3.69-6.49 8.57-3.49 13.19 4.24 5.24 11.66 3.79 17.52 3.24-6.49 6.64-19.28 5.58-26.28-0.41-5.3-3.71-4.46-11.36-1.41-16.25m15.66-1.68c8.66 3.89 18.95-1.47 23.13-9.34 1.08-3.35-3.23-3.76-5.46-2.82-6.84 2.33-12.75 6.95-17.67 12.16z"/>
<path d="m264.47 779.42c7.75-13.06 24.61-22.11 39.56-16.44 5.1 1.42 5.98 8.12 2.76 11.79-6.81 9.55-20.29 10.36-30.51 6.53-2.26 4.05-5.62 9.87-1.41 13.83 5.01 4.27 11.86 1.62 17.61 0.83-7.01 7.82-21.4 8.13-28.96 0.58-4.06-4.95-2.18-12.18 0.95-17.12m30.8-15.11c-7.23 2.8-12.63 8.85-17.38 14.77 8.94 2.91 18.07-3.54 21.63-11.5 1.36-2.67-2.08-4.38-4.25-3.27z"/>
</g>
<path d="m295.27 764.31c2.17-1.11 5.61 0.6 4.25 3.27-3.56 7.96-12.69 14.41-21.63 11.5 4.75-5.92 10.15-11.97 17.38-14.77z" fill="#f9fbf6"/>
<path d="m416.23 789.17c3.59-2.05 8.18 1.09 8.33 5.01 0.84 5.15-4.9 11.31-10.04 8.27-5.11-2.85-3.27-11.25 1.71-13.28z" fill="#075f09"/>
<path d="m638.62 798.51c0.54-0.12 1.61-0.37 2.14-0.5 0.97 4.34 1.65 8.73 2.36 13.12 1.55-0.44 3.11-0.89 4.67-1.32 0.32 1.85 0.64 3.71 0.96 5.58-1.49 0.69-2.98 1.39-4.45 2.11 2.86 11.84 2.65 24.74 7.66 35.85 2.24-3.2 2.46-7.23 4.13-10.69 1.62 5.98-0.61 13.08-5.51 16.93-3.38 2.71-9.02 1.23-9.93-3.23-3.1-11.13-4.07-22.74-6.33-34.06-1.74 0.62-3.47 1.27-5.21 1.88-0.17-0.84-0.53-2.52-0.7-3.36 5.47-6.31 8.57-14.2 10.21-22.31z" fill="#046106"/>
<path d="m671.17 801.27c3.38 0.15 4.53 4.24 5.7 6.85 2.8 8.97 3.27 19.03 0.32 28.02-0.56 2.94-4.44 2.54-5.35 0.07-4.09-8.37-4.48-18.04-4.23-27.18 0.4-2.7 0.46-6.75 3.56-7.76z" fill="#fafcfa"/>
<path d="m423.93 835.92c4.14-3.79 8.19-8.73 14.09-9.46 3.16 1.22 1.74 5.07 0.81 7.38-3.94 8.23-11 14.53-18.55 19.42-2.05 1.46-4.6 1.65-7.03 1.52-0.58-7.74 5.93-13.57 10.68-18.86z" fill="#f8faf7"/>
<path d="m524.67 838.21c5.25-2.8 11.12-4.22 16.86-5.67-6.75 10.17-8.89 22.42-13.28 33.65-0.86-0.91-1.72-1.82-2.57-2.71 1.89-6.78 5.38-13.38 5.45-20.51 0.06-3.6-3.96-3.79-6.46-4.76z" fill="#0b5a0e"/>
</svg>
