<?xml version="1.0" standalone="no"?>
<!DOCTYPE svg PUBLIC "-//W3C//DTD SVG 20010904//EN"
 "http://www.w3.org/TR/2001/REC-SVG-20010904/DTD/svg10.dtd">
<svg version="1.0" xmlns="http://www.w3.org/2000/svg"
 width="900.000000pt" height="900.000000pt" viewBox="0 0 900.000000 900.000000"
 preserveAspectRatio="xMidYMid meet">
<metadata>
Created by potrace 1.10, written by Peter Selinger 2001-2011
</metadata>
<g transform="translate(0.000000,900.000000) scale(0.100000,-0.100000)"
fill="#000000" stroke="none">
<path d="M3970 8765 c-36 -8 -83 -14 -105 -14 -22 -1 -69 -7 -105 -15 -36 -8
-101 -22 -145 -31 -44 -9 -98 -21 -120 -26 -22 -6 -58 -14 -80 -19 -22 -4 -53
-12 -70 -18 -16 -6 -57 -18 -90 -27 -33 -10 -76 -23 -95 -30 -85 -30 -107 -37
-135 -44 -17 -4 -39 -13 -50 -18 -11 -6 -40 -19 -65 -28 -102 -38 -369 -163
-460 -215 -8 -5 -22 -11 -30 -14 -8 -4 -28 -15 -45 -26 -16 -11 -40 -24 -52
-29 -11 -5 -24 -15 -28 -20 -3 -6 -15 -11 -25 -11 -10 0 -23 -6 -27 -12 -8
-13 -36 -33 -63 -45 -8 -3 -31 -19 -51 -35 -20 -15 -40 -28 -44 -28 -3 0 -33
-20 -65 -45 -32 -25 -61 -45 -63 -45 -3 0 -16 -9 -29 -20 -12 -11 -72 -58
-133 -106 -123 -97 -269 -229 -391 -355 -124 -128 -147 -154 -255 -289 -55
-69 -108 -136 -119 -148 -11 -13 -20 -26 -20 -29 0 -2 -20 -31 -45 -63 -25
-32 -45 -62 -45 -65 0 -4 -12 -24 -27 -44 -37 -48 -52 -72 -59 -93 -3 -9 -12
-19 -20 -22 -8 -3 -14 -12 -14 -20 0 -8 -12 -32 -26 -53 -14 -21 -30 -47 -35
-58 -5 -11 -13 -28 -19 -37 -17 -30 -26 -49 -81 -158 -28 -58 -55 -112 -60
-120 -5 -8 -12 -22 -15 -30 -3 -8 -13 -31 -22 -50 -21 -47 -37 -86 -57 -140
-9 -25 -22 -54 -28 -65 -5 -11 -14 -33 -18 -50 -7 -28 -14 -50 -44 -135 -7
-19 -20 -62 -30 -95 -9 -33 -21 -73 -27 -90 -6 -16 -14 -48 -18 -70 -4 -22
-12 -53 -19 -68 -6 -16 -11 -46 -11 -68 0 -22 -6 -52 -14 -67 -7 -15 -16 -57
-19 -94 -4 -38 -11 -77 -17 -87 -5 -11 -10 -44 -10 -73 -1 -29 -7 -80 -15
-113 -21 -88 -21 -922 0 -1010 8 -33 15 -82 15 -110 0 -27 7 -68 15 -90 8 -22
14 -62 15 -90 0 -27 7 -61 15 -75 8 -14 14 -44 15 -68 0 -23 7 -59 15 -79 8
-19 15 -45 15 -56 0 -12 6 -39 14 -62 7 -22 21 -67 31 -100 9 -33 23 -75 31
-93 8 -18 14 -43 14 -55 0 -12 7 -31 15 -41 8 -11 15 -28 15 -39 0 -10 6 -31
14 -45 8 -15 21 -47 31 -72 24 -63 37 -95 74 -175 18 -38 40 -86 48 -105 8
-19 19 -42 24 -50 5 -8 20 -37 34 -65 31 -61 39 -74 53 -100 7 -11 16 -29 21
-40 5 -11 21 -37 35 -58 14 -21 26 -44 26 -52 0 -8 6 -18 12 -22 13 -8 33 -36
45 -63 3 -8 19 -31 35 -51 15 -20 28 -40 28 -44 0 -3 20 -33 45 -65 25 -32 45
-61 45 -63 0 -3 9 -16 20 -29 11 -12 64 -79 119 -148 102 -128 121 -150 245
-280 119 -124 301 -290 406 -370 25 -19 47 -37 50 -41 8 -11 100 -79 106 -79
3 0 31 -19 62 -43 69 -52 205 -141 287 -188 33 -19 69 -39 80 -46 11 -6 56
-30 100 -53 44 -23 87 -45 95 -50 15 -9 132 -62 185 -85 17 -7 46 -20 65 -28
19 -8 55 -23 80 -32 25 -9 58 -23 73 -31 16 -8 36 -14 46 -14 9 0 26 -7 37
-15 10 -8 29 -15 42 -15 13 0 33 -5 45 -12 12 -6 35 -15 52 -19 16 -4 62 -18
100 -29 39 -12 88 -25 110 -30 22 -5 58 -13 80 -19 108 -27 135 -32 195 -41
36 -5 78 -14 94 -19 15 -6 47 -11 71 -11 24 0 79 -7 122 -15 113 -22 913 -22
1026 0 43 8 95 15 115 15 21 0 66 6 102 14 36 8 101 22 145 31 44 9 98 21 120
26 22 6 58 14 80 19 22 4 54 12 70 18 17 6 57 18 90 27 33 9 75 23 93 31 18 8
43 14 55 14 12 0 31 7 41 15 11 8 28 15 37 15 10 0 30 6 46 14 15 8 48 22 73
31 73 27 108 42 245 105 39 17 78 36 88 41 10 6 54 29 98 52 44 23 88 47 97
52 9 6 44 25 77 44 82 47 218 136 287 188 31 24 59 43 62 43 10 0 153 113 271
215 134 116 248 227 399 390 21 22 82 96 137 165 55 69 108 136 119 148 11 13
20 26 20 29 0 2 20 31 45 63 25 32 45 62 45 65 0 4 12 24 28 44 36 48 51 72
58 93 3 9 12 19 20 22 8 3 14 14 14 25 0 11 5 23 11 26 5 4 15 17 20 28 5 12
18 36 29 52 11 17 22 37 26 45 3 8 9 22 14 30 5 8 32 62 61 120 28 58 55 112
60 120 5 8 12 22 15 30 3 8 12 30 20 47 25 57 42 97 59 143 10 25 23 57 31 72
8 14 14 35 14 45 0 11 7 28 15 39 8 10 15 29 15 41 0 12 6 37 14 55 8 18 22
60 31 93 9 33 21 74 27 90 6 17 14 48 18 70 4 22 12 53 19 68 6 16 11 47 11
70 1 23 7 53 15 67 8 14 15 48 15 75 1 28 7 68 15 90 8 22 15 63 15 90 0 28 7
77 15 110 22 88 21 909 0 1010 -8 38 -15 92 -15 118 0 27 -5 57 -10 68 -6 10
-13 49 -17 87 -3 37 -12 79 -19 94 -8 15 -14 45 -14 67 0 22 -5 52 -11 68 -7
15 -15 46 -19 68 -4 22 -12 54 -18 70 -6 17 -18 57 -27 90 -10 33 -23 76 -30
95 -30 85 -37 107 -44 135 -4 17 -13 39 -18 50 -6 11 -19 40 -28 65 -27 73
-72 176 -86 200 -5 8 -12 22 -15 30 -9 24 -111 227 -134 268 -6 9 -14 26 -19
37 -5 11 -21 37 -35 58 -14 21 -26 45 -26 53 0 8 -6 17 -14 20 -8 3 -17 13
-20 22 -7 21 -22 45 -58 93 -16 20 -28 40 -28 44 0 3 -20 33 -45 65 -25 32
-45 61 -45 63 0 3 -9 16 -20 29 -11 12 -58 73 -106 133 -190 241 -461 509
-689 682 -55 42 -105 82 -111 90 -6 7 -14 13 -18 13 -4 0 -34 20 -66 45 -32
25 -62 45 -65 45 -4 0 -24 12 -44 28 -48 36 -72 51 -93 58 -9 3 -19 12 -22 20
-3 8 -14 14 -25 14 -11 0 -23 5 -26 11 -4 5 -17 15 -28 20 -12 5 -35 18 -52
29 -16 11 -37 22 -45 26 -8 3 -22 9 -30 14 -27 16 -224 113 -290 143 -75 35
-108 49 -170 72 -25 10 -57 23 -72 31 -14 8 -33 14 -42 14 -8 0 -30 6 -48 14
-40 16 -92 35 -133 46 -16 5 -61 19 -100 30 -38 12 -88 25 -110 30 -22 5 -59
13 -82 19 -104 26 -132 32 -193 41 -36 5 -78 14 -94 19 -15 6 -47 11 -71 11
-24 0 -79 7 -122 15 -107 20 -933 20 -1033 0z m935 -83 c77 -6 163 -15 190
-20 28 -6 97 -18 155 -27 58 -9 125 -23 149 -31 25 -8 54 -14 65 -14 12 0 41
-6 66 -14 69 -22 188 -56 254 -72 33 -8 65 -18 70 -23 6 -5 22 -12 36 -16 27
-7 134 -48 190 -72 19 -8 49 -21 65 -28 119 -50 403 -195 515 -263 25 -15 60
-36 79 -47 62 -37 212 -141 282 -197 19 -15 73 -57 120 -95 237 -188 569 -531
714 -738 17 -23 60 -85 96 -136 64 -90 135 -202 207 -327 63 -110 221 -438
257 -537 21 -55 46 -122 57 -150 10 -27 23 -68 28 -90 4 -22 19 -71 33 -110
36 -104 76 -289 126 -575 49 -284 50 -938 1 -1211 -18 -99 -39 -220 -45 -260
-3 -19 -17 -69 -31 -110 -14 -41 -29 -101 -34 -134 -9 -75 -59 -239 -101 -331
-11 -23 -19 -51 -19 -62 0 -11 -4 -23 -9 -26 -5 -3 -16 -29 -25 -58 -10 -29
-67 -154 -128 -278 -97 -198 -126 -252 -197 -360 -9 -14 -23 -37 -30 -52 -8
-15 -22 -37 -33 -47 -10 -11 -18 -22 -18 -25 0 -10 -140 -204 -195 -270 -100
-121 -171 -204 -207 -241 -21 -22 -69 -72 -106 -110 -80 -84 -247 -236 -352
-321 -105 -84 -418 -304 -434 -304 -2 0 -31 -17 -63 -38 -125 -83 -439 -234
-638 -307 -71 -26 -139 -51 -150 -56 -11 -4 -47 -17 -80 -27 -54 -17 -94 -29
-215 -63 -19 -5 -55 -14 -80 -19 -25 -5 -90 -19 -145 -30 -55 -12 -129 -25
-165 -30 -36 -5 -96 -14 -135 -19 -261 -38 -892 -36 -1120 4 -44 8 -125 21
-180 31 -93 15 -130 23 -245 54 -25 6 -70 18 -100 25 -100 25 -125 32 -150 43
-14 6 -50 18 -80 27 -57 16 -74 22 -200 73 -154 61 -177 72 -280 122 -168 83
-291 148 -334 177 -23 15 -57 36 -76 47 -19 10 -62 38 -95 61 -33 23 -100 70
-150 105 -49 34 -97 69 -105 76 -8 8 -58 49 -110 92 -160 131 -301 266 -449
432 -52 58 -101 116 -110 130 -9 13 -31 40 -49 60 -18 19 -47 55 -64 80 -17
25 -48 65 -67 90 -20 25 -45 61 -55 80 -11 19 -36 58 -56 85 -20 28 -47 70
-60 95 -14 25 -30 52 -37 60 -15 19 -210 405 -237 470 -10 25 -24 59 -32 75
-25 58 -73 191 -89 245 -9 30 -20 69 -26 85 -56 167 -98 339 -124 515 -9 58
-22 134 -30 170 -15 69 -21 155 -31 440 -7 179 10 586 27 670 5 25 13 74 18
110 11 82 30 180 47 247 8 28 14 62 14 75 0 12 18 84 41 158 22 74 46 155 53
180 25 82 58 174 86 240 16 36 38 90 50 120 47 116 257 509 323 605 12 17 43
62 70 100 117 170 136 197 173 242 21 26 46 55 55 63 8 9 22 26 30 38 15 20
140 156 252 275 31 31 60 57 65 57 5 0 12 6 15 14 6 15 283 256 295 256 4 0
18 10 32 23 14 12 41 34 60 47 19 13 40 28 45 32 47 38 105 78 112 78 5 0 24
13 43 28 89 72 468 275 675 361 44 18 89 37 100 42 26 11 93 34 175 61 36 11
81 26 100 33 45 17 116 36 315 85 28 7 73 16 100 20 111 17 193 31 240 42 139
32 701 42 1010 20z"/>
<path d="M4885 8490 c3 -5 15 -10 25 -10 10 0 22 5 25 10 4 6 -7 10 -25 10
-18 0 -29 -4 -25 -10z"/>
<path d="M4408 8470 c-22 -17 -26 -29 -31 -111 -10 -129 -22 -136 -42 -22
l-11 68 -8 -80 c-4 -44 -11 -87 -15 -94 -13 -21 -31 -4 -31 29 0 29 -26 53
-52 48 -8 -2 -15 16 -19 52 -6 45 -13 60 -43 87 -42 39 -58 40 -111 10 -32
-18 -41 -29 -43 -55 -4 -38 -17 -42 -26 -7 -8 33 -37 39 -165 32 -72 -4 -133
-13 -186 -30 -44 -14 -106 -30 -137 -37 -47 -9 -61 -17 -75 -40 -15 -27 -20
-29 -60 -23 -46 6 -83 -6 -115 -39 -21 -20 -24 -98 -6 -131 7 -12 15 -44 19
-72 9 -60 28 -134 40 -155 26 -43 31 -61 25 -84 -8 -33 -30 -33 -101 0 -43 21
-57 33 -64 58 -5 17 -12 39 -16 49 -5 13 -3 16 8 12 8 -4 17 0 20 8 7 18 -8
41 -22 33 -13 -9 -51 29 -51 52 0 49 -22 93 -60 118 -33 22 -44 24 -82 17 -37
-7 -43 -12 -46 -35 -3 -27 -3 -27 27 -12 51 25 74 16 89 -36 7 -25 17 -53 23
-62 5 -10 9 -26 9 -36 0 -10 7 -27 15 -38 8 -10 15 -27 15 -37 0 -11 6 -33 14
-50 8 -18 24 -58 37 -89 27 -69 54 -97 100 -104 60 -10 116 12 149 58 33 45
41 107 16 127 -8 7 -17 27 -20 45 -6 31 -23 75 -47 118 -5 10 -9 24 -9 32 0
15 -32 95 -56 138 -23 43 -18 56 27 68 22 6 45 10 51 8 11 -4 38 -73 38 -98 0
-8 7 -27 14 -42 8 -16 25 -58 37 -95 12 -38 26 -72 31 -77 4 -6 8 -19 8 -31 0
-12 7 -30 15 -41 21 -28 19 -108 -5 -152 -31 -58 -51 -78 -115 -113 -52 -28
-69 -32 -123 -30 -48 1 -73 8 -103 26 -38 24 -80 79 -91 120 -4 11 -16 45 -28
75 -12 30 -26 69 -31 87 -5 18 -14 35 -19 38 -6 4 -10 13 -10 22 0 13 -19 63
-39 102 -15 29 -31 23 -31 -12 0 -40 -8 -51 -27 -35 -10 8 -17 7 -27 -7 -14
-20 -56 -13 -56 10 0 11 -17 13 -87 8 -96 -6 -226 -50 -252 -84 -7 -11 -20
-19 -27 -19 -9 0 -14 -11 -14 -29 0 -16 -7 -34 -15 -41 -8 -7 -22 -36 -30 -64
-25 -83 -22 -81 -137 -81 -93 -1 -108 -4 -160 -30 -65 -33 -136 -95 -130 -114
7 -21 -9 -122 -18 -116 -16 10 -23 -18 -8 -29 8 -6 17 -28 21 -48 7 -43 71
-108 121 -122 40 -11 114 -13 149 -2 18 5 27 5 27 -3 0 -6 -9 -11 -20 -11 -10
0 -35 -14 -55 -31 -52 -46 -46 -92 19 -161 35 -37 36 -38 111 -38 44 0 91 6
108 14 18 7 46 19 63 26 17 6 36 22 42 36 7 13 18 24 26 24 9 0 20 17 27 40 7
22 18 45 26 51 7 6 13 22 13 34 0 33 23 49 48 34 16 -10 23 -10 36 0 9 8 16
19 16 26 0 8 22 15 60 19 33 4 72 13 87 21 16 8 38 15 51 15 12 0 22 4 22 8 0
5 11 14 25 20 13 6 31 26 38 44 8 18 24 42 36 52 14 13 21 31 21 55 0 73 22
108 33 52 7 -36 30 -45 73 -29 30 11 37 10 64 -10 28 -21 31 -22 55 -6 18 12
35 14 65 9 37 -6 42 -5 47 14 4 14 13 21 30 21 29 0 123 86 123 112 0 9 8 24
17 34 24 24 24 156 0 199 -9 17 -17 41 -17 54 0 13 -5 41 -12 62 -10 35 -9 42
10 62 12 13 22 31 22 40 0 21 -1 21 -36 3 -35 -19 -44 -13 -44 31 0 34 1 35
28 29 15 -4 41 -10 57 -13 43 -8 95 -60 95 -95 0 -20 -5 -28 -17 -29 -15 0
-14 -2 3 -9 25 -10 54 -77 54 -124 0 -18 7 -55 15 -82 8 -27 15 -59 15 -71 0
-16 12 -29 42 -44 35 -18 47 -20 78 -10 20 6 47 22 60 36 25 27 25 38 -11 265
-6 36 -9 105 -7 155 3 87 4 90 29 99 15 5 34 6 44 2 14 -5 15 -9 5 -21 -18
-22 17 -97 41 -90 21 7 26 -20 40 -190 5 -71 14 -140 19 -153 10 -22 63 -52
93 -52 8 0 31 15 52 34 34 31 38 41 44 99 9 86 19 97 89 94 l57 -3 11 -68 c10
-61 16 -73 49 -103 38 -34 79 -42 114 -23 14 7 30 4 62 -12 37 -18 70 -22 199
-28 85 -4 168 -12 183 -19 51 -20 99 -14 137 19 19 16 47 29 61 30 15 0 29 7
33 15 3 8 14 15 25 15 16 0 20 -8 23 -37 3 -32 7 -38 27 -38 16 0 38 -17 67
-49 39 -45 47 -49 96 -54 38 -4 66 -14 102 -39 26 -18 52 -33 56 -33 4 0 10
-8 13 -19 3 -13 18 -20 52 -26 27 -3 58 -13 69 -20 14 -10 26 -11 36 -5 8 5
33 10 55 10 51 0 121 53 146 110 11 24 25 40 35 40 12 0 15 5 9 23 -23 76 -23
87 -3 112 15 19 17 29 9 44 -6 11 -16 21 -23 24 -7 2 6 12 30 22 63 26 77 59
62 144 -26 140 -104 202 -266 209 -85 4 -162 -13 -176 -39 -32 -63 -48 -111
-48 -145 0 -54 -11 -69 -39 -55 -25 14 -27 41 -5 83 13 24 14 36 5 55 -16 34
-35 24 -39 -20 -4 -42 -28 -69 -43 -46 -5 8 -9 54 -9 102 0 93 -14 144 -52
184 -17 18 -32 23 -75 23 -45 0 -55 -4 -69 -25 -9 -14 -22 -25 -28 -25 -21 0
-106 -121 -106 -150 0 -11 -6 -20 -13 -20 -20 0 -47 -33 -47 -58 0 -11 -4 -24
-10 -27 -16 -10 -50 14 -50 36 0 22 -29 81 -42 87 -5 2 -8 12 -8 22 0 10 -4
22 -10 25 -19 12 -9 22 46 44 76 32 94 77 52 125 -18 20 -41 29 -103 41 -44 8
-94 15 -112 15 -17 0 -35 5 -38 10 -3 6 -34 10 -68 10 -67 0 -116 -22 -137
-59 -14 -27 -36 -27 -51 2 -7 12 -22 32 -33 44 -27 30 -93 31 -128 3z m101
-19 c10 -6 13 -40 12 -147 -1 -77 4 -197 10 -269 7 -71 13 -148 13 -170 l1
-40 -42 -2 c-23 -2 -44 1 -47 6 -3 5 -7 66 -8 135 -3 104 -6 126 -18 127 -70
4 -257 -4 -264 -11 -6 -6 -5 -56 1 -127 5 -65 7 -124 5 -131 -3 -9 -20 -12
-51 -10 l-46 3 -7 235 c-3 129 -12 258 -18 286 -19 76 -13 88 41 92 l46 3 9
-138 9 -138 90 4 c50 2 110 5 135 6 l45 2 -3 141 -2 141 27 4 c16 2 33 5 38 5
6 1 16 -2 24 -7z m375 -42 c16 -5 57 -9 92 -9 34 0 69 -3 78 -6 18 -7 21 -41
6 -64 -10 -17 -86 -16 -190 2 -111 18 -104 22 -111 -52 -3 -36 -9 -77 -13 -92
l-8 -26 84 -6 c45 -4 105 -7 133 -9 l49 -2 -3 -48 c-2 -37 2 -52 15 -61 23
-17 12 -44 -21 -52 -18 -4 -32 -1 -42 9 -14 13 -13 16 6 26 11 7 21 15 21 19
0 19 -224 62 -240 46 -4 -5 -10 -52 -12 -104 l-3 -95 85 -7 c155 -11 187 -18
198 -42 8 -19 11 -17 36 29 26 49 43 78 59 99 23 31 137 209 137 213 0 4 11
20 23 37 13 17 36 53 52 79 26 45 30 48 59 41 17 -3 35 -9 39 -14 4 -4 10 -47
13 -96 2 -49 9 -102 13 -119 5 -16 12 -70 16 -120 3 -49 10 -106 15 -125 4
-19 11 -70 15 -112 6 -75 6 -78 -15 -78 -11 0 -34 7 -50 15 -29 15 -30 18 -30
89 0 47 -5 77 -12 84 -7 5 -39 13 -71 17 -32 3 -74 13 -94 21 -45 19 -44 20
-102 -90 -25 -47 -38 -54 -70 -37 -17 9 -166 27 -336 40 -78 6 -80 7 -78 31 2
14 7 79 13 145 5 66 14 154 19 195 6 41 10 111 11 156 0 44 3 84 7 87 8 9 170
-2 207 -14z m-959 -49 c0 -31 -3 -35 -40 -46 -22 -7 -62 -13 -88 -13 -59 -1
-65 -13 -44 -89 19 -69 34 -134 52 -227 7 -38 21 -95 30 -125 29 -92 26 -103
-20 -112 -33 -5 -43 -3 -57 14 -10 11 -18 37 -18 57 -1 20 -12 86 -26 146 -27
119 -27 116 -45 224 -7 40 -18 75 -24 77 -6 3 -39 -5 -74 -16 -87 -28 -119
-26 -131 5 -14 37 -3 52 43 59 23 3 76 13 117 21 41 9 100 20 130 26 30 5 73
16 95 24 22 8 54 13 70 12 27 -2 30 -5 30 -37z m74 -158 c1 -23 -3 -32 -11
-30 -16 6 -22 42 -13 77 7 24 8 25 15 6 5 -11 9 -35 9 -53z m953 -4 c-8 -8
-17 -8 -34 0 -22 10 -21 11 12 11 26 1 31 -2 22 -11z m990 -36 c18 -10 42 -24
53 -32 51 -37 87 -148 66 -203 -11 -29 -38 -36 -47 -13 -3 8 -16 17 -30 20
-25 7 -31 20 -14 31 30 19 -14 101 -70 130 -48 25 -88 19 -121 -16 -52 -56
-37 -85 118 -219 54 -47 76 -95 71 -154 -2 -29 -10 -59 -16 -67 -7 -8 -21 -25
-32 -38 -14 -17 -39 -28 -80 -37 -51 -10 -67 -10 -115 5 -104 32 -185 125
-185 210 0 50 22 66 69 50 30 -11 32 -13 26 -53 -6 -34 -3 -46 18 -69 40 -47
78 -67 127 -67 64 1 90 25 90 83 0 43 -3 48 -57 94 -120 102 -153 148 -153
215 0 61 64 142 119 151 44 8 127 -3 163 -21z m-402 -208 c0 -21 -4 -33 -10
-29 -5 3 -10 19 -10 36 0 16 5 29 10 29 6 0 10 -16 10 -36z m-596 0 c8 -21 -1
-34 -22 -34 -27 0 -45 17 -39 34 8 21 53 21 61 0z m-2212 -4 c47 -13 130 -89
158 -143 12 -23 33 -62 47 -87 23 -39 27 -57 27 -135 1 -88 0 -91 -34 -137
-44 -59 -136 -108 -202 -108 -44 0 -121 32 -161 68 -23 21 -76 101 -121 185
-44 83 -49 151 -14 219 28 56 45 75 93 106 63 40 136 51 207 32z m2908 -39
c18 -34 11 -38 -35 -21 -23 9 -25 13 -15 25 17 21 37 19 50 -4z m-300 -120 c0
-25 -20 -38 -31 -20 -15 23 -10 39 11 39 13 0 20 -7 20 -19z m-3060 -164 c54
-27 64 -57 28 -87 -31 -26 -52 -25 -82 5 -14 14 -36 25 -49 25 -35 0 -108 -53
-124 -90 -12 -29 -11 -37 4 -69 17 -34 21 -36 75 -39 42 -2 66 2 95 18 21 11
45 20 55 20 9 0 20 5 23 10 3 6 29 10 56 10 60 0 116 -32 154 -87 46 -69 29
-141 -53 -220 -105 -100 -212 -111 -304 -33 -25 21 -22 32 15 58 41 27 49 27
72 2 36 -39 130 -17 180 42 55 65 17 148 -67 148 -34 0 -98 -21 -150 -50 -10
-6 -49 -10 -87 -10 -67 0 -70 1 -110 41 -23 23 -44 53 -47 66 -11 44 2 110 31
150 75 105 186 140 285 90z m118 -134 c2 -8 -6 -13 -22 -13 -17 0 -26 5 -26
16 0 19 41 16 48 -3z"/>
<path d="M5322 8160 c-12 -16 -22 -33 -22 -39 0 -12 -69 -115 -81 -119 -38
-14 72 -62 141 -62 19 0 21 4 15 28 -4 15 -10 68 -12 117 -2 50 -8 93 -12 98
-4 4 -17 -6 -29 -23z"/>
<path d="M2588 7862 c-93 -44 -108 -135 -42 -262 22 -41 60 -96 86 -122 44
-46 49 -48 100 -48 76 0 124 36 149 113 10 30 10 45 -1 80 -8 23 -20 49 -27
58 -7 8 -13 18 -13 22 0 3 -18 33 -40 66 -68 103 -132 131 -212 93z m117 -62
c3 -5 0 -18 -7 -29 -10 -17 -9 -24 12 -46 13 -14 32 -25 42 -25 38 0 56 -104
23 -140 -22 -24 -39 -25 -85 -2 -23 11 -34 23 -32 34 4 18 -8 30 -56 59 -36
21 -38 42 -4 47 14 2 30 21 48 58 25 51 45 66 59 44z m70 -289 c3 -5 1 -12 -5
-16 -14 -9 -52 4 -45 16 8 12 42 12 50 0z"/>
<path d="M6170 8077 c-20 -10 -26 -23 -32 -67 -7 -57 7 -90 39 -90 7 0 23 -20
35 -45 l22 -45 -22 -30 c-12 -16 -22 -36 -22 -43 0 -8 -9 -26 -20 -40 -11 -14
-20 -33 -20 -44 0 -10 -9 -31 -20 -48 -32 -49 -37 -58 -49 -96 -15 -49 -14
-121 3 -145 8 -11 33 -27 57 -34 39 -13 42 -13 59 8 10 12 25 22 34 22 9 0 22
16 30 35 8 19 19 35 24 35 4 0 16 23 26 50 15 42 22 50 39 48 15 -2 23 3 25
17 2 11 11 27 19 37 12 13 12 20 2 36 -19 30 -4 55 29 49 37 -7 62 9 62 38 0
31 19 32 51 5 l24 -21 -22 -15 c-21 -15 -22 -18 -7 -46 20 -38 13 -54 -26 -62
-28 -5 -31 -9 -26 -30 5 -20 -4 -36 -54 -87 -43 -44 -60 -70 -60 -89 0 -14 -7
-35 -15 -46 -8 -10 -15 -40 -15 -66 0 -39 6 -54 38 -92 20 -25 45 -48 55 -51
9 -4 17 -15 17 -26 0 -19 22 -33 70 -43 29 -6 132 -83 162 -121 21 -27 58 -34
58 -12 0 8 -9 22 -20 32 -11 10 -20 23 -20 29 0 6 90 103 200 215 110 112 200
208 200 213 0 25 39 -2 116 -82 113 -117 128 -141 128 -210 1 -46 -4 -62 -29
-94 -37 -48 -98 -76 -139 -65 -38 11 -43 5 -29 -32 11 -27 9 -36 -12 -69 -13
-21 -40 -53 -59 -72 -19 -18 -38 -49 -43 -68 -12 -48 -41 -51 -70 -7 -13 18
-23 41 -23 50 0 9 29 46 65 83 86 89 87 109 8 193 -52 56 -86 75 -95 52 -1 -5
-36 -43 -75 -85 -40 -42 -73 -80 -73 -86 0 -5 17 -10 38 -10 33 0 39 4 49 30
17 46 48 40 73 -15 l20 -44 -26 -26 c-15 -15 -23 -32 -20 -41 3 -9 6 -35 6
-58 0 -34 7 -51 36 -85 21 -23 48 -47 60 -52 13 -4 24 -15 24 -22 0 -15 68
-67 88 -67 7 0 30 9 52 20 43 22 51 18 87 -36 14 -22 13 -27 -11 -76 -29 -59
-32 -84 -12 -122 22 -42 57 -64 113 -67 40 -3 55 0 73 16 12 11 34 20 48 20
20 0 31 9 46 38 17 33 23 37 47 32 25 -6 59 14 59 33 0 14 85 99 118 118 17
10 32 22 32 27 0 4 16 15 36 23 29 12 35 19 30 37 -3 11 0 27 6 34 7 9 7 13
-1 13 -6 0 -11 14 -11 30 0 43 -48 71 -115 68 -43 -3 -50 -6 -53 -25 -2 -13
-8 -23 -13 -23 -12 0 -12 37 1 45 19 12 10 24 -22 27 -31 3 -33 6 -31 37 1 36
32 76 40 54 3 -7 9 -13 14 -13 11 0 12 37 0 44 -4 3 -11 21 -14 41 -3 19 -22
55 -43 80 -38 47 -72 57 -115 35 -16 -9 -19 -7 -19 11 0 19 -4 21 -30 16 -30
-6 -30 -6 -30 37 0 50 -18 108 -37 119 -7 4 -13 23 -13 41 0 28 -5 36 -30 46
-18 7 -30 20 -30 31 0 10 -12 26 -27 36 -16 10 -34 26 -41 35 -7 10 -21 18
-31 18 -10 0 -30 9 -44 20 -18 14 -34 19 -51 14 -28 -7 -27 -9 -30 83 -1 12
-8 28 -17 35 -8 7 -23 25 -32 40 -10 16 -27 28 -44 30 -22 2 -29 9 -31 31 -3
23 -7 26 -27 21 -30 -7 -65 11 -65 35 0 14 -10 20 -45 25 -24 4 -47 11 -50 17
-4 5 -18 9 -33 9 -23 0 -31 8 -47 43 -14 29 -29 45 -50 52 -57 20 -96 55 -61
55 20 0 31 19 18 32 -8 8 -19 6 -37 -6 -28 -18 -55 -15 -75 9 -9 11 -10 18 -1
29 9 10 8 15 -4 20 -8 3 -22 3 -30 0 -8 -3 -26 4 -41 15 -15 12 -35 21 -44 21
-10 0 -34 7 -53 15 -44 18 -93 19 -127 2z m97 -42 c27 -19 53 -39 58 -43 6 -5
33 -19 60 -33 28 -13 52 -27 55 -30 3 -4 46 -28 97 -54 50 -25 94 -52 96 -58
2 -7 0 -24 -6 -39 -10 -32 -46 -38 -67 -13 -21 25 -129 87 -140 80 -5 -3 -10
-12 -10 -19 0 -13 -9 -32 -83 -166 -19 -36 -43 -81 -53 -100 -11 -19 -21 -37
-25 -40 -11 -10 -49 -91 -49 -105 0 -26 -37 -37 -69 -21 -41 22 -46 43 -16 86
14 20 25 40 25 44 0 4 11 22 23 39 21 29 35 53 85 152 9 17 28 48 44 69 15 21
28 45 28 51 0 7 7 18 15 25 8 7 15 18 15 25 0 12 -89 60 -142 78 -26 9 -23
107 3 107 5 0 30 -16 56 -35z m511 -310 c10 -18 164 -132 216 -160 44 -24 53
-47 29 -79 -21 -29 -45 -33 -64 -10 -7 9 -40 37 -74 62 -33 26 -71 57 -85 69
-30 27 -48 29 -57 6 -4 -10 -26 -41 -51 -70 -45 -53 -46 -67 -9 -84 32 -13
151 -99 160 -114 11 -20 -13 -65 -35 -65 -10 0 -59 34 -108 76 -50 43 -92 75
-94 73 -19 -20 -76 -101 -76 -107 0 -5 -11 -19 -25 -32 l-25 -24 27 -23 c16
-12 34 -22 41 -23 6 0 12 -3 12 -7 0 -5 17 -19 38 -33 72 -48 112 -82 112 -97
0 -14 -35 -53 -48 -53 -2 0 -23 16 -46 36 -22 19 -45 38 -51 42 -5 4 -22 16
-36 27 -15 11 -37 27 -49 35 -12 8 -30 22 -40 30 -10 8 -30 24 -44 34 -25 18
-36 56 -17 56 5 0 62 71 127 158 65 86 123 162 128 168 6 6 27 36 46 67 28 45
40 56 62 57 15 0 31 -7 36 -15z m136 -270 c38 -16 45 -35 21 -55 -8 -7 -15
-23 -15 -36 0 -27 -12 -37 -35 -28 -12 5 -15 14 -10 33 9 36 10 63 1 84 -10
21 -8 21 38 2z m-54 -14 c0 -9 -24 -21 -41 -21 -5 0 -9 7 -9 15 0 9 9 15 25
15 14 0 25 -4 25 -9z m-70 -208 c10 -9 -26 -23 -47 -18 -17 4 -22 0 -25 -17
-4 -31 -42 -31 -46 -1 -2 16 3 22 20 25 20 3 23 8 20 37 l-4 35 39 -29 c21
-16 40 -30 43 -32z m778 -256 c27 -40 27 -48 3 -95 -29 -55 -51 -108 -51 -124
0 -8 -4 -18 -8 -23 -4 -6 -18 -37 -31 -70 -13 -33 -36 -87 -52 -120 -43 -90
-35 -126 17 -70 13 14 40 36 61 51 39 26 61 44 176 139 l68 57 24 -24 c13 -13
26 -35 29 -48 5 -22 -2 -30 -66 -70 -39 -25 -81 -53 -92 -63 -12 -10 -52 -40
-91 -67 -38 -27 -74 -53 -80 -57 -76 -61 -146 -113 -152 -113 -16 1 -53 48
-53 68 0 11 16 54 35 96 19 43 35 83 35 91 0 7 6 26 14 42 8 15 22 46 31 68
20 50 44 102 62 137 27 54 5 79 -33 37 -10 -12 -55 -49 -99 -82 -44 -33 -88
-69 -98 -79 -10 -10 -21 -18 -26 -18 -4 0 -24 -16 -43 -36 -30 -29 -40 -34
-55 -26 -31 17 -47 56 -34 81 7 11 16 21 21 21 7 0 85 56 303 217 21 15 61 47
89 71 29 23 57 42 62 42 6 0 21 -15 34 -33z"/>
<path d="M3958 8040 c-3 -14 -2 -50 2 -80 4 -30 8 -50 9 -45 6 35 7 113 1 130
-6 18 -7 17 -12 -5z"/>
<path d="M3580 7981 c-17 -32 -15 -97 4 -125 26 -41 40 -33 32 20 -3 26 -6 64
-6 85 0 42 -13 51 -30 20z"/>
<path d="M4661 7561 c-21 -13 2 -22 65 -26 33 -1 62 -9 73 -19 12 -11 36 -16
78 -16 32 0 79 -7 104 -15 24 -8 71 -19 104 -24 113 -19 279 -60 312 -79 12
-6 31 -12 42 -12 11 0 22 -4 25 -9 3 -5 22 -12 42 -16 37 -7 44 -9 102 -38 19
-9 38 -17 44 -17 6 0 43 -15 82 -34 39 -19 89 -42 111 -52 22 -9 42 -20 45
-24 3 -4 28 -17 55 -31 28 -13 67 -34 87 -46 21 -13 43 -23 50 -23 7 0 19 -9
26 -20 7 -11 19 -20 27 -20 8 0 15 -4 15 -9 0 -5 10 -13 22 -17 12 -4 41 -24
63 -45 22 -22 49 -42 59 -45 11 -4 29 -16 40 -29 12 -12 29 -26 38 -31 69 -38
301 -257 382 -361 27 -35 52 -63 56 -63 4 0 20 -19 36 -42 16 -24 39 -53 51
-65 13 -12 23 -24 23 -27 0 -3 19 -32 43 -63 24 -32 61 -87 82 -123 21 -36 49
-79 62 -96 13 -17 23 -38 23 -46 0 -9 7 -21 15 -28 8 -6 17 -22 21 -33 4 -12
17 -36 30 -53 13 -17 24 -39 24 -48 0 -10 6 -30 14 -44 34 -63 85 -181 101
-232 9 -30 21 -63 26 -72 5 -10 9 -23 9 -30 0 -7 6 -25 14 -40 8 -14 17 -46
21 -69 4 -24 11 -50 15 -59 11 -22 41 -152 41 -175 -1 -11 6 -49 15 -85 29
-118 37 -222 37 -515 1 -273 -7 -393 -33 -505 -6 -25 -15 -72 -20 -105 -13
-79 -33 -167 -42 -180 -3 -6 -9 -28 -13 -49 -5 -22 -14 -51 -21 -65 -8 -14
-14 -36 -14 -48 0 -13 -4 -23 -10 -23 -5 0 -10 -9 -10 -19 0 -23 -38 -128 -57
-156 -7 -11 -13 -27 -13 -36 0 -9 -13 -41 -30 -72 -16 -31 -30 -64 -30 -73 0
-10 -11 -31 -24 -48 -13 -17 -26 -41 -30 -53 -4 -13 -11 -23 -15 -23 -4 0 -18
-25 -30 -55 -13 -30 -26 -55 -30 -55 -3 0 -18 -21 -31 -47 -14 -27 -27 -50
-30 -53 -3 -3 -18 -23 -33 -46 -15 -22 -36 -50 -46 -61 -10 -11 -22 -29 -25
-41 -4 -12 -11 -22 -15 -22 -4 0 -21 -19 -38 -42 -31 -43 -40 -53 -119 -139
-36 -39 -80 -79 -87 -79 -1 0 -2 901 -2 2002 0 1102 -3 2015 -8 2030 -12 45
-44 58 -167 68 -62 5 -115 12 -118 15 -3 3 3 5 14 5 11 0 44 6 73 14 40 10 60
11 82 3 24 -9 32 -8 45 5 9 9 14 23 11 31 -6 16 -275 151 -487 245 -19 8 -82
37 -138 64 -57 26 -105 48 -107 48 -3 0 -115 51 -220 99 -22 10 -60 28 -85 39
-25 11 -84 39 -133 61 -48 23 -90 41 -94 41 -3 0 -34 13 -67 29 -92 43 -165
76 -226 102 -30 12 -59 26 -64 31 -6 4 -17 8 -25 8 -9 0 -29 7 -45 15 -15 8
-37 15 -47 15 -18 0 -32 5 -139 54 -31 13 -68 28 -83 31 -15 4 -27 11 -27 16
0 5 -5 9 -11 9 -6 0 -26 7 -44 16 -32 15 -36 14 -101 -16 -165 -75 -193 -86
-290 -118 -84 -28 -346 -135 -369 -151 -5 -4 -46 -22 -90 -40 -44 -18 -108
-46 -142 -62 -35 -16 -67 -29 -72 -29 -5 0 -14 -7 -21 -15 -7 -8 -19 -15 -27
-15 -9 0 -43 -13 -77 -29 -159 -74 -196 -91 -201 -91 -3 0 -35 -14 -72 -31
-38 -16 -81 -36 -98 -44 -16 -7 -74 -34 -129 -59 -54 -25 -101 -46 -104 -46
-3 0 -69 -31 -147 -69 -77 -38 -157 -76 -178 -85 -63 -26 -42 -66 34 -64 24 1
82 -2 128 -7 95 -9 85 -21 -19 -24 -156 -4 -193 -19 -205 -84 -5 -23 -10 -319
-12 -657 -2 -338 -4 -678 -5 -755 0 -86 -5 -143 -11 -147 -8 -4 -7 -22 1 -59
8 -34 9 -56 2 -64 -6 -7 -6 -32 0 -71 14 -82 12 -180 -3 -205 -9 -17 -9 -23 1
-26 15 -6 16 -45 0 -61 -8 -8 -9 -18 -1 -34 14 -30 15 -69 1 -85 -8 -10 -8
-20 2 -38 11 -20 11 -29 1 -49 -10 -19 -10 -27 0 -44 11 -17 11 -25 0 -45 -11
-20 -11 -28 0 -45 11 -17 11 -25 0 -45 -11 -20 -11 -28 0 -46 11 -17 11 -25 1
-41 -14 -24 -16 -96 -2 -105 14 -8 13 -98 -1 -112 -8 -8 -9 -20 -1 -43 9 -23
8 -36 0 -50 -8 -12 -9 -23 -2 -32 12 -15 11 -64 -1 -91 -4 -11 -3 -23 3 -29 6
-6 7 -21 1 -43 -6 -21 -6 -43 1 -59 7 -19 6 -32 -2 -46 -10 -15 -10 -22 0 -32
15 -15 16 -70 0 -86 -9 -9 -8 -17 2 -37 11 -20 11 -30 1 -48 -9 -17 -9 -30 -1
-51 7 -21 7 -32 -1 -42 -7 -8 -8 -21 -3 -31 13 -29 14 -156 2 -181 -9 -17 -9
-25 0 -34 15 -15 16 -50 1 -65 -8 -8 -7 -17 3 -32 10 -17 10 -25 0 -41 -14
-23 -16 -70 -3 -70 5 0 6 -28 4 -63 l-5 -63 33 -16 c59 -28 83 -36 124 -43 61
-11 3984 -6 4025 5 19 5 54 14 78 21 23 6 46 8 50 5 8 -9 -74 -88 -173 -167
-38 -31 -83 -69 -99 -83 -16 -15 -47 -39 -70 -54 -22 -15 -75 -52 -116 -82
-41 -31 -82 -60 -90 -64 -15 -7 -21 -10 -95 -56 -22 -14 -61 -36 -88 -50 -26
-13 -47 -28 -47 -31 0 -4 -12 -10 -27 -14 -23 -5 -63 -23 -228 -100 -16 -8
-42 -17 -58 -21 -15 -3 -30 -10 -33 -15 -3 -5 -14 -9 -24 -9 -11 0 -34 -6 -52
-14 -18 -8 -60 -22 -93 -31 -33 -10 -71 -22 -85 -28 -14 -5 -61 -16 -105 -23
-44 -8 -100 -18 -125 -23 -25 -5 -70 -14 -100 -19 -225 -43 -697 -42 -920 0
-118 22 -148 28 -225 41 -44 8 -91 19 -105 24 -14 6 -52 18 -85 28 -33 9 -75
23 -93 31 -18 8 -41 14 -52 14 -10 0 -21 4 -24 9 -3 5 -17 12 -31 15 -14 4
-64 24 -110 46 -46 22 -96 42 -111 46 -15 4 -47 20 -70 36 -23 15 -49 28 -57
28 -9 0 -18 4 -21 9 -3 5 -25 19 -48 31 -24 12 -62 35 -86 51 -24 16 -45 29
-48 29 -3 0 -31 19 -62 43 -31 23 -68 48 -82 55 -14 7 -41 28 -60 46 -19 18
-53 46 -75 62 -92 66 -234 197 -239 220 -4 13 -13 24 -21 24 -22 0 -152 135
-217 226 -17 24 -35 44 -40 44 -4 0 -8 7 -8 15 0 8 -8 22 -18 32 -21 21 -72
90 -72 97 0 2 -25 42 -55 87 -30 45 -67 107 -81 138 -15 31 -29 58 -33 61 -11
9 -71 135 -71 148 0 8 -9 25 -20 39 -11 14 -20 34 -20 44 0 11 -4 27 -10 37
-20 37 -50 112 -50 127 0 8 -4 23 -9 33 -44 82 -141 506 -141 612 0 23 -4 50
-10 60 -14 26 -15 572 -1 598 6 12 11 39 11 60 0 22 7 76 16 119 9 43 20 103
24 133 8 60 28 146 40 170 4 9 11 36 15 60 4 25 11 50 15 55 4 6 21 55 39 110
18 55 39 110 47 122 8 12 14 28 14 34 0 12 56 133 92 199 10 19 32 62 49 95
34 69 45 88 76 132 13 17 23 36 23 41 0 5 9 17 20 27 11 10 20 22 20 27 0 8
76 117 103 148 7 8 28 35 47 60 19 25 46 57 60 71 14 14 43 47 65 74 50 60
143 155 215 218 30 27 66 58 80 71 14 13 39 31 55 42 17 10 39 28 50 39 11 11
38 31 60 45 22 14 50 35 61 47 12 13 26 23 31 23 5 0 39 19 74 43 96 62 91 59
264 146 184 91 290 137 340 147 19 3 38 10 41 15 3 5 13 9 22 9 9 0 29 7 44
14 16 8 48 18 73 22 25 3 45 10 45 15 0 5 13 9 30 9 16 0 51 8 77 17 26 9 64
17 83 18 19 1 64 8 100 15 36 7 92 16 125 20 33 3 73 12 90 19 16 7 66 14 110
15 113 5 117 5 111 14 -12 19 -358 -4 -481 -32 -38 -9 -105 -23 -148 -31 -43
-8 -86 -19 -97 -25 -10 -5 -31 -10 -45 -10 -14 0 -36 -5 -48 -12 -12 -6 -35
-14 -52 -19 -56 -13 -210 -70 -285 -105 -184 -86 -372 -186 -413 -220 -16 -13
-35 -24 -44 -24 -8 0 -29 -16 -46 -35 -17 -19 -38 -35 -47 -35 -9 0 -29 -14
-46 -31 -16 -17 -42 -38 -59 -46 -16 -9 -52 -36 -80 -59 -27 -24 -55 -44 -62
-44 -7 0 -13 -4 -13 -9 0 -4 -16 -23 -36 -42 -146 -135 -384 -399 -384 -425 0
-8 -4 -14 -9 -14 -5 0 -20 -17 -32 -37 -13 -21 -42 -64 -66 -95 -24 -31 -43
-61 -43 -66 0 -5 -7 -15 -15 -22 -15 -12 -45 -67 -45 -81 0 -5 -12 -25 -26
-46 -24 -36 -70 -128 -143 -286 -67 -145 -155 -435 -197 -652 -42 -217 -68
-673 -44 -780 6 -27 15 -97 20 -155 5 -58 18 -145 28 -195 11 -49 30 -133 41
-185 11 -52 26 -106 32 -120 6 -14 15 -38 20 -55 11 -42 57 -174 75 -212 8
-17 14 -38 14 -46 0 -8 7 -20 15 -27 8 -7 15 -17 15 -22 0 -19 157 -325 190
-370 11 -15 20 -30 20 -33 0 -4 20 -33 45 -65 25 -32 45 -62 45 -67 0 -5 14
-23 30 -41 17 -18 30 -37 30 -41 0 -4 27 -39 60 -77 33 -38 60 -73 60 -78 0
-4 11 -17 25 -28 14 -11 50 -52 80 -93 100 -132 290 -304 465 -421 190 -127
419 -250 590 -317 182 -71 394 -136 540 -166 402 -82 825 -82 1260 -2 124 23
443 123 545 171 11 5 56 23 100 41 44 18 87 38 96 45 8 8 20 14 25 14 24 0
336 192 475 292 142 102 325 279 381 368 8 14 25 37 37 50 82 97 154 187 159
200 3 8 14 22 23 30 10 8 26 29 36 46 10 17 36 57 57 90 21 32 54 82 72 109
18 28 39 64 46 80 7 17 25 48 39 70 14 22 36 65 48 95 13 30 33 78 46 105 70
155 126 319 160 463 14 56 29 111 35 122 5 10 10 36 10 57 0 21 5 54 11 73 6
19 15 76 20 125 36 385 35 483 -5 830 -10 89 -81 406 -97 437 -5 10 -13 34
-18 55 -13 49 -68 207 -80 230 -6 10 -19 38 -30 63 -10 25 -31 71 -45 104 -14
32 -26 65 -26 72 0 8 -4 14 -9 14 -5 0 -14 12 -20 28 -6 15 -16 36 -23 47 -7
11 -25 39 -40 63 -16 24 -28 45 -28 47 0 7 -62 97 -121 177 -32 42 -62 86 -68
97 -6 11 -17 25 -24 33 -34 34 -164 195 -170 211 -3 9 -10 17 -15 17 -9 0
-108 88 -198 175 -23 22 -63 57 -90 78 -27 21 -71 56 -99 77 -27 22 -56 40
-65 40 -8 0 -28 16 -43 35 -15 19 -35 35 -43 35 -8 0 -32 13 -52 29 -73 58
-498 271 -540 271 -10 0 -22 4 -27 9 -6 5 -26 14 -45 19 -39 12 -87 28 -140
48 -19 8 -82 23 -138 34 -57 11 -109 23 -115 27 -17 11 -149 34 -247 43 -138
13 -164 17 -185 23 -11 4 -26 3 -34 -2z m35 -182 c3 -5 -6 -9 -20 -9 -24 0
-41 12 -30 23 7 7 43 -3 50 -14z m-131 -32 c3 -12 2 -55 -3 -94 -4 -40 -5 -78
-1 -84 5 -8 30 -10 86 -5 92 8 112 -2 96 -51 l-10 -28 -88 4 -88 3 5 -205 c4
-139 2 -209 -5 -216 -13 -13 -67 -14 -86 -2 -12 8 -13 45 -9 214 4 150 3 207
-6 210 -6 2 -39 1 -74 -4 -77 -11 -102 -1 -102 41 0 36 16 41 115 38 l70 -3
-3 92 c-2 50 -1 97 3 102 3 6 26 11 50 11 38 0 45 -3 50 -23z m-232 -28 c-17
-17 -37 -1 -22 17 8 10 15 12 23 4 7 -7 7 -13 -1 -21z m407 -5 c0 -11 -5 -11
-25 -2 -27 12 -32 24 -12 31 15 5 37 -11 37 -29z m180 -18 c8 -7 40 -25 70
-38 87 -40 191 -88 235 -108 22 -9 84 -38 138 -64 54 -25 101 -46 104 -46 3 0
29 -11 57 -24 147 -69 207 -96 211 -96 2 0 48 -21 102 -46 113 -52 154 -72
238 -109 110 -48 130 -57 147 -66 28 -14 194 -79 203 -79 9 0 55 -48 55 -57 0
-3 -19 -2 -42 1 -108 15 -342 26 -536 25 l-214 -2 -56 41 c-32 23 -109 77
-172 120 -63 43 -146 100 -185 127 -38 27 -113 77 -165 111 -52 35 -100 67
-107 73 -6 5 -35 24 -65 42 -89 54 -88 52 -88 142 l0 79 28 -7 c15 -3 34 -12
42 -19z m-730 -51 c0 -55 -3 -66 -22 -79 -74 -51 -427 -286 -467 -311 -26 -16
-73 -49 -104 -72 -31 -24 -59 -43 -62 -43 -6 0 -125 -85 -146 -105 -9 -8 -19
-15 -24 -15 -5 0 -16 -7 -24 -14 -13 -12 -77 -16 -341 -20 -189 -3 -347 -10
-378 -16 -67 -15 -88 -9 -70 20 7 11 22 23 33 26 33 10 196 74 250 99 28 12
80 37 117 54 37 17 70 31 73 31 3 0 35 14 72 31 122 55 160 72 278 124 33 14
78 35 100 45 22 10 63 28 90 40 28 12 68 30 90 40 22 10 60 27 85 38 41 18 92
41 205 92 132 60 174 81 180 90 3 5 19 10 36 10 l29 0 0 -65z m0 -137 c9 -90
13 -117 20 -138 19 -56 19 -88 1 -112 -28 -37 -107 -151 -115 -168 -9 -20 -28
-51 -47 -78 -16 -22 -19 -23 -295 -27 -153 -2 -289 -7 -301 -11 -19 -5 -23 -2
-23 15 0 12 8 25 18 28 9 4 28 14 42 24 14 9 99 66 190 126 268 178 372 250
430 297 46 37 79 55 80 44z m692 -26 c7 -17 373 -276 476 -337 9 -5 33 -22 52
-36 19 -14 65 -43 102 -65 45 -26 68 -45 68 -58 0 -15 -5 -17 -27 -11 -16 4
-125 9 -243 10 l-215 4 -97 143 c-53 79 -115 163 -137 188 -46 50 -45 46 -29
117 9 38 17 53 29 53 10 0 19 -4 21 -8z m-37 -217 c27 -54 74 -127 122 -191
29 -39 53 -76 53 -82 0 -8 -40 -11 -137 -9 -90 1 -161 -3 -205 -12 -37 -8 -71
-12 -74 -8 -4 4 27 39 69 79 45 44 78 85 83 102 4 17 13 41 20 55 8 14 14 41
14 59 0 29 3 33 22 30 12 -2 27 -12 33 -23z m-583 -72 c8 -10 19 -31 22 -48 5
-18 38 -59 89 -109 l82 -79 -45 7 c-25 4 -101 10 -170 12 -69 3 -129 9 -134
14 -5 5 4 25 21 47 40 53 82 119 93 148 11 30 21 31 42 8z m367 -262 c63 -17
64 -18 32 -24 -45 -9 -275 -9 -298 0 -13 5 2 12 52 24 91 22 136 22 214 0z
m-1151 -17 c9 -7 -109 -15 -129 -8 l-24 8 25 6 c22 6 119 2 128 -6z m2186 7
c36 -14 0 -20 -75 -13 -67 6 -70 7 -34 13 56 9 87 9 109 0z m-1506 -6 c-7 -7
-118 -9 -125 -1 -3 3 24 6 62 6 38 0 66 -2 63 -5z m929 -2 c-20 -2 -52 -2 -70
0 -17 2 0 4 38 4 39 0 53 -2 32 -4z m1503 -2085 c0 -1103 -3 -2014 -6 -2023
-5 -11 -12 -13 -28 -8 -11 4 -940 8 -2063 8 -1663 0 -2044 2 -2048 13 -3 9 -8
3851 -5 4015 0 4 934 6 2075 5 l2076 -3 -1 -2007z"/>
<path d="M4425 6339 c-93 -4 -552 -7 -1018 -7 -494 1 -852 -3 -857 -8 -10 -10
-21 -3756 -11 -3794 l7 -25 1969 4 c1084 2 1973 5 1978 8 4 2 7 858 7 1902 l0
1899 -25 16 c-22 14 -113 16 -952 14 -510 -1 -1004 -5 -1098 -9z m116 -60 c14
-7 24 -7 33 0 9 8 290 10 940 9 l927 -3 -1 -867 c0 -478 0 -874 0 -880 0 -10
-135 -13 -642 -13 l-643 1 -11 39 c-7 22 -13 56 -13 75 -1 19 -8 67 -16 105
-9 39 -20 99 -26 135 -6 36 -17 101 -25 145 -7 44 -20 118 -28 165 -8 47 -20
117 -26 155 -7 39 -15 77 -20 85 -6 12 -46 16 -231 20 -123 3 -231 3 -239 -1
-8 -4 -22 -3 -32 2 -17 9 -18 37 -18 418 0 224 3 411 7 414 10 10 42 8 64 -4z
m-956 -8 c3 -6 -13 -11 -36 -13 l-41 -3 -20 -65 c-43 -149 -80 -266 -87 -280
-16 -30 -40 -20 -107 47 -38 38 -105 100 -148 138 -95 83 -144 133 -158 159
-10 18 -5 18 124 10 73 -4 152 -7 175 -5 24 1 52 -3 64 -10 17 -9 23 -8 30 2
12 20 193 37 204 20z m-645 -21 c-27 -27 -26 -64 3 -83 12 -8 38 -29 57 -47
19 -18 55 -48 80 -68 25 -20 50 -41 55 -47 6 -5 59 -53 119 -104 l109 -95 -7
-95 c-3 -53 -6 -214 -7 -358 0 -145 -5 -265 -9 -268 -8 -5 -20 0 -59 22 -2 2
2 10 10 19 9 11 13 45 13 102 0 76 -3 92 -24 123 -14 20 -40 46 -59 58 -30 21
-37 22 -82 11 -27 -7 -56 -10 -63 -7 -8 3 -29 28 -46 55 -86 131 -216 147
-316 40 -33 -34 -64 -113 -64 -157 1 -42 33 -129 60 -159 24 -27 50 -85 50
-110 0 -6 -8 -13 -18 -16 -10 -4 -35 -21 -55 -39 -36 -31 -37 -35 -37 -100 0
-59 4 -74 31 -115 17 -26 53 -65 81 -86 47 -36 54 -39 118 -40 67 0 70 1 105
37 35 36 39 37 105 37 64 0 73 -3 137 -44 107 -70 160 -110 172 -128 10 -16 7
-18 -31 -18 -24 0 -61 5 -83 11 -22 6 -168 14 -325 17 -247 6 -290 9 -312 24
l-27 18 0 775 -1 776 26 26 c14 14 31 22 40 19 9 -3 25 -1 37 6 24 13 107 25
185 27 52 1 52 1 32 -19z m1364 2 c78 -27 78 -29 74 -411 -2 -240 -7 -332 -16
-348 -12 -22 -17 -23 -175 -23 -201 0 -231 -7 -248 -58 -6 -20 -16 -42 -20
-48 -12 -14 -38 -148 -48 -244 -5 -41 -16 -102 -25 -135 -9 -32 -16 -76 -16
-96 0 -21 -5 -50 -10 -64 -6 -15 -11 -46 -11 -68 -1 -23 -8 -52 -15 -64 -8
-12 -14 -33 -14 -47 0 -34 -13 -40 -110 -48 -47 -4 -96 -9 -110 -10 -18 -2
-25 2 -28 17 -6 29 -26 49 -95 90 -34 21 -72 47 -84 58 -20 18 -21 22 -8 47
l14 27 151 8 c82 4 153 11 156 16 3 5 -17 35 -45 65 l-51 56 0 393 0 393 33
24 c46 36 153 108 216 146 52 32 54 33 86 18 18 -9 38 -22 45 -31 7 -8 16 -15
21 -15 4 0 37 -20 73 -45 70 -48 85 -52 104 -33 15 15 16 48 1 48 -6 0 -28 14
-49 30 -21 17 -40 30 -43 30 -15 0 -97 63 -97 74 0 6 30 29 68 49 37 21 92 52
122 68 30 17 63 38 72 48 16 15 17 18 2 39 -15 22 -48 30 -58 13 -3 -5 -38
-28 -78 -52 -40 -24 -111 -68 -158 -98 -130 -85 -187 -117 -196 -108 -14 14
12 49 91 121 47 43 85 84 85 92 0 13 -30 34 -49 34 -6 0 -21 -12 -34 -27 -12
-14 -74 -80 -137 -146 -63 -65 -116 -123 -118 -128 -2 -5 5 -9 17 -9 35 0 31
-15 -18 -67 l-49 -51 -7 -104 c-9 -129 -1 -747 9 -770 10 -23 -33 -41 -78 -32
l-32 6 3 301 c5 517 9 609 27 621 114 78 142 105 94 93 -35 -10 -50 9 -34 42
8 14 17 42 21 61 4 19 11 40 15 45 4 6 13 31 20 58 7 26 17 50 21 53 5 3 9 13
9 22 0 9 7 30 15 46 8 15 13 31 11 35 -2 3 140 7 317 8 283 2 328 1 371 -15z
m-1391 -741 c51 -20 106 -135 94 -198 -26 -132 -72 -183 -154 -170 -40 7 -74
34 -109 89 -31 48 -34 162 -6 211 44 78 95 98 175 68z m1764 -118 l262 -6 10
-26 c6 -14 15 -57 21 -96 6 -38 17 -108 25 -155 9 -47 22 -125 30 -175 39
-233 64 -369 80 -440 23 -105 43 -207 60 -310 9 -55 22 -128 30 -162 8 -34 15
-81 15 -105 1 -23 7 -61 15 -83 8 -22 15 -55 15 -74 0 -18 6 -63 14 -100 24
-109 37 -182 46 -251 5 -36 13 -81 19 -100 6 -19 11 -48 11 -64 0 -15 6 -58
14 -95 8 -36 22 -111 31 -166 8 -55 22 -129 30 -165 9 -36 15 -79 15 -96 0
-18 7 -54 16 -82 22 -67 15 -84 -33 -80 l-37 3 -18 95 c-11 52 -26 124 -34
160 -8 36 -14 76 -14 89 0 13 -6 53 -14 90 -8 36 -22 111 -31 166 -9 55 -23
132 -30 170 -17 89 -33 181 -45 270 -6 39 -15 83 -20 99 -6 16 -10 42 -10 59
0 16 -6 59 -14 96 -23 104 -37 181 -46 248 -4 34 -13 84 -18 110 -6 26 -18 93
-27 148 -9 55 -22 136 -30 180 -7 44 -21 125 -30 180 -10 55 -22 120 -27 145
-5 25 -13 68 -17 95 -11 71 -30 170 -47 245 -8 36 -14 77 -14 93 l0 27 -405 0
c-223 0 -405 -2 -405 -4 0 -2 -7 -41 -15 -87 -8 -46 -22 -127 -30 -179 -9 -52
-21 -115 -27 -140 -6 -25 -13 -61 -15 -80 -4 -43 -31 -199 -44 -260 -5 -25
-13 -74 -18 -110 -5 -36 -14 -94 -21 -130 -13 -78 -33 -190 -55 -320 -9 -52
-21 -116 -26 -142 -6 -26 -14 -80 -19 -120 -5 -40 -13 -95 -19 -123 -5 -27
-17 -95 -26 -150 -9 -55 -20 -120 -26 -145 -5 -25 -13 -74 -18 -110 -14 -99
-31 -198 -47 -271 -8 -37 -14 -78 -14 -92 0 -15 -7 -52 -15 -84 -8 -31 -15
-70 -15 -86 0 -16 -7 -53 -16 -83 -14 -49 -18 -54 -44 -54 -16 0 -30 5 -32 11
-2 7 2 46 9 88 7 42 20 117 28 166 9 50 20 119 25 155 6 36 13 73 16 83 3 10
12 58 20 105 7 48 16 103 19 122 3 19 13 78 21 130 8 52 22 131 30 175 20 109
32 187 44 270 5 39 14 90 19 115 22 105 90 535 105 660 2 19 9 60 14 90 6 30
18 100 27 155 9 55 20 119 25 142 6 23 13 68 16 100 3 32 12 80 20 107 8 27
14 70 14 96 0 25 5 51 12 58 14 14 267 16 685 5z m-1443 -66 c47 -61 29 -161
-40 -231 -54 -53 -110 -60 -149 -19 -20 23 -25 38 -25 83 0 30 7 68 15 84 8
15 15 34 15 41 0 7 13 27 29 44 25 27 36 31 80 31 45 0 53 -3 75 -33z m1205
-126 c11 -7 14 -66 15 -300 l1 -291 -26 0 c-30 0 -40 9 -72 71 -99 185 -123
228 -144 259 -12 19 -23 38 -23 41 0 4 -16 31 -35 60 -19 30 -35 56 -35 60 0
13 73 89 86 89 7 0 23 -18 34 -39 21 -42 33 -49 92 -50 43 0 53 10 50 55 -3
41 26 64 57 45z m108 1 c6 -4 13 -28 15 -52 3 -45 3 -45 44 -48 50 -4 94 12
94 34 0 20 28 54 44 54 13 0 76 -74 76 -88 0 -8 -96 -179 -130 -232 -6 -8 -14
-24 -19 -35 -5 -11 -28 -53 -50 -94 -23 -41 -41 -79 -41 -86 0 -16 -44 -45
-68 -45 -19 0 -20 11 -20 293 0 160 2 295 5 300 5 9 35 9 50 -1z m-1225 -155
c55 -51 55 -121 1 -193 -71 -95 -209 -47 -188 66 9 48 39 86 94 121 56 35 61
35 93 6z m-422 -42 c78 -49 120 -154 85 -212 -19 -32 -66 -63 -96 -63 -41 0
-169 89 -169 117 0 8 -7 28 -16 44 -18 36 -8 78 28 116 31 33 114 32 168 -2z
m1241 -80 c20 -38 49 -92 64 -120 30 -58 43 -79 69 -118 15 -22 17 -37 11 -83
-7 -55 -30 -124 -41 -124 -4 0 -55 51 -115 113 -86 88 -108 116 -104 132 15
49 37 165 42 218 7 77 25 73 74 -18z m733 59 c3 -9 6 -34 6 -56 0 -22 6 -63
14 -91 8 -29 17 -72 20 -96 l7 -43 -90 -92 c-50 -50 -97 -100 -106 -111 -15
-20 -15 -20 -30 0 -9 11 -18 31 -21 45 -3 14 -10 42 -16 63 -11 38 -5 62 32
117 24 36 98 169 120 215 31 65 52 81 64 49z m-809 -414 c22 -22 57 -53 80
-68 64 -43 74 -55 81 -98 6 -38 4 -43 -24 -63 -36 -25 -57 -26 -97 0 -16 10
-37 22 -45 25 -8 3 -30 13 -47 22 l-32 16 5 91 c3 49 7 96 10 103 6 22 29 13
69 -28z m887 -40 c4 -41 8 -86 10 -99 3 -21 -7 -30 -77 -67 -89 -47 -110 -51
-142 -26 -26 20 -29 36 -19 80 6 24 26 47 74 86 37 29 78 65 92 79 41 44 54
32 62 -53z m-436 5 c4 -8 17 -15 29 -15 46 0 100 -146 64 -174 -18 -14 -46
-75 -54 -118 -5 -27 -1 -43 18 -72 14 -20 35 -58 47 -84 11 -26 27 -59 35 -75
26 -51 39 -193 25 -272 -7 -38 -18 -77 -25 -85 -6 -8 -20 -32 -30 -54 -22 -42
-99 -116 -122 -116 -11 0 -14 33 -12 191 1 104 -1 193 -4 196 -4 3 -14 3 -23
-1 -15 -6 -16 -24 -11 -191 3 -127 2 -187 -6 -192 -14 -8 -137 126 -137 150 0
11 -6 33 -14 50 -40 91 -53 224 -31 313 9 38 20 74 25 79 4 6 11 21 15 35 13
43 65 110 144 187 42 40 79 73 83 73 5 0 8 5 8 10 0 19 -48 10 -77 -13 -15
-13 -50 -37 -78 -52 -27 -16 -59 -37 -71 -47 -21 -19 -21 -19 -34 12 -11 26
-10 33 2 43 16 13 42 80 53 134 8 42 43 69 100 77 24 4 47 11 50 17 9 14 25
11 31 -6z m-719 -59 c-6 -14 -70 -16 -612 -16 l-606 0 3 23 3 22 595 5 c615 5
631 4 617 -34z m2652 10 c8 -10 9 -16 2 -21 -17 -10 -1284 -6 -1294 4 -29 29
14 31 642 31 538 0 640 -2 650 -14z m-2664 -66 c4 -6 2 -16 -3 -23 -5 -7 -12
-40 -16 -74 -4 -35 -11 -75 -16 -90 -9 -27 -18 -89 -41 -268 -5 -44 -14 -93
-19 -110 -9 -31 -22 -101 -45 -240 -8 -44 -21 -120 -29 -170 -9 -49 -18 -106
-21 -125 -19 -116 -37 -222 -45 -270 -10 -52 -21 -116 -55 -330 -8 -52 -18
-112 -22 -133 l-8 -38 -328 -1 c-180 0 -330 2 -333 4 -2 3 14 20 38 39 23 19
56 49 73 67 18 17 35 32 38 32 4 0 27 -14 52 -32 l45 -32 123 12 c67 7 139 12
160 12 42 0 77 14 77 31 0 17 -118 251 -137 272 -20 21 -21 91 -9 348 l8 155
110 115 c165 172 218 234 218 256 0 11 10 31 23 45 71 77 50 184 -40 201 -18
4 -58 27 -88 52 -31 25 -68 53 -83 62 -15 10 -33 24 -41 31 -8 8 -33 25 -55
39 -23 15 -67 46 -98 70 -34 26 -67 43 -84 43 -26 0 -26 -1 -19 -47 4 -27 8
-64 8 -83 2 -34 1 -35 -43 -42 -25 -3 -74 -7 -109 -7 -113 -2 -215 -53 -267
-135 -15 -23 -18 -48 -17 -130 1 -114 18 -168 72 -221 17 -16 31 -35 31 -41 0
-6 -18 -19 -41 -29 -60 -27 -113 -93 -129 -159 -24 -102 27 -216 115 -255 25
-11 45 -26 45 -33 0 -7 -16 -22 -36 -33 -50 -27 -80 -66 -100 -130 -17 -52
-17 -58 0 -112 10 -32 29 -76 41 -98 14 -23 26 -67 30 -105 4 -36 11 -72 15
-80 4 -8 10 -30 13 -47 l7 -33 -85 0 -85 0 0 940 0 940 599 0 c406 0 602 -3
606 -10z m2553 -66 c28 -4 49 -15 63 -32 19 -25 20 -35 14 -277 -4 -137 -5
-257 -4 -265 7 -46 -3 -605 -11 -610 -16 -10 -16 -56 0 -85 12 -23 12 -28 0
-35 -12 -8 -13 -13 -3 -28 8 -14 8 -23 1 -30 -7 -7 -7 -20 2 -44 16 -43 22
-242 9 -291 -13 -49 -30 -55 -170 -57 -288 -5 -439 -4 -495 2 -34 4 -85 4
-114 -1 -31 -5 -68 -4 -91 2 -39 9 -39 10 -41 61 -1 28 -1 67 0 86 1 19 -2 46
-8 60 -5 14 -12 46 -14 72 -2 26 -9 55 -16 63 -12 15 -17 44 -40 235 -6 52
-17 113 -25 135 -8 22 -17 69 -20 105 -4 36 -10 69 -15 75 -4 5 -10 39 -13 75
-6 70 -29 204 -45 260 -6 19 -16 78 -22 130 -6 52 -18 120 -27 150 -16 59 -23
223 -10 237 5 4 201 10 435 13 474 6 597 4 660 -6z m-2320 -33 c9 -4 31 -16
49 -25 17 -9 42 -16 56 -16 39 0 57 -24 50 -68 -8 -54 -15 -59 -75 -52 -61 6
-148 52 -148 77 0 22 32 93 42 93 5 0 16 -4 26 -9z m965 -34 c9 -23 17 -47 17
-52 0 -23 -103 -73 -157 -75 -59 -3 -63 -2 -63 24 0 14 -4 28 -10 31 -27 17 6
65 44 65 13 0 48 11 77 24 30 14 59 25 64 25 6 1 18 -18 28 -42z m-313 -22 c3
-22 9 -46 13 -53 10 -16 -1 -54 -14 -47 -5 4 -9 14 -9 24 0 10 -7 24 -15 31
-9 7 -15 29 -15 52 0 32 3 39 18 36 11 -2 19 -16 22 -43z m-1431 -22 c25 -21
51 -42 58 -48 6 -5 52 -38 101 -73 l91 -63 -21 -39 c-27 -50 -39 -54 -80 -24
-18 14 -68 45 -111 71 -42 25 -81 53 -86 62 -12 22 -24 128 -16 141 9 15 14
13 64 -27z m956 -143 c3 -5 -10 -30 -30 -55 -19 -26 -35 -50 -35 -54 0 -8
-132 -71 -148 -71 -6 0 -23 11 -37 25 -22 22 -25 35 -25 90 l0 64 108 4 c59 1
119 4 134 5 15 1 29 -2 33 -8z m813 0 c8 0 12 -20 12 -67 0 -55 -4 -71 -22
-90 -25 -27 -40 -28 -76 -9 -15 8 -42 20 -60 27 -21 7 -44 28 -60 53 -15 23
-33 46 -41 52 -8 6 -12 18 -9 26 5 11 28 14 124 11 66 -2 125 -3 132 -3z
m-1969 -71 c40 -40 41 -43 41 -109 0 -48 -4 -71 -15 -80 -8 -7 -15 -17 -15
-22 0 -24 -46 -47 -96 -48 -43 0 -55 4 -82 31 -17 16 -38 50 -47 74 -16 41
-16 46 0 90 25 63 77 105 131 105 35 0 48 -6 83 -41z m563 -16 c23 -20 24 -80
1 -105 -23 -25 -55 -23 -88 8 -23 21 -26 31 -21 57 11 54 68 76 108 40z m-263
-45 c38 -29 96 -70 130 -91 33 -20 61 -43 61 -50 -1 -15 -281 -307 -296 -307
-6 0 -31 16 -55 35 -24 19 -50 35 -56 35 -26 0 -12 33 37 88 28 32 63 77 78
102 25 41 27 54 26 143 0 53 1 97 4 97 2 0 34 -24 71 -52z m821 -117 c0 -75
-5 -81 -60 -81 -16 0 -31 -4 -34 -9 -3 -5 -28 -16 -55 -25 -43 -14 -53 -14
-83 -2 -18 8 -38 23 -45 34 -13 21 -11 88 3 102 5 5 50 12 99 16 50 3 104 12
120 19 53 23 55 21 55 -54z m667 58 c6 -6 59 -15 119 -21 60 -6 112 -15 116
-22 15 -22 9 -92 -9 -107 -50 -42 -69 -44 -135 -16 -35 15 -72 27 -83 27 -33
0 -42 12 -47 63 -9 76 8 107 39 76z m-662 -204 c21 -20 25 -34 25 -80 0 -51
-2 -56 -26 -65 -34 -13 -200 -124 -236 -158 -15 -14 -31 -23 -34 -19 -8 8 -21
77 -30 159 l-7 57 116 55 c64 31 119 60 122 66 11 18 45 11 70 -15z m703 3
c20 -13 53 -30 72 -39 159 -75 153 -70 145 -109 -3 -19 -10 -65 -14 -102 -3
-37 -10 -70 -14 -74 -4 -4 -25 7 -47 25 -64 52 -202 141 -227 147 -25 7 -27
13 -23 89 1 38 7 54 23 67 29 23 40 22 85 -4z m-1987 -139 c24 -28 46 -55 47
-60 6 -17 57 -9 69 10 6 10 25 28 42 40 l29 21 72 -62 73 -63 -5 -147 -5 -146
-32 -41 c-26 -33 -39 -41 -65 -41 -42 0 -56 16 -56 61 0 30 10 47 61 103 69
75 70 66 -9 155 l-38 44 -28 -47 c-15 -25 -30 -46 -35 -46 -11 0 -35 30 -49
63 -16 38 -42 34 -75 -12 -15 -22 -45 -62 -67 -90 -41 -51 -41 -51 -65 -34
-30 22 -75 108 -75 144 0 48 28 96 87 148 31 28 62 51 68 51 7 0 32 -23 56
-51z m1335 -67 c6 -12 21 -33 33 -46 11 -12 21 -26 21 -30 0 -10 -25 -34 -110
-106 -41 -34 -123 -107 -182 -162 l-108 -99 -25 28 c-20 24 -24 38 -25 94 l0
65 67 50 c97 71 256 198 272 218 18 22 43 17 57 -12z m583 -3 c36 -33 208
-166 275 -213 23 -15 43 -30 45 -32 2 -2 4 -35 4 -74 1 -60 -3 -73 -22 -94
l-23 -25 -92 82 c-50 45 -123 109 -161 142 -38 33 -89 78 -112 100 l-44 40 26
27 c14 15 30 39 35 53 12 33 28 32 69 -6z m-349 -101 c0 -7 1 -96 2 -198 l1
-185 -54 0 -54 0 -3 107 -3 107 -44 39 c-47 42 -55 62 -30 82 8 7 15 18 15 26
0 23 33 33 103 34 47 0 67 -4 67 -12z m201 -5 c8 -10 22 -32 31 -49 l17 -31
-50 -46 -50 -46 3 -103 3 -103 -55 0 -55 0 0 190 c0 105 1 193 3 198 2 4 34 7
71 7 53 0 71 -4 82 -17z m-413 -186 c27 -156 28 -153 -17 -198 -24 -25 -46
-39 -55 -36 -8 3 -19 31 -26 64 -6 32 -17 73 -25 91 -16 36 -20 92 -6 92 4 0
28 15 52 34 29 22 48 31 55 25 7 -6 17 -38 22 -72z m557 38 c59 -38 66 -56 41
-103 -8 -15 -21 -58 -30 -97 -9 -38 -20 -73 -24 -76 -8 -9 -76 50 -91 80 -7
12 -7 29 -2 48 5 15 12 59 16 97 9 102 9 102 90 51z m-1855 -24 c0 -35 -26
-62 -36 -36 -8 19 11 65 26 65 5 0 10 -13 10 -29z m1130 -94 c0 -12 7 -41 15
-64 8 -23 17 -60 21 -81 l6 -39 -118 1 c-66 1 -125 5 -131 9 -23 14 -14 52 17
75 16 12 32 22 36 22 7 0 75 53 112 87 28 26 42 22 42 -10z m930 -58 c3 -3 26
-18 53 -33 28 -17 47 -35 47 -46 0 -36 -28 -45 -151 -46 -118 -2 -119 -2 -119
22 0 12 4 25 9 29 6 3 13 27 17 53 4 25 13 62 21 80 l14 33 52 -43 c29 -24 54
-46 57 -49z m-2216 45 c4 -9 3 -38 0 -65 -8 -61 -2 -64 102 -49 44 7 98 14
122 17 l42 6 0 -85 0 -86 -42 -35 c-24 -19 -81 -72 -127 -116 -46 -45 -87 -78
-92 -75 -5 3 -9 23 -9 44 0 65 -21 142 -51 192 -51 85 -49 149 8 230 28 42 38
46 47 22z m1645 -200 c23 -26 41 -52 41 -58 0 -13 -96 -108 -125 -123 -23 -13
-75 -6 -80 11 -2 6 -6 28 -10 48 -5 35 -2 41 57 102 35 36 66 65 70 65 3 1 25
-20 47 -45z m240 -21 c46 -50 61 -73 57 -88 -3 -11 -6 -30 -6 -43 0 -29 -39
-46 -75 -32 -29 11 -135 109 -135 124 0 16 73 105 86 106 6 0 39 -30 73 -67z
m-1425 1 c11 -21 27 -55 35 -74 9 -19 24 -48 34 -63 33 -49 22 -54 -129 -59
-76 -3 -144 -4 -151 -1 -7 3 -15 13 -18 24 -5 15 16 42 92 119 54 55 103 98
108 97 6 -2 19 -21 29 -43z m1902 -34 c1 -25 2 -50 2 -56 1 -6 29 -30 61 -53
33 -24 64 -55 70 -70 21 -54 23 -78 6 -95 -18 -17 -80 -22 -90 -6 -3 5 -38 28
-76 51 l-71 42 4 51 3 51 -65 3 -66 3 -69 -106 c-38 -58 -76 -105 -85 -105 -8
-1 -140 -1 -294 -1 l-278 0 -16 23 c-9 13 -36 50 -59 83 -24 33 -48 70 -53 83
-9 21 -15 23 -77 20 l-68 -3 3 -51 3 -51 -71 -43 c-39 -23 -73 -46 -76 -51 -7
-12 -61 -11 -85 1 -22 12 -23 29 -8 83 7 28 23 47 67 78 78 57 84 66 76 116
l-6 42 135 -1 c88 0 141 -4 149 -11 13 -11 65 -85 78 -112 3 -5 20 -34 38 -62
l34 -53 227 0 227 0 22 30 c12 16 22 31 22 34 0 8 103 160 115 169 5 4 30 6
55 4 25 -2 74 -1 110 3 105 12 105 12 106 -40z"/>
<path d="M4542 6243 c-4 -10 -7 -181 -7 -380 0 -270 3 -365 12 -374 27 -27 33
42 33 375 0 184 -3 348 -6 365 -7 34 -21 40 -32 14z"/>
<path d="M5420 6028 c2 -141 8 -128 -60 -128 -33 0 -60 4 -60 10 0 5 14 32 31
60 43 70 36 80 -56 82 -41 1 -85 2 -97 2 -29 1 -35 -31 -14 -73 9 -16 16 -42
16 -56 0 -25 -2 -26 -32 -20 -18 4 -40 9 -50 11 -9 3 -46 36 -81 74 -66 71
-101 87 -114 54 -6 -17 61 -87 217 -224 85 -75 110 -101 110 -112 0 -5 -29
-37 -65 -71 -68 -66 -78 -89 -46 -107 30 -15 46 -4 93 66 24 35 50 64 59 64 9
0 47 -30 83 -67 l66 -68 0 -426 0 -425 33 -32 c59 -57 134 -35 155 44 4 16 5
103 2 194 -4 91 -5 168 -3 173 2 4 41 7 87 7 57 0 88 5 102 15 28 21 60 18 77
-7 8 -13 48 -58 89 -102 62 -66 77 -78 96 -72 45 15 30 37 -108 157 l-60 52
74 71 c99 97 141 188 150 327 4 80 3 90 -28 161 -18 41 -39 83 -47 93 -48 58
-118 116 -176 146 -62 31 -76 34 -153 34 l-85 0 0 85 0 85 -103 3 -103 3 1
-83z m154 -80 c3 -57 7 -186 8 -288 l1 -185 -35 -3 c-23 -2 -37 2 -39 10 -2 7
-3 138 -1 291 l3 277 28 0 28 0 7 -102z m216 -75 c71 -21 94 -35 156 -98 44
-45 104 -144 104 -173 0 -5 7 -23 16 -40 8 -18 13 -41 9 -52 -7 -21 4 -20
-377 -25 l-43 0 2 197 c1 109 4 202 8 207 7 12 47 7 125 -16z m0 -505 c69 -5
129 -13 133 -18 14 -12 -30 -87 -65 -113 -41 -30 -77 -43 -150 -56 -31 -6 -76
-20 -98 -31 -22 -11 -45 -18 -50 -15 -13 8 -23 108 -15 156 10 58 55 104 93
94 15 -4 83 -11 152 -17z"/>
<path d="M5814 6035 c-14 -35 3 -45 78 -47 120 -2 135 3 123 41 -6 19 -14 21
-101 21 -75 0 -96 -3 -100 -15z"/>
<path d="M5720 4945 c0 -14 8 -29 20 -35 27 -14 25 -23 -10 -62 -34 -37 -37
-53 -13 -62 12 -5 27 4 50 31 l33 38 31 -37 c33 -40 65 -49 76 -21 5 11 -5 26
-30 48 -43 37 -44 44 -17 68 11 9 20 24 20 32 0 28 -28 28 -55 -1 l-25 -27
-28 26 c-35 34 -52 34 -52 2z"/>
<path d="M6135 4798 c-2 -13 -4 -32 -2 -43 2 -17 -5 -20 -40 -23 -40 -3 -43
-5 -43 -32 0 -27 3 -29 43 -32 39 -3 42 -5 42 -33 1 -17 4 -36 9 -43 13 -22
36 6 36 44 0 32 2 33 43 36 37 3 42 6 45 30 3 25 0 27 -40 30 -43 3 -43 3 -46
46 -3 34 -7 42 -22 42 -12 0 -22 -9 -25 -22z"/>
<path d="M5613 3998 c-24 -27 -43 -99 -43 -163 0 -66 23 -113 63 -130 l33 -13
-12 -120 c-6 -65 -14 -124 -17 -130 -7 -9 -26 -156 -47 -342 -4 -41 -13 -95
-18 -120 -20 -87 -34 -257 -23 -278 21 -39 75 -54 182 -50 75 2 102 7 109 18
20 31 30 90 34 211 7 188 15 208 75 187 14 -5 28 -4 36 2 10 8 41 6 46 -4 0 0
4 -83 8 -184 9 -231 5 -225 155 -230 87 -3 109 -1 133 14 15 10 31 23 35 29
14 19 9 229 -6 250 -7 11 -16 56 -20 100 -4 44 -11 98 -17 120 -5 22 -14 83
-19 135 -6 52 -17 138 -26 190 -8 52 -17 118 -20 147 -5 47 -4 52 18 58 34 11
58 35 58 59 0 12 6 31 14 41 12 18 12 32 -3 100 -22 112 -38 127 -126 123 -74
-3 -80 -8 -90 -70 -7 -45 -22 -49 -31 -10 -4 15 -16 39 -28 55 -19 26 -23 27
-106 27 -77 0 -89 -2 -108 -23 -12 -13 -22 -31 -22 -39 0 -24 -11 -48 -21 -48
-5 0 -12 18 -15 41 -10 58 -25 69 -98 69 -52 0 -66 -4 -83 -22z m127 -33 c8
-10 10 -29 6 -56 -9 -55 5 -69 65 -69 55 0 61 7 64 67 1 24 7 49 13 55 6 6 36
13 66 15 47 3 57 0 70 -19 9 -12 16 -38 16 -58 0 -54 10 -62 71 -58 l54 3 5
65 5 65 37 3 c70 6 78 -6 78 -111 0 -103 -7 -117 -55 -117 -17 0 -39 -6 -49
-13 -17 -12 -17 -16 -2 -51 9 -21 16 -64 16 -95 0 -31 7 -81 15 -111 8 -30 15
-80 15 -110 0 -30 7 -77 15 -104 8 -27 15 -75 15 -106 0 -31 7 -79 15 -106 8
-27 15 -73 15 -102 0 -30 7 -78 16 -108 8 -29 14 -70 12 -91 l-3 -38 -105 0
-105 0 4 161 c3 138 1 165 -14 194 -23 45 -52 67 -97 74 -66 11 -116 -3 -154
-42 l-34 -35 0 -179 0 -178 -104 0 c-74 0 -105 4 -109 13 -6 15 10 132 23 171
6 16 10 54 10 85 0 31 7 81 15 111 8 30 15 78 15 105 0 28 7 75 15 105 8 30
15 78 15 105 0 28 7 75 15 105 8 30 15 78 15 107 0 28 5 64 10 79 14 36 -1 52
-53 56 l-42 3 -3 99 c-1 55 0 106 2 113 8 19 90 17 106 -2z"/>
<path d="M5814 3607 c-3 -8 -4 -49 -2 -93 l3 -79 55 0 55 0 3 93 3 92 -56 0
c-37 0 -57 -4 -61 -13z m84 -78 c2 -44 -1 -58 -13 -62 -32 -13 -45 3 -45 57 0
59 5 68 35 64 17 -3 20 -11 23 -59z"/>
<path d="M6002 3608 c-7 -7 -12 -43 -12 -89 0 -65 3 -78 18 -83 21 -6 107 0
122 9 16 10 12 127 -6 153 -12 17 -25 22 -63 22 -26 0 -52 -5 -59 -12z m103
-78 l0 -55 -40 0 -40 0 -3 44 c-5 63 2 73 45 69 l38 -3 0 -55z"/>
<path d="M7066 7238 c-36 -35 -66 -69 -66 -76 0 -7 26 -37 58 -67 52 -49 61
-54 103 -55 61 0 94 33 94 94 0 45 -18 73 -87 134 l-36 33 -66 -63z"/>
<path d="M1578 7225 c-35 -35 -59 -52 -63 -45 -4 7 -16 -1 -30 -20 -13 -17
-32 -38 -42 -45 -15 -12 -16 -17 -5 -34 16 -28 15 -31 -8 -31 -12 0 -32 -11
-46 -25 -23 -23 -24 -27 -10 -47 22 -30 20 -61 -4 -83 -19 -18 -19 -18 13 -34
46 -23 49 -51 5 -51 -44 0 -139 -26 -148 -40 -4 -6 -14 -10 -21 -8 -16 3 -69
-35 -69 -50 0 -5 -13 -36 -30 -68 -27 -53 -30 -68 -30 -156 0 -54 4 -98 9 -98
5 0 31 -36 57 -80 40 -68 50 -79 69 -74 16 4 31 -4 57 -30 24 -24 42 -34 52
-30 13 5 69 -10 85 -23 3 -2 -4 -10 -15 -18 -19 -14 -19 -14 2 -15 11 0 23 3
27 6 3 3 38 8 77 11 55 3 86 12 134 36 33 18 63 36 65 40 2 5 16 24 32 42 16
18 29 42 29 54 0 12 7 38 15 58 8 19 15 61 15 92 l0 56 20 -25 c17 -21 22 -23
30 -10 18 29 25 35 68 63 77 50 79 106 7 177 -45 44 -60 90 -34 106 7 4 9 21
5 46 -5 29 -3 40 8 44 8 3 20 22 27 41 14 45 2 68 -54 105 l-41 26 -47 -39
c-26 -21 -49 -39 -52 -39 -2 0 -7 11 -9 25 -4 17 0 29 11 35 14 9 14 11 -3 24
-18 14 -18 16 3 44 46 65 8 141 -70 142 -30 0 -44 -9 -91 -55z m134 7 l26 -29
-98 -104 c-97 -102 -116 -134 -84 -146 8 -3 36 -25 62 -49 55 -51 73 -54 98
-16 10 15 33 43 52 62 18 19 38 47 44 62 14 40 44 45 73 13 31 -32 26 -42 -72
-138 -40 -39 -73 -76 -73 -83 0 -6 15 -23 34 -38 19 -14 51 -42 73 -62 21 -20
50 -41 66 -46 15 -6 27 -16 27 -24 0 -21 -30 -63 -53 -76 -18 -9 -26 -5 -61
34 -41 44 -111 109 -222 204 -139 120 -168 144 -176 144 -13 0 -9 38 5 47 7 4
37 37 67 72 30 35 72 81 92 103 20 21 40 48 44 61 14 44 39 47 76 9z m-262
-485 c60 -16 161 -80 225 -144 45 -44 54 -59 64 -111 21 -108 -19 -206 -109
-267 -41 -27 -52 -30 -125 -30 -87 1 -70 -7 -236 100 -61 40 -106 101 -126
169 -15 52 -14 60 2 111 9 30 20 55 23 55 4 0 14 13 23 29 24 41 80 80 130 90
58 12 76 11 129 -2z"/>
<path d="M1303 6656 c-44 -25 -83 -86 -83 -131 0 -60 40 -110 146 -181 87 -58
91 -59 156 -58 57 0 70 4 91 25 28 29 57 89 57 118 0 44 -40 101 -103 146 -34
24 -67 49 -73 54 -44 37 -147 51 -191 27z m142 -86 c4 -16 11 -30 17 -30 5 0
23 -11 40 -25 16 -14 40 -25 53 -25 40 0 39 -20 -4 -56 -31 -27 -41 -43 -41
-66 0 -29 -1 -30 -22 -16 -11 8 -23 25 -25 38 -5 33 -21 48 -29 27 -11 -29
-30 -19 -46 22 -12 30 -25 44 -52 55 -28 12 -36 21 -36 41 0 24 3 26 29 20 32
-7 71 11 71 32 0 7 9 13 19 13 13 0 21 -9 26 -30z"/>
<path d="M7196 6473 c-12 -12 -6 -33 9 -33 8 0 15 6 15 14 0 17 -14 28 -24 19z"/>
<path d="M7856 6315 c7 -27 -11 -39 -78 -50 -21 -3 -50 -16 -65 -29 -27 -21
-147 -66 -179 -66 -8 0 -37 -21 -64 -46 -46 -43 -50 -50 -50 -94 0 -42 4 -52
35 -79 20 -17 38 -31 42 -31 3 0 33 10 66 22 l60 22 33 -38 c27 -32 35 -36 40
-22 10 27 21 18 33 -28 7 -28 18 -47 29 -50 10 -4 28 -25 41 -48 20 -37 20
-43 7 -57 -9 -8 -33 -16 -53 -16 -47 -2 -90 -27 -125 -73 -38 -48 -36 -77 9
-118 35 -32 40 -34 113 -34 63 0 80 -3 94 -19 10 -11 24 -17 32 -14 19 7 43
-25 44 -57 l0 -25 -25 29 c-24 28 -26 28 -44 11 -11 -9 -21 -33 -23 -53 -3
-34 -6 -37 -45 -45 -53 -10 -60 -19 -65 -90 -4 -49 -2 -60 14 -68 15 -8 18
-22 18 -93 0 -75 2 -85 25 -106 l24 -23 -21 -29 c-20 -29 -21 -34 -9 -167 7
-75 17 -158 21 -186 5 -31 4 -65 -2 -91 -14 -49 -6 -83 28 -123 22 -27 24 -32
10 -37 -40 -15 -59 -105 -34 -159 9 -20 19 -25 47 -25 50 -1 71 -20 71 -63 0
-42 11 -52 40 -37 13 7 20 21 20 40 0 17 4 30 9 30 5 0 11 -51 14 -112 3 -62
7 -121 9 -131 5 -28 -56 -45 -144 -39 -95 6 -132 -11 -147 -66 -6 -20 -11 -44
-11 -51 0 -23 51 -71 76 -71 26 0 41 -16 46 -50 2 -19 10 -26 30 -28 l27 -3
-4 -107 -4 -107 -33 -8 c-41 -11 -56 -11 -138 2 -53 8 -71 7 -97 -5 -44 -20
-66 -65 -58 -114 5 -32 3 -39 -13 -44 -10 -4 -29 -28 -41 -55 -22 -46 -22 -50
-7 -80 9 -17 20 -31 24 -31 4 -1 18 -10 31 -20 l23 -20 -23 -19 c-20 -17 -22
-23 -12 -39 13 -22 13 -22 -102 -38 -27 -4 -59 -13 -71 -21 -23 -15 -74 -102
-74 -127 0 -8 -14 -23 -30 -31 -17 -9 -36 -27 -42 -40 -6 -14 -17 -25 -24 -25
-8 0 -21 -12 -31 -27 -10 -16 -28 -38 -40 -50 -13 -12 -23 -34 -23 -49 0 -16
-11 -37 -30 -54 -24 -22 -30 -36 -30 -68 0 -31 -4 -41 -19 -45 -11 -2 -21 -15
-23 -28 -2 -20 -9 -24 -40 -24 -27 0 -42 -6 -53 -22 -8 -12 -25 -23 -37 -25
-34 -5 -62 -63 -95 -197 -16 -63 54 -210 100 -211 10 0 30 -9 45 -20 15 -11
47 -24 72 -28 l45 -8 1 -44 c1 -37 6 -48 33 -71 52 -43 145 -52 209 -20 20 10
48 21 62 25 55 14 130 164 130 259 l0 47 68 0 c61 0 70 3 100 31 17 16 32 37
32 45 0 9 7 14 17 12 11 -2 23 8 32 27 8 17 23 36 33 43 10 7 18 25 18 41 0
16 9 40 20 54 13 17 20 40 20 71 0 39 3 46 20 46 35 0 25 38 -12 48 -53 13
-42 37 17 37 67 1 92 11 110 45 24 47 19 87 -16 122 -16 17 -28 37 -25 44 3 7
-2 18 -11 22 -32 19 -7 38 51 40 68 2 122 23 158 63 33 36 40 60 36 120 -3 37
-7 46 -33 59 l-30 15 39 3 c26 2 54 14 78 34 34 27 38 34 38 76 0 33 -6 52
-22 69 l-22 23 24 23 c14 12 33 27 45 32 11 6 26 23 33 38 7 15 17 27 23 27 5
0 9 7 9 15 0 13 20 66 41 108 5 9 12 39 16 65 3 26 12 59 19 74 24 46 18 90
-16 121 -35 34 -37 51 -10 74 11 10 20 26 20 36 0 10 11 28 23 41 13 13 31 50
40 82 23 84 49 265 42 294 -4 14 -23 44 -42 68 l-35 43 41 35 c36 31 41 41 41
78 0 23 -6 50 -13 59 -17 25 -101 44 -220 52 -56 4 -107 12 -114 17 -7 5 -14
5 -18 -2 -11 -17 -65 -12 -71 8 -3 9 -12 32 -20 51 -12 27 -18 32 -25 20 -5
-8 -9 -26 -9 -41 0 -16 -4 -28 -10 -28 -5 0 -12 12 -15 28 -4 15 -10 44 -14
64 -12 50 6 76 38 59 31 -17 53 1 41 34 -14 36 7 45 116 51 55 2 132 9 172 14
40 6 78 10 83 10 20 0 69 65 69 91 0 14 -10 41 -23 60 -18 27 -34 36 -72 45
-50 12 -50 12 -18 19 50 11 66 37 67 103 0 65 -20 104 -66 128 l-29 15 30 29
c25 22 31 36 31 70 0 87 -41 114 -148 98 -51 -8 -76 -8 -83 -1 -6 6 -11 39
-12 73 l-2 64 54 20 c30 12 57 28 59 36 3 8 11 19 18 23 8 4 14 21 14 38 0 61
-54 125 -95 115 -31 -8 -41 10 -20 34 16 18 16 20 0 48 -16 26 -16 31 -1 59
14 28 14 36 1 73 -8 23 -12 52 -9 64 4 17 -1 25 -20 34 -21 9 -26 19 -26 47 0
19 -4 35 -9 35 -5 0 -21 24 -34 54 -34 74 -56 87 -131 75 -33 -5 -62 -12 -67
-14 -4 -3 -9 2 -13 10 -9 25 -27 17 -20 -10z m170 -52 c30 -74 45 -109 74
-166 37 -73 42 -160 11 -196 -11 -13 -21 -26 -23 -30 -2 -4 -20 -20 -41 -35
-33 -25 -47 -29 -106 -30 -61 0 -72 3 -107 31 -21 17 -47 46 -56 65 -22 45
-45 98 -53 125 -3 11 -12 24 -20 26 -15 7 -149 -57 -182 -85 -17 -16 -25 -18
-42 -9 -12 7 -21 15 -21 20 0 5 -3 22 -6 39 -6 29 -4 32 42 53 78 35 156 70
189 83 17 7 59 27 95 44 36 18 70 32 76 32 6 0 17 7 24 15 7 8 20 15 30 15 10
0 28 9 41 20 37 30 58 25 75 -17z m222 -521 c2 -12 8 -22 13 -22 13 0 11 -36
-3 -47 -7 -6 -40 -15 -73 -21 -107 -19 -168 -37 -178 -53 -7 -11 -5 -26 6 -50
17 -35 33 -94 46 -167 10 -55 16 -59 54 -41 18 9 59 24 92 34 33 9 72 22 87
27 36 13 56 5 69 -29 16 -42 -2 -73 -43 -73 -34 0 -66 -7 -158 -34 -93 -28
-163 -47 -209 -56 -24 -6 -49 -14 -55 -18 -6 -5 -37 -15 -69 -22 -50 -12 -60
-12 -68 1 -13 21 -11 65 4 77 14 12 120 40 187 50 53 8 59 24 36 86 -8 22 -18
58 -22 79 -3 20 -10 40 -15 43 -5 3 -9 21 -9 40 0 41 -19 53 -52 30 -12 -9
-33 -16 -45 -16 -13 0 -31 -4 -41 -9 -32 -17 -123 -42 -132 -36 -6 4 -10 15
-10 25 0 10 -4 22 -10 25 -5 3 -10 14 -10 23 0 13 14 21 48 30 26 7 70 19 97
27 28 8 70 19 95 24 85 18 134 32 145 40 5 5 30 11 55 15 24 4 49 11 55 16 14
11 76 29 95 27 8 -1 16 -12 18 -25z m-124 -217 c6 -17 -2 -45 -14 -45 -15 0
-32 30 -26 45 7 19 32 19 40 0z m270 -361 c3 -9 6 -36 6 -60 l0 -44 -47 0
c-27 0 -75 -5 -108 -11 -33 -5 -88 -14 -122 -19 -34 -4 -84 -13 -110 -18 -26
-6 -75 -15 -108 -21 -33 -5 -72 -13 -86 -16 -25 -7 -27 -4 -34 35 -5 30 -3 46
6 56 8 7 59 18 123 24 60 6 114 14 120 18 6 3 54 11 106 18 52 6 127 20 165
31 39 11 73 21 76 22 4 0 10 -6 13 -15z m34 -292 c2 -37 -1 -52 -10 -53 -7 0
-44 0 -83 0 -38 1 -137 -3 -220 -9 -82 -6 -161 -11 -175 -11 -45 1 -52 -10
-41 -65 5 -27 12 -86 14 -132 6 -90 -5 -116 -47 -110 -19 3 -22 13 -32 98 -6
52 -14 139 -17 192 l-6 97 27 4 c15 2 63 5 107 6 44 1 107 6 140 11 33 5 101
10 151 11 50 1 109 5 130 9 21 4 44 7 49 6 6 -2 11 -26 13 -54z m-438 -141 c0
-5 -7 -14 -15 -21 -13 -10 -15 -9 -15 9 0 12 6 21 15 21 8 0 15 -4 15 -9z m40
-286 c52 -3 168 -6 257 -7 180 -1 179 0 164 -68 l-7 -35 -85 3 c-46 1 -115 5
-154 8 -38 3 -135 8 -215 11 -80 3 -151 10 -157 15 -19 15 -16 65 5 77 9 6 35
9 57 6 22 -2 83 -7 135 -10z m-100 -205 c25 -6 92 -14 150 -20 58 -5 128 -14
155 -19 28 -6 80 -10 116 -10 88 -1 92 -7 79 -107 -27 -199 -47 -261 -98 -299
-22 -16 -42 -20 -107 -20 -88 0 -115 13 -153 70 -26 40 -45 121 -33 143 5 9
12 46 16 82 l7 65 -66 13 c-36 6 -90 12 -120 12 -30 0 -57 4 -61 9 -3 6 -3 28
1 50 6 38 9 41 38 41 17 -1 51 -5 76 -10z m-136 -479 c3 -5 23 -12 43 -15 41
-8 122 -35 138 -47 6 -4 33 -10 60 -14 28 -4 55 -11 60 -15 9 -7 26 -12 165
-44 62 -14 100 -32 100 -46 0 -6 -4 -18 -9 -28 -14 -24 -51 -152 -51 -173 0
-10 -4 -20 -9 -23 -5 -3 -12 -18 -16 -33 -9 -39 -78 -100 -126 -113 -62 -17
-147 19 -197 84 -29 38 -31 142 -2 223 30 85 27 100 -17 106 -58 9 -146 28
-163 37 -19 9 -24 33 -15 76 6 32 27 45 39 25z m-112 -501 c4 0 36 -13 71 -30
36 -16 72 -30 81 -30 9 0 16 -4 16 -9 0 -5 14 -12 31 -16 17 -4 42 -13 57 -21
15 -8 32 -14 39 -14 6 0 24 -6 40 -14 60 -31 102 -46 127 -46 38 0 53 -37 32
-79 -19 -36 -26 -37 -80 -12 -69 32 -107 48 -216 92 -190 75 -205 81 -239 89
-19 5 -41 15 -49 24 -14 13 -14 19 -2 43 25 51 29 53 58 37 15 -8 30 -14 34
-14z m-96 -154 c3 -8 18 -20 32 -26 15 -6 54 -26 87 -44 80 -46 244 -132 328
-174 38 -18 67 -37 65 -40 -33 -68 -35 -69 -147 -76 -58 -4 -124 -11 -146 -16
-22 -5 -93 -10 -157 -10 -64 0 -119 -4 -123 -9 -6 -10 76 -51 101 -51 8 0 14
-4 14 -8 0 -4 26 -20 58 -35 31 -15 64 -32 72 -37 8 -5 45 -23 83 -40 37 -17
67 -36 67 -41 0 -6 -10 -28 -22 -49 -24 -41 -42 -50 -51 -26 -3 7 -36 29 -74
49 -37 19 -97 52 -133 72 -36 19 -78 42 -95 51 -16 8 -43 23 -60 34 -16 11
-37 23 -45 26 -8 3 -29 12 -47 20 -17 8 -36 14 -42 14 -6 0 -11 14 -11 30 0
17 4 30 9 30 5 0 13 9 16 20 5 17 15 20 70 20 35 0 86 5 112 10 26 6 116 11
198 13 86 1 152 6 154 12 3 9 -231 135 -251 135 -5 0 -26 11 -47 25 -22 13
-51 27 -65 31 -33 8 -35 42 -3 78 25 29 45 33 53 12z m-255 -507 c30 -29 131
-105 215 -162 22 -15 49 -35 60 -45 32 -29 129 -92 141 -92 6 0 14 -9 18 -19
4 -14 -12 -43 -60 -104 -36 -47 -65 -88 -65 -91 0 -4 -10 -17 -21 -29 -12 -12
-28 -37 -35 -55 -21 -47 -40 -50 -76 -14 l-31 30 29 29 c16 15 41 46 56 68 15
22 41 55 58 73 34 37 35 42 18 63 -26 31 -131 104 -135 93 -2 -6 -23 -37 -46
-70 -24 -32 -53 -76 -66 -96 -12 -21 -27 -38 -31 -38 -10 0 -60 48 -60 57 0 8
65 88 112 138 21 22 38 46 38 52 0 7 -19 25 -42 40 -24 16 -56 40 -73 55 -16
16 -36 28 -42 28 -11 0 -54 -56 -73 -95 -3 -5 -27 -38 -54 -72 l-49 -62 -28
15 c-20 10 -29 22 -29 39 0 14 4 25 9 25 4 0 32 32 62 71 30 38 68 89 86 112
17 23 32 47 32 53 1 14 23 34 38 34 7 0 26 -14 44 -31z m-11 -296 c0 -16 -36
-17 -46 -2 -4 7 -17 1 -35 -17 -31 -30 -30 -44 6 -44 27 0 40 -35 30 -81 -6
-25 -3 -30 22 -40 20 -8 38 -7 66 1 40 12 57 7 57 -14 0 -8 9 -20 21 -27 17
-12 20 -20 14 -52 -9 -46 -21 -47 -42 -2 -19 39 -77 69 -105 54 -9 -5 -43 -9
-75 -9 l-58 1 37 30 37 30 -29 56 c-36 68 -37 78 -5 107 14 13 25 28 25 33 0
26 23 31 51 10 16 -11 29 -27 29 -34z m-210 -82 c64 -21 76 -48 39 -87 -26
-28 -41 -30 -59 -9 -16 20 -69 19 -109 -1 -39 -19 -79 -71 -87 -112 -5 -26 -1
-36 24 -62 40 -39 75 -39 149 1 32 17 63 35 68 39 6 4 35 15 66 24 45 13 63
14 90 5 63 -21 119 -93 119 -154 0 -63 -83 -182 -140 -200 -11 -4 -20 -11 -20
-16 0 -5 -30 -9 -67 -8 -84 1 -130 23 -125 60 2 13 8 26 14 28 5 1 17 12 28
23 18 20 18 20 29 -1 10 -17 21 -21 64 -21 48 0 57 4 88 36 29 29 34 42 34 80
0 38 -5 50 -29 70 -32 28 -65 26 -120 -7 -115 -68 -184 -88 -243 -69 -50 16
-81 46 -104 98 -18 41 -18 45 -1 98 10 36 31 71 57 99 44 47 68 62 135 86 25
9 45 17 45 17 0 1 25 -7 55 -17z m398 -93 c-5 -32 -28 -35 -28 -4 0 17 5 26
16 26 10 0 14 -7 12 -22z"/>
<path d="M7880 6144 c-36 -18 -73 -33 -82 -33 -37 -2 -31 -25 35 -146 30 -53
37 -61 71 -66 53 -9 80 -1 115 33 38 38 40 77 7 145 -13 26 -28 60 -34 76 -14
34 -29 33 -112 -9z"/>
<path d="M8129 4104 c-5 -14 -9 -65 -9 -113 0 -81 2 -89 26 -112 21 -19 36
-24 80 -24 76 0 91 18 114 136 10 52 16 97 13 102 -2 4 -28 7 -56 7 -29 0 -76
7 -105 14 -53 14 -53 14 -63 -10z"/>
<path d="M8037 3584 c-4 -4 -7 -22 -7 -39 0 -18 -7 -49 -15 -68 -32 -77 -13
-135 52 -162 51 -21 75 -19 110 13 30 26 63 100 63 142 0 10 5 22 10 25 25 15
7 35 -47 50 -32 9 -71 21 -88 27 -49 17 -70 20 -78 12z"/>
<path d="M910 6174 c0 -5 16 -22 35 -37 19 -15 35 -33 35 -40 0 -7 24 -40 53
-74 28 -34 70 -82 92 -108 22 -26 46 -58 54 -70 14 -22 127 -70 194 -82 38 -7
43 -26 21 -74 -21 -44 -35 -48 -71 -19 -14 11 -31 20 -39 20 -7 0 -25 6 -41
14 -76 38 -80 39 -145 28 -35 -6 -103 -16 -153 -21 -49 -6 -114 -15 -143 -21
-67 -14 -86 -3 -71 40 20 57 34 61 272 76 53 4 97 8 97 11 0 2 -30 34 -66 71
-37 37 -87 91 -111 120 -44 50 -45 54 -41 107 3 30 2 55 -2 55 -14 0 -30 -26
-30 -49 0 -13 -8 -33 -17 -43 -16 -17 -15 -20 5 -46 57 -71 57 -70 33 -96
l-22 -24 35 -22 c20 -12 34 -25 31 -30 -2 -4 -35 -10 -73 -14 -106 -11 -151
-57 -157 -163 0 -12 -9 -31 -19 -42 -18 -19 -26 -44 -51 -154 -7 -32 -20 -75
-28 -95 -21 -53 -41 -195 -34 -244 4 -28 1 -48 -10 -65 -23 -35 -22 -106 1
-132 11 -12 27 -21 37 -21 10 0 21 -4 24 -10 3 -5 -3 -10 -14 -10 -17 0 -21
-6 -21 -33 0 -24 -6 -35 -22 -42 -45 -20 -61 -77 -59 -213 2 -100 6 -127 19
-141 104 -110 115 -141 64 -189 -24 -23 -36 -50 -58 -129 -2 -8 -10 -10 -20
-6 -14 5 -16 3 -10 -13 16 -36 35 -139 36 -184 0 -51 35 -128 65 -144 11 -6
22 -12 24 -13 2 -2 -4 -12 -15 -24 -23 -25 -26 -125 -6 -174 7 -16 18 -71 25
-120 15 -98 32 -134 75 -156 15 -7 29 -14 31 -16 2 -1 -7 -16 -19 -33 -21 -30
-21 -31 -4 -76 26 -67 46 -76 175 -79 61 -2 113 -6 117 -9 3 -4 -6 -18 -21
-32 -16 -14 -27 -35 -27 -50 0 -16 -12 -36 -32 -54 -33 -30 -58 -92 -58 -143
0 -18 10 -38 29 -55 38 -36 50 -61 44 -98 -4 -25 2 -38 35 -73 41 -44 56 -49
112 -36 l35 7 -36 -29 c-33 -26 -35 -31 -23 -48 8 -10 14 -38 14 -62 0 -38 4
-45 37 -68 37 -25 93 -34 93 -15 0 5 14 16 30 25 27 14 30 14 30 0 0 -8 -11
-21 -25 -27 -19 -9 -22 -14 -14 -25 14 -16 55 -17 66 0 4 6 15 18 25 25 27 22
30 -4 4 -36 -14 -16 -25 -37 -25 -48 1 -10 -6 -38 -15 -61 -14 -37 -14 -46 0
-86 21 -63 44 -81 104 -81 l48 0 -1 -51 c-1 -36 5 -61 20 -86 28 -44 50 -57
110 -63 43 -5 49 -4 58 16 6 13 24 28 41 33 17 6 45 24 63 40 18 17 45 42 61
58 17 15 33 27 37 27 5 0 24 14 43 30 43 37 61 35 72 -8 8 -31 5 -39 -34 -89
-23 -31 -47 -65 -53 -77 -9 -18 -22 -27 -85 -56 -8 -4 -14 -17 -12 -28 2 -12
-7 -28 -23 -40 -20 -16 -25 -28 -25 -67 0 -59 13 -83 55 -101 51 -21 78 -17
110 16 16 17 39 30 52 30 13 0 26 8 30 18 8 21 104 112 119 112 12 0 93 96
104 125 24 62 32 109 27 159 -7 70 -74 216 -99 216 -9 0 -21 6 -25 13 -14 22
-59 46 -114 60 l-54 13 -5 58 c-5 53 -9 62 -44 92 -45 39 -73 42 -110 13 -29
-23 -33 -22 -50 13 -6 13 -22 24 -34 26 -12 2 -22 5 -22 6 0 2 11 29 25 61 28
62 36 133 17 156 -6 8 -23 29 -38 47 -14 17 -32 32 -39 32 -10 0 -12 9 -8 35
4 28 0 41 -27 75 -35 45 -58 49 -125 25 -54 -19 -55 -19 -93 16 -27 24 -31 33
-22 45 7 7 21 14 31 14 12 0 24 11 31 28 7 15 25 38 40 52 26 23 28 29 22 77
-5 40 -14 58 -38 82 -30 29 -37 31 -125 35 -51 3 -95 6 -96 8 -2 2 3 12 11 22
11 16 17 17 26 8 13 -13 48 -16 48 -4 0 17 -25 32 -55 33 -16 0 -39 4 -50 8
-15 6 -5 13 49 31 38 12 81 34 97 49 31 28 31 24 -2 154 -6 23 -14 62 -18 87
-10 58 -31 139 -42 165 -5 11 -12 45 -17 75 -9 67 -25 77 -135 86 -87 7 -94
17 -33 48 33 16 35 19 20 31 -17 12 -16 15 13 44 17 17 38 31 45 31 8 0 25 11
38 25 24 25 24 31 4 172 -4 25 0 67 10 106 18 73 20 144 5 202 -20 76 -19 132
3 161 11 14 23 46 26 71 4 41 2 47 -24 69 -16 13 -35 23 -42 24 -7 0 -23 6
-35 12 -34 19 -158 38 -178 27 -10 -5 -24 -7 -31 -5 -7 3 -46 10 -85 16 -40 7
-73 16 -73 20 0 5 30 11 68 14 37 4 89 13 115 21 27 7 55 11 63 8 8 -3 20 0
27 6 7 5 24 10 38 9 13 -1 57 -1 97 0 90 2 122 26 122 90 0 60 -22 78 -130
106 -52 13 -106 29 -120 34 -14 6 -54 16 -90 23 -83 15 -83 15 -63 45 13 20
14 30 4 50 l-11 25 -26 -20 c-34 -27 -44 -19 -44 34 0 47 14 59 57 49 19 -5
24 -3 21 7 -2 8 -21 15 -41 17 -20 2 -37 8 -37 14 0 5 6 8 13 5 6 -2 50 -1 97
3 49 5 90 4 96 -1 6 -5 42 -9 80 -8 111 3 194 -2 194 -12 0 -5 19 -9 43 -9 37
0 46 5 75 40 43 51 43 90 1 122 -17 13 -44 35 -59 51 -18 17 -39 27 -57 27
-27 0 -29 2 -25 30 4 27 0 32 -30 45 -19 8 -43 26 -52 40 -10 16 -26 25 -42
25 -22 0 -23 3 -14 20 8 15 6 24 -10 40 -11 11 -30 20 -43 20 -27 0 -47 17
-41 35 3 7 -8 23 -25 34 -32 23 -101 40 -101 25z m-160 -559 c35 -18 35 -16
11 -85 -26 -76 -34 -117 -23 -124 5 -3 33 -9 63 -15 99 -17 174 -33 194 -43
21 -9 81 -21 198 -41 55 -9 67 -14 67 -29 0 -29 -29 -78 -45 -78 -8 0 -59 12
-112 26 -99 27 -173 44 -273 65 -30 6 -67 17 -81 25 -37 19 -48 3 -62 -88 -5
-40 -15 -79 -20 -85 -13 -18 -52 -16 -71 2 -15 15 -14 27 4 70 5 11 14 43 20
70 6 28 18 77 27 110 8 33 20 92 27 131 9 61 27 104 43 104 2 0 17 -7 33 -15z
m153 -397 c12 -6 44 -17 72 -23 l50 -13 -46 -1 c-25 -1 -54 -8 -65 -16 -27
-20 -184 -21 -184 -1 0 15 21 26 50 26 10 0 28 9 41 20 28 22 51 25 82 8z
m-168 -168 c17 -5 73 -14 125 -20 52 -5 118 -14 145 -19 28 -5 80 -10 118 -10
l67 -1 0 -51 0 -51 -82 7 c-46 3 -96 11 -113 16 -16 5 -75 13 -130 18 -55 6
-122 15 -150 21 -27 6 -66 9 -86 6 -22 -4 -43 -1 -54 8 -17 13 -18 17 -5 56
l14 42 60 -7 c34 -3 75 -10 91 -15z m0 -216 c11 -12 14 -25 10 -43 -4 -14 -7
-27 -8 -27 -1 -1 -24 -11 -50 -22 -37 -17 -51 -29 -63 -59 -19 -44 -12 -117
13 -145 17 -18 87 -25 109 -10 15 9 54 83 54 100 0 8 14 43 30 77 35 74 95
125 146 125 120 0 185 -71 186 -201 1 -103 -41 -180 -117 -218 -57 -29 -95
-21 -95 19 0 46 10 60 41 60 32 0 64 29 85 79 42 100 -27 198 -114 162 -27
-12 -72 -77 -72 -105 0 -29 -50 -122 -85 -158 -62 -63 -150 -62 -216 3 -21 21
-39 47 -39 58 0 11 -4 23 -10 26 -5 3 -10 34 -10 69 0 101 50 179 135 209 53
19 51 19 70 1z m35 -474 c0 -5 -21 -10 -47 -10 -35 0 -44 3 -33 10 20 13 80
13 80 0z m391 -27 c2 -49 -1 -66 -11 -77 -5 -5 -48 -15 -97 -23 -48 -7 -96
-16 -105 -19 -27 -8 -38 -61 -30 -149 l7 -80 45 3 c25 1 59 7 75 12 17 5 55
12 86 15 l56 7 7 -43 c4 -23 3 -45 -1 -49 -10 -9 -164 -28 -323 -41 -63 -5
-133 -13 -155 -19 -22 -5 -60 -11 -85 -12 l-45 -3 -7 65 c-3 36 -11 94 -17
130 -15 93 2 150 59 205 29 28 37 30 107 30 71 0 76 -1 99 -30 l23 -30 40 43
c37 40 45 43 105 49 40 3 79 14 103 28 54 33 63 31 64 -12z m39 -458 c7 -8 18
-45 25 -83 17 -89 31 -146 52 -208 21 -65 14 -84 -31 -84 -20 0 -55 -6 -78
-14 -24 -8 -62 -17 -86 -20 -24 -4 -51 -10 -60 -15 -16 -8 -56 -18 -172 -41
-25 -4 -63 -16 -84 -25 -21 -9 -49 -14 -62 -11 -20 5 -24 13 -24 45 0 20 -9
69 -21 107 -11 38 -27 92 -35 121 -23 77 -17 98 26 98 27 0 35 -4 38 -20 2
-11 7 -29 11 -40 10 -23 30 -113 38 -168 6 -47 15 -52 52 -32 17 8 46 15 65
15 73 0 78 14 47 114 -45 145 -46 147 -30 157 36 23 89 1 89 -38 0 -14 4 -42
10 -62 5 -20 12 -57 15 -83 5 -42 9 -48 30 -48 13 0 27 5 30 10 3 6 18 10 32
10 40 0 104 22 111 38 3 8 -2 38 -11 66 -19 57 -36 125 -44 172 -4 24 0 32 19
41 31 15 34 15 48 -2z m-213 -41 c1 -5 -1 -15 -6 -23 -8 -12 -12 -13 -25 -2
-13 11 -14 17 -5 28 13 14 31 13 36 -3z m105 -59 c4 -38 5 -73 2 -77 -8 -12
-62 -10 -69 3 -4 6 3 21 16 35 21 22 22 27 10 59 -14 39 -8 58 17 53 13 -2 19
-19 24 -73z m-257 35 c-3 -5 -24 -10 -46 -10 -24 0 -38 4 -34 10 3 6 24 10 46
10 24 0 38 -4 34 -10z m-15 -85 c0 -8 -9 -17 -20 -20 -15 -5 -20 -15 -20 -41
0 -19 -4 -34 -9 -34 -12 0 -24 37 -16 50 3 5 1 19 -5 30 -17 33 3 51 41 38 16
-5 29 -16 29 -23z m569 -461 c12 -15 21 -34 21 -43 0 -9 -26 -37 -58 -62 -31
-26 -79 -68 -107 -94 -27 -25 -84 -77 -125 -113 -95 -86 -170 -162 -170 -173
0 -5 -9 -9 -20 -9 -11 0 -20 6 -20 14 0 8 -8 28 -17 45 l-18 30 32 28 c17 16
44 39 60 52 109 93 155 132 202 174 30 27 65 53 78 58 14 5 21 14 17 20 -6 11
-20 10 -234 -8 -25 -2 -95 -6 -157 -9 -111 -6 -111 -6 -128 19 -9 14 -15 36
-13 49 l3 23 298 7 c165 3 301 9 305 12 12 13 31 5 51 -20z m144 -325 c9 -17
17 -37 17 -44 0 -7 -42 -34 -92 -59 -93 -46 -213 -109 -343 -180 -38 -21 -75
-45 -83 -55 -9 -11 -15 -12 -18 -4 -3 6 -14 21 -25 34 -11 13 -19 31 -17 42 3
18 14 26 98 68 186 92 378 195 397 215 23 22 47 16 66 -17z m90 -170 c17 -31
23 -79 9 -79 -8 0 -17 -20 -107 -225 -15 -33 -42 -91 -61 -128 -31 -63 -41
-97 -29 -97 3 0 44 29 92 65 49 35 104 76 123 90 19 14 56 41 83 60 57 42 68
43 103 8 30 -30 25 -48 -17 -71 -31 -17 -61 -36 -151 -97 -40 -27 -80 -54 -89
-60 -64 -39 -188 -127 -199 -140 -18 -22 -36 -19 -59 11 -28 36 -27 50 15 141
69 151 118 261 128 283 3 8 15 29 25 45 21 32 27 65 12 65 -6 0 -31 -18 -58
-40 -70 -58 -72 -60 -78 -60 -4 0 -33 -20 -65 -45 -32 -25 -62 -45 -67 -45 -4
0 -25 -16 -46 -35 -21 -19 -42 -35 -46 -35 -13 0 -51 59 -51 80 0 11 8 24 18
27 9 4 42 22 72 42 30 19 62 40 72 46 48 30 178 117 251 167 45 32 87 58 92
58 6 0 18 -14 28 -31z m352 -509 c78 -35 138 -107 159 -191 17 -65 -1 -123
-58 -181 -73 -75 -295 -288 -300 -288 -3 0 -16 11 -30 24 -31 28 -34 69 -7 82
16 8 87 71 252 225 20 19 44 51 53 72 15 32 15 43 5 75 -27 83 -118 130 -190
99 -37 -17 -309 -276 -309 -295 0 -22 -37 -12 -69 17 -17 16 -31 34 -31 39 0
6 19 25 43 44 49 38 36 26 171 153 156 147 213 170 311 125z m5 -165 c0 -16
-27 -32 -37 -22 -3 4 -3 13 0 22 8 20 37 20 37 0z m-12 -107 c-6 -18 -28 -21
-28 -4 0 9 7 16 16 16 9 0 14 -5 12 -12z"/>
<path d="M694 4195 c-18 -8 -38 -28 -48 -49 -14 -30 -15 -43 -3 -113 l14 -78
43 4 c25 2 55 7 68 12 13 5 36 9 52 9 16 0 31 4 34 8 3 4 -1 35 -9 68 -8 32
-17 72 -20 87 -6 28 -56 68 -85 66 -8 0 -29 -7 -46 -14z"/>
<path d="M1125 4120 c3 -5 13 -10 21 -10 8 0 12 5 9 10 -3 6 -13 10 -21 10 -8
0 -12 -4 -9 -10z"/>
<path d="M537 3603 c-11 -10 -8 -43 3 -43 6 0 10 11 10 25 0 26 -2 29 -13 18z"/>
<path d="M2600 2309 l-25 -21 25 7 c14 4 37 9 53 12 40 8 44 23 5 23 -18 0
-44 -10 -58 -21z"/>
<path d="M3244 2321 c4 -6 19 -11 33 -11 13 0 37 -6 51 -13 58 -30 100 -47
167 -67 39 -12 77 -25 85 -28 28 -10 125 -33 185 -42 33 -6 74 -14 90 -19 17
-5 87 -15 156 -22 138 -13 314 -1 366 26 58 30 164 75 176 75 6 0 21 7 31 15
11 8 30 15 42 15 12 0 27 6 33 14 6 8 24 16 39 19 15 2 41 10 57 16 17 6 44
14 60 18 30 7 30 7 -10 11 -40 4 -132 -12 -170 -29 -11 -5 -51 -20 -90 -33
-38 -14 -95 -34 -125 -46 -121 -48 -159 -54 -320 -54 -92 -1 -177 4 -210 12
-30 7 -77 17 -105 21 -27 5 -77 19 -110 31 -179 66 -451 123 -431 91z"/>
<path d="M5145 2320 c3 -5 15 -10 25 -10 19 0 69 -19 122 -46 14 -8 31 -14 38
-14 7 0 28 -7 48 -16 21 -9 52 -22 70 -30 18 -8 37 -14 43 -14 6 0 25 -6 42
-14 172 -75 496 -55 757 46 36 14 73 28 83 32 9 3 17 10 17 16 0 13 -56 13
-81 -1 -11 -6 -41 -14 -67 -18 -26 -5 -92 -21 -147 -36 -92 -26 -114 -28 -285
-29 -135 0 -195 3 -220 13 -64 26 -95 38 -150 60 -30 13 -73 27 -95 31 -22 5
-62 16 -90 24 -57 18 -119 21 -110 6z"/>
<path d="M2810 2259 c-82 -11 -150 -32 -150 -45 0 -7 20 -15 45 -18 50 -8 63
-20 45 -41 -16 -20 8 -29 53 -22 78 14 156 29 202 39 28 7 123 12 212 13 160
1 203 7 147 21 -16 4 -33 10 -39 14 -13 11 -112 30 -200 41 -85 10 -240 9
-315 -2z"/>
<path d="M4855 2244 c-81 -20 -163 -46 -265 -84 -47 -17 -100 -37 -117 -42
-18 -6 -33 -15 -33 -20 0 -13 44 -9 91 8 29 10 95 18 190 21 131 5 156 3 235
-17 48 -12 95 -26 103 -30 27 -14 124 -57 176 -79 110 -46 413 -38 634 18 20
5 57 12 83 16 26 3 50 10 53 14 2 5 25 12 50 15 25 4 45 11 45 17 0 13 -33 11
-110 -6 -127 -28 -437 -11 -474 26 -6 5 -19 9 -29 9 -10 0 -33 6 -50 14 -32
13 -82 33 -159 62 -24 9 -56 22 -73 29 -99 41 -249 54 -350 29z m240 -60 c17
-3 38 -5 49 -5 10 0 34 -9 54 -20 20 -10 43 -19 52 -19 39 0 180 -69 180 -89
0 -5 -6 -14 -14 -20 -10 -9 -17 -7 -27 5 -9 11 -23 14 -47 10 -40 -6 -138 17
-162 39 -9 8 -26 15 -38 15 -11 0 -23 4 -27 9 -3 6 -37 20 -75 32 -69 21 -70
22 -53 41 13 15 25 18 48 13 16 -4 44 -9 60 -11z"/>
<path d="M3180 2109 c-69 -4 -138 -10 -155 -14 -16 -3 -54 -11 -82 -16 -53
-10 -66 -22 -39 -32 8 -3 57 -2 108 3 51 5 139 11 196 14 153 7 330 -28 345
-69 4 -8 16 -15 27 -15 24 0 28 -31 6 -49 -8 -7 -52 -13 -99 -15 -108 -5 -247
-35 -247 -54 0 -10 8 -12 31 -7 17 4 110 7 207 7 174 1 179 0 263 -30 47 -18
116 -45 153 -62 97 -43 181 -57 252 -41 32 7 62 17 68 23 12 10 126 86 155
103 9 6 31 20 49 33 38 27 131 62 165 62 25 0 107 -33 136 -54 8 -6 64 -59
123 -118 99 -100 110 -108 145 -108 22 0 57 11 83 25 25 14 56 31 70 38 14 6
30 17 35 23 20 22 142 91 203 114 l63 25 -83 6 c-83 5 -137 20 -232 63 -28 12
-64 29 -81 36 -90 41 -318 67 -438 51 -115 -15 -151 -27 -312 -106 -83 -41
-158 -75 -166 -75 -8 0 -19 -4 -25 -10 -15 -15 -154 -33 -208 -26 -83 11 -125
38 -224 146 -52 55 -106 107 -121 114 -32 17 -197 24 -371 15z m1700 -113
c120 -23 310 -102 310 -129 0 -20 -60 -87 -78 -87 -9 0 -36 -10 -59 -22 -41
-22 -41 -22 -82 -3 -23 10 -80 56 -127 102 -52 52 -103 92 -131 104 -56 24
-48 37 27 42 30 2 57 4 60 5 3 1 39 -5 80 -12z"/>
<path d="M3650 2107 c0 -2 24 -29 53 -59 28 -30 67 -71 86 -91 39 -43 73 -52
174 -45 88 6 151 26 310 97 23 11 52 22 65 26 12 3 22 10 22 15 0 5 16 12 35
16 19 3 35 10 35 15 0 10 -47 2 -65 -11 -5 -4 -64 -15 -130 -25 -113 -16 -128
-17 -262 -1 -79 9 -153 20 -165 25 -64 25 -158 47 -158 38z"/>
<path d="M5870 1945 c-30 -7 -76 -14 -101 -14 -49 -1 -109 -18 -109 -31 0 -4
24 -10 53 -14 28 -4 69 -10 90 -13 28 -4 37 -2 37 9 0 14 79 58 105 58 7 0 17
5 20 10 8 13 -24 11 -95 -5z"/>
<path d="M4515 1853 c-22 -9 -60 -30 -85 -47 -147 -99 -177 -116 -236 -132
-35 -9 -62 -19 -60 -21 2 -3 37 -8 78 -13 96 -11 144 -23 195 -49 23 -11 52
-21 64 -21 25 0 117 45 133 64 24 30 103 49 171 42 37 -4 65 -3 65 2 0 18
-144 144 -191 168 -56 28 -79 29 -134 7z m122 -79 l35 -26 -33 -34 c-18 -19
-37 -34 -43 -34 -5 0 -25 -12 -44 -26 -50 -39 -110 -43 -147 -11 -26 22 -28
27 -18 50 7 15 29 37 50 50 21 13 44 32 52 41 23 27 107 22 148 -10z"/>
<path d="M5450 1823 c-54 -17 -88 -35 -158 -82 -57 -38 -64 -43 -124 -79 -49
-29 -50 -46 0 -40 23 4 50 17 72 38 71 66 196 115 345 135 l90 11 -32 17 c-39
21 -129 21 -193 0z"/>
<path d="M3470 1780 c-82 -7 -63 -16 68 -30 157 -17 269 -61 259 -102 -6 -21
-12 -21 191 -1 l67 6 -55 13 c-74 16 -123 33 -215 74 -80 35 -195 50 -315 40z"/>
<path d="M4677 1579 c-18 -20 -18 -21 2 -14 11 3 53 6 93 6 91 0 150 8 142 20
-3 5 -53 9 -112 9 -97 0 -109 -2 -125 -21z"/>
<path d="M3000 1579 c-14 -6 -35 -20 -48 -32 -19 -18 -26 -19 -43 -9 -20 13
-39 9 -39 -9 0 -15 -53 -58 -72 -59 -10 0 -25 8 -35 19 -10 10 -36 21 -58 24
-22 4 -57 9 -77 13 -44 7 -48 -4 -12 -35 23 -20 106 -71 144 -88 8 -3 26 -15
39 -24 31 -25 44 -17 158 97 109 109 119 133 43 103z"/>
<path d="M5895 1538 c22 -23 47 -48 55 -54 8 -7 42 -37 75 -68 64 -60 79 -65
116 -38 13 9 33 22 44 29 11 7 39 24 62 38 23 14 57 39 75 55 18 17 38 30 45
30 7 0 13 5 13 10 0 6 -5 10 -12 10 -16 0 -78 -20 -108 -35 -14 -7 -31 -10
-38 -8 -7 3 -18 0 -25 -5 -7 -6 -35 -14 -64 -17 -48 -7 -52 -6 -73 23 -19 26
-28 30 -54 25 -24 -4 -42 2 -70 21 -22 14 -48 26 -59 26 -18 0 -16 -6 18 -42z"/>
<path d="M3090 1549 c0 -12 -7 -35 -15 -52 -8 -18 -19 -59 -24 -92 -5 -33 -15
-79 -21 -102 -12 -40 -11 -44 11 -63 13 -10 31 -19 40 -20 9 0 22 -7 29 -15 7
-8 16 -15 21 -15 5 0 26 -11 47 -24 20 -12 48 -27 62 -31 14 -4 27 -10 30 -14
3 -3 15 -12 28 -19 39 -22 27 23 -15 55 -60 45 -102 94 -105 122 -2 17 -13 30
-30 39 l-28 13 0 120 c0 99 -3 119 -15 119 -9 0 -15 -9 -15 -21z"/>
<path d="M5816 1552 c-4 -8 -5 -63 -1 -123 l7 -111 -28 -29 c-15 -16 -36 -29
-46 -29 -23 0 -36 -29 -18 -40 11 -7 11 -11 0 -25 -8 -10 -24 -21 -37 -26 -25
-9 -64 -65 -62 -89 1 -11 2 -11 6 2 2 9 19 20 36 24 18 4 57 23 87 43 95 61
102 65 136 76 13 4 14 15 9 62 -4 32 -13 72 -20 88 -6 17 -15 48 -19 70 -4 22
-14 47 -21 55 -7 8 -15 26 -17 40 -2 18 -5 21 -12 12z"/>
<path d="M6390 1501 c0 -11 -4 -23 -10 -26 -5 -3 -22 -32 -36 -63 -15 -31 -33
-69 -40 -84 -8 -14 -14 -33 -14 -41 0 -8 -7 -20 -15 -27 -23 -19 -19 -57 8
-71 12 -6 49 -35 82 -64 33 -28 79 -64 103 -79 l42 -26 0 23 c0 13 -15 38 -36
58 -23 22 -33 40 -30 53 3 11 -4 27 -18 40 -29 27 -47 69 -36 86 4 7 3 21 -2
30 -7 11 -7 34 1 76 22 106 23 122 12 128 -7 4 -11 -1 -11 -13z"/>
<path d="M2533 1439 c3 -24 10 -80 17 -124 l11 -80 -31 -25 c-22 -18 -30 -34
-30 -56 0 -20 -9 -39 -26 -55 -39 -36 -70 -119 -44 -119 6 0 10 6 10 13 0 7
15 24 33 37 17 13 69 58 115 99 80 73 83 77 77 111 -4 19 -13 42 -21 51 -8 8
-14 22 -14 30 -1 21 -76 153 -90 157 -9 3 -11 -7 -7 -39z"/>
<path d="M3833 1163 c-7 -2 -13 -12 -13 -20 0 -13 14 -15 92 -12 l91 4 3 -240
c2 -177 0 -241 -9 -247 -18 -11 -65 -10 -73 3 -3 6 -6 101 -5 210 l2 200 -53
-3 c-51 -3 -53 -2 -56 25 -3 20 -8 27 -20 25 -28 -5 -24 -31 11 -69 18 -20 38
-38 44 -40 7 -2 15 -70 22 -174 10 -164 11 -171 36 -192 18 -15 39 -23 65 -23
55 0 80 42 81 136 1 86 13 174 22 154 6 -15 11 -48 25 -169 6 -46 13 -67 27
-77 11 -7 27 -19 35 -26 8 -8 47 -14 95 -16 69 -2 89 2 145 26 60 27 65 31 68
63 7 95 27 106 37 19 9 -76 36 -110 87 -110 41 0 88 39 88 73 0 9 4 25 9 35 6
9 12 29 16 45 8 41 22 33 27 -18 6 -51 22 -75 49 -75 10 0 23 -9 29 -20 13
-25 69 -40 150 -40 80 0 138 25 171 71 21 29 24 44 21 104 -1 39 -2 110 -2
158 0 74 -4 95 -25 138 -42 81 -58 85 -374 87 -200 1 -276 -2 -311 -12 -34
-10 -52 -11 -65 -3 -11 6 -53 11 -95 11 -59 1 -81 -3 -104 -19 -17 -11 -44
-25 -60 -30 -27 -9 -31 -15 -33 -50 -1 -42 -19 -127 -23 -110 -1 6 -1 42 0 81
1 63 -1 74 -25 102 -26 31 -29 32 -108 31 -45 0 -88 -3 -94 -6z m481 -42 c3
-4 18 -11 33 -14 20 -4 37 -20 58 -54 29 -47 30 -50 27 -167 -3 -149 -17 -183
-91 -219 -38 -19 -141 -23 -172 -7 -20 11 -25 45 -9 70 7 12 12 12 22 2 7 -7
38 -12 75 -12 61 0 64 1 83 33 20 32 27 77 13 77 -5 -1 -19 -7 -33 -15 -54
-31 -125 -7 -167 55 -17 25 -23 47 -23 91 0 75 28 124 84 149 44 20 92 25 100
11z m469 -13 c9 -13 -1 -34 -47 -102 -77 -115 -99 -179 -94 -278 3 -84 1 -88
-52 -88 -49 0 -52 21 -24 157 15 76 59 170 100 214 45 47 35 52 -86 47 -121
-6 -138 0 -126 47 l7 26 156 -3 c132 -3 157 -6 166 -20z m238 5 c55 -26 72
-51 77 -108 4 -53 3 -57 -43 -90 -20 -15 -20 -15 8 -38 16 -13 35 -36 43 -51
57 -112 -103 -219 -232 -157 -46 22 -55 32 -73 78 -18 44 -7 80 37 120 35 33
36 35 18 48 -10 8 -24 16 -30 18 -19 6 -13 109 8 137 42 55 124 74 187 43z
m-281 -254 c0 -19 -5 -29 -15 -29 -16 0 -18 12 -9 47 8 31 24 19 24 -18z"/>
<path d="M4226 1029 c-75 -89 18 -218 108 -148 22 17 26 28 26 69 0 39 -5 54
-29 79 -38 40 -71 40 -105 0z"/>
<path d="M4902 1037 c-28 -29 -28 -57 -1 -91 28 -36 80 -36 108 0 12 15 21 34
21 44 0 10 -9 29 -21 44 -27 34 -77 36 -107 3z"/>
<path d="M4907 856 c-44 -22 -38 -113 9 -135 37 -17 60 -14 90 12 22 19 27 32
26 62 -1 22 -8 46 -17 54 -18 18 -77 22 -108 7z"/>
<path d="M3082 1056 c-51 -7 -98 -18 -104 -24 -19 -19 -50 -312 -33 -312 10 0
55 88 55 106 0 25 51 129 64 132 9 2 16 -2 16 -9 0 -7 17 3 38 23 29 28 52 39
105 51 102 23 105 32 12 40 -33 3 -102 0 -153 -7z"/>
<path d="M5677 1039 c-26 -15 -12 -27 41 -35 26 -4 64 -15 84 -25 21 -11 51
-19 68 -19 22 0 30 -5 30 -18 0 -10 -5 -23 -12 -30 -15 -15 5 -40 35 -44 17
-2 27 -17 43 -66 29 -85 40 -94 48 -39 7 44 2 82 -14 122 -4 11 -12 47 -19 79
-6 33 -14 63 -18 67 -14 12 -267 19 -286 8z"/>
<path d="M6160 977 c-30 -68 -68 -170 -75 -202 -3 -16 -15 -37 -27 -46 -17
-13 -18 -17 -5 -22 22 -8 77 50 96 103 14 38 21 45 43 45 28 1 68 41 68 68 0
16 65 27 166 27 33 0 64 3 67 6 4 4 -9 15 -28 26 -24 12 -65 20 -128 24 -50 2
-107 7 -125 9 -30 4 -34 1 -52 -38z"/>
<path d="M2600 1000 c-19 -5 -63 -14 -97 -21 -104 -22 -78 -38 72 -43 87 -3
90 -4 105 -32 13 -22 25 -30 51 -32 32 -3 38 -8 63 -63 31 -68 69 -95 74 -53
2 13 -4 38 -12 56 -9 17 -16 36 -16 42 0 6 -14 38 -30 71 -16 33 -30 66 -30
73 0 14 -121 15 -180 2z"/>
</g>
</svg>
